# Mesh "Chicken_Raw1" exported with Unity Assets Bundle Extractor; 132 vertices, 672 indices, 384 bits per vertex
g Chicken_Raw1
# SubMesh 0
# Vertices
v -10.265892 -14.796557 31.847162
vt 0.120605 0.735126
vn -0.171724 -0.977685 0.121011
v -16.501520 -14.796557 18.188089
vt 0.204358 0.697310
vn -0.198036 -0.977159 0.077084
v -23.762709 -11.707563 23.771029
vt 0.168807 0.649190
vn -0.699861 -0.662274 0.267558
v -16.713432 -11.707563 37.767052
vt 0.081910 0.693153
vn -0.610867 -0.684484 0.397899
v -5.554114 -14.796557 35.139961
vt 0.100316 0.763854
vn -0.080535 -0.992241 0.094723
v -8.232529 -11.707563 47.024651
vt 0.024976 0.746572
vn -0.452709 -0.698379 0.554365
v -8.872879 -14.796557 19.206484
vt 0.197868 0.744040
vn -0.000000 -1.000000 0.000000
v -0.077707 -14.796557 40.837578
vt 0.066181 0.797127
vn 0.005720 -0.989536 0.144174
v -0.185358 -11.707563 51.228981
vt 0.000000 0.797727
vn 0.019398 -0.751453 0.659501
v 5.589320 -14.796557 34.750404
vt 0.102511 0.832038
vn 0.083946 -0.991705 0.097335
v 8.380341 -11.707563 46.502251
vt 0.028498 0.850139
vn 0.451320 -0.700263 0.553120
v 8.915167 -14.796557 19.198000
vt 0.197176 0.853253
vn -0.000000 -1.000000 0.000000
v -0.000004 -14.796557 18.940462
vt 0.199156 0.798398
vn -0.000000 -1.000000 0.000000
v 10.410641 -14.796557 31.092096
vt 0.124563 0.861667
vn 0.168991 -0.978150 0.121100
v 17.153744 -11.707563 37.221977
vt 0.084826 0.905071
vn 0.605582 -0.688129 0.399686
v 16.504004 -14.796557 18.171625
vt 0.203029 0.899652
vn 0.196843 -0.977455 0.076387
v 23.762691 -11.707563 23.771029
vt 0.167054 0.946808
vn 0.698663 -0.665278 0.263202
v 20.148619 -14.796557 6.110247
vt 0.276749 0.922683
vn 0.185202 -0.981741 0.043418
v 28.770615 -11.707563 6.498949
vt 0.273129 0.978950
vn 0.719546 -0.674388 0.165695
v 31.426769 -11.707563 -8.803205
vt 0.367739 0.996057
vn 0.730880 -0.679999 0.058447
v 22.217857 -14.796557 -9.218657
vt 0.370791 0.936020
vn 0.178336 -0.983860 0.014655
v 11.275727 -14.796557 6.337244
vt 0.275821 0.868258
vn -0.000000 -1.000000 0.000000
v 11.947704 -14.796557 -8.997236
vt 0.369817 0.872989
vn -0.000000 -1.000000 0.000000
v -0.000085 -14.796557 6.509142
vt 0.275312 0.799032
vn -0.000000 -1.000000 0.000000
v 0.000082 -14.796557 -8.826765
vt 0.369286 0.799759
vn -0.000000 -1.000000 0.000000
v -11.231973 -14.796557 6.337244
vt 0.276906 0.730162
vn -0.000000 -1.000000 0.000000
v -11.901063 -14.796557 -8.997236
vt 0.370927 0.726845
vn -0.000000 -1.000000 0.000000
v -20.148615 -14.796557 6.110231
vt 0.278733 0.675457
vn -0.184803 -0.981820 0.043319
v -22.217855 -14.796557 -9.218626
vt 0.372934 0.663507
vn -0.177850 -0.983949 0.014593
v -28.770613 -11.707563 6.498949
vt 0.276051 0.618898
vn -0.719523 -0.674415 0.165686
v -31.426777 -11.707563 -8.803205
vt 0.370966 0.603832
vn -0.730557 -0.680350 0.058395
v -31.426777 -11.707563 -26.228979
vt 0.478154 0.605652
vn -0.736001 -0.658573 -0.156794
v -22.217855 -14.796557 -21.122381
vt 0.445829 0.664473
vn -0.186153 -0.981945 -0.033616
v -24.016125 -11.707563 -42.043999
vt 0.574841 0.652093
vn -0.553732 -0.709938 -0.435166
v -18.324879 -14.796557 -34.664917
vt 0.527751 0.689387
vn -0.141864 -0.982804 -0.118199
v -12.742512 -11.707563 -49.257935
vt 0.619538 0.722135
vn -0.223807 -0.758596 -0.611917
v -9.818042 -14.796557 -37.884521
vt 0.547245 0.741010
vn -0.034709 -0.992243 -0.119369
v -11.950772 -14.796557 -21.908888
vt 0.449946 0.727368
vn -0.000000 -1.000000 0.000000
v -0.000004 -11.707563 -51.228981
vt 0.631515 0.801248
vn -0.023593 -0.788395 -0.614717
v 0.064292 -14.796557 -38.869659
vt 0.553058 0.801422
vn -0.003835 -0.993815 -0.110978
v 12.170659 -11.707563 -50.253365
vt 0.624899 0.876564
vn 0.240400 -0.748284 -0.618286
v 9.098206 -14.796557 -38.388885
vt 0.549735 0.856695
vn 0.033731 -0.992445 -0.117961
v -0.000004 -14.796557 -21.445608
vt 0.446532 0.800336
vn -0.000000 -1.000000 0.000000
v 11.997470 -14.796557 -21.861578
vt 0.448594 0.873700
vn -0.000000 -1.000000 0.000000
v 24.631474 -11.707563 -41.128075
vt 0.568285 0.953527
vn 0.548670 -0.724975 -0.416380
v 16.774008 -14.796557 -35.642563
vt 0.532265 0.903322
vn 0.131689 -0.983835 -0.121350
v 31.426769 -11.707563 -26.228979
vt 0.475941 0.996057
vn 0.718918 -0.678828 -0.149495
v 22.217857 -14.796557 -21.030676
vt 0.443243 0.936306
vn 0.186795 -0.981683 -0.037487
v -16.713432 0.963084 37.767052
vt 0.137410 0.402680
vn -0.672641 0.590556 0.445869
v -23.762709 0.963084 23.771029
vt 0.212974 0.455404
vn -0.779249 0.550658 0.299242
v -17.081940 8.553346 18.875376
vt 0.251326 0.402062
vn -0.528436 0.824269 0.203312
v -12.027061 8.553346 28.502695
vt 0.199351 0.369830
vn -0.471940 0.826331 0.307325
v -8.232529 0.963084 47.024651
vt 0.094663 0.352215
vn -0.518637 0.619246 0.589533
v -5.750191 8.553346 36.423164
vt 0.159828 0.334438
vn -0.353597 0.872482 0.337260
v -9.185692 11.231624 19.929277
vt 0.248240 0.354616
vn -0.280282 0.950333 0.135315
v -17.400644 -4.736875 39.719551
vt 0.107563 0.424120
vn -0.829751 -0.000398 0.558134
v -8.602893 -4.736875 49.189522
vt 0.062452 0.362290
vn -0.625242 -0.000486 0.780430
v -16.713432 -11.707563 37.767052
vt 0.077260 0.464238
vn -0.610867 -0.684484 0.397899
v -8.232529 -11.707563 47.024651
vt 0.023312 0.388539
vn -0.452709 -0.698379 0.554365
v -23.762709 -11.707563 23.771029
vt 0.170658 0.534288
vn -0.699861 -0.662274 0.267558
v -24.829090 -4.736875 24.892946
vt 0.191686 0.486916
vn -0.933517 -0.000247 0.358534
v -0.185358 -11.707563 51.228981
vt 0.000000 0.321036
vn 0.019398 -0.751453 0.659501
v -0.185358 -4.736875 53.472801
vt 0.049447 0.315046
vn 0.030960 -0.001179 0.999520
v 8.380341 -11.707563 46.502251
vt 0.000000 0.236148
vn 0.451320 -0.700263 0.553120
v 8.755498 -4.736875 48.643700
vt 0.056115 0.257561
vn 0.623164 -0.000418 0.782091
v -0.185358 0.963084 51.228981
vt 0.079695 0.311239
vn 0.021746 0.668392 0.743491
v 8.380341 0.963084 46.502251
vt 0.091464 0.263460
vn 0.516936 0.616876 0.593498
v -0.080440 8.553346 42.157234
vt 0.133581 0.304628
vn 0.011102 0.908672 0.417364
v 5.785195 8.553346 36.019936
vt 0.159140 0.272311
vn 0.353383 0.870602 0.342304
v -0.000004 13.909904 19.654207
vt 0.251579 0.301326
vn 0.001330 0.989932 0.141539
v 9.228030 11.231624 19.920488
vt 0.246726 0.248334
vn 0.279535 0.950450 0.136034
v 17.849854 -4.736875 39.129036
vt 0.095991 0.181753
vn 0.826318 -0.000403 0.563204
v 17.153744 -11.707563 37.221977
vt 0.058521 0.138653
vn 0.605582 -0.688129 0.399686
v 24.829082 -4.736875 24.892946
vt 0.180664 0.112625
vn 0.935733 -0.000237 0.352710
v 23.762691 -11.707563 23.771029
vt 0.157529 0.062106
vn 0.698663 -0.665278 0.263202
v 23.762691 0.963084 23.771029
vt 0.204551 0.144958
vn 0.782350 0.548979 0.294194
v 17.153744 0.963084 37.221977
vt 0.130507 0.202652
vn 0.669545 0.590886 0.450070
v 12.418912 8.553346 28.188578
vt 0.197393 0.232398
vn 0.467374 0.828039 0.309699
v 17.084522 8.553346 18.858332
vt 0.248292 0.200112
vn 0.528821 0.824949 0.199518
v 28.770657 0.963084 6.498438
vt 0.315619 0.104980
vn 0.809676 0.557593 0.183071
v 20.876389 8.557063 6.101191
vt 0.323463 0.174650
vn 0.527113 0.842346 0.112271
v 23.079485 8.481162 -9.224936
vt 0.414655 0.162853
vn 0.513640 0.857300 0.034801
v 31.426769 0.963084 -8.802694
vt 0.416295 0.093331
vn 0.819216 0.569844 0.064528
v 30.090841 -4.736875 6.496286
vt 0.308383 0.064195
vn 0.973556 -0.000189 0.228450
v 32.837101 -4.736875 -8.800528
vt 0.418580 0.054186
vn 0.996822 -0.000277 0.079661
v 12.362722 11.665542 -8.997793
vt 0.411040 0.228001
vn 0.260464 0.965472 -0.004699
v 11.654831 11.533252 6.336435
vt 0.323380 0.231701
vn 0.283051 0.958112 0.043621
v 28.770615 -11.707563 6.498949
vt 0.294279 0.010986
vn 0.719546 -0.674388 0.165695
v 31.426769 -11.707563 -8.803205
vt 0.420361 0.000000
vn 0.730880 -0.679999 0.058447
v -0.000368 14.796557 -8.820555
vt 0.409184 0.299599
vn -0.000069 0.999868 -0.016223
v 0.000328 14.750506 6.515261
vt 0.323859 0.300410
vn 0.000014 0.999354 0.035947
v -12.316110 11.665803 -8.997793
vt 0.412038 0.370718
vn -0.260420 0.965484 -0.004679
v -11.611132 11.533767 6.336451
vt 0.324592 0.369163
vn -0.283008 0.958127 0.043572
v -23.079042 8.481555 -9.224936
vt 0.416431 0.435238
vn -0.512630 0.857910 0.034650
v -20.876789 8.556672 6.101175
vt 0.325655 0.426326
vn -0.526267 0.842901 0.112079
v -31.426777 0.963084 -8.802694
vt 0.418372 0.504540
vn -0.819081 0.570045 0.064461
v -28.770666 0.963085 6.498438
vt 0.319542 0.494104
vn -0.809675 0.557597 0.183062
v -32.837101 -4.736875 -8.800528
vt 0.420125 0.544590
vn -0.996822 -0.000278 0.079661
v -30.090845 -4.736875 6.496286
vt 0.312796 0.532775
vn -0.973556 -0.000190 0.228449
v -31.426777 -11.707563 -8.803205
vt 0.420751 0.597854
vn -0.730557 -0.680350 0.058395
v -28.770613 -11.707563 6.498949
vt 0.298584 0.583745
vn -0.719523 -0.674415 0.165686
v -22.999334 8.553346 -21.817793
vt 0.487861 0.428356
vn -0.493504 0.861869 -0.116772
v -31.426777 0.963084 -26.228979
vt 0.524179 0.488903
vn -0.783400 0.595964 -0.176386
v -16.710737 8.553346 -34.891624
vt 0.556374 0.390094
vn -0.350658 0.883624 -0.310238
v -24.016125 0.963086 -42.043999
vt 0.609051 0.434253
vn -0.598335 0.651320 -0.466667
v -8.946891 8.553346 -38.682281
vt 0.575255 0.346448
vn -0.163796 0.909967 -0.380961
v -12.742512 0.963084 -49.257935
vt 0.646854 0.368691
vn -0.259857 0.676326 -0.689245
v -12.371947 11.231624 -22.632269
vt 0.487487 0.367611
vn -0.200224 0.972903 -0.115631
v -25.079107 -4.736874 -43.979179
vt 0.638871 0.457851
vn -0.777873 -0.001013 -0.628420
v -32.837101 -4.736875 -27.350889
vt 0.542621 0.522119
vn -0.975515 -0.000876 -0.219933
v -24.016125 -11.707563 -42.043999
vt 0.674614 0.500145
vn -0.553732 -0.709938 -0.435166
v -12.742512 -11.707563 -49.257935
vt 0.741369 0.403570
vn -0.223807 -0.758596 -0.611917
v -13.315392 -4.736875 -51.413879
vt 0.684096 0.380852
vn -0.358962 -0.000515 -0.933352
v -31.426777 -11.707563 -26.228979
vt 0.556679 0.573531
vn -0.736001 -0.658573 -0.156794
v -0.000004 13.909904 -22.152388
vt 0.481838 0.298915
vn -0.001618 0.989745 -0.142835
v 0.066546 8.553346 -40.189301
vt 0.582781 0.296955
vn -0.011346 0.919978 -0.391806
v 12.418646 11.231624 -22.583296
vt 0.486895 0.230575
vn 0.201523 0.972645 -0.115547
v 8.723295 8.553346 -39.513214
vt 0.578467 0.250745
vn 0.172703 0.908337 -0.380916
v -0.000004 0.963084 -51.228981
vt 0.658270 0.294180
vn -0.030009 0.686686 -0.726335
v 12.170659 0.963084 -50.253365
vt 0.647237 0.225590
vn 0.280433 0.686166 -0.671218
v -0.000004 -4.736875 -53.472801
vt 0.697741 0.292399
vn -0.039645 -0.000265 -0.999214
v 12.715795 -4.736875 -52.453987
vt 0.681421 0.212723
vn 0.380155 -0.000662 -0.924923
v -0.000004 -11.707563 -51.228981
vt 0.756046 0.290138
vn -0.023593 -0.788395 -0.614717
v 12.170659 -11.707563 -50.253365
vt 0.729939 0.189317
vn 0.240400 -0.748284 -0.618286
v 22.999334 8.553346 -21.722853
vt 0.486638 0.170849
vn 0.492305 0.863130 -0.112440
v 17.208668 8.553346 -33.390930
vt 0.548178 0.204885
vn 0.359885 0.882218 -0.303603
v 24.631474 0.963084 -41.128075
vt 0.598815 0.157452
vn 0.598344 0.653913 -0.463013
v 31.426769 0.963084 -26.228979
vt 0.520588 0.111010
vn 0.784745 0.596436 -0.168639
v 25.642956 -4.736875 -43.149849
vt 0.627645 0.133803
vn 0.780053 -0.000960 -0.625713
v 32.837101 -4.736875 -27.350889
vt 0.537672 0.078051
vn 0.977936 -0.000864 -0.208901
v 31.426769 -11.707563 -26.228979
vt 0.552081 0.028200
vn 0.718918 -0.678828 -0.149495
v 24.631474 -11.707563 -41.128075
vt 0.655711 0.093728
vn 0.548670 -0.724975 -0.416380
# Faces (1 to 132)
g Chicken_Raw1_0
f -130/-130/-130 -131/-131/-131 -132/-132/-132
f -129/-129/-129 -130/-130/-130 -132/-132/-132
f -132/-132/-132 -128/-128/-128 -129/-129/-129
f -128/-128/-128 -132/-132/-132 -131/-131/-131
f -128/-128/-128 -127/-127/-127 -129/-129/-129
f -126/-126/-126 -128/-128/-128 -131/-131/-131
f -128/-128/-128 -125/-125/-125 -127/-127/-127
f -125/-125/-125 -124/-124/-124 -127/-127/-127
f -125/-125/-125 -123/-123/-123 -124/-124/-124
f -123/-123/-123 -122/-122/-122 -124/-124/-124
f -121/-121/-121 -123/-123/-123 -125/-125/-125
f -120/-120/-120 -121/-121/-121 -125/-125/-125
f -120/-120/-120 -125/-125/-125 -128/-128/-128
f -126/-126/-126 -120/-120/-120 -128/-128/-128
f -123/-123/-123 -119/-119/-119 -122/-122/-122
f -119/-119/-119 -118/-118/-118 -122/-122/-122
f -118/-118/-118 -119/-119/-119 -117/-117/-117
f -117/-117/-117 -119/-119/-119 -123/-123/-123
f -121/-121/-121 -117/-117/-117 -123/-123/-123
f -116/-116/-116 -118/-118/-118 -117/-117/-117
f -116/-116/-116 -117/-117/-117 -115/-115/-115
f -115/-115/-115 -117/-117/-117 -121/-121/-121
f -114/-114/-114 -116/-116/-116 -115/-115/-115
f -114/-114/-114 -115/-115/-115 -113/-113/-113
f -115/-115/-115 -112/-112/-112 -113/-113/-113
f -115/-115/-115 -111/-111/-111 -112/-112/-112
f -111/-111/-111 -121/-121/-121 -120/-120/-120
f -111/-111/-111 -115/-115/-115 -121/-121/-121
f -111/-111/-111 -110/-110/-110 -112/-112/-112
f -110/-110/-110 -111/-111/-111 -109/-109/-109
f -109/-109/-109 -111/-111/-111 -120/-120/-120
f -108/-108/-108 -110/-110/-110 -109/-109/-109
f -109/-109/-109 -107/-107/-107 -108/-108/-108
f -107/-107/-107 -106/-106/-106 -108/-108/-108
f -106/-106/-106 -107/-107/-107 -105/-105/-105
f -104/-104/-104 -106/-106/-106 -105/-105/-105
f -104/-104/-104 -105/-105/-105 -103/-103/-103
f -102/-102/-102 -104/-104/-104 -103/-103/-103
f -104/-104/-104 -102/-102/-102 -101/-101/-101
f -100/-100/-100 -104/-104/-104 -101/-101/-101
f -106/-106/-106 -104/-104/-104 -100/-100/-100
f -100/-100/-100 -101/-101/-101 -99/-99/-99
f -98/-98/-98 -100/-100/-100 -99/-99/-99
f -99/-99/-99 -97/-97/-97 -98/-98/-98
f -97/-97/-97 -96/-96/-96 -98/-98/-98
f -95/-95/-95 -100/-100/-100 -98/-98/-98
f -96/-96/-96 -95/-95/-95 -98/-98/-98
f -95/-95/-95 -106/-106/-106 -100/-100/-100
f -97/-97/-97 -94/-94/-94 -96/-96/-96
f -94/-94/-94 -93/-93/-93 -96/-96/-96
f -96/-96/-96 -93/-93/-93 -95/-95/-95
f -94/-94/-94 -92/-92/-92 -93/-93/-93
f -92/-92/-92 -91/-91/-91 -93/-93/-93
f -93/-93/-93 -91/-91/-91 -90/-90/-90
f -93/-93/-93 -90/-90/-90 -95/-95/-95
f -91/-91/-91 -89/-89/-89 -90/-90/-90
f -92/-92/-92 -88/-88/-88 -91/-91/-91
f -88/-88/-88 -87/-87/-87 -91/-91/-91
f -91/-91/-91 -87/-87/-87 -89/-89/-89
f -88/-88/-88 -86/-86/-86 -87/-87/-87
f -86/-86/-86 -85/-85/-85 -87/-87/-87
f -87/-87/-87 -85/-85/-85 -89/-89/-89
f -86/-86/-86 -113/-113/-113 -85/-85/-85
f -113/-113/-113 -112/-112/-112 -85/-85/-85
f -90/-90/-90 -89/-89/-89 -108/-108/-108
f -89/-89/-89 -110/-110/-110 -108/-108/-108
f -85/-85/-85 -112/-112/-112 -110/-110/-110
f -89/-89/-89 -85/-85/-85 -110/-110/-110
f -90/-90/-90 -108/-108/-108 -106/-106/-106
f -95/-95/-95 -90/-90/-90 -106/-106/-106
f -82/-82/-82 -83/-83/-83 -84/-84/-84
f -81/-81/-81 -82/-82/-82 -84/-84/-84
f -84/-84/-84 -80/-80/-80 -81/-81/-81
f -80/-80/-80 -79/-79/-79 -81/-81/-81
f -78/-78/-78 -82/-82/-82 -81/-81/-81
f -79/-79/-79 -78/-78/-78 -81/-81/-81
f -80/-80/-80 -84/-84/-84 -77/-77/-77
f -77/-77/-77 -84/-84/-84 -83/-83/-83
f -76/-76/-76 -80/-80/-80 -77/-77/-77
f -76/-76/-76 -77/-77/-77 -75/-75/-75
f -74/-74/-74 -76/-76/-76 -75/-75/-75
f -73/-73/-73 -75/-75/-75 -77/-77/-77
f -72/-72/-72 -73/-73/-73 -77/-77/-77
f -72/-72/-72 -77/-77/-77 -83/-83/-83
f -74/-74/-74 -71/-71/-71 -76/-76/-76
f -71/-71/-71 -70/-70/-70 -76/-76/-76
f -76/-76/-76 -70/-70/-70 -80/-80/-80
f -70/-70/-70 -71/-71/-71 -69/-69/-69
f -68/-68/-68 -70/-70/-70 -69/-69/-69
f -70/-70/-70 -68/-68/-68 -67/-67/-67
f -70/-70/-70 -67/-67/-67 -80/-80/-80
f -80/-80/-80 -67/-67/-67 -79/-79/-79
f -68/-68/-68 -66/-66/-66 -67/-67/-67
f -67/-67/-67 -66/-66/-66 -65/-65/-65
f -67/-67/-67 -65/-65/-65 -79/-79/-79
f -79/-79/-79 -65/-65/-65 -78/-78/-78
f -66/-66/-66 -64/-64/-64 -65/-65/-65
f -65/-65/-65 -64/-64/-64 -63/-63/-63
f -65/-65/-65 -63/-63/-63 -78/-78/-78
f -64/-64/-64 -62/-62/-62 -63/-63/-63
f -68/-68/-68 -69/-69/-69 -61/-61/-61
f -68/-68/-68 -61/-61/-61 -66/-66/-66
f -69/-69/-69 -60/-60/-60 -61/-61/-61
f -59/-59/-59 -61/-61/-61 -60/-60/-60
f -58/-58/-58 -59/-59/-59 -60/-60/-60
f -59/-59/-59 -57/-57/-57 -61/-61/-61
f -57/-57/-57 -56/-56/-56 -61/-61/-61
f -61/-61/-61 -56/-56/-56 -66/-66/-66
f -66/-66/-66 -56/-56/-56 -64/-64/-64
f -56/-56/-56 -57/-57/-57 -55/-55/-55
f -56/-56/-56 -55/-55/-55 -64/-64/-64
f -64/-64/-64 -55/-55/-55 -62/-62/-62
f -57/-57/-57 -54/-54/-54 -55/-55/-55
f -55/-55/-55 -54/-54/-54 -62/-62/-62
f -57/-57/-57 -53/-53/-53 -54/-54/-54
f -53/-53/-53 -52/-52/-52 -54/-54/-54
f -51/-51/-51 -52/-52/-52 -53/-53/-53
f -50/-50/-50 -51/-51/-51 -53/-53/-53
f -53/-53/-53 -49/-49/-49 -50/-50/-50
f -59/-59/-59 -58/-58/-58 -49/-49/-49
f -49/-49/-49 -53/-53/-53 -57/-57/-57
f -59/-59/-59 -49/-49/-49 -57/-57/-57
f -49/-49/-49 -48/-48/-48 -50/-50/-50
f -51/-51/-51 -47/-47/-47 -52/-52/-52
f -47/-47/-47 -46/-46/-46 -52/-52/-52
f -54/-54/-54 -52/-52/-52 -46/-46/-46
f -48/-48/-48 -49/-49/-49 -45/-45/-45
f -58/-58/-58 -45/-45/-45 -49/-49/-49
f -44/-44/-44 -48/-48/-48 -45/-45/-45
f -47/-47/-47 -43/-43/-43 -46/-46/-46
f -43/-43/-43 -42/-42/-42 -46/-46/-46
f -42/-42/-42 -43/-43/-43 -41/-41/-41
f -40/-40/-40 -42/-42/-42 -41/-41/-41
f -40/-40/-40 -41/-41/-41 -39/-39/-39
f -38/-38/-38 -40/-40/-40 -39/-39/-39
f -39/-39/-39 -37/-37/-37 -38/-38/-38
f -37/-37/-37 -36/-36/-36 -38/-38/-38
f -37/-37/-37 -35/-35/-35 -36/-36/-36
f -35/-35/-35 -34/-34/-34 -36/-36/-36
f -34/-34/-34 -35/-35/-35 -33/-33/-33
f -32/-32/-32 -34/-34/-34 -33/-33/-33
f -38/-38/-38 -36/-36/-36 -83/-83/-83
f -82/-82/-82 -38/-38/-38 -83/-83/-83
f -40/-40/-40 -38/-38/-38 -82/-82/-82
f -39/-39/-39 -31/-31/-31 -37/-37/-37
f -31/-31/-31 -30/-30/-30 -37/-37/-37
f -35/-35/-35 -37/-37/-37 -30/-30/-30
f -30/-30/-30 -31/-31/-31 -29/-29/-29
f -28/-28/-28 -30/-30/-30 -29/-29/-29
f -29/-29/-29 -27/-27/-27 -28/-28/-28
f -27/-27/-27 -29/-29/-29 -31/-31/-31
f -27/-27/-27 -26/-26/-26 -28/-28/-28
f -25/-25/-25 -27/-27/-27 -31/-31/-31
f -30/-30/-30 -28/-28/-28 -24/-24/-24
f -23/-23/-23 -30/-30/-30 -24/-24/-24
f -23/-23/-23 -35/-35/-35 -30/-30/-30
f -23/-23/-23 -24/-24/-24 -22/-22/-22
f -21/-21/-21 -22/-22/-22 -24/-24/-24
f -20/-20/-20 -21/-21/-21 -24/-24/-24
f -20/-20/-20 -24/-24/-24 -28/-28/-28
f -26/-26/-26 -20/-20/-20 -28/-28/-28
f -19/-19/-19 -23/-23/-23 -22/-22/-22
f -25/-25/-25 -18/-18/-18 -27/-27/-27
f -18/-18/-18 -17/-17/-17 -27/-27/-27
f -27/-27/-27 -17/-17/-17 -26/-26/-26
f -18/-18/-18 -16/-16/-16 -17/-17/-17
f -16/-16/-16 -15/-15/-15 -17/-17/-17
f -17/-17/-17 -15/-15/-15 -14/-14/-14
f -17/-17/-17 -14/-14/-14 -26/-26/-26
f -26/-26/-26 -14/-14/-14 -20/-20/-20
f -15/-15/-15 -13/-13/-13 -14/-14/-14
f -12/-12/-12 -14/-14/-14 -13/-13/-13
f -14/-14/-14 -12/-12/-12 -20/-20/-20
f -20/-20/-20 -12/-12/-12 -21/-21/-21
f -11/-11/-11 -12/-12/-12 -13/-13/-13
f -12/-12/-12 -11/-11/-11 -10/-10/-10
f -12/-12/-12 -10/-10/-10 -21/-21/-21
f -11/-11/-11 -9/-9/-9 -10/-10/-10
f -16/-16/-16 -8/-8/-8 -15/-15/-15
f -8/-8/-8 -7/-7/-7 -15/-15/-15
f -15/-15/-15 -7/-7/-7 -13/-13/-13
f -6/-6/-6 -7/-7/-7 -8/-8/-8
f -7/-7/-7 -6/-6/-6 -13/-13/-13
f -5/-5/-5 -6/-6/-6 -8/-8/-8
f -4/-4/-4 -6/-6/-6 -5/-5/-5
f -13/-13/-13 -6/-6/-6 -4/-4/-4
f -11/-11/-11 -13/-13/-13 -4/-4/-4
f -11/-11/-11 -4/-4/-4 -9/-9/-9
f -3/-3/-3 -4/-4/-4 -5/-5/-5
f -3/-3/-3 -2/-2/-2 -4/-4/-4
f -2/-2/-2 -1/-1/-1 -4/-4/-4
f -4/-4/-4 -1/-1/-1 -9/-9/-9
f -5/-5/-5 -8/-8/-8 -51/-51/-51
f -50/-50/-50 -5/-5/-5 -51/-51/-51
f -3/-3/-3 -5/-5/-5 -50/-50/-50
f -44/-44/-44 -2/-2/-2 -3/-3/-3
f -48/-48/-48 -44/-44/-44 -3/-3/-3
f -48/-48/-48 -3/-3/-3 -50/-50/-50
f -51/-51/-51 -8/-8/-8 -16/-16/-16
f -47/-47/-47 -51/-51/-51 -16/-16/-16
f -47/-47/-47 -16/-16/-16 -18/-18/-18
f -43/-43/-43 -47/-47/-47 -18/-18/-18
f -43/-43/-43 -18/-18/-18 -25/-25/-25
f -41/-41/-41 -43/-43/-43 -25/-25/-25
f -41/-41/-41 -25/-25/-25 -39/-39/-39
f -25/-25/-25 -31/-31/-31 -39/-39/-39
f -131/-131/-131 -130/-130/-130 -103/-103/-103
f -105/-105/-105 -131/-131/-131 -103/-103/-103
f -126/-126/-126 -131/-131/-131 -105/-105/-105
f -107/-107/-107 -126/-126/-126 -105/-105/-105
f -107/-107/-107 -109/-109/-109 -126/-126/-126
f -109/-109/-109 -120/-120/-120 -126/-126/-126
f -19/-19/-19 -33/-33/-33 -35/-35/-35
f -23/-23/-23 -19/-19/-19 -35/-35/-35
f -78/-78/-78 -40/-40/-40 -82/-82/-82
f -78/-78/-78 -63/-63/-63 -40/-40/-40
f -63/-63/-63 -42/-42/-42 -40/-40/-40
f -63/-63/-63 -62/-62/-62 -42/-42/-42
f -62/-62/-62 -46/-46/-46 -42/-42/-42
f -62/-62/-62 -54/-54/-54 -46/-46/-46
f -32/-32/-32 -73/-73/-73 -72/-72/-72
f -34/-34/-34 -32/-32/-32 -72/-72/-72
f -34/-34/-34 -72/-72/-72 -36/-36/-36
f -72/-72/-72 -83/-83/-83 -36/-36/-36

