# Mesh "Fish_Fillet1" exported with Unity Assets Bundle Extractor; 148 vertices, 636 indices, 384 bits per vertex
g Fish_Fillet1
# SubMesh 0
# Vertices
v 0.237002 0.168556 -0.461779
vt 0.668515 0.570420
vn 0.543581 0.836220 -0.072494
v 0.250497 0.172851 -0.318982
vt 0.564095 0.563798
vn 0.556047 0.829685 -0.049340
v 0.143016 0.210456 -0.318844
vt 0.564987 0.645706
vn 0.097498 0.994929 -0.024711
v 0.135225 0.205003 -0.465747
vt 0.671737 0.649821
vn 0.105139 0.993470 -0.044306
v -0.003806 0.197037 -0.318793
vt 0.565739 0.751599
vn -0.000000 0.999880 -0.015475
v -0.003806 0.192921 -0.443471
vt 0.656123 0.751843
vn -0.000000 0.999469 -0.032582
v -0.150627 0.210455 -0.318844
vt 0.564643 0.857209
vn -0.097499 0.994929 -0.024712
v -0.142836 0.205003 -0.465747
vt 0.670603 0.853902
vn -0.105140 0.993470 -0.044306
v -0.258108 0.172851 -0.318981
vt 0.563895 0.938486
vn -0.556048 0.829684 -0.049340
v -0.244613 0.168556 -0.461779
vt 0.666568 0.932362
vn -0.543581 0.836220 -0.072494
v -0.297448 0.111270 -0.319170
vt 0.565089 0.990735
vn -0.996804 -0.006500 -0.079627
v -0.281866 0.112312 -0.462188
vt 0.668263 0.980932
vn -0.992180 -0.055285 -0.111903
v 0.274255 0.112312 -0.462188
vt 0.670512 0.520723
vn 0.992180 -0.055285 -0.111903
v 0.289837 0.111270 -0.319170
vt 0.565160 0.510474
vn 0.996804 -0.006502 -0.079627
v 0.147784 0.211373 -0.147682
vt 0.442937 0.643779
vn 0.097431 0.995240 0.002062
v 0.258755 0.174055 -0.147682
vt 0.441467 0.560793
vn 0.566677 0.823860 0.011471
v -0.003806 0.197384 -0.147682
vt 0.443601 0.751558
vn -0.000000 1.000000 -0.000725
v -0.155395 0.211373 -0.147682
vt 0.443275 0.859178
vn -0.097431 0.995240 0.002062
v -0.266365 0.174055 -0.147682
vt 0.442635 0.941719
vn -0.566678 0.823860 0.011471
v -0.306984 0.111222 -0.147682
vt 0.441640 0.995104
vn -0.999756 -0.001086 0.022052
v 0.299373 0.111222 -0.147682
vt 0.439801 0.506847
vn 0.999756 -0.001086 0.022052
v 0.138838 0.210509 0.023064
vt 0.322667 0.651134
vn 0.100461 0.994526 0.028722
v 0.243261 0.172915 0.023429
vt 0.320505 0.572888
vn 0.570031 0.817573 0.081486
v -0.003806 0.197076 0.022930
vt 0.323120 0.751747
vn -0.000000 0.999948 0.010247
v -0.146450 0.210509 0.023064
vt 0.323336 0.852488
vn -0.100461 0.994526 0.028722
v -0.250872 0.172915 0.023429
vt 0.322177 0.930529
vn -0.570031 0.817572 0.081487
v -0.289094 0.111341 0.023928
vt 0.317894 0.982241
vn -0.990018 -0.004396 0.140875
v 0.281483 0.111341 0.023928
vt 0.315511 0.521174
vn 0.990018 -0.004396 0.140875
v 0.124277 0.206203 0.151647
vt 0.232641 0.661789
vn 0.110710 0.991562 0.067435
v 0.218040 0.169682 0.159081
vt 0.224882 0.591202
vn 0.575627 0.804861 0.144402
v -0.003806 0.193958 0.148926
vt 0.234358 0.751938
vn -0.000000 0.999313 0.037052
v -0.131888 0.206203 0.151647
vt 0.233277 0.842388
vn -0.110710 0.991562 0.067436
v -0.225651 0.169682 0.159081
vt 0.226429 0.912970
vn -0.575627 0.804861 0.144403
v -0.259971 0.113715 0.169236
vt 0.213270 0.958753
vn -0.972129 0.009627 0.234248
v 0.252360 0.113715 0.169236
vt 0.211124 0.545722
vn 0.972129 0.009627 0.234248
v 0.104633 0.199212 0.257755
vt 0.158548 0.675319
vn 0.086738 0.985535 0.145593
v 0.184015 0.166416 0.275395
vt 0.142870 0.615859
vn 0.525472 0.826479 0.202019
v -0.003806 0.187198 0.251299
vt 0.161758 0.752167
vn 0.000004 0.992126 0.125245
v -0.112244 0.199212 0.257755
vt 0.159028 0.828908
vn -0.086802 0.985518 0.145673
v -0.191627 0.166416 0.275395
vt 0.144097 0.888802
vn -0.525458 0.826452 0.202164
v -0.220683 0.120448 0.299492
vt 0.120563 0.924682
vn -0.952551 0.067662 0.296762
v 0.213072 0.120448 0.299492
vt 0.119031 0.580542
vn 0.952535 0.067692 0.296807
v 0.088551 0.175557 0.356917
vt 0.086439 0.685489
vn 0.047472 0.974823 0.217868
v 0.157277 0.154868 0.372547
vt 0.072983 0.634449
vn 0.414959 0.876920 0.242531
v -0.003795 0.165519 0.351636
vt 0.088359 0.752328
vn -0.000000 0.979458 0.201647
v -0.096140 0.175557 0.356917
vt 0.086661 0.819026
vn -0.047763 0.974775 0.218020
v -0.164961 0.154799 0.372395
vt 0.073605 0.870490
vn -0.415062 0.876834 0.242665
v -0.191865 0.125421 0.393679
vt 0.053862 0.896916
vn -0.914379 0.223932 0.337292
v 0.184126 0.125543 0.393867
vt 0.053039 0.608637
vn 0.912406 0.228037 0.339875
v 0.069973 0.150810 0.471994
vt 0.001083 0.698087
vn 0.020065 0.977679 0.209142
v 0.127852 0.138453 0.470122
vt 0.001068 0.654929
vn 0.309022 0.918005 0.248540
v -0.003781 0.144305 0.463361
vt 0.005865 0.752312
vn -0.000008 0.981851 0.189652
v -0.077534 0.150810 0.471994
vt 0.000748 0.806744
vn -0.019105 0.977725 0.209018
v -0.136766 0.138453 0.468550
vt 0.001853 0.851302
vn -0.312033 0.916925 0.248764
v -0.161319 0.122883 0.467763
vt 0.000000 0.872655
vn -0.871522 0.274828 0.406102
v 0.153542 0.123029 0.468037
vt 0.000000 0.633098
vn 0.848335 0.333005 0.411625
v -0.281866 0.112312 -0.462188
vt 0.686733 0.010988
vn -0.992180 -0.055285 -0.111903
v -0.297448 0.111270 -0.319170
vt 0.579068 0.001898
vn -0.996804 -0.006500 -0.079627
v -0.258108 0.044731 -0.319358
vt 0.578421 0.059216
vn -0.606090 -0.792564 -0.067058
v -0.244613 0.053884 -0.480496
vt 0.698471 0.063632
vn -0.559693 -0.822911 -0.097785
v -0.150627 -0.004024 -0.319496
vt 0.579927 0.144802
vn -0.161020 -0.985261 -0.057741
v -0.142836 0.011706 -0.498165
vt 0.711790 0.146329
vn -0.150353 -0.984355 -0.091862
v -0.003806 0.002339 -0.319547
vt 0.582222 0.250571
vn -0.000000 -0.998578 -0.053319
v -0.003806 0.016916 -0.480905
vt 0.700794 0.249985
vn -0.000000 -0.996143 -0.087742
v 0.143016 -0.004024 -0.319496
vt 0.581659 0.355996
vn 0.161019 -0.985261 -0.057741
v 0.135225 0.011706 -0.498165
vt 0.711790 0.353384
vn 0.150353 -0.984355 -0.091862
v 0.250497 0.044731 -0.319358
vt 0.582074 0.440476
vn 0.606089 -0.792565 -0.067058
v 0.237002 0.053884 -0.480496
vt 0.698989 0.434393
vn 0.559692 -0.822911 -0.097785
v 0.289837 0.111270 -0.319170
vt 0.584031 0.496211
vn 0.996804 -0.006502 -0.079627
v 0.274255 0.112312 -0.462188
vt 0.688274 0.485486
vn 0.992180 -0.055285 -0.111903
v -0.266365 0.042564 -0.147682
vt 0.454293 0.058235
vn -0.626225 -0.779540 0.012616
v -0.306984 0.111222 -0.147682
vt 0.451277 0.000000
vn -0.999756 -0.001086 0.022052
v -0.155395 -0.007774 -0.147682
vt 0.457480 0.144781
vn -0.170404 -0.985369 0.003175
v -0.003806 -0.001117 -0.147682
vt 0.459560 0.251714
vn -0.000000 -1.000000 -0.000229
v 0.147784 -0.007774 -0.147682
vt 0.460163 0.358480
vn 0.170404 -0.985369 0.003175
v 0.258755 0.042564 -0.147682
vt 0.459953 0.444376
vn 0.626224 -0.779541 0.012616
v 0.299373 0.111222 -0.147682
vt 0.459102 0.501829
vn 0.999756 -0.001086 0.022052
v -0.250872 0.044802 0.024427
vt 0.332307 0.072988
vn -0.619258 -0.778087 0.105358
v -0.289094 0.111341 0.023928
vt 0.325388 0.017864
vn -0.990018 -0.004396 0.140875
v -0.146450 -0.003953 0.024792
vt 0.336974 0.153850
vn -0.166685 -0.983422 0.071396
v -0.003806 0.002396 0.024925
vt 0.338352 0.253160
vn -0.000000 -0.998338 0.057636
v 0.138838 -0.003953 0.024792
vt 0.339846 0.352565
vn 0.166685 -0.983422 0.071396
v 0.243261 0.044802 0.024427
vt 0.338258 0.433487
vn 0.619257 -0.778087 0.105358
v 0.281483 0.111341 0.023928
vt 0.333544 0.488831
vn 0.990018 -0.004396 0.140875
v -0.225651 0.055578 0.179391
vt 0.223440 0.093761
vn -0.610157 -0.767392 0.197022
v -0.259971 0.113715 0.169236
vt 0.220582 0.045002
vn -0.972129 0.009627 0.234248
v -0.131888 0.013543 0.186825
vt 0.224317 0.165567
vn -0.166279 -0.973806 0.155093
v -0.003806 0.018400 0.189546
vt 0.222971 0.254475
vn -0.000000 -0.990691 0.136132
v 0.124277 0.013543 0.186825
vt 0.226424 0.343675
vn 0.166279 -0.973806 0.155093
v 0.218040 0.055578 0.179391
vt 0.227922 0.416250
vn 0.610157 -0.767393 0.197021
v 0.252360 0.113715 0.169236
vt 0.226758 0.465817
vn 0.972129 0.009627 0.234248
v -0.191627 0.075447 0.323589
vt 0.121858 0.118956
vn -0.590617 -0.763768 0.260440
v -0.220683 0.120448 0.299492
vt 0.128343 0.077777
vn -0.952551 0.067662 0.296762
v -0.112244 0.043293 0.341228
vt 0.115484 0.179448
vn -0.162513 -0.961947 0.219653
v -0.003806 0.045315 0.347685
vt 0.110658 0.255111
vn -0.000000 -0.979606 0.200930
v 0.104633 0.043293 0.341228
vt 0.116072 0.331397
vn 0.162656 -0.961898 0.219763
v 0.184015 0.075447 0.323589
vt 0.123467 0.393242
vn 0.590837 -0.763503 0.260719
v 0.213072 0.120448 0.299492
vt 0.130895 0.435384
vn 0.952535 0.067692 0.296807
v -0.171008 0.092713 0.411915
vt 0.059161 0.133642
vn -0.574944 -0.749747 0.327597
v -0.191865 0.125421 0.393679
vt 0.063026 0.103956
vn -0.914379 0.223932 0.337292
v -0.103397 0.065392 0.423518
vt 0.056375 0.184693
vn -0.172926 -0.931525 0.319934
v -0.003795 0.065101 0.429530
vt 0.050959 0.254958
vn -0.000000 -0.946392 0.323021
v 0.095808 0.065392 0.423518
vt 0.055763 0.325905
vn 0.175920 -0.929542 0.324042
v 0.163305 0.092838 0.412063
vt 0.058885 0.378272
vn 0.575996 -0.747082 0.331809
v 0.184126 0.125543 0.393867
vt 0.062708 0.409230
vn 0.912406 0.228037 0.339875
v -0.143246 0.106872 0.482829
vt 0.007971 0.151410
vn -0.432810 -0.812637 0.390251
v -0.161319 0.122883 0.467763
vt 0.014252 0.132380
vn -0.871522 0.274828 0.406102
v -0.085244 0.095333 0.493213
vt 0.001738 0.194266
vn -0.129011 -0.903092 0.409611
v -0.003781 0.092718 0.485099
vt 0.005738 0.254505
vn 0.000001 -0.908132 0.418684
v 0.077682 0.095333 0.493213
vt 0.000000 0.314985
vn 0.125829 -0.899381 0.418665
v 0.135685 0.106872 0.475453
vt 0.010742 0.359968
vn 0.459574 -0.788219 0.409270
v 0.153542 0.123029 0.468037
vt 0.012011 0.378708
vn 0.848335 0.333005 0.411625
v -0.142807 0.167297 -0.471845
vt 0.790968 0.606664
vn 0.046860 0.162621 -0.985575
v -0.142762 0.111526 -0.481343
vt 0.750608 0.606933
vn 0.014898 0.177255 -0.984052
v -0.003806 0.108677 -0.460963
vt 0.751660 0.707077
vn -0.000002 0.189122 -0.981954
v -0.003806 0.153001 -0.451512
vt 0.783944 0.707088
vn -0.000002 0.183203 -0.983075
v 0.135257 0.111526 -0.481344
vt 0.750618 0.807297
vn -0.014805 0.177247 -0.984055
v 0.135237 0.167297 -0.471846
vt 0.790979 0.807521
vn -0.046894 0.162631 -0.985572
v 0.135238 0.055258 -0.491061
vt 0.709897 0.807015
vn -0.029615 0.189098 -0.981512
v -0.003806 0.064395 -0.470945
vt 0.719300 0.707072
vn -0.000001 0.188685 -0.982038
v -0.142805 0.055258 -0.491060
vt 0.709905 0.607153
vn 0.029586 0.189101 -0.981512
v 0.237002 0.168556 -0.461779
vt 0.792630 0.880426
vn 0.117402 0.128009 -0.984800
v 0.274255 0.112312 -0.462188
vt 0.752785 0.907321
vn 0.119595 0.162949 -0.979359
v 0.237002 0.053884 -0.480496
vt 0.709674 0.879938
vn 0.119615 0.196308 -0.973219
v -0.281866 0.112312 -0.462188
vt 0.752785 0.506847
vn -0.119519 0.162953 -0.979368
v -0.244613 0.053884 -0.480496
vt 0.709641 0.534201
vn -0.119536 0.196400 -0.973210
v -0.244613 0.168556 -0.461779
vt 0.792622 0.533740
vn -0.117331 0.127919 -0.984820
v -0.142836 0.205003 -0.465747
vt 0.818201 0.606477
vn 0.107827 0.173822 -0.978856
v -0.003806 0.192921 -0.443471
vt 0.812960 0.707081
vn -0.000002 0.179226 -0.983808
v 0.135225 0.205003 -0.465747
vt 0.818214 0.807678
vn -0.107893 0.173792 -0.978854
v 0.135225 0.011706 -0.498165
vt 0.678454 0.806803
vn -0.074484 0.178865 -0.981050
v -0.003806 0.016916 -0.480905
vt 0.684706 0.707070
vn -0.000000 0.184239 -0.982881
v -0.142836 0.011706 -0.498165
vt 0.678463 0.607341
vn 0.074430 0.178838 -0.981059
v 0.153542 0.123029 0.468037
vt 0.837457 0.733693
vn 0.169834 0.304979 0.937093
v 0.135685 0.106872 0.475453
vt 0.850158 0.721028
vn 0.190887 0.320530 0.927805
v 0.077682 0.095333 0.493213
vt 0.861949 0.678682
vn 0.010387 0.349753 0.936784
v 0.073784 0.123385 0.482483
vt 0.840541 0.676042
vn -0.005637 0.341221 0.939966
v -0.003781 0.118517 0.474227
vt 0.841453 0.620356
vn 0.000001 0.364803 0.931085
v -0.003781 0.092718 0.485099
vt 0.861394 0.620352
vn -0.000060 0.365242 0.930913
v -0.081353 0.123331 0.482504
vt 0.840584 0.564681
vn 0.014636 0.378766 0.925377
v -0.085244 0.095333 0.493213
vt 0.861951 0.562013
vn 0.013216 0.412951 0.910657
v -0.161319 0.122883 0.467763
vt 0.837312 0.506847
vn -0.133554 0.409751 0.902368
v -0.143246 0.106872 0.482829
vt 0.852473 0.520306
vn -0.121014 0.472338 0.873071
v 0.127852 0.138453 0.470122
vt 0.827407 0.714828
vn 0.138584 0.281641 0.949459
v 0.069973 0.150810 0.471994
vt 0.819612 0.673398
vn -0.040597 0.337588 0.940418
v -0.003781 0.144305 0.463361
vt 0.821522 0.620350
vn 0.000063 0.364329 0.931270
v -0.077534 0.150810 0.471994
vt 0.819612 0.567291
vn 0.033716 0.347357 0.937127
v -0.136766 0.138453 0.468550
vt 0.825987 0.526227
vn -0.151217 0.311549 0.938121
# Faces (1 to 148)
g Fish_Fillet1_0
f -146/-146/-146 -147/-147/-147 -148/-148/-148
f -145/-145/-145 -146/-146/-146 -148/-148/-148
f -144/-144/-144 -146/-146/-146 -145/-145/-145
f -143/-143/-143 -144/-144/-144 -145/-145/-145
f -142/-142/-142 -144/-144/-144 -143/-143/-143
f -141/-141/-141 -142/-142/-142 -143/-143/-143
f -140/-140/-140 -142/-142/-142 -141/-141/-141
f -139/-139/-139 -140/-140/-140 -141/-141/-141
f -138/-138/-138 -140/-140/-140 -139/-139/-139
f -137/-137/-137 -138/-138/-138 -139/-139/-139
f -148/-148/-148 -147/-147/-147 -136/-136/-136
f -147/-147/-147 -135/-135/-135 -136/-136/-136
f -146/-146/-146 -134/-134/-134 -147/-147/-147
f -134/-134/-134 -133/-133/-133 -147/-147/-147
f -147/-147/-147 -133/-133/-133 -135/-135/-135
f -132/-132/-132 -134/-134/-134 -146/-146/-146
f -144/-144/-144 -132/-132/-132 -146/-146/-146
f -131/-131/-131 -132/-132/-132 -144/-144/-144
f -142/-142/-142 -131/-131/-131 -144/-144/-144
f -130/-130/-130 -131/-131/-131 -142/-142/-142
f -140/-140/-140 -130/-130/-130 -142/-142/-142
f -129/-129/-129 -130/-130/-130 -140/-140/-140
f -138/-138/-138 -129/-129/-129 -140/-140/-140
f -133/-133/-133 -128/-128/-128 -135/-135/-135
f -134/-134/-134 -127/-127/-127 -133/-133/-133
f -127/-127/-127 -126/-126/-126 -133/-133/-133
f -133/-133/-133 -126/-126/-126 -128/-128/-128
f -125/-125/-125 -127/-127/-127 -134/-134/-134
f -132/-132/-132 -125/-125/-125 -134/-134/-134
f -124/-124/-124 -125/-125/-125 -132/-132/-132
f -131/-131/-131 -124/-124/-124 -132/-132/-132
f -123/-123/-123 -124/-124/-124 -131/-131/-131
f -130/-130/-130 -123/-123/-123 -131/-131/-131
f -122/-122/-122 -123/-123/-123 -130/-130/-130
f -129/-129/-129 -122/-122/-122 -130/-130/-130
f -126/-126/-126 -121/-121/-121 -128/-128/-128
f -127/-127/-127 -120/-120/-120 -126/-126/-126
f -120/-120/-120 -119/-119/-119 -126/-126/-126
f -126/-126/-126 -119/-119/-119 -121/-121/-121
f -118/-118/-118 -120/-120/-120 -127/-127/-127
f -125/-125/-125 -118/-118/-118 -127/-127/-127
f -117/-117/-117 -118/-118/-118 -125/-125/-125
f -124/-124/-124 -117/-117/-117 -125/-125/-125
f -116/-116/-116 -117/-117/-117 -124/-124/-124
f -123/-123/-123 -116/-116/-116 -124/-124/-124
f -115/-115/-115 -116/-116/-116 -123/-123/-123
f -122/-122/-122 -115/-115/-115 -123/-123/-123
f -119/-119/-119 -114/-114/-114 -121/-121/-121
f -120/-120/-120 -113/-113/-113 -119/-119/-119
f -113/-113/-113 -112/-112/-112 -119/-119/-119
f -119/-119/-119 -112/-112/-112 -114/-114/-114
f -111/-111/-111 -113/-113/-113 -120/-120/-120
f -118/-118/-118 -111/-111/-111 -120/-120/-120
f -110/-110/-110 -111/-111/-111 -118/-118/-118
f -117/-117/-117 -110/-110/-110 -118/-118/-118
f -109/-109/-109 -110/-110/-110 -117/-117/-117
f -116/-116/-116 -109/-109/-109 -117/-117/-117
f -108/-108/-108 -109/-109/-109 -116/-116/-116
f -115/-115/-115 -108/-108/-108 -116/-116/-116
f -112/-112/-112 -107/-107/-107 -114/-114/-114
f -113/-113/-113 -106/-106/-106 -112/-112/-112
f -106/-106/-106 -105/-105/-105 -112/-112/-112
f -112/-112/-112 -105/-105/-105 -107/-107/-107
f -104/-104/-104 -106/-106/-106 -113/-113/-113
f -111/-111/-111 -104/-104/-104 -113/-113/-113
f -103/-103/-103 -104/-104/-104 -111/-111/-111
f -110/-110/-110 -103/-103/-103 -111/-111/-111
f -102/-102/-102 -103/-103/-103 -110/-110/-110
f -109/-109/-109 -102/-102/-102 -110/-110/-110
f -101/-101/-101 -102/-102/-102 -109/-109/-109
f -108/-108/-108 -101/-101/-101 -109/-109/-109
f -105/-105/-105 -100/-100/-100 -107/-107/-107
f -106/-106/-106 -99/-99/-99 -105/-105/-105
f -99/-99/-99 -98/-98/-98 -105/-105/-105
f -105/-105/-105 -98/-98/-98 -100/-100/-100
f -97/-97/-97 -99/-99/-99 -106/-106/-106
f -104/-104/-104 -97/-97/-97 -106/-106/-106
f -96/-96/-96 -97/-97/-97 -104/-104/-104
f -103/-103/-103 -96/-96/-96 -104/-104/-104
f -95/-95/-95 -96/-96/-96 -103/-103/-103
f -102/-102/-102 -95/-95/-95 -103/-103/-103
f -94/-94/-94 -95/-95/-95 -102/-102/-102
f -101/-101/-101 -94/-94/-94 -102/-102/-102
f -98/-98/-98 -93/-93/-93 -100/-100/-100
f -90/-90/-90 -91/-91/-91 -92/-92/-92
f -89/-89/-89 -90/-90/-90 -92/-92/-92
f -88/-88/-88 -90/-90/-90 -89/-89/-89
f -87/-87/-87 -88/-88/-88 -89/-89/-89
f -86/-86/-86 -88/-88/-88 -87/-87/-87
f -85/-85/-85 -86/-86/-86 -87/-87/-87
f -84/-84/-84 -86/-86/-86 -85/-85/-85
f -83/-83/-83 -84/-84/-84 -85/-85/-85
f -82/-82/-82 -84/-84/-84 -83/-83/-83
f -81/-81/-81 -82/-82/-82 -83/-83/-83
f -80/-80/-80 -82/-82/-82 -81/-81/-81
f -79/-79/-79 -80/-80/-80 -81/-81/-81
f -90/-90/-90 -78/-78/-78 -91/-91/-91
f -78/-78/-78 -77/-77/-77 -91/-91/-91
f -76/-76/-76 -78/-78/-78 -90/-90/-90
f -88/-88/-88 -76/-76/-76 -90/-90/-90
f -75/-75/-75 -76/-76/-76 -88/-88/-88
f -86/-86/-86 -75/-75/-75 -88/-88/-88
f -74/-74/-74 -75/-75/-75 -86/-86/-86
f -84/-84/-84 -74/-74/-74 -86/-86/-86
f -73/-73/-73 -74/-74/-74 -84/-84/-84
f -82/-82/-82 -73/-73/-73 -84/-84/-84
f -72/-72/-72 -73/-73/-73 -82/-82/-82
f -80/-80/-80 -72/-72/-72 -82/-82/-82
f -78/-78/-78 -71/-71/-71 -77/-77/-77
f -71/-71/-71 -70/-70/-70 -77/-77/-77
f -69/-69/-69 -71/-71/-71 -78/-78/-78
f -76/-76/-76 -69/-69/-69 -78/-78/-78
f -68/-68/-68 -69/-69/-69 -76/-76/-76
f -75/-75/-75 -68/-68/-68 -76/-76/-76
f -67/-67/-67 -68/-68/-68 -75/-75/-75
f -74/-74/-74 -67/-67/-67 -75/-75/-75
f -66/-66/-66 -67/-67/-67 -74/-74/-74
f -73/-73/-73 -66/-66/-66 -74/-74/-74
f -65/-65/-65 -66/-66/-66 -73/-73/-73
f -72/-72/-72 -65/-65/-65 -73/-73/-73
f -71/-71/-71 -64/-64/-64 -70/-70/-70
f -64/-64/-64 -63/-63/-63 -70/-70/-70
f -62/-62/-62 -64/-64/-64 -71/-71/-71
f -69/-69/-69 -62/-62/-62 -71/-71/-71
f -61/-61/-61 -62/-62/-62 -69/-69/-69
f -68/-68/-68 -61/-61/-61 -69/-69/-69
f -60/-60/-60 -61/-61/-61 -68/-68/-68
f -67/-67/-67 -60/-60/-60 -68/-68/-68
f -59/-59/-59 -60/-60/-60 -67/-67/-67
f -66/-66/-66 -59/-59/-59 -67/-67/-67
f -58/-58/-58 -59/-59/-59 -66/-66/-66
f -65/-65/-65 -58/-58/-58 -66/-66/-66
f -64/-64/-64 -57/-57/-57 -63/-63/-63
f -57/-57/-57 -56/-56/-56 -63/-63/-63
f -55/-55/-55 -57/-57/-57 -64/-64/-64
f -62/-62/-62 -55/-55/-55 -64/-64/-64
f -54/-54/-54 -55/-55/-55 -62/-62/-62
f -61/-61/-61 -54/-54/-54 -62/-62/-62
f -53/-53/-53 -54/-54/-54 -61/-61/-61
f -60/-60/-60 -53/-53/-53 -61/-61/-61
f -52/-52/-52 -53/-53/-53 -60/-60/-60
f -59/-59/-59 -52/-52/-52 -60/-60/-60
f -51/-51/-51 -52/-52/-52 -59/-59/-59
f -58/-58/-58 -51/-51/-51 -59/-59/-59
f -57/-57/-57 -50/-50/-50 -56/-56/-56
f -50/-50/-50 -49/-49/-49 -56/-56/-56
f -48/-48/-48 -50/-50/-50 -57/-57/-57
f -55/-55/-55 -48/-48/-48 -57/-57/-57
f -47/-47/-47 -48/-48/-48 -55/-55/-55
f -54/-54/-54 -47/-47/-47 -55/-55/-55
f -46/-46/-46 -47/-47/-47 -54/-54/-54
f -53/-53/-53 -46/-46/-46 -54/-54/-54
f -45/-45/-45 -46/-46/-46 -53/-53/-53
f -52/-52/-52 -45/-45/-45 -53/-53/-53
f -44/-44/-44 -45/-45/-45 -52/-52/-52
f -51/-51/-51 -44/-44/-44 -52/-52/-52
f -50/-50/-50 -43/-43/-43 -49/-49/-49
f -43/-43/-43 -42/-42/-42 -49/-49/-49
f -41/-41/-41 -43/-43/-43 -50/-50/-50
f -48/-48/-48 -41/-41/-41 -50/-50/-50
f -40/-40/-40 -41/-41/-41 -48/-48/-48
f -47/-47/-47 -40/-40/-40 -48/-48/-48
f -39/-39/-39 -40/-40/-40 -47/-47/-47
f -46/-46/-46 -39/-39/-39 -47/-47/-47
f -38/-38/-38 -39/-39/-39 -46/-46/-46
f -45/-45/-45 -38/-38/-38 -46/-46/-46
f -37/-37/-37 -38/-38/-38 -45/-45/-45
f -44/-44/-44 -37/-37/-37 -45/-45/-45
f -34/-34/-34 -35/-35/-35 -36/-36/-36
f -33/-33/-33 -34/-34/-34 -36/-36/-36
f -32/-32/-32 -34/-34/-34 -33/-33/-33
f -31/-31/-31 -32/-32/-32 -33/-33/-33
f -32/-32/-32 -30/-30/-30 -34/-34/-34
f -30/-30/-30 -29/-29/-29 -34/-34/-34
f -35/-35/-35 -34/-34/-34 -29/-29/-29
f -28/-28/-28 -35/-35/-35 -29/-29/-29
f -32/-32/-32 -31/-31/-31 -27/-27/-27
f -26/-26/-26 -32/-32/-32 -27/-27/-27
f -32/-32/-32 -26/-26/-26 -25/-25/-25
f -30/-30/-30 -32/-32/-32 -25/-25/-25
f -35/-35/-35 -28/-28/-28 -24/-24/-24
f -28/-28/-28 -23/-23/-23 -24/-24/-24
f -35/-35/-35 -24/-24/-24 -22/-22/-22
f -36/-36/-36 -35/-35/-35 -22/-22/-22
f -36/-36/-36 -22/-22/-22 -21/-21/-21
f -36/-36/-36 -21/-21/-21 -20/-20/-20
f -33/-33/-33 -36/-36/-36 -20/-20/-20
f -33/-33/-33 -20/-20/-20 -19/-19/-19
f -31/-31/-31 -33/-33/-33 -19/-19/-19
f -31/-31/-31 -19/-19/-19 -27/-27/-27
f -30/-30/-30 -25/-25/-25 -18/-18/-18
f -30/-30/-30 -18/-18/-18 -29/-29/-29
f -18/-18/-18 -17/-17/-17 -29/-29/-29
f -29/-29/-29 -17/-17/-17 -16/-16/-16
f -28/-28/-28 -29/-29/-29 -16/-16/-16
f -28/-28/-28 -16/-16/-16 -23/-23/-23
f -13/-13/-13 -14/-14/-14 -15/-15/-15
f -12/-12/-12 -13/-13/-13 -15/-15/-15
f -12/-12/-12 -11/-11/-11 -13/-13/-13
f -11/-11/-11 -10/-10/-10 -13/-13/-13
f -11/-11/-11 -9/-9/-9 -10/-10/-10
f -9/-9/-9 -8/-8/-8 -10/-10/-10
f -9/-9/-9 -7/-7/-7 -8/-8/-8
f -7/-7/-7 -6/-6/-6 -8/-8/-8
f -12/-12/-12 -15/-15/-15 -5/-5/-5
f -4/-4/-4 -12/-12/-12 -5/-5/-5
f -12/-12/-12 -4/-4/-4 -11/-11/-11
f -4/-4/-4 -3/-3/-3 -11/-11/-11
f -11/-11/-11 -3/-3/-3 -9/-9/-9
f -3/-3/-3 -2/-2/-2 -9/-9/-9
f -9/-9/-9 -2/-2/-2 -7/-7/-7
f -2/-2/-2 -1/-1/-1 -7/-7/-7

