# Blender v2.92.0 OBJ File: ''
# www.blender.org
mtllib CrateLid_Rice.mtl
o CrateLid_mesh-sharedassets2.assets-136
v 0.505000 0.094742 0.500000
v -0.495000 0.094742 0.500000
v -0.496148 -0.005258 0.500000
v 0.503852 -0.005258 0.500000
v 0.503852 -0.005258 -0.500000
v -0.496148 -0.005258 -0.500000
v -0.495000 0.094742 -0.500000
v 0.505000 0.094742 -0.500000
v 0.503852 -0.005258 0.500000
v -0.496148 -0.005258 0.500000
v -0.496148 -0.005258 -0.500000
v 0.503852 -0.005258 -0.500000
v 0.505000 0.094742 -0.500000
v 0.505000 0.094742 0.500000
v 0.503852 -0.005258 0.500000
v 0.503852 -0.005258 -0.500000
v -0.495000 0.094742 0.500000
v -0.495000 0.094742 -0.500000
v -0.496148 -0.005258 -0.500000
v -0.496148 -0.005258 0.500000
v 0.375000 0.024742 -0.370000
v -0.365000 0.024742 -0.370000
v -0.365000 0.024742 0.370000
v 0.375000 0.024742 0.370000
v 0.375000 0.094742 0.370000
v -0.365000 0.094742 0.370000
v -0.495000 0.094742 0.500000
v 0.505000 0.094742 0.500000
v 0.375000 0.094742 -0.370000
v 0.505000 0.094742 -0.500000
v -0.365000 0.094742 -0.370000
v -0.495000 0.094742 -0.500000
v 0.375000 0.024742 0.370000
v -0.365000 0.024742 0.370000
v -0.365000 0.094742 0.370000
v 0.375000 0.094742 0.370000
v 0.375000 0.024742 -0.370000
v 0.375000 0.024742 0.370000
v 0.375000 0.094742 0.370000
v 0.375000 0.094742 -0.370000
v 0.375000 0.094742 0.370000
v -0.365000 0.024742 -0.370000
v 0.375000 0.024742 -0.370000
v 0.375000 0.094742 -0.370000
v -0.365000 0.094742 -0.370000
v -0.365000 0.024742 0.370000
v -0.365000 0.024742 -0.370000
v -0.365000 0.094742 -0.370000
v -0.365000 0.094742 0.370000
v -0.365000 0.094742 -0.370000
vt 0.771985 0.504940
vt 0.996237 0.506926
vt 0.995898 0.545173
vt 0.771646 0.543187
vt 0.995455 0.545430
vt 0.771203 0.543123
vt 0.771543 0.505518
vt 0.995796 0.507223
vt 0.959130 0.710923
vt 0.792715 0.709429
vt 0.794209 0.543014
vt 0.960632 0.543687
vt 0.771357 0.505235
vt 0.995610 0.506920
vt 0.995272 0.545168
vt 0.771015 0.543442
vt 0.772612 0.504945
vt 0.996864 0.506931
vt 0.996526 0.545179
vt 0.772273 0.543193
vt 0.794861 0.543532
vt 0.959341 0.544988
vt 0.957884 0.709468
vt 0.793405 0.708011
vt 0.784814 0.716451
vt 0.966324 0.718059
vt 0.999091 0.751411
vt 0.751461 0.749218
vt 0.786421 0.534941
vt 0.753654 0.501589
vt 0.967932 0.536549
vt 1.001284 0.503782
vt 0.793405 0.708011
vt 0.957884 0.709468
vt 0.966324 0.718059
vt 0.784814 0.716451
vt 0.794861 0.543532
vt 0.793405 0.708011
vt 0.784814 0.716451
vt 0.786421 0.534941
vt 0.784814 0.716451
vt 0.959341 0.544988
vt 0.794861 0.543532
vt 0.786421 0.534941
vt 0.967932 0.536549
vt 0.957884 0.709468
vt 0.959341 0.544988
vt 0.967932 0.536549
vt 0.966324 0.718059
vt 0.967932 0.536549
vn 0.0000 0.0000 1.0000
vn 0.0000 0.0000 -1.0000
vn 0.0000 -1.0000 -0.0000
vn 0.9999 -0.0115 -0.0000
vn -0.9999 0.0115 0.0000
vn 0.0000 1.0000 0.0000
vn -1.0000 -0.0000 0.0000
vn 1.0000 0.0000 0.0000
usemtl Default_OBJ.003
s 1
f 1/1/1 2/2/1 3/3/1
f 4/4/1 1/1/1 3/3/1
f 5/5/2 6/6/2 7/7/2
f 8/8/2 5/5/2 7/7/2
f 9/9/3 10/10/3 11/11/3
f 12/12/3 9/9/3 11/11/3
f 13/13/4 14/14/4 15/15/4
f 16/16/4 13/13/4 15/15/4
f 17/17/5 18/18/5 19/19/5
f 20/20/5 17/17/5 19/19/5
f 21/21/6 22/22/6 23/23/6
f 24/24/6 21/21/6 23/23/6
f 25/25/6 26/26/6 27/27/6
f 28/28/6 25/25/6 27/27/6
f 29/29/6 25/25/6 28/28/6
f 30/30/6 29/29/6 28/28/6
f 31/31/6 29/29/6 30/30/6
f 32/32/6 31/31/6 30/30/6
f 26/26/6 31/31/6 32/32/6
f 27/27/6 26/26/6 32/32/6
f 33/33/2 34/34/2 35/35/2
f 36/36/2 33/33/2 35/35/2
f 37/37/7 38/38/7 39/39/7
f 40/40/7 37/37/7 41/41/7
f 42/42/1 43/43/1 44/44/1
f 45/45/1 42/42/1 44/44/1
f 46/46/8 47/47/8 48/48/8
f 49/49/8 46/46/8 50/50/8
