# Blender v2.92.0 OBJ File: ''
# www.blender.org
mtllib CrateLid_mesh-sharedassets2.assets-136.mtl
o CrateLid_mesh-sharedassets2.assets-136
v 0.505000 0.094742 0.500000
v -0.495000 0.094742 0.500000
v -0.496148 -0.005258 0.500000
v 0.503852 -0.005258 0.500000
v 0.503852 -0.005258 -0.500000
v -0.496148 -0.005258 -0.500000
v -0.495000 0.094742 -0.500000
v 0.505000 0.094742 -0.500000
v 0.503852 -0.005258 0.500000
v -0.496148 -0.005258 0.500000
v -0.496148 -0.005258 -0.500000
v 0.503852 -0.005258 -0.500000
v 0.505000 0.094742 -0.500000
v 0.505000 0.094742 0.500000
v 0.503852 -0.005258 0.500000
v 0.503852 -0.005258 -0.500000
v -0.495000 0.094742 0.500000
v -0.495000 0.094742 -0.500000
v -0.496148 -0.005258 -0.500000
v -0.496148 -0.005258 0.500000
v 0.375000 0.024742 -0.370000
v -0.365000 0.024742 -0.370000
v -0.365000 0.024742 0.370000
v 0.375000 0.024742 0.370000
v 0.375000 0.094742 0.370000
v -0.365000 0.094742 0.370000
v -0.495000 0.094742 0.500000
v 0.505000 0.094742 0.500000
v 0.375000 0.094742 -0.370000
v 0.505000 0.094742 -0.500000
v -0.365000 0.094742 -0.370000
v -0.495000 0.094742 -0.500000
v 0.375000 0.024742 0.370000
v -0.365000 0.024742 0.370000
v -0.365000 0.094742 0.370000
v 0.375000 0.094742 0.370000
v 0.375000 0.024742 -0.370000
v 0.375000 0.024742 0.370000
v 0.375000 0.094742 0.370000
v 0.375000 0.094742 -0.370000
v 0.375000 0.094742 0.370000
v -0.365000 0.024742 -0.370000
v 0.375000 0.024742 -0.370000
v 0.375000 0.094742 -0.370000
v -0.365000 0.094742 -0.370000
v -0.365000 0.024742 0.370000
v -0.365000 0.024742 -0.370000
v -0.365000 0.094742 -0.370000
v -0.365000 0.094742 0.370000
v -0.365000 0.094742 -0.370000
vt 0.462117 0.990049
vt 0.015903 0.990049
vt 0.015903 0.913944
vt 0.462117 0.913944
vt 0.016781 0.913426
vt 0.463000 0.914064
vt 0.462986 0.988891
vt 0.016775 0.989450
vt 0.490840 0.653962
vt 0.821969 0.654002
vt 0.821929 0.985131
vt 0.490798 0.986726
vt 0.463362 0.989450
vt 0.017150 0.990049
vt 0.017150 0.913944
vt 0.463368 0.913426
vt 0.460870 0.990049
vt 0.014655 0.990049
vt 0.014655 0.913944
vt 0.460870 0.913944
vt 0.415921 0.913668
vt 0.088643 0.913668
vt 0.088643 0.586389
vt 0.415921 0.586389
vt 0.432865 0.569445
vt 0.071699 0.569445
vt 0.005917 0.503663
vt 0.498647 0.503663
vt 0.432865 0.930611
vt 0.498647 0.996393
vt 0.071699 0.930611
vt 0.005917 0.996393
vt 0.415921 0.586389
vt 0.088643 0.586389
vt 0.071699 0.569445
vt 0.432865 0.569445
vt 0.415921 0.913668
vt 0.415921 0.586389
vt 0.432865 0.569445
vt 0.432865 0.930611
vt 0.432865 0.569445
vt 0.088643 0.913668
vt 0.415921 0.913668
vt 0.432865 0.930611
vt 0.071699 0.930611
vt 0.088643 0.586389
vt 0.088643 0.913668
vt 0.071699 0.930611
vt 0.071699 0.569445
vt 0.071699 0.930611
vn 0.0000 0.0000 1.0000
vn 0.0000 0.0000 -1.0000
vn 0.0000 -1.0000 -0.0000
vn 0.9999 -0.0115 -0.0000
vn -0.9999 0.0115 0.0000
vn 0.0000 1.0000 0.0000
vn -1.0000 -0.0000 0.0000
vn 1.0000 0.0000 0.0000
usemtl Default_OBJ.003
s 1
f 1/1/1 2/2/1 3/3/1
f 4/4/1 1/1/1 3/3/1
f 5/5/2 6/6/2 7/7/2
f 8/8/2 5/5/2 7/7/2
f 9/9/3 10/10/3 11/11/3
f 12/12/3 9/9/3 11/11/3
f 13/13/4 14/14/4 15/15/4
f 16/16/4 13/13/4 15/15/4
f 17/17/5 18/18/5 19/19/5
f 20/20/5 17/17/5 19/19/5
f 21/21/6 22/22/6 23/23/6
f 24/24/6 21/21/6 23/23/6
f 25/25/6 26/26/6 27/27/6
f 28/28/6 25/25/6 27/27/6
f 29/29/6 25/25/6 28/28/6
f 30/30/6 29/29/6 28/28/6
f 31/31/6 29/29/6 30/30/6
f 32/32/6 31/31/6 30/30/6
f 26/26/6 31/31/6 32/32/6
f 27/27/6 26/26/6 32/32/6
f 33/33/2 34/34/2 35/35/2
f 36/36/2 33/33/2 35/35/2
f 37/37/7 38/38/7 39/39/7
f 40/40/7 37/37/7 41/41/7
f 42/42/1 43/43/1 44/44/1
f 45/45/1 42/42/1 44/44/1
f 46/46/8 47/47/8 48/48/8
f 49/49/8 46/46/8 50/50/8
