# Blender v2.92.0 OBJ File: ''
# www.blender.org
mtllib CrateLid_Pepperoni.mtl
o CrateLid_mesh-sharedassets2.assets-136
v 0.505000 0.094742 0.500000
v -0.495000 0.094742 0.500000
v -0.496148 -0.005258 0.500000
v 0.503852 -0.005258 0.500000
v 0.503852 -0.005258 -0.500000
v -0.496148 -0.005258 -0.500000
v -0.495000 0.094742 -0.500000
v 0.505000 0.094742 -0.500000
v 0.503852 -0.005258 0.500000
v -0.496148 -0.005258 0.500000
v -0.496148 -0.005258 -0.500000
v 0.503852 -0.005258 -0.500000
v 0.505000 0.094742 -0.500000
v 0.505000 0.094742 0.500000
v 0.503852 -0.005258 0.500000
v 0.503852 -0.005258 -0.500000
v -0.495000 0.094742 0.500000
v -0.495000 0.094742 -0.500000
v -0.496148 -0.005258 -0.500000
v -0.496148 -0.005258 0.500000
v 0.375000 0.024742 -0.370000
v -0.365000 0.024742 -0.370000
v -0.365000 0.024742 0.370000
v 0.375000 0.024742 0.370000
v 0.375000 0.094742 0.370000
v -0.365000 0.094742 0.370000
v -0.495000 0.094742 0.500000
v 0.505000 0.094742 0.500000
v 0.375000 0.094742 -0.370000
v 0.505000 0.094742 -0.500000
v -0.365000 0.094742 -0.370000
v -0.495000 0.094742 -0.500000
v 0.375000 0.024742 0.370000
v -0.365000 0.024742 0.370000
v -0.365000 0.094742 0.370000
v 0.375000 0.094742 0.370000
v 0.375000 0.024742 -0.370000
v 0.375000 0.024742 0.370000
v 0.375000 0.094742 0.370000
v 0.375000 0.094742 -0.370000
v 0.375000 0.094742 0.370000
v -0.365000 0.024742 -0.370000
v 0.375000 0.024742 -0.370000
v 0.375000 0.094742 -0.370000
v -0.365000 0.094742 -0.370000
v -0.365000 0.024742 0.370000
v -0.365000 0.024742 -0.370000
v -0.365000 0.094742 -0.370000
v -0.365000 0.094742 0.370000
v -0.365000 0.094742 -0.370000
vt 0.520032 0.254940
vt 0.744284 0.256926
vt 0.743945 0.295173
vt 0.519693 0.293187
vt 0.743502 0.295430
vt 0.519250 0.293123
vt 0.519590 0.255518
vt 0.743843 0.257223
vt 0.707176 0.460923
vt 0.540762 0.459429
vt 0.542256 0.293014
vt 0.708679 0.293687
vt 0.519403 0.255235
vt 0.743657 0.256920
vt 0.743319 0.295168
vt 0.519062 0.293442
vt 0.520658 0.254945
vt 0.744911 0.256931
vt 0.744573 0.295179
vt 0.520320 0.293193
vt 0.542908 0.293532
vt 0.707387 0.294988
vt 0.705931 0.459468
vt 0.541452 0.458011
vt 0.532861 0.466451
vt 0.714371 0.468059
vt 0.747138 0.501411
vt 0.499508 0.499218
vt 0.534468 0.284941
vt 0.501701 0.251589
vt 0.715978 0.286549
vt 0.749331 0.253782
vt 0.541452 0.458011
vt 0.705931 0.459468
vt 0.714371 0.468059
vt 0.532861 0.466451
vt 0.542908 0.293532
vt 0.541452 0.458011
vt 0.532861 0.466451
vt 0.534468 0.284941
vt 0.532861 0.466451
vt 0.707387 0.294988
vt 0.542908 0.293532
vt 0.534468 0.284941
vt 0.715978 0.286549
vt 0.705931 0.459468
vt 0.707387 0.294988
vt 0.715978 0.286549
vt 0.714371 0.468059
vt 0.715978 0.286549
vn 0.0000 0.0000 1.0000
vn 0.0000 0.0000 -1.0000
vn 0.0000 -1.0000 -0.0000
vn 0.9999 -0.0115 -0.0000
vn -0.9999 0.0115 0.0000
vn 0.0000 1.0000 0.0000
vn -1.0000 -0.0000 0.0000
vn 1.0000 0.0000 0.0000
usemtl Default_OBJ.003
s 1
f 1/1/1 2/2/1 3/3/1
f 4/4/1 1/1/1 3/3/1
f 5/5/2 6/6/2 7/7/2
f 8/8/2 5/5/2 7/7/2
f 9/9/3 10/10/3 11/11/3
f 12/12/3 9/9/3 11/11/3
f 13/13/4 14/14/4 15/15/4
f 16/16/4 13/13/4 15/15/4
f 17/17/5 18/18/5 19/19/5
f 20/20/5 17/17/5 19/19/5
f 21/21/6 22/22/6 23/23/6
f 24/24/6 21/21/6 23/23/6
f 25/25/6 26/26/6 27/27/6
f 28/28/6 25/25/6 27/27/6
f 29/29/6 25/25/6 28/28/6
f 30/30/6 29/29/6 28/28/6
f 31/31/6 29/29/6 30/30/6
f 32/32/6 31/31/6 30/30/6
f 26/26/6 31/31/6 32/32/6
f 27/27/6 26/26/6 32/32/6
f 33/33/2 34/34/2 35/35/2
f 36/36/2 33/33/2 35/35/2
f 37/37/7 38/38/7 39/39/7
f 40/40/7 37/37/7 41/41/7
f 42/42/1 43/43/1 44/44/1
f 45/45/1 42/42/1 44/44/1
f 46/46/8 47/47/8 48/48/8
f 49/49/8 46/46/8 50/50/8
