# Blender v2.92.0 OBJ File: ''
# www.blender.org
mtllib CrateLid_Turkek.mtl
o CrateLid_mesh-sharedassets2.assets-136
v 0.505000 0.094742 0.500000
v -0.495000 0.094742 0.500000
v -0.496148 -0.005258 0.500000
v 0.503852 -0.005258 0.500000
v 0.503852 -0.005258 -0.500000
v -0.496148 -0.005258 -0.500000
v -0.495000 0.094742 -0.500000
v 0.505000 0.094742 -0.500000
v 0.503852 -0.005258 0.500000
v -0.496148 -0.005258 0.500000
v -0.496148 -0.005258 -0.500000
v 0.503852 -0.005258 -0.500000
v 0.505000 0.094742 -0.500000
v 0.505000 0.094742 0.500000
v 0.503852 -0.005258 0.500000
v 0.503852 -0.005258 -0.500000
v -0.495000 0.094742 0.500000
v -0.495000 0.094742 -0.500000
v -0.496148 -0.005258 -0.500000
v -0.496148 -0.005258 0.500000
v 0.375000 0.024742 -0.370000
v -0.365000 0.024742 -0.370000
v -0.365000 0.024742 0.370000
v 0.375000 0.024742 0.370000
v 0.375000 0.094742 0.370000
v -0.365000 0.094742 0.370000
v -0.495000 0.094742 0.500000
v 0.505000 0.094742 0.500000
v 0.375000 0.094742 -0.370000
v 0.505000 0.094742 -0.500000
v -0.365000 0.094742 -0.370000
v -0.495000 0.094742 -0.500000
v 0.375000 0.024742 0.370000
v -0.365000 0.024742 0.370000
v -0.365000 0.094742 0.370000
v 0.375000 0.094742 0.370000
v 0.375000 0.024742 -0.370000
v 0.375000 0.024742 0.370000
v 0.375000 0.094742 0.370000
v 0.375000 0.094742 -0.370000
v 0.375000 0.094742 0.370000
v -0.365000 0.024742 -0.370000
v 0.375000 0.024742 -0.370000
v 0.375000 0.094742 -0.370000
v -0.365000 0.094742 -0.370000
v -0.365000 0.024742 0.370000
v -0.365000 0.024742 -0.370000
v -0.365000 0.094742 -0.370000
v -0.365000 0.094742 0.370000
v -0.365000 0.094742 -0.370000
vt 0.020032 0.002987
vt 0.244284 0.004973
vt 0.243945 0.043220
vt 0.019693 0.041234
vt 0.243502 0.043477
vt 0.019250 0.041170
vt 0.019590 0.003565
vt 0.243843 0.005270
vt 0.207176 0.208970
vt 0.040762 0.207476
vt 0.042256 0.041061
vt 0.208679 0.041734
vt 0.019403 0.003282
vt 0.243657 0.004967
vt 0.243319 0.043215
vt 0.019062 0.041489
vt 0.020658 0.002992
vt 0.244911 0.004978
vt 0.244573 0.043226
vt 0.020320 0.041240
vt 0.042908 0.041579
vt 0.207388 0.043035
vt 0.205931 0.207515
vt 0.041452 0.206058
vt 0.032861 0.214498
vt 0.214371 0.216106
vt 0.247138 0.249458
vt -0.000492 0.247265
vt 0.034468 0.032988
vt 0.001701 -0.000364
vt 0.215978 0.034596
vt 0.249331 0.001829
vt 0.041452 0.206058
vt 0.205931 0.207515
vt 0.214371 0.216106
vt 0.032861 0.214498
vt 0.042908 0.041579
vt 0.041452 0.206058
vt 0.032861 0.214498
vt 0.034468 0.032988
vt 0.032861 0.214498
vt 0.207388 0.043035
vt 0.042908 0.041579
vt 0.034468 0.032988
vt 0.215978 0.034596
vt 0.205931 0.207515
vt 0.207388 0.043035
vt 0.215978 0.034596
vt 0.214371 0.216106
vt 0.215978 0.034596
vn 0.0000 0.0000 1.0000
vn 0.0000 0.0000 -1.0000
vn 0.0000 -1.0000 -0.0000
vn 0.9999 -0.0115 -0.0000
vn -0.9999 0.0115 0.0000
vn 0.0000 1.0000 0.0000
vn -1.0000 -0.0000 0.0000
vn 1.0000 0.0000 0.0000
usemtl Default_OBJ.003
s 1
f 1/1/1 2/2/1 3/3/1
f 4/4/1 1/1/1 3/3/1
f 5/5/2 6/6/2 7/7/2
f 8/8/2 5/5/2 7/7/2
f 9/9/3 10/10/3 11/11/3
f 12/12/3 9/9/3 11/11/3
f 13/13/4 14/14/4 15/15/4
f 16/16/4 13/13/4 15/15/4
f 17/17/5 18/18/5 19/19/5
f 20/20/5 17/17/5 19/19/5
f 21/21/6 22/22/6 23/23/6
f 24/24/6 21/21/6 23/23/6
f 25/25/6 26/26/6 27/27/6
f 28/28/6 25/25/6 27/27/6
f 29/29/6 25/25/6 28/28/6
f 30/30/6 29/29/6 28/28/6
f 31/31/6 29/29/6 30/30/6
f 32/32/6 31/31/6 30/30/6
f 26/26/6 31/31/6 32/32/6
f 27/27/6 26/26/6 32/32/6
f 33/33/2 34/34/2 35/35/2
f 36/36/2 33/33/2 35/35/2
f 37/37/7 38/38/7 39/39/7
f 40/40/7 37/37/7 41/41/7
f 42/42/1 43/43/1 44/44/1
f 45/45/1 42/42/1 44/44/1
f 46/46/8 47/47/8 48/48/8
f 49/49/8 46/46/8 50/50/8
