# Blender v2.92.0 OBJ File: ''
# www.blender.org
mtllib Crate_mesh-sharedassets2.assets-122.mtl
o Crate_mesh-sharedassets2.assets-122
v 0.370000 0.258327 0.430000
v -0.370000 0.258327 0.430000
v -0.370000 0.130153 0.430000
v 0.370000 0.130153 0.430000
v 0.405777 0.119958 -0.405777
v -0.405777 0.119958 -0.405777
v -0.405777 0.119958 0.405777
v 0.405777 0.119958 0.405777
v 0.370000 0.130153 -0.430000
v -0.370000 0.130153 -0.430000
v -0.370000 0.258327 -0.430000
v 0.370000 0.258327 -0.430000
v 0.500000 0.000153 0.500000
v -0.500000 0.000153 0.500000
v -0.500000 0.000153 -0.500000
v 0.500000 0.000153 -0.500000
v 0.430000 0.258327 -0.370000
v 0.430000 0.258327 0.370000
v 0.430000 0.130153 0.370000
v 0.430000 0.130153 -0.370000
v -0.430000 0.258327 0.370000
v -0.430000 0.258327 -0.370000
v -0.430000 0.130153 -0.370000
v -0.430000 0.130153 0.370000
v 0.405777 0.388327 0.405777
v -0.405777 0.388327 0.405777
v -0.500000 0.388327 0.500000
v 0.500000 0.388327 0.500000
v 0.405777 0.388327 -0.405777
v 0.500000 0.388327 -0.500000
v -0.405777 0.388327 -0.405777
v -0.500000 0.388327 -0.500000
v 0.405777 0.119958 0.405777
v -0.405777 0.119958 0.405777
v -0.405777 0.388327 0.405777
v 0.405777 0.388327 0.405777
v 0.405777 0.119958 -0.405777
v 0.405777 0.119958 0.405777
v 0.405777 0.388327 0.405777
v 0.405777 0.388327 -0.405777
v 0.405777 0.119958 -0.405777
v 0.405777 0.388327 0.405777
v -0.405777 0.119958 -0.405777
v 0.405777 0.119958 -0.405777
v 0.405777 0.388327 -0.405777
v -0.405777 0.388327 -0.405777
v -0.405777 0.119958 0.405777
v -0.405777 0.119958 -0.405777
v -0.405777 0.388327 -0.405777
v -0.405777 0.388327 0.405777
v -0.405777 0.119958 0.405777
v -0.405777 0.388327 -0.405777
v 0.370000 0.130153 0.500000
v -0.370000 0.130153 0.500000
v -0.500000 0.000153 0.500000
v 0.500000 0.000153 0.500000
v 0.370000 0.258327 0.500000
v 0.500000 0.388327 0.500000
v -0.370000 0.258327 0.500000
v -0.500000 0.388327 0.500000
v 0.370000 0.258327 -0.500000
v -0.370000 0.258327 -0.500000
v -0.500000 0.388327 -0.500000
v 0.500000 0.388327 -0.500000
v 0.370000 0.130153 -0.500000
v 0.500000 0.000153 -0.500000
v -0.370000 0.130153 -0.500000
v -0.500000 0.000153 -0.500000
v 0.500000 0.130153 -0.370000
v 0.500000 0.130153 0.370000
v 0.500000 0.000153 0.500000
v 0.500000 0.000153 -0.500000
v 0.500000 0.258327 -0.370000
v 0.500000 0.388327 -0.500000
v 0.500000 0.258327 0.370000
v 0.500000 0.388327 0.500000
v -0.500000 0.130153 0.370000
v -0.500000 0.130153 -0.370000
v -0.500000 0.000153 -0.500000
v -0.500000 0.000153 0.500000
v -0.500000 0.258327 0.370000
v -0.500000 0.388327 0.500000
v -0.500000 0.258327 -0.370000
v -0.500000 0.388327 -0.500000
v 0.370000 0.130153 0.430000
v -0.370000 0.130153 0.430000
v -0.370000 0.130153 0.500000
v 0.370000 0.130153 0.500000
v 0.370000 0.258327 0.430000
v 0.370000 0.130153 0.430000
v 0.370000 0.130153 0.500000
v 0.370000 0.258327 0.500000
v 0.370000 0.130153 0.500000
v -0.370000 0.258327 0.430000
v 0.370000 0.258327 0.430000
v 0.370000 0.258327 0.500000
v -0.370000 0.258327 0.500000
v -0.370000 0.130153 0.430000
v -0.370000 0.258327 0.430000
v -0.370000 0.258327 0.500000
v -0.370000 0.130153 0.500000
v -0.370000 0.258327 0.500000
v 0.370000 0.258327 -0.430000
v -0.370000 0.258327 -0.430000
v -0.370000 0.258327 -0.500000
v 0.370000 0.258327 -0.500000
v 0.370000 0.130153 -0.430000
v 0.370000 0.258327 -0.430000
v 0.370000 0.258327 -0.500000
v 0.370000 0.130153 -0.500000
v 0.370000 0.258327 -0.500000
v -0.370000 0.130153 -0.430000
v 0.370000 0.130153 -0.430000
v 0.370000 0.130153 -0.500000
v -0.370000 0.130153 -0.500000
v -0.370000 0.258327 -0.430000
v -0.370000 0.130153 -0.430000
v -0.370000 0.130153 -0.500000
v -0.370000 0.258327 -0.500000
v -0.370000 0.130153 -0.500000
v 0.430000 0.130153 -0.370000
v 0.430000 0.130153 0.370000
v 0.500000 0.130153 0.370000
v 0.500000 0.130153 -0.370000
v 0.430000 0.258327 -0.370000
v 0.430000 0.130153 -0.370000
v 0.500000 0.130153 -0.370000
v 0.500000 0.258327 -0.370000
v 0.500000 0.130153 -0.370000
v 0.430000 0.258327 0.370000
v 0.430000 0.258327 -0.370000
v 0.500000 0.258327 -0.370000
v 0.500000 0.258327 0.370000
v 0.430000 0.130153 0.370000
v 0.430000 0.258327 0.370000
v 0.500000 0.258327 0.370000
v 0.500000 0.130153 0.370000
v 0.500000 0.258327 0.370000
v -0.500000 0.130153 -0.370000
v -0.500000 0.130153 0.370000
v -0.430000 0.130153 0.370000
v -0.430000 0.130153 -0.370000
v -0.430000 0.258327 0.370000
v -0.430000 0.130153 0.370000
v -0.500000 0.130153 0.370000
v -0.500000 0.258327 0.370000
v -0.500000 0.130153 0.370000
v -0.430000 0.258327 -0.370000
v -0.430000 0.258327 0.370000
v -0.500000 0.258327 0.370000
v -0.500000 0.258327 -0.370000
v -0.430000 0.130153 -0.370000
v -0.430000 0.258327 -0.370000
v -0.500000 0.258327 -0.370000
v -0.500000 0.130153 -0.370000
v -0.500000 0.258327 -0.370000
vt 0.389110 0.390293
vt 0.087726 0.390293
vt 0.087726 0.086403
vt 0.389110 0.086403
vt 0.310558 0.761111
vt 0.167648 0.761111
vt 0.167648 0.618202
vt 0.310558 0.618202
vt 0.388784 0.390507
vt 0.087400 0.390507
vt 0.087400 0.086617
vt 0.388784 0.086617
vt 0.820420 0.985721
vt 0.489291 0.985721
vt 0.489291 0.654466
vt 0.820420 0.654466
vt 0.389047 0.390581
vt 0.087663 0.390581
vt 0.087663 0.086691
vt 0.389047 0.086691
vt 0.389163 0.389620
vt 0.087778 0.389620
vt 0.087778 0.085730
vt 0.389162 0.085730
vt 0.420784 0.507976
vt 0.057422 0.507976
vt 0.015236 0.465789
vt 0.462971 0.465789
vt 0.420784 0.871337
vt 0.462971 0.913524
vt 0.057422 0.871337
vt 0.015236 0.913524
vt 0.310558 0.618202
vt 0.167648 0.618202
vt 0.057422 0.507976
vt 0.420784 0.507976
vt 0.310558 0.761111
vt 0.310558 0.618202
vt 0.420784 0.507976
vt 0.420784 0.871337
vt 0.310558 0.761111
vt 0.420784 0.507976
vt 0.167648 0.761111
vt 0.310558 0.761111
vt 0.420784 0.871337
vt 0.057422 0.871337
vt 0.167648 0.618202
vt 0.167648 0.761111
vt 0.057422 0.871337
vt 0.057422 0.507976
vt 0.167648 0.618202
vt 0.057422 0.871337
vt 0.403697 0.070473
vt 0.073138 0.070473
vt 0.012290 0.013037
vt 0.464545 0.013037
vt 0.403697 0.404592
vt 0.464545 0.465292
vt 0.073138 0.404592
vt 0.012290 0.465292
vt 0.403372 0.070687
vt 0.072813 0.070687
vt 0.011965 0.013251
vt 0.464220 0.013251
vt 0.403372 0.404806
vt 0.464220 0.465506
vt 0.072813 0.404806
vt 0.011965 0.465506
vt 0.403634 0.070760
vt 0.073076 0.070760
vt 0.012227 0.013324
vt 0.464482 0.013324
vt 0.403634 0.404879
vt 0.464482 0.465579
vt 0.073076 0.404879
vt 0.012227 0.465579
vt 0.403750 0.069800
vt 0.073191 0.069800
vt 0.012343 0.012363
vt 0.464598 0.012363
vt 0.403750 0.403919
vt 0.464598 0.464618
vt 0.073191 0.403919
vt 0.012343 0.464618
vt 0.389110 0.086403
vt 0.087726 0.086403
vt 0.073138 0.070473
vt 0.403697 0.070473
vt 0.389110 0.390293
vt 0.389110 0.086403
vt 0.403697 0.070473
vt 0.403697 0.404592
vt 0.403697 0.070473
vt 0.087726 0.390293
vt 0.389110 0.390293
vt 0.403697 0.404592
vt 0.073138 0.404592
vt 0.087726 0.086403
vt 0.087726 0.390293
vt 0.073138 0.404592
vt 0.073138 0.070473
vt 0.073138 0.404592
vt 0.388784 0.086617
vt 0.087400 0.086617
vt 0.072813 0.070687
vt 0.403372 0.070687
vt 0.388784 0.390507
vt 0.388784 0.086617
vt 0.403372 0.070687
vt 0.403372 0.404806
vt 0.403372 0.070687
vt 0.087400 0.390507
vt 0.388784 0.390507
vt 0.403372 0.404806
vt 0.072813 0.404806
vt 0.087400 0.086617
vt 0.087400 0.390507
vt 0.072813 0.404806
vt 0.072813 0.070687
vt 0.072813 0.404806
vt 0.389047 0.086691
vt 0.087663 0.086691
vt 0.073076 0.070760
vt 0.403634 0.070760
vt 0.389047 0.390581
vt 0.389047 0.086691
vt 0.403634 0.070760
vt 0.403634 0.404879
vt 0.403634 0.070760
vt 0.087663 0.390581
vt 0.389047 0.390581
vt 0.403634 0.404879
vt 0.073076 0.404879
vt 0.087663 0.086691
vt 0.087663 0.390581
vt 0.073076 0.404879
vt 0.073076 0.070760
vt 0.073076 0.404879
vt 0.073191 0.069800
vt 0.403750 0.069800
vt 0.389162 0.085730
vt 0.087778 0.085730
vt 0.389163 0.389620
vt 0.389162 0.085730
vt 0.403750 0.069800
vt 0.403750 0.403919
vt 0.403750 0.069800
vt 0.087778 0.389620
vt 0.389163 0.389620
vt 0.403750 0.403919
vt 0.073191 0.403919
vt 0.087778 0.085730
vt 0.087778 0.389620
vt 0.073191 0.403919
vt 0.073191 0.069800
vt 0.073191 0.403919
vn 0.0000 0.0000 1.0000
vn 0.0000 1.0000 0.0000
vn 0.0000 0.0000 -1.0000
vn 0.0000 -1.0000 -0.0000
vn 1.0000 0.0000 0.0000
vn -1.0000 0.0000 0.0000
usemtl Default_OBJ.002
s 1
f 1/1/1 2/2/1 3/3/1
f 4/4/1 1/1/1 3/3/1
f 5/5/2 6/6/2 7/7/2
f 8/8/2 5/5/2 7/7/2
f 9/9/3 10/10/3 11/11/3
f 12/12/3 9/9/3 11/11/3
f 13/13/4 14/14/4 15/15/4
f 16/16/4 13/13/4 15/15/4
f 17/17/5 18/18/5 19/19/5
f 20/20/5 17/17/5 19/19/5
f 21/21/6 22/22/6 23/23/6
f 24/24/6 21/21/6 23/23/6
f 25/25/2 26/26/2 27/27/2
f 28/28/2 25/25/2 27/27/2
f 29/29/2 25/25/2 28/28/2
f 30/30/2 29/29/2 28/28/2
f 31/31/2 29/29/2 30/30/2
f 32/32/2 31/31/2 30/30/2
f 26/26/2 31/31/2 32/32/2
f 27/27/2 26/26/2 32/32/2
f 33/33/3 34/34/3 35/35/3
f 36/36/3 33/33/3 35/35/3
f 37/37/6 38/38/6 39/39/6
f 40/40/6 41/41/6 42/42/6
f 43/43/1 44/44/1 45/45/1
f 46/46/1 43/43/1 45/45/1
f 47/47/5 48/48/5 49/49/5
f 50/50/5 51/51/5 52/52/5
f 53/53/1 54/54/1 55/55/1
f 56/56/1 53/53/1 55/55/1
f 57/57/1 53/53/1 56/56/1
f 58/58/1 57/57/1 56/56/1
f 59/59/1 57/57/1 58/58/1
f 60/60/1 59/59/1 58/58/1
f 54/54/1 59/59/1 60/60/1
f 55/55/1 54/54/1 60/60/1
f 61/61/3 62/62/3 63/63/3
f 64/64/3 61/61/3 63/63/3
f 65/65/3 61/61/3 64/64/3
f 66/66/3 65/65/3 64/64/3
f 67/67/3 65/65/3 66/66/3
f 68/68/3 67/67/3 66/66/3
f 62/62/3 67/67/3 68/68/3
f 63/63/3 62/62/3 68/68/3
f 69/69/5 70/70/5 71/71/5
f 72/72/5 69/69/5 71/71/5
f 73/73/5 69/69/5 72/72/5
f 74/74/5 73/73/5 72/72/5
f 75/75/5 73/73/5 74/74/5
f 76/76/5 75/75/5 74/74/5
f 70/70/5 75/75/5 76/76/5
f 71/71/5 70/70/5 76/76/5
f 77/77/6 78/78/6 79/79/6
f 80/80/6 77/77/6 79/79/6
f 81/81/6 77/77/6 80/80/6
f 82/82/6 81/81/6 80/80/6
f 83/83/6 81/81/6 82/82/6
f 84/84/6 83/83/6 82/82/6
f 78/78/6 83/83/6 84/84/6
f 79/79/6 78/78/6 84/84/6
f 85/85/2 86/86/2 87/87/2
f 88/88/2 85/85/2 87/87/2
f 89/89/6 90/90/6 91/91/6
f 92/92/6 89/89/6 93/93/6
f 94/94/4 95/95/4 96/96/4
f 97/97/4 94/94/4 96/96/4
f 98/98/5 99/99/5 100/100/5
f 101/101/5 98/98/5 102/102/5
f 103/103/4 104/104/4 105/105/4
f 106/106/4 103/103/4 105/105/4
f 107/107/6 108/108/6 109/109/6
f 110/110/6 107/107/6 111/111/6
f 112/112/2 113/113/2 114/114/2
f 115/115/2 112/112/2 114/114/2
f 116/116/5 117/117/5 118/118/5
f 119/119/5 116/116/5 120/120/5
f 121/121/2 122/122/2 123/123/2
f 124/124/2 121/121/2 123/123/2
f 125/125/1 126/126/1 127/127/1
f 128/128/1 125/125/1 129/129/1
f 130/130/4 131/131/4 132/132/4
f 133/133/4 130/130/4 132/132/4
f 134/134/3 135/135/3 136/136/3
f 137/137/3 134/134/3 138/138/3
f 139/139/2 140/140/2 141/141/2
f 142/142/2 139/139/2 141/141/2
f 143/143/3 144/144/3 145/145/3
f 146/146/3 143/143/3 147/147/3
f 148/148/4 149/149/4 150/150/4
f 151/151/4 148/148/4 150/150/4
f 152/152/1 153/153/1 154/154/1
f 155/155/1 152/152/1 156/156/1
