# Mesh "Knife" exported with Unity Assets Bundle Extractor; 162 vertices, 480 indices, 384 bits per vertex
g Knife
# SubMesh 0
# Vertices
v -0.535470 0.336276 0.261949
vt 0.687440 0.602937
vn -0.352870 0.312251 0.882033
v -0.489452 0.313041 0.261949
vt 0.645209 0.602937
vn 0.460767 -0.098552 0.882032
v -0.623312 0.047919 0.303530
vt 0.635573 0.891859
vn 0.412991 -0.132332 0.901070
v -0.669330 0.071153 0.303530
vt 0.687434 0.891859
vn -0.351686 0.253751 0.901070
v -0.690084 0.081809 0.262702
vt 0.731194 0.891859
vn -0.879630 0.393494 0.267234
v -0.556295 0.346790 0.228955
vt 0.751392 0.602937
vn -0.853754 0.464490 0.235272
v -0.556295 0.346790 0.193639
vt 0.785634 0.602937
vn -0.860968 0.434701 -0.264138
v -0.690076 0.081824 0.193639
vt 0.794383 0.891859
vn -0.892778 0.365422 -0.263465
v -0.669251 0.071310 0.160644
vt 0.832689 0.891859
vn -0.388240 0.134698 -0.911661
v -0.535470 0.336276 0.160644
vt 0.825114 0.602937
vn -0.359950 0.181739 -0.915100
v -0.623233 0.048075 0.160644
vt 0.867148 0.891859
vn 0.338896 -0.232431 -0.911661
v -0.489452 0.313041 0.160644
vt 0.860464 0.602937
vn 0.359952 -0.181738 -0.915099
v -0.602408 0.037561 0.193639
vt 0.900881 0.891859
vn 0.824109 -0.501431 -0.263461
v -0.468627 0.302527 0.193639
vt 0.894339 0.602937
vn 0.860969 -0.434701 -0.264134
v -0.468627 0.302527 0.228955
vt 0.927008 0.602937
vn 0.880656 -0.411209 0.235270
v -0.602416 0.037545 0.262702
vt 0.946392 0.891860
vn 0.838891 -0.474184 0.267231
v -0.623312 0.047919 0.303530
vt 0.980292 0.891860
vn 0.412991 -0.132332 0.901070
v -0.489452 0.313041 0.261949
vt 0.954758 0.602937
vn 0.460767 -0.098552 0.882032
v -0.678045 0.045255 0.256939
vt 0.740673 0.917130
vn -0.779732 -0.616080 0.111635
v -0.663503 0.045883 0.284363
vt 0.719671 0.928717
vn -0.605833 -0.632749 0.482280
v -0.647106 0.037604 0.284363
vt 0.719878 0.945469
vn -0.149453 -0.863175 0.482278
v -0.638977 0.025530 0.256939
vt 0.741319 0.957042
vn -0.032797 -0.993208 0.111634
v -0.669330 0.071153 0.303530
vt 0.698258 0.913592
vn -0.351686 0.253751 0.901070
v -0.623312 0.047919 0.303530
vt 0.698799 0.960603
vn 0.412991 -0.132332 0.901070
v -0.602416 0.037545 0.262702
vt 0.734005 0.981868
vn 0.838891 -0.474184 0.267231
v -0.638977 0.025530 0.210695
vt 0.775602 0.957031
vn -0.035904 -0.994662 -0.096743
v -0.602408 0.037561 0.193639
vt 0.791575 0.981852
vn 0.824109 -0.501431 -0.263461
v -0.647106 0.037604 0.183270
vt 0.797257 0.945445
vn -0.197196 -0.863636 -0.463948
v -0.623233 0.048075 0.160644
vt 0.821136 0.960569
vn 0.338896 -0.232431 -0.911661
v -0.663503 0.045883 0.183270
vt 0.797522 0.928693
vn -0.577858 -0.671439 -0.463950
v -0.669251 0.071310 0.160644
vt 0.821906 0.913557
vn -0.388240 0.134698 -0.911661
v -0.678045 0.045255 0.210695
vt 0.776012 0.917119
vn -0.779057 -0.619444 -0.096745
v -0.078436 1.126409 0.230545
vt 0.223388 0.824844
vn 0.948333 -0.215831 0.232553
v -0.071441 1.186676 0.255344
vt 0.201788 0.874448
vn 0.954797 -0.207595 0.212759
v -0.042233 1.248095 0.160645
vt 0.284271 0.933668
vn 0.966923 -0.189780 0.170419
v -0.059039 1.164827 0.160645
vt 0.284271 0.862329
vn 0.966923 -0.189780 0.170419
v -0.120312 1.043469 0.302076
vt 0.161084 0.743917
vn 0.918843 -0.266102 0.291405
v -0.120749 1.088920 0.345155
vt 0.123563 0.779084
vn 0.922620 -0.258227 0.286516
v -0.166930 0.999259 0.395087
vt 0.080072 0.691243
vn 0.893281 -0.316052 0.319626
v -0.162429 0.960054 0.342764
vt 0.125646 0.662527
vn 0.890990 -0.320401 0.321683
v -0.224048 0.887900 0.434669
vt 0.045596 0.582237
vn 0.870634 -0.363338 0.331635
v -0.211679 0.862508 0.375781
vt 0.096887 0.567350
vn 0.869596 -0.365610 0.331861
v -0.288984 0.759043 0.454205
vt 0.028580 0.456557
vn 0.858063 -0.401370 0.320358
v -0.272983 0.741089 0.389744
vt 0.084726 0.448879
vn 0.858008 -0.402168 0.319504
v -0.354632 0.627529 0.464660
vt 0.019474 0.328532
vn 0.854862 -0.425559 0.296834
v -0.335259 0.617747 0.393056
vt 0.081841 0.328532
vn 0.854908 -0.425323 0.297039
v -0.452003 0.386523 0.393056
vt 0.081841 0.102922
vn 0.853662 -0.431535 0.291615
v -0.471673 0.396454 0.464918
vt 0.019249 0.102922
vn 0.853662 -0.431535 0.291615
v -0.059039 1.164827 0.160645
vt 0.284271 0.862329
vn 0.000000 0.000001 -1.000000
v -0.042233 1.248095 0.160645
vt 0.303892 0.933668
vn 0.156951 0.310856 -0.937409
v -0.048588 1.251303 0.160645
vt 0.310093 0.933668
vn 0.156951 0.310856 -0.937409
v -0.105613 1.188342 0.160645
vt 0.329714 0.862329
vn 0.000000 0.000001 -1.000000
v -0.162429 0.960054 0.160645
vt 0.284271 0.662527
vn 0.000000 0.000001 -1.000000
v -0.209002 0.983569 0.160645
vt 0.329714 0.662527
vn 0.000000 0.000001 -1.000000
v -0.211679 0.862508 0.160645
vt 0.284271 0.567350
vn 0.000000 0.000001 -1.000000
v -0.258253 0.886023 0.160645
vt 0.329714 0.567350
vn 0.000000 0.000001 -1.000000
v -0.272669 0.741711 0.160645
vt 0.284271 0.449486
vn 0.000000 0.000001 -1.000000
v -0.319243 0.765226 0.160645
vt 0.329714 0.449486
vn 0.000000 0.000001 -1.000000
v -0.335258 0.617747 0.160644
vt 0.284271 0.328532
vn 0.000000 0.000001 -1.000000
v -0.381832 0.641262 0.160644
vt 0.329713 0.328532
vn 0.000000 0.000001 -1.000000
v -0.452003 0.386523 0.160644
vt 0.284271 0.102922
vn 0.000000 0.000001 -1.000000
v -0.498577 0.410038 0.160644
vt 0.329487 0.102922
vn 0.000000 0.000001 -1.000000
v -0.105613 1.188342 0.160645
vt 0.329714 0.862329
vn -0.726796 0.665376 0.170418
v -0.048588 1.251303 0.160645
vt 0.329714 0.933668
vn -0.726796 0.665376 0.170418
v -0.080668 1.191335 0.255344
vt 0.412197 0.874448
vn -0.733931 0.645044 0.212753
v -0.125010 1.149924 0.230545
vt 0.390596 0.824843
vn -0.736721 0.634951 0.232550
v -0.130063 1.093611 0.345144
vt 0.490412 0.779075
vn -0.756867 0.590385 0.280353
v -0.166886 1.066984 0.302076
vt 0.452900 0.743917
vn -0.761441 0.582953 0.283503
v -0.209002 0.983569 0.342764
vt 0.488339 0.662527
vn -0.795735 0.528563 0.295680
v -0.176313 1.003947 0.394955
vt 0.533798 0.691204
vn -0.792510 0.533348 0.295749
v -0.233288 0.892486 0.434439
vt 0.568188 0.582175
vn -0.822282 0.484399 0.298680
v -0.258253 0.886023 0.375781
vt 0.517097 0.567350
vn -0.823564 0.482054 0.298941
v -0.297388 0.763235 0.454059
vt 0.585277 0.456518
vn -0.842349 0.448843 0.298307
v -0.319557 0.764604 0.389744
vt 0.529258 0.448879
vn -0.842724 0.448263 0.298122
v -0.362459 0.631481 0.464658
vt 0.594508 0.328532
vn -0.852158 0.433660 0.292857
v -0.381832 0.641262 0.393056
vt 0.532144 0.328532
vn -0.852078 0.433784 0.292909
v -0.478907 0.400107 0.464918
vt 0.594735 0.102922
vn -0.854082 0.430701 0.291616
v -0.498577 0.410038 0.393056
vt 0.532400 0.102922
vn -0.854082 0.430701 0.291616
v -0.498577 0.410038 0.393056
vt 0.532400 0.102922
vn -0.450708 -0.892671 0.000000
v -0.478907 0.400107 0.464918
vt 0.595547 0.083638
vn -0.343531 -0.680238 0.647505
v -0.471673 0.396454 0.464918
vt 0.595547 0.076546
vn -0.343531 -0.680238 0.647505
v -0.452003 0.386523 0.393056
vt 0.532657 0.057262
vn -0.450708 -0.892671 0.000000
v -0.498577 0.410038 0.261949
vt 0.417935 0.102922
vn -0.450708 -0.892671 -0.000000
v -0.452003 0.386523 0.261950
vt 0.417919 0.057262
vn -0.450708 -0.892671 -0.000000
v -0.498577 0.410038 0.160644
vt 0.329487 0.102922
vn -0.450708 -0.892671 -0.000001
v -0.452003 0.386523 0.160644
vt 0.329261 0.057262
vn -0.450708 -0.892671 -0.000001
v -0.452003 0.386523 0.261950
vt 0.196034 0.102922
vn 0.892672 -0.450708 0.000000
v -0.335258 0.617747 0.261950
vt 0.196034 0.328532
vn 0.892672 -0.450708 0.000000
v -0.335258 0.617747 0.160644
vt 0.284271 0.328532
vn 0.892672 -0.450708 0.000000
v -0.452003 0.386523 0.160644
vt 0.284271 0.102922
vn 0.892672 -0.450708 0.000000
v -0.335259 0.617747 0.393056
vt 0.081841 0.328532
vn 0.892671 -0.450708 0.000000
v -0.452003 0.386523 0.393056
vt 0.081841 0.102922
vn 0.892671 -0.450708 0.000000
v -0.272983 0.741089 0.389744
vt 0.084726 0.448879
vn 0.892672 -0.450708 0.000000
v -0.272669 0.741711 0.261950
vt 0.196034 0.449486
vn 0.892672 -0.450708 0.000000
v -0.211679 0.862508 0.375781
vt 0.096887 0.567350
vn 0.892672 -0.450708 0.000000
v -0.211679 0.862508 0.257871
vt 0.199587 0.567350
vn 0.892672 -0.450708 0.000000
v -0.162429 0.960054 0.342764
vt 0.125646 0.662527
vn 0.892672 -0.450708 0.000000
v -0.162429 0.960054 0.251774
vt 0.204897 0.662527
vn 0.892672 -0.450708 0.000000
v -0.211679 0.862508 0.160645
vt 0.284271 0.567350
vn 0.892671 -0.450708 0.000000
v -0.272669 0.741711 0.160645
vt 0.284271 0.449486
vn 0.892672 -0.450708 0.000000
v -0.162429 0.960054 0.160645
vt 0.284271 0.662527
vn 0.892672 -0.450708 -0.000000
v -0.059039 1.164827 0.160645
vt 0.284271 0.862329
vn 0.892672 -0.450708 -0.000000
v -0.078436 1.126409 0.230545
vt 0.223388 0.824844
vn 0.892672 -0.450708 -0.000000
v -0.120312 1.043469 0.302076
vt 0.161084 0.743917
vn 0.892671 -0.450708 0.000001
v -0.498577 0.410038 0.160644
vt 0.329487 0.102922
vn -0.892672 0.450708 0.000000
v -0.381832 0.641262 0.160644
vt 0.329713 0.328532
vn -0.892672 0.450708 0.000000
v -0.381832 0.641262 0.261950
vt 0.417950 0.328532
vn -0.892672 0.450708 -0.000000
v -0.498577 0.410038 0.261949
vt 0.417935 0.102922
vn -0.892672 0.450708 -0.000000
v -0.498577 0.410038 0.393056
vt 0.532400 0.102922
vn -0.892671 0.450708 -0.000000
v -0.381832 0.641262 0.393056
vt 0.532144 0.328532
vn -0.892672 0.450708 -0.000000
v -0.319243 0.765226 0.261950
vt 0.417950 0.449486
vn -0.892672 0.450708 -0.000000
v -0.319557 0.764604 0.389744
vt 0.529258 0.448879
vn -0.892672 0.450708 -0.000000
v -0.258253 0.886023 0.257871
vt 0.414397 0.567350
vn -0.892672 0.450708 0.000000
v -0.319243 0.765226 0.160645
vt 0.329714 0.449486
vn -0.892671 0.450708 0.000000
v -0.258253 0.886023 0.160645
vt 0.329714 0.567350
vn -0.892671 0.450708 0.000000
v -0.209002 0.983569 0.251774
vt 0.409087 0.662527
vn -0.892672 0.450708 0.000000
v -0.209002 0.983569 0.160645
vt 0.329714 0.662527
vn -0.892672 0.450708 0.000000
v -0.258253 0.886023 0.375781
vt 0.517097 0.567350
vn -0.892672 0.450708 -0.000000
v -0.209002 0.983569 0.342764
vt 0.488339 0.662527
vn -0.892672 0.450708 -0.000000
v -0.166886 1.066984 0.302076
vt 0.452900 0.743917
vn -0.892672 0.450708 -0.000001
v -0.125010 1.149924 0.230545
vt 0.390596 0.824843
vn -0.892672 0.450708 0.000000
v -0.105613 1.188342 0.160645
vt 0.329714 0.862329
vn -0.892672 0.450708 0.000000
v -0.166930 0.999259 0.395087
vt 0.565794 0.703318
vn 0.154228 0.334723 0.929610
v -0.224048 0.887900 0.434669
vt 0.606308 0.590287
vn 0.080682 0.202081 0.976040
v -0.233288 0.892486 0.434439
vt 0.568188 0.582175
vn 0.080555 0.201835 0.976101
v -0.176313 1.003947 0.394955
vt 0.533798 0.691204
vn 0.153962 0.334284 0.929812
v -0.297388 0.763235 0.454059
vt 0.585277 0.456518
vn 0.034251 0.099349 0.994463
v -0.288984 0.759043 0.454205
vt 0.621311 0.456557
vn 0.034227 0.099268 0.994472
v -0.362459 0.631481 0.464658
vt 0.594508 0.328532
vn 0.009673 0.026316 0.999607
v -0.354632 0.627529 0.464660
vt 0.630708 0.328571
vn 0.009624 0.026182 0.999611
v -0.478907 0.400107 0.464918
vt 0.594735 0.102922
vn -0.343531 -0.680238 0.647505
v -0.471673 0.396454 0.464918
vt 0.631227 0.102999
vn -0.343531 -0.680238 0.647505
v -0.120749 1.088920 0.345155
vt 0.522303 0.795185
vn 0.246020 0.495329 0.833140
v -0.130063 1.093611 0.345144
vt 0.490412 0.779075
vn 0.245789 0.494908 0.833459
v -0.071441 1.186676 0.255344
vt 0.444078 0.890548
vn 0.320753 0.636217 0.701674
v -0.080668 1.191335 0.255344
vt 0.412197 0.874448
vn 0.320752 0.636216 0.701675
v -0.042233 1.248095 0.160645
vt 0.361595 0.949768
vn 0.156951 0.310856 -0.937409
v -0.048588 1.251303 0.160645
vt 0.329714 0.933668
vn 0.156951 0.310856 -0.937409
v -0.556295 0.346790 0.193639
vt 0.785634 0.602937
vn -0.844766 0.426520 -0.323189
v -0.519124 0.420412 0.193639
vt 0.786319 0.526663
vn -0.844766 0.426520 -0.323189
v -0.519124 0.420412 0.228955
vt 0.750608 0.526663
vn -0.844766 0.426520 0.323189
v -0.556295 0.346790 0.228955
vt 0.751392 0.602937
vn -0.844766 0.426520 0.323189
v -0.498299 0.409897 0.261949
vt 0.687350 0.526663
vn -0.359951 0.181738 0.915099
v -0.535470 0.336276 0.261949
vt 0.687440 0.602937
vn -0.359951 0.181738 0.915099
v -0.452281 0.386663 0.261950
vt 0.645327 0.526663
vn 0.359951 -0.181739 0.915099
v -0.489452 0.313041 0.261949
vt 0.645209 0.602937
vn 0.359951 -0.181739 0.915099
v -0.498299 0.409897 0.160644
vt 0.824075 0.526663
vn -0.359950 0.181738 -0.915100
v -0.452281 0.386663 0.160644
vt 0.858054 0.526663
vn 0.359952 -0.181738 -0.915099
v -0.468627 0.302527 0.193639
vt 0.894339 0.602937
vn 0.844767 -0.426520 -0.323185
v -0.431456 0.376149 0.193639
vt 0.891899 0.526663
vn 0.844767 -0.426520 -0.323185
v -0.468627 0.302527 0.228955
vt 0.927008 0.602937
vn 0.844767 -0.426521 0.323186
v -0.431456 0.376149 0.228955
vt 0.924551 0.526663
vn 0.844767 -0.426521 0.323186
v -0.489452 0.313041 0.261949
vt 0.954758 0.602937
vn 0.359951 -0.181739 0.915099
v -0.452281 0.386663 0.261950
vt 0.952239 0.526663
vn 0.359951 -0.181739 0.915099
v -0.519124 0.420412 0.193639
vt 0.786319 0.526663
vn 0.450708 0.892671 0.000000
v -0.498299 0.409897 0.160644
vt 0.821370 0.504069
vn 0.450708 0.892671 0.000000
v -0.452281 0.386663 0.160644
vt 0.821629 0.449555
vn 0.450708 0.892671 0.000000
v -0.431456 0.376149 0.193639
vt 0.786905 0.424885
vn 0.450708 0.892671 0.000000
v -0.431456 0.376149 0.228955
vt 0.749766 0.424884
vn 0.450708 0.892671 0.000000
v -0.519124 0.420412 0.228955
vt 0.750608 0.526663
vn 0.450708 0.892671 0.000000
v -0.498299 0.409897 0.261949
vt 0.715474 0.504066
vn 0.450708 0.892671 -0.000000
v -0.452281 0.386663 0.261950
vt 0.715128 0.449553
vn 0.450708 0.892671 -0.000000
# Faces (1 to 162)
g Knife_0
f -160/-160/-160 -161/-161/-161 -162/-162/-162
f -159/-159/-159 -160/-160/-160 -162/-162/-162
f -159/-159/-159 -162/-162/-162 -158/-158/-158
f -162/-162/-162 -157/-157/-157 -158/-158/-158
f -158/-158/-158 -157/-157/-157 -156/-156/-156
f -155/-155/-155 -158/-158/-158 -156/-156/-156
f -154/-154/-154 -155/-155/-155 -156/-156/-156
f -153/-153/-153 -154/-154/-154 -156/-156/-156
f -154/-154/-154 -153/-153/-153 -152/-152/-152
f -153/-153/-153 -151/-151/-151 -152/-152/-152
f -150/-150/-150 -152/-152/-152 -151/-151/-151
f -149/-149/-149 -150/-150/-150 -151/-151/-151
f -150/-150/-150 -149/-149/-149 -148/-148/-148
f -147/-147/-147 -150/-150/-150 -148/-148/-148
f -147/-147/-147 -148/-148/-148 -146/-146/-146
f -148/-148/-148 -145/-145/-145 -146/-146/-146
f -158/-158/-158 -155/-155/-155 -144/-144/-144
f -158/-158/-158 -144/-144/-144 -143/-143/-143
f -142/-142/-142 -143/-143/-143 -144/-144/-144
f -141/-141/-141 -142/-142/-142 -144/-144/-144
f -143/-143/-143 -142/-142/-142 -140/-140/-140
f -140/-140/-140 -158/-158/-158 -143/-143/-143
f -142/-142/-142 -139/-139/-139 -140/-140/-140
f -142/-142/-142 -141/-141/-141 -139/-139/-139
f -141/-141/-141 -138/-138/-138 -139/-139/-139
f -141/-141/-141 -137/-137/-137 -138/-138/-138
f -137/-137/-137 -141/-141/-141 -144/-144/-144
f -137/-137/-137 -136/-136/-136 -138/-138/-138
f -136/-136/-136 -137/-137/-137 -135/-135/-135
f -134/-134/-134 -136/-136/-136 -135/-135/-135
f -134/-134/-134 -135/-135/-135 -133/-133/-133
f -133/-133/-133 -135/-135/-135 -137/-137/-137
f -132/-132/-132 -134/-134/-134 -133/-133/-133
f -132/-132/-132 -133/-133/-133 -131/-131/-131
f -131/-131/-131 -137/-137/-137 -144/-144/-144
f -131/-131/-131 -133/-133/-133 -137/-137/-137
f -155/-155/-155 -131/-131/-131 -144/-144/-144
f -155/-155/-155 -132/-132/-132 -131/-131/-131
f -128/-128/-128 -129/-129/-129 -130/-130/-130
f -127/-127/-127 -128/-128/-128 -130/-130/-130
f -130/-130/-130 -129/-129/-129 -126/-126/-126
f -129/-129/-129 -125/-125/-125 -126/-126/-126
f -125/-125/-125 -124/-124/-124 -126/-126/-126
f -124/-124/-124 -123/-123/-123 -126/-126/-126
f -124/-124/-124 -122/-122/-122 -123/-123/-123
f -122/-122/-122 -121/-121/-121 -123/-123/-123
f -122/-122/-122 -120/-120/-120 -121/-121/-121
f -120/-120/-120 -119/-119/-119 -121/-121/-121
f -120/-120/-120 -118/-118/-118 -119/-119/-119
f -118/-118/-118 -117/-117/-117 -119/-119/-119
f -117/-117/-117 -118/-118/-118 -116/-116/-116
f -118/-118/-118 -115/-115/-115 -116/-116/-116
f -112/-112/-112 -113/-113/-113 -114/-114/-114
f -111/-111/-111 -112/-112/-112 -114/-114/-114
f -111/-111/-111 -114/-114/-114 -110/-110/-110
f -109/-109/-109 -111/-111/-111 -110/-110/-110
f -109/-109/-109 -110/-110/-110 -108/-108/-108
f -107/-107/-107 -109/-109/-109 -108/-108/-108
f -107/-107/-107 -108/-108/-108 -106/-106/-106
f -105/-105/-105 -107/-107/-107 -106/-106/-106
f -105/-105/-105 -106/-106/-106 -104/-104/-104
f -103/-103/-103 -105/-105/-105 -104/-104/-104
f -103/-103/-103 -104/-104/-104 -102/-102/-102
f -101/-101/-101 -103/-103/-103 -102/-102/-102
f -98/-98/-98 -99/-99/-99 -100/-100/-100
f -97/-97/-97 -98/-98/-98 -100/-100/-100
f -96/-96/-96 -98/-98/-98 -97/-97/-97
f -95/-95/-95 -96/-96/-96 -97/-97/-97
f -96/-96/-96 -95/-95/-95 -94/-94/-94
f -93/-93/-93 -96/-96/-96 -94/-94/-94
f -93/-93/-93 -94/-94/-94 -92/-92/-92
f -94/-94/-94 -91/-91/-91 -92/-92/-92
f -92/-92/-92 -91/-91/-91 -90/-90/-90
f -91/-91/-91 -89/-89/-89 -90/-90/-90
f -90/-90/-90 -89/-89/-89 -88/-88/-88
f -89/-89/-89 -87/-87/-87 -88/-88/-88
f -86/-86/-86 -88/-88/-88 -87/-87/-87
f -85/-85/-85 -86/-86/-86 -87/-87/-87
f -82/-82/-82 -83/-83/-83 -84/-84/-84
f -81/-81/-81 -82/-82/-82 -84/-84/-84
f -81/-81/-81 -84/-84/-84 -80/-80/-80
f -79/-79/-79 -81/-81/-81 -80/-80/-80
f -80/-80/-80 -78/-78/-78 -79/-79/-79
f -78/-78/-78 -77/-77/-77 -79/-79/-79
f -74/-74/-74 -75/-75/-75 -76/-76/-76
f -73/-73/-73 -74/-74/-74 -76/-76/-76
f -75/-75/-75 -72/-72/-72 -76/-76/-76
f -72/-72/-72 -71/-71/-71 -76/-76/-76
f -70/-70/-70 -72/-72/-72 -75/-75/-75
f -69/-69/-69 -70/-70/-70 -75/-75/-75
f -68/-68/-68 -70/-70/-70 -69/-69/-69
f -67/-67/-67 -68/-68/-68 -69/-69/-69
f -68/-68/-68 -67/-67/-67 -66/-66/-66
f -67/-67/-67 -65/-65/-65 -66/-66/-66
f -64/-64/-64 -67/-67/-67 -69/-69/-69
f -63/-63/-63 -64/-64/-64 -69/-69/-69
f -63/-63/-63 -69/-69/-69 -75/-75/-75
f -74/-74/-74 -63/-63/-63 -75/-75/-75
f -62/-62/-62 -65/-65/-65 -67/-67/-67
f -64/-64/-64 -62/-62/-62 -67/-67/-67
f -62/-62/-62 -61/-61/-61 -65/-65/-65
f -61/-61/-61 -60/-60/-60 -65/-65/-65
f -65/-65/-65 -60/-60/-60 -59/-59/-59
f -66/-66/-66 -65/-65/-65 -59/-59/-59
f -56/-56/-56 -57/-57/-57 -58/-58/-58
f -55/-55/-55 -56/-56/-56 -58/-58/-58
f -55/-55/-55 -54/-54/-54 -56/-56/-56
f -54/-54/-54 -53/-53/-53 -56/-56/-56
f -52/-52/-52 -56/-56/-56 -53/-53/-53
f -56/-56/-56 -52/-52/-52 -57/-57/-57
f -51/-51/-51 -52/-52/-52 -53/-53/-53
f -50/-50/-50 -52/-52/-52 -51/-51/-51
f -52/-52/-52 -50/-50/-50 -49/-49/-49
f -52/-52/-52 -49/-49/-49 -57/-57/-57
f -50/-50/-50 -48/-48/-48 -49/-49/-49
f -50/-50/-50 -47/-47/-47 -48/-48/-48
f -47/-47/-47 -46/-46/-46 -48/-48/-48
f -45/-45/-45 -50/-50/-50 -51/-51/-51
f -50/-50/-50 -45/-45/-45 -44/-44/-44
f -47/-47/-47 -50/-50/-50 -44/-44/-44
f -47/-47/-47 -44/-44/-44 -43/-43/-43
f -42/-42/-42 -47/-47/-47 -43/-43/-43
f -47/-47/-47 -42/-42/-42 -46/-46/-46
f -42/-42/-42 -41/-41/-41 -46/-46/-46
f -38/-38/-38 -39/-39/-39 -40/-40/-40
f -37/-37/-37 -38/-38/-38 -40/-40/-40
f -38/-38/-38 -36/-36/-36 -39/-39/-39
f -36/-36/-36 -35/-35/-35 -39/-39/-39
f -36/-36/-36 -34/-34/-34 -35/-35/-35
f -34/-34/-34 -33/-33/-33 -35/-35/-35
f -33/-33/-33 -34/-34/-34 -32/-32/-32
f -31/-31/-31 -33/-33/-33 -32/-32/-32
f -37/-37/-37 -40/-40/-40 -30/-30/-30
f -29/-29/-29 -37/-37/-37 -30/-30/-30
f -30/-30/-30 -28/-28/-28 -29/-29/-29
f -28/-28/-28 -27/-27/-27 -29/-29/-29
f -28/-28/-28 -26/-26/-26 -27/-27/-27
f -26/-26/-26 -25/-25/-25 -27/-27/-27
f -22/-22/-22 -23/-23/-23 -24/-24/-24
f -21/-21/-21 -22/-22/-22 -24/-24/-24
f -20/-20/-20 -22/-22/-22 -21/-21/-21
f -19/-19/-19 -20/-20/-20 -21/-21/-21
f -18/-18/-18 -20/-20/-20 -19/-19/-19
f -17/-17/-17 -18/-18/-18 -19/-19/-19
f -24/-24/-24 -23/-23/-23 -153/-153/-153
f -23/-23/-23 -16/-16/-16 -153/-153/-153
f -153/-153/-153 -16/-16/-16 -151/-151/-151
f -16/-16/-16 -15/-15/-15 -151/-151/-151
f -151/-151/-151 -15/-15/-15 -14/-14/-14
f -15/-15/-15 -13/-13/-13 -14/-14/-14
f -14/-14/-14 -13/-13/-13 -12/-12/-12
f -13/-13/-13 -11/-11/-11 -12/-12/-12
f -12/-12/-12 -11/-11/-11 -10/-10/-10
f -11/-11/-11 -9/-9/-9 -10/-10/-10
f -6/-6/-6 -7/-7/-7 -8/-8/-8
f -5/-5/-5 -6/-6/-6 -8/-8/-8
f -4/-4/-4 -5/-5/-5 -8/-8/-8
f -3/-3/-3 -4/-4/-4 -8/-8/-8
f -3/-3/-3 -2/-2/-2 -4/-4/-4
f -2/-2/-2 -1/-1/-1 -4/-4/-4

