# Mesh "Knife" exported with Unity Assets Bundle Extractor; 162 vertices, 480 indices, 384 bits per vertex
g Knife
# SubMesh 0
# Vertices
v -0.025775 0.011222 0.028132
vt 0.687440 0.602937
vn -0.455731 0.119697 0.882033
v 0.025776 0.011222 0.028132
vt 0.645209 0.602937
vn 0.455732 0.119697 0.882033
v 0.025776 -0.285777 0.069713
vt 0.635573 0.891859
vn 0.428308 0.068009 0.901070
v -0.025775 -0.285777 0.069713
vt 0.687434 0.891859
vn -0.428307 0.068009 0.901070
v -0.049104 -0.285619 0.028885
vt 0.731194 0.891859
vn -0.962571 -0.045195 0.267234
v -0.049104 0.011222 -0.004863
vt 0.751392 0.602937
vn -0.971471 0.029844 0.235273
v -0.049104 0.011222 -0.040178
vt 0.785634 0.602937
vn -0.964485 0.000000 -0.264138
v -0.049104 -0.285602 -0.040178
vt 0.794383 0.891859
vn -0.961656 -0.076181 -0.263465
v -0.025775 -0.285602 -0.073173
vt 0.832689 0.891859
vn -0.407280 -0.054742 -0.911661
v -0.025775 0.011222 -0.073173
vt 0.825114 0.602937
vn -0.403228 0.000000 -0.915100
v 0.025776 -0.285602 -0.073173
vt 0.867148 0.891859
vn 0.407281 -0.054742 -0.911661
v 0.025776 0.011222 -0.073173
vt 0.860464 0.602937
vn 0.403229 0.000000 -0.915099
v 0.049105 -0.285602 -0.040178
vt 0.900881 0.891859
vn 0.961657 -0.076181 -0.263461
v 0.049105 0.011222 -0.040178
vt 0.894339 0.602937
vn 0.964486 0.000000 -0.264135
v 0.049105 0.011222 -0.004863
vt 0.927008 0.602937
vn 0.971472 0.029844 0.235270
v 0.049105 -0.285619 0.028885
vt 0.946392 0.891860
vn 0.962572 -0.045196 0.267231
v 0.025776 -0.285777 0.069713
vt 0.980292 0.891860
vn 0.428308 0.068009 0.901070
v 0.025776 0.011222 0.028132
vt 0.954758 0.602937
vn 0.455732 0.119697 0.882033
v -0.021883 -0.312823 0.023122
vt 0.740673 0.917130
vn -0.418372 -0.901389 0.111636
v -0.009184 -0.305709 0.050546
vt 0.719671 0.928717
vn -0.255625 -0.837891 0.482280
v 0.009185 -0.305709 0.050546
vt 0.719878 0.945469
vn 0.255627 -0.837892 0.482278
v 0.021883 -0.312823 0.023122
vt 0.741319 0.957042
vn 0.418370 -0.901390 0.111634
v -0.025775 -0.285777 0.069713
vt 0.698258 0.913592
vn -0.428307 0.068009 0.901070
v 0.025776 -0.285777 0.069713
vt 0.698799 0.960603
vn 0.428308 0.068009 0.901070
v 0.049105 -0.285619 0.028885
vt 0.734005 0.981868
vn 0.962572 -0.045196 0.267231
v 0.021883 -0.312823 -0.023122
vt 0.775602 0.957031
vn 0.416251 -0.904089 -0.096742
v 0.049105 -0.285602 -0.040178
vt 0.791575 0.981852
vn 0.961657 -0.076181 -0.263461
v 0.009185 -0.305709 -0.050546
vt 0.797257 0.945445
vn 0.213216 -0.859821 -0.463947
v 0.025776 -0.285602 -0.073173
vt 0.821136 0.960569
vn 0.407281 -0.054742 -0.911661
v -0.009184 -0.305709 -0.050546
vt 0.797522 0.928693
vn -0.213214 -0.859820 -0.463949
v -0.025775 -0.285602 -0.073173
vt 0.821906 0.913557
vn -0.407280 -0.054742 -0.911661
v -0.021883 -0.312823 -0.023122
vt 0.776012 0.917119
vn -0.416253 -0.904087 -0.096744
v 0.026087 0.922540 -0.003273
vt 0.223388 0.824844
vn 0.943827 0.234755 0.232553
v 0.005168 0.979491 0.021526
vt 0.201788 0.874448
vn 0.945885 0.245021 0.212759
v 0.003560 1.047482 -0.073173
vt 0.284271 0.933668
vn 0.948680 0.266389 0.170418
v 0.026087 0.965577 -0.073173
vt 0.284271 0.862329
vn 0.948680 0.266389 0.170418
v 0.026087 0.829628 0.068258
vt 0.161084 0.743917
vn 0.940159 0.176588 0.291405
v 0.005212 0.870004 0.111337
vt 0.123563 0.779084
vn 0.939981 0.185321 0.286516
v 0.004398 0.769152 0.161270
vt 0.080072 0.691243
vn 0.939853 0.120478 0.319626
v 0.026087 0.736183 0.108946
vt 0.125646 0.662527
vn 0.939769 0.115563 0.321683
v 0.003601 0.644002 0.200852
vt 0.045596 0.582237
vn 0.940949 0.068061 0.331635
v 0.026087 0.626910 0.141964
vt 0.096887 0.567350
vn 0.941047 0.065564 0.331861
v 0.003712 0.499708 0.220387
vt 0.028580 0.456557
vn 0.946869 0.028445 0.320358
v 0.026087 0.490892 0.155926
vt 0.084726 0.448879
vn 0.947180 0.027707 0.319504
v 0.004384 0.352720 0.230842
vt 0.019474 0.328532
vn 0.954914 0.005409 0.296834
v 0.026087 0.352720 0.159239
vt 0.081841 0.328532
vn 0.954849 0.005640 0.297039
v 0.026087 0.093695 0.159239
vt 0.081841 0.102922
vn 0.956536 -0.000467 0.291615
v 0.004053 0.093695 0.231100
vt 0.019249 0.102922
vn 0.956536 -0.000467 0.291615
v 0.026087 0.965577 -0.073173
vt 0.284271 0.862329
vn -0.000000 0.000000 -1.000000
v 0.003560 1.047482 -0.073173
vt 0.303892 0.933668
vn -0.000000 0.348230 -0.937409
v -0.003559 1.047482 -0.073173
vt 0.310093 0.933668
vn -0.000000 0.348230 -0.937409
v -0.026086 0.965577 -0.073173
vt 0.329714 0.862329
vn -0.000000 0.000000 -1.000000
v 0.026087 0.736183 -0.073173
vt 0.284271 0.662527
vn -0.000000 0.000000 -1.000000
v -0.026086 0.736183 -0.073173
vt 0.329714 0.662527
vn -0.000000 0.000000 -1.000000
v 0.026087 0.626910 -0.073173
vt 0.284271 0.567350
vn -0.000000 0.000000 -1.000000
v -0.026086 0.626910 -0.073173
vt 0.329714 0.567350
vn -0.000000 0.000000 -1.000000
v 0.026087 0.491589 -0.073173
vt 0.284271 0.449486
vn -0.000000 0.000000 -1.000000
v -0.026086 0.491589 -0.073173
vt 0.329714 0.449486
vn -0.000000 0.000000 -1.000000
v 0.026087 0.352720 -0.073173
vt 0.284271 0.328532
vn -0.000000 0.000000 -1.000000
v -0.026086 0.352720 -0.073173
vt 0.329713 0.328532
vn -0.000000 0.000000 -1.000000
v 0.026087 0.093695 -0.073173
vt 0.284271 0.102922
vn -0.000000 0.000000 -1.000000
v -0.026086 0.093695 -0.073173
vt 0.329487 0.102922
vn -0.000000 0.000000 -1.000000
v -0.026086 0.965577 -0.073173
vt 0.329714 0.862329
vn -0.948680 0.266390 0.170418
v -0.003559 1.047482 -0.073173
vt 0.329714 0.933668
vn -0.948680 0.266390 0.170418
v -0.005168 0.979491 0.021526
vt 0.412197 0.874448
vn -0.945885 0.245024 0.212754
v -0.026086 0.922540 -0.003273
vt 0.390596 0.824843
vn -0.943827 0.234758 0.232551
v -0.005217 0.869994 0.111326
vt 0.490412 0.779075
vn -0.941725 0.185894 0.280353
v -0.026086 0.829628 0.068258
vt 0.452900 0.743917
vn -0.942458 0.177198 0.283504
v -0.026086 0.736183 0.108946
vt 0.488339 0.662527
vn -0.948557 0.113189 0.295681
v -0.006090 0.769108 0.161138
vt 0.533798 0.691204
vn -0.947835 0.118915 0.295750
v -0.006714 0.643930 0.200622
vt 0.568188 0.582175
vn -0.952350 0.061801 0.298681
v -0.026086 0.626910 0.141963
vt 0.517097 0.567350
vn -0.952438 0.059130 0.298942
v -0.005680 0.499662 0.220242
vt 0.585277 0.456518
vn -0.954238 0.021016 0.298308
v -0.026086 0.490892 0.155926
vt 0.529258 0.448879
vn -0.954311 0.020330 0.298122
v -0.004384 0.352720 0.230840
vt 0.594508 0.328532
vn -0.956151 0.003042 0.292857
v -0.026086 0.352720 0.159239
vt 0.532144 0.328532
vn -0.956135 0.003189 0.292909
v -0.004052 0.093695 0.231100
vt 0.594735 0.102922
vn -0.956535 -0.000467 0.291616
v -0.026086 0.093695 0.159239
vt 0.532400 0.102922
vn -0.956535 -0.000467 0.291616
v -0.026086 0.093695 0.159239
vt 0.532400 0.102922
vn -0.000000 -1.000000 0.000000
v -0.004052 0.093695 0.231100
vt 0.595547 0.083638
vn -0.000071 -0.762062 0.647504
v 0.004053 0.093695 0.231100
vt 0.595547 0.076546
vn -0.000071 -0.762062 0.647504
v 0.026087 0.093695 0.159239
vt 0.532657 0.057262
vn -0.000000 -1.000000 0.000000
v -0.026086 0.093695 0.028132
vt 0.417935 0.102922
vn -0.000000 -1.000000 0.000000
v 0.026087 0.093695 0.028132
vt 0.417919 0.057262
vn -0.000000 -1.000000 0.000000
v -0.026086 0.093695 -0.073173
vt 0.329487 0.102922
vn -0.000000 -1.000000 0.000000
v 0.026087 0.093695 -0.073173
vt 0.329261 0.057262
vn -0.000000 -1.000000 0.000000
v 0.026087 0.093695 0.028132
vt 0.196034 0.102922
vn 1.000000 0.000000 0.000000
v 0.026087 0.352720 0.028132
vt 0.196034 0.328532
vn 1.000000 0.000000 0.000000
v 0.026087 0.352720 -0.073173
vt 0.284271 0.328532
vn 1.000000 0.000000 0.000000
v 0.026087 0.093695 -0.073173
vt 0.284271 0.102922
vn 1.000000 0.000000 0.000000
v 0.026087 0.352720 0.159239
vt 0.081841 0.328532
vn 1.000000 0.000000 0.000000
v 0.026087 0.093695 0.159239
vt 0.081841 0.102922
vn 1.000000 0.000000 0.000000
v 0.026087 0.490892 0.155926
vt 0.084726 0.448879
vn 1.000000 0.000000 0.000000
v 0.026087 0.491589 0.028132
vt 0.196034 0.449486
vn 1.000000 0.000000 0.000000
v 0.026087 0.626910 0.141964
vt 0.096887 0.567350
vn 1.000000 0.000000 0.000000
v 0.026087 0.626910 0.024053
vt 0.199587 0.567350
vn 1.000000 0.000000 0.000000
v 0.026087 0.736183 0.108946
vt 0.125646 0.662527
vn 1.000000 0.000000 0.000000
v 0.026087 0.736183 0.017956
vt 0.204897 0.662527
vn 1.000000 0.000000 0.000000
v 0.026087 0.626910 -0.073173
vt 0.284271 0.567350
vn 1.000000 0.000000 0.000000
v 0.026087 0.491589 -0.073173
vt 0.284271 0.449486
vn 1.000000 0.000000 0.000000
v 0.026087 0.736183 -0.073173
vt 0.284271 0.662527
vn 1.000000 0.000000 0.000000
v 0.026087 0.965577 -0.073173
vt 0.284271 0.862329
vn 1.000000 0.000000 0.000000
v 0.026087 0.922540 -0.003273
vt 0.223388 0.824844
vn 1.000000 0.000000 0.000000
v 0.026087 0.829628 0.068258
vt 0.161084 0.743917
vn 1.000000 0.000000 0.000000
v -0.026086 0.093695 -0.073173
vt 0.329487 0.102922
vn -1.000000 0.000000 0.000000
v -0.026086 0.352720 -0.073173
vt 0.329713 0.328532
vn -1.000000 0.000000 0.000000
v -0.026086 0.352720 0.028132
vt 0.417950 0.328532
vn -1.000000 0.000000 0.000000
v -0.026086 0.093695 0.028132
vt 0.417935 0.102922
vn -1.000000 0.000000 0.000000
v -0.026086 0.093695 0.159239
vt 0.532400 0.102922
vn -1.000000 0.000000 0.000000
v -0.026086 0.352720 0.159239
vt 0.532144 0.328532
vn -1.000000 0.000000 0.000000
v -0.026086 0.491589 0.028132
vt 0.417950 0.449486
vn -1.000000 0.000000 0.000000
v -0.026086 0.490892 0.155926
vt 0.529258 0.448879
vn -1.000000 0.000000 0.000000
v -0.026086 0.626910 0.024053
vt 0.414397 0.567350
vn -1.000000 0.000000 0.000000
v -0.026086 0.491589 -0.073173
vt 0.329714 0.449486
vn -1.000000 0.000000 0.000000
v -0.026086 0.626910 -0.073173
vt 0.329714 0.567350
vn -1.000000 0.000000 0.000000
v -0.026086 0.736183 0.017956
vt 0.409087 0.662527
vn -1.000000 0.000000 0.000000
v -0.026086 0.736183 -0.073173
vt 0.329714 0.662527
vn -1.000000 0.000000 0.000000
v -0.026086 0.626910 0.141963
vt 0.517097 0.567350
vn -1.000000 0.000000 0.000000
v -0.026086 0.736183 0.108946
vt 0.488339 0.662527
vn -1.000000 0.000000 0.000000
v -0.026086 0.829628 0.068258
vt 0.452900 0.743917
vn -1.000000 0.000000 0.000000
v -0.026086 0.922540 -0.003273
vt 0.390596 0.824843
vn -1.000000 0.000000 0.000000
v -0.026086 0.965577 -0.073173
vt 0.329714 0.862329
vn -1.000000 0.000000 0.000000
v 0.004398 0.769152 0.161270
vt 0.565794 0.703318
vn -0.013188 0.368310 0.929609
v 0.003601 0.644002 0.200852
vt 0.606308 0.590287
vn -0.019059 0.216757 0.976040
v -0.006714 0.643930 0.200622
vt 0.568188 0.582175
vn -0.019061 0.216480 0.976101
v -0.006090 0.769108 0.161138
vt 0.533798 0.691204
vn -0.013228 0.367799 0.929811
v -0.005680 0.499662 0.220242
vt 0.585277 0.456518
vn -0.014203 0.104124 0.994463
v 0.003712 0.499708 0.220387
vt 0.621311 0.456557
vn -0.014188 0.104041 0.994472
v -0.004384 0.352720 0.230840
vt 0.594508 0.328532
vn -0.003224 0.027852 0.999607
v 0.004384 0.352720 0.230842
vt 0.630708 0.328571
vn -0.003207 0.027711 0.999611
v -0.004052 0.093695 0.231100
vt 0.594735 0.102922
vn -0.000071 -0.762062 0.647504
v 0.004053 0.093695 0.231100
vt 0.631227 0.102999
vn -0.000071 -0.762062 0.647504
v 0.005212 0.870004 0.111337
vt 0.522303 0.795185
vn -0.003636 0.553050 0.833140
v -0.005217 0.869994 0.111326
vt 0.490412 0.779075
vn -0.003652 0.552569 0.833459
v 0.005168 0.979491 0.021526
vt 0.444078 0.890548
vn -0.000422 0.712498 0.701674
v -0.005168 0.979491 0.021526
vt 0.412197 0.874448
vn -0.000422 0.712497 0.701675
v 0.003560 1.047482 -0.073173
vt 0.361595 0.949768
vn -0.000000 0.348230 -0.937409
v -0.003559 1.047482 -0.073173
vt 0.329714 0.933668
vn -0.000000 0.348230 -0.937409
v -0.049104 0.011222 -0.040178
vt 0.785634 0.602937
vn -0.946334 0.000000 -0.323189
v -0.049104 0.093695 -0.040178
vt 0.786319 0.526663
vn -0.946334 0.000000 -0.323189
v -0.049104 0.093695 -0.004863
vt 0.750608 0.526663
vn -0.946334 0.000000 0.323189
v -0.049104 0.011222 -0.004863
vt 0.751392 0.602937
vn -0.946334 0.000000 0.323189
v -0.025775 0.093695 0.028132
vt 0.687350 0.526663
vn -0.403228 0.000000 0.915099
v -0.025775 0.011222 0.028132
vt 0.687440 0.602937
vn -0.403228 0.000000 0.915099
v 0.025776 0.093695 0.028132
vt 0.645327 0.526663
vn 0.403229 0.000000 0.915099
v 0.025776 0.011222 0.028132
vt 0.645209 0.602937
vn 0.403229 0.000000 0.915099
v -0.025775 0.093695 -0.073173
vt 0.824075 0.526663
vn -0.403228 0.000000 -0.915100
v 0.025776 0.093695 -0.073173
vt 0.858054 0.526663
vn 0.403229 0.000000 -0.915099
v 0.049105 0.011222 -0.040178
vt 0.894339 0.602937
vn 0.946336 0.000000 -0.323186
v 0.049105 0.093695 -0.040178
vt 0.891899 0.526663
vn 0.946336 0.000000 -0.323186
v 0.049105 0.011222 -0.004863
vt 0.927008 0.602937
vn 0.946336 0.000000 0.323185
v 0.049105 0.093695 -0.004863
vt 0.924551 0.526663
vn 0.946336 0.000000 0.323185
v 0.025776 0.011222 0.028132
vt 0.954758 0.602937
vn 0.403229 0.000000 0.915099
v 0.025776 0.093695 0.028132
vt 0.952239 0.526663
vn 0.403229 0.000000 0.915099
v -0.049104 0.093695 -0.040178
vt 0.786319 0.526663
vn -0.000000 1.000000 0.000000
v -0.025775 0.093695 -0.073173
vt 0.821370 0.504069
vn -0.000000 1.000000 0.000000
v 0.025776 0.093695 -0.073173
vt 0.821629 0.449555
vn -0.000000 1.000000 0.000000
v 0.049105 0.093695 -0.040178
vt 0.786905 0.424885
vn -0.000000 1.000000 0.000000
v 0.049105 0.093695 -0.004863
vt 0.749766 0.424884
vn -0.000000 1.000000 0.000000
v -0.049104 0.093695 -0.004863
vt 0.750608 0.526663
vn -0.000000 1.000000 0.000000
v -0.025775 0.093695 0.028132
vt 0.715474 0.504066
vn -0.000000 1.000000 -0.000000
v 0.025776 0.093695 0.028132
vt 0.715128 0.449553
vn -0.000000 1.000000 -0.000000
# Faces (1 to 162)
g Knife_0
f -160/-160/-160 -161/-161/-161 -162/-162/-162
f -159/-159/-159 -160/-160/-160 -162/-162/-162
f -159/-159/-159 -162/-162/-162 -158/-158/-158
f -162/-162/-162 -157/-157/-157 -158/-158/-158
f -158/-158/-158 -157/-157/-157 -156/-156/-156
f -155/-155/-155 -158/-158/-158 -156/-156/-156
f -154/-154/-154 -155/-155/-155 -156/-156/-156
f -153/-153/-153 -154/-154/-154 -156/-156/-156
f -154/-154/-154 -153/-153/-153 -152/-152/-152
f -153/-153/-153 -151/-151/-151 -152/-152/-152
f -150/-150/-150 -152/-152/-152 -151/-151/-151
f -149/-149/-149 -150/-150/-150 -151/-151/-151
f -150/-150/-150 -149/-149/-149 -148/-148/-148
f -147/-147/-147 -150/-150/-150 -148/-148/-148
f -147/-147/-147 -148/-148/-148 -146/-146/-146
f -148/-148/-148 -145/-145/-145 -146/-146/-146
f -158/-158/-158 -155/-155/-155 -144/-144/-144
f -158/-158/-158 -144/-144/-144 -143/-143/-143
f -142/-142/-142 -143/-143/-143 -144/-144/-144
f -141/-141/-141 -142/-142/-142 -144/-144/-144
f -143/-143/-143 -142/-142/-142 -140/-140/-140
f -140/-140/-140 -158/-158/-158 -143/-143/-143
f -142/-142/-142 -139/-139/-139 -140/-140/-140
f -142/-142/-142 -141/-141/-141 -139/-139/-139
f -141/-141/-141 -138/-138/-138 -139/-139/-139
f -141/-141/-141 -137/-137/-137 -138/-138/-138
f -137/-137/-137 -141/-141/-141 -144/-144/-144
f -137/-137/-137 -136/-136/-136 -138/-138/-138
f -136/-136/-136 -137/-137/-137 -135/-135/-135
f -134/-134/-134 -136/-136/-136 -135/-135/-135
f -134/-134/-134 -135/-135/-135 -133/-133/-133
f -133/-133/-133 -135/-135/-135 -137/-137/-137
f -132/-132/-132 -134/-134/-134 -133/-133/-133
f -132/-132/-132 -133/-133/-133 -131/-131/-131
f -131/-131/-131 -137/-137/-137 -144/-144/-144
f -131/-131/-131 -133/-133/-133 -137/-137/-137
f -155/-155/-155 -131/-131/-131 -144/-144/-144
f -155/-155/-155 -132/-132/-132 -131/-131/-131
f -128/-128/-128 -129/-129/-129 -130/-130/-130
f -127/-127/-127 -128/-128/-128 -130/-130/-130
f -130/-130/-130 -129/-129/-129 -126/-126/-126
f -129/-129/-129 -125/-125/-125 -126/-126/-126
f -125/-125/-125 -124/-124/-124 -126/-126/-126
f -124/-124/-124 -123/-123/-123 -126/-126/-126
f -124/-124/-124 -122/-122/-122 -123/-123/-123
f -122/-122/-122 -121/-121/-121 -123/-123/-123
f -122/-122/-122 -120/-120/-120 -121/-121/-121
f -120/-120/-120 -119/-119/-119 -121/-121/-121
f -120/-120/-120 -118/-118/-118 -119/-119/-119
f -118/-118/-118 -117/-117/-117 -119/-119/-119
f -117/-117/-117 -118/-118/-118 -116/-116/-116
f -118/-118/-118 -115/-115/-115 -116/-116/-116
f -112/-112/-112 -113/-113/-113 -114/-114/-114
f -111/-111/-111 -112/-112/-112 -114/-114/-114
f -111/-111/-111 -114/-114/-114 -110/-110/-110
f -109/-109/-109 -111/-111/-111 -110/-110/-110
f -109/-109/-109 -110/-110/-110 -108/-108/-108
f -107/-107/-107 -109/-109/-109 -108/-108/-108
f -107/-107/-107 -108/-108/-108 -106/-106/-106
f -105/-105/-105 -107/-107/-107 -106/-106/-106
f -105/-105/-105 -106/-106/-106 -104/-104/-104
f -103/-103/-103 -105/-105/-105 -104/-104/-104
f -103/-103/-103 -104/-104/-104 -102/-102/-102
f -101/-101/-101 -103/-103/-103 -102/-102/-102
f -98/-98/-98 -99/-99/-99 -100/-100/-100
f -97/-97/-97 -98/-98/-98 -100/-100/-100
f -96/-96/-96 -98/-98/-98 -97/-97/-97
f -95/-95/-95 -96/-96/-96 -97/-97/-97
f -96/-96/-96 -95/-95/-95 -94/-94/-94
f -93/-93/-93 -96/-96/-96 -94/-94/-94
f -93/-93/-93 -94/-94/-94 -92/-92/-92
f -94/-94/-94 -91/-91/-91 -92/-92/-92
f -92/-92/-92 -91/-91/-91 -90/-90/-90
f -91/-91/-91 -89/-89/-89 -90/-90/-90
f -90/-90/-90 -89/-89/-89 -88/-88/-88
f -89/-89/-89 -87/-87/-87 -88/-88/-88
f -86/-86/-86 -88/-88/-88 -87/-87/-87
f -85/-85/-85 -86/-86/-86 -87/-87/-87
f -82/-82/-82 -83/-83/-83 -84/-84/-84
f -81/-81/-81 -82/-82/-82 -84/-84/-84
f -81/-81/-81 -84/-84/-84 -80/-80/-80
f -79/-79/-79 -81/-81/-81 -80/-80/-80
f -80/-80/-80 -78/-78/-78 -79/-79/-79
f -78/-78/-78 -77/-77/-77 -79/-79/-79
f -74/-74/-74 -75/-75/-75 -76/-76/-76
f -73/-73/-73 -74/-74/-74 -76/-76/-76
f -75/-75/-75 -72/-72/-72 -76/-76/-76
f -72/-72/-72 -71/-71/-71 -76/-76/-76
f -70/-70/-70 -72/-72/-72 -75/-75/-75
f -69/-69/-69 -70/-70/-70 -75/-75/-75
f -68/-68/-68 -70/-70/-70 -69/-69/-69
f -67/-67/-67 -68/-68/-68 -69/-69/-69
f -68/-68/-68 -67/-67/-67 -66/-66/-66
f -67/-67/-67 -65/-65/-65 -66/-66/-66
f -64/-64/-64 -67/-67/-67 -69/-69/-69
f -63/-63/-63 -64/-64/-64 -69/-69/-69
f -63/-63/-63 -69/-69/-69 -75/-75/-75
f -74/-74/-74 -63/-63/-63 -75/-75/-75
f -62/-62/-62 -65/-65/-65 -67/-67/-67
f -64/-64/-64 -62/-62/-62 -67/-67/-67
f -62/-62/-62 -61/-61/-61 -65/-65/-65
f -61/-61/-61 -60/-60/-60 -65/-65/-65
f -65/-65/-65 -60/-60/-60 -59/-59/-59
f -66/-66/-66 -65/-65/-65 -59/-59/-59
f -56/-56/-56 -57/-57/-57 -58/-58/-58
f -55/-55/-55 -56/-56/-56 -58/-58/-58
f -55/-55/-55 -54/-54/-54 -56/-56/-56
f -54/-54/-54 -53/-53/-53 -56/-56/-56
f -52/-52/-52 -56/-56/-56 -53/-53/-53
f -56/-56/-56 -52/-52/-52 -57/-57/-57
f -51/-51/-51 -52/-52/-52 -53/-53/-53
f -50/-50/-50 -52/-52/-52 -51/-51/-51
f -52/-52/-52 -50/-50/-50 -49/-49/-49
f -52/-52/-52 -49/-49/-49 -57/-57/-57
f -50/-50/-50 -48/-48/-48 -49/-49/-49
f -50/-50/-50 -47/-47/-47 -48/-48/-48
f -47/-47/-47 -46/-46/-46 -48/-48/-48
f -45/-45/-45 -50/-50/-50 -51/-51/-51
f -50/-50/-50 -45/-45/-45 -44/-44/-44
f -47/-47/-47 -50/-50/-50 -44/-44/-44
f -47/-47/-47 -44/-44/-44 -43/-43/-43
f -42/-42/-42 -47/-47/-47 -43/-43/-43
f -47/-47/-47 -42/-42/-42 -46/-46/-46
f -42/-42/-42 -41/-41/-41 -46/-46/-46
f -38/-38/-38 -39/-39/-39 -40/-40/-40
f -37/-37/-37 -38/-38/-38 -40/-40/-40
f -38/-38/-38 -36/-36/-36 -39/-39/-39
f -36/-36/-36 -35/-35/-35 -39/-39/-39
f -36/-36/-36 -34/-34/-34 -35/-35/-35
f -34/-34/-34 -33/-33/-33 -35/-35/-35
f -33/-33/-33 -34/-34/-34 -32/-32/-32
f -31/-31/-31 -33/-33/-33 -32/-32/-32
f -37/-37/-37 -40/-40/-40 -30/-30/-30
f -29/-29/-29 -37/-37/-37 -30/-30/-30
f -30/-30/-30 -28/-28/-28 -29/-29/-29
f -28/-28/-28 -27/-27/-27 -29/-29/-29
f -28/-28/-28 -26/-26/-26 -27/-27/-27
f -26/-26/-26 -25/-25/-25 -27/-27/-27
f -22/-22/-22 -23/-23/-23 -24/-24/-24
f -21/-21/-21 -22/-22/-22 -24/-24/-24
f -20/-20/-20 -22/-22/-22 -21/-21/-21
f -19/-19/-19 -20/-20/-20 -21/-21/-21
f -18/-18/-18 -20/-20/-20 -19/-19/-19
f -17/-17/-17 -18/-18/-18 -19/-19/-19
f -24/-24/-24 -23/-23/-23 -153/-153/-153
f -23/-23/-23 -16/-16/-16 -153/-153/-153
f -153/-153/-153 -16/-16/-16 -151/-151/-151
f -16/-16/-16 -15/-15/-15 -151/-151/-151
f -151/-151/-151 -15/-15/-15 -14/-14/-14
f -15/-15/-15 -13/-13/-13 -14/-14/-14
f -14/-14/-14 -13/-13/-13 -12/-12/-12
f -13/-13/-13 -11/-11/-11 -12/-12/-12
f -12/-12/-12 -11/-11/-11 -10/-10/-10
f -11/-11/-11 -9/-9/-9 -10/-10/-10
f -6/-6/-6 -7/-7/-7 -8/-8/-8
f -5/-5/-5 -6/-6/-6 -8/-8/-8
f -4/-4/-4 -5/-5/-5 -8/-8/-8
f -3/-3/-3 -4/-4/-4 -8/-8/-8
f -3/-3/-3 -2/-2/-2 -4/-4/-4
f -2/-2/-2 -1/-1/-1 -4/-4/-4

