# Mesh "ThePass_FatScrolling" exported with Unity Assets Bundle Extractor; 12 vertices, 36 indices, 384 bits per vertex
g ThePass_FatScrolling
# SubMesh 0
# Vertices
v -0.000000 0.500000 -0.056604
vt 0.560964 0.500000
vn -0.000000 1.000000 0.000000
v -0.000000 0.500000 1.201290
vt -0.494669 0.500000
vn -0.000000 1.000000 0.000000
v -1.006917 0.500000 1.201290
vt -0.494669 0.998008
vn -0.000000 1.000000 0.000000
v -1.006917 0.500000 -0.056604
vt 0.560964 0.998008
vn -0.000000 1.000000 0.000000
v 1.006917 0.500000 -0.056604
vt 0.560964 0.001992
vn -0.000000 1.000000 0.000000
v 1.006917 0.500000 1.201290
vt -0.494669 0.001992
vn -0.000000 1.000000 0.000000
v -0.000000 0.500000 -0.387305
vt 0.841335 0.500000
vn -0.000000 1.000000 0.000000
v -1.006917 0.500000 -0.387305
vt 0.841335 0.998008
vn -0.000000 1.000000 0.000000
v 1.006917 0.500000 -0.387305
vt 0.841335 0.001992
vn -0.000000 1.000000 0.000000
v -0.000000 0.500000 -0.598721
vt 1.000634 0.500000
vn -0.000000 1.000000 0.000000
v -1.006917 0.500000 -0.598721
vt 1.000634 0.998008
vn -0.000000 1.000000 0.000000
v 1.006917 0.500000 -0.598721
vt 1.000634 0.001992
vn -0.000000 1.000000 0.000000
# Faces (1 to 12)
g ThePass_FatScrolling_0
f -10/-10/-10 -11/-11/-11 -12/-12/-12
f -9/-9/-9 -10/-10/-10 -12/-12/-12
f -12/-12/-12 -11/-11/-11 -8/-8/-8
f -11/-11/-11 -7/-7/-7 -8/-8/-8
f -9/-9/-9 -12/-12/-12 -6/-6/-6
f -5/-5/-5 -9/-9/-9 -6/-6/-6
f -12/-12/-12 -8/-8/-8 -4/-4/-4
f -6/-6/-6 -12/-12/-12 -4/-4/-4
f -5/-5/-5 -6/-6/-6 -3/-3/-3
f -2/-2/-2 -5/-5/-5 -3/-3/-3
f -6/-6/-6 -4/-4/-4 -1/-1/-1
f -3/-3/-3 -6/-6/-6 -1/-1/-1

