# Mesh "Ball_Cannonball" exported with Unity Assets Bundle Extractor; 130 vertices, 672 indices, 384 bits per vertex
g Ball_Cannonball
# SubMesh 0
# Vertices
v 0.101135 -0.264278 -0.041891
vt 0.254774 0.074260
vn 0.446434 -0.875501 -0.184920
v 0.186873 -0.202270 -0.077405
vt 0.278847 0.134552
vn 0.688835 -0.666404 -0.285326
v 0.143026 -0.202270 -0.143026
vt 0.318593 0.116579
vn 0.527212 -0.666405 -0.527211
v 0.077406 -0.264278 -0.077405
vt 0.278316 0.060001
vn 0.341687 -0.875500 -0.341686
v 0.077406 -0.202270 -0.186873
vt 0.358970 0.087399
vn 0.285325 -0.666405 -0.688835
v 0.041891 -0.264278 -0.101135
vt 0.298326 0.037785
vn 0.184918 -0.875501 -0.446434
v -0.000000 -0.202270 -0.202270
vt 0.398714 0.040923
vn -0.000000 -0.666405 -0.745590
v -0.000000 -0.264278 -0.109468
vt 0.311603 0.006971
vn -0.000000 -0.875501 -0.483217
v 0.109468 -0.264278 -0.000000
vt 0.229266 0.081312
vn 0.483217 -0.875501 0.000000
v 0.202270 -0.202270 -0.000000
vt 0.239054 0.144477
vn 0.745591 -0.666404 0.000000
v 0.101135 -0.264278 0.041891
vt 0.202596 0.081327
vn 0.446434 -0.875501 0.184920
v 0.186873 -0.202270 0.077405
vt 0.197821 0.147479
vn 0.688836 -0.666404 0.285327
v 0.077406 -0.264278 0.077405
vt 0.175424 0.073693
vn 0.341687 -0.875500 0.341687
v 0.143026 -0.202270 0.143026
vt 0.153282 0.142941
vn 0.527212 -0.666405 0.527212
v 0.041891 -0.264278 0.101135
vt 0.148894 0.056874
vn 0.184918 -0.875501 0.446434
v 0.077406 -0.202270 0.186873
vt 0.103084 0.127968
vn 0.285325 -0.666405 0.688835
v -0.000000 -0.264278 0.109468
vt 0.125660 0.028363
vn -0.000000 -0.875500 0.483218
v -0.000000 -0.202270 0.202270
vt 0.044749 0.095254
vn -0.000000 -0.666406 0.745589
v 0.101135 -0.109468 -0.244161
vt 0.400784 0.148103
vn 0.357210 -0.358740 -0.862384
v -0.000000 -0.109468 -0.264278
vt 0.469774 0.107066
vn -0.000000 -0.358740 -0.933438
v 0.101135 -0.109468 0.244161
vt 0.083627 0.203984
vn 0.357210 -0.358740 0.862384
v -0.000000 -0.109468 0.264278
vt 0.000000 0.191842
vn -0.000000 -0.358740 0.933438
v 0.186873 -0.109468 0.186873
vt 0.146803 0.206503
vn 0.660040 -0.358741 0.660039
v 0.244161 -0.109468 0.101135
vt 0.199576 0.204088
vn 0.862384 -0.358740 0.357212
v 0.264278 -0.109468 -0.000000
vt 0.247579 0.197964
vn 0.933438 -0.358739 0.000000
v 0.244161 -0.109468 -0.101135
vt 0.294694 0.187920
vn 0.862384 -0.358740 -0.357211
v -0.000000 -0.000000 -0.286053
vt 0.510642 0.199092
vn -0.000000 0.000000 -1.000000
v 0.109468 -0.000000 -0.264278
vt 0.423834 0.216899
vn 0.382683 0.000000 -0.923880
v 0.186873 -0.109468 -0.186873
vt 0.344405 0.172474
vn 0.660041 -0.358740 -0.660039
v 0.202270 -0.000000 -0.202270
vt 0.359124 0.229269
vn 0.707108 0.000000 -0.707106
v 0.264278 -0.000000 -0.109467
vt 0.305013 0.238937
vn 0.923880 0.000000 -0.382683
v 0.109468 -0.000000 0.264278
vt 0.086808 0.278145
vn 0.382683 0.000000 0.923880
v -0.000000 -0.000000 0.286053
vt 0.000000 0.295952
vn -0.000000 0.000000 1.000000
v 0.202270 -0.000000 0.202270
vt 0.151518 0.265776
vn 0.707108 0.000000 0.707105
v 0.264278 -0.000000 0.109468
vt 0.205629 0.256107
vn 0.923880 0.000000 0.382683
v 0.286053 -0.000000 -0.000000
vt 0.255321 0.247522
vn 1.000000 0.000000 0.000000
v 0.186873 0.109468 -0.186873
vt 0.363839 0.288541
vn 0.660041 0.358740 -0.660039
v 0.244161 0.109468 -0.101135
vt 0.311066 0.290956
vn 0.862384 0.358740 -0.357211
v 0.101135 0.109468 -0.244161
vt 0.427015 0.291060
vn 0.357210 0.358740 -0.862384
v -0.000000 0.109468 -0.264278
vt 0.510642 0.303202
vn -0.000000 0.358740 -0.933438
v 0.101135 0.109468 0.244161
vt 0.109857 0.346941
vn 0.357210 0.358740 0.862384
v -0.000000 0.109468 0.264278
vt 0.040867 0.387978
vn -0.000000 0.358740 0.933438
v 0.244161 0.109468 0.101135
vt 0.215948 0.307124
vn 0.862384 0.358740 0.357212
v 0.186873 0.109468 0.186873
vt 0.166237 0.322571
vn 0.660040 0.358741 0.660039
v 0.264278 0.109468 -0.000000
vt 0.263063 0.297080
vn 0.933438 0.358739 0.000000
v 0.143026 0.202270 -0.143026
vt 0.357360 0.352103
vn 0.527212 0.666405 -0.527211
v 0.186873 0.202270 -0.077405
vt 0.312821 0.347566
vn 0.688835 0.666405 -0.285326
v 0.077406 0.202270 -0.186873
vt 0.407558 0.367076
vn 0.285325 0.666405 -0.688835
v -0.000000 0.202270 -0.202270
vt 0.465893 0.399790
vn -0.000000 0.666405 -0.745590
v 0.077406 0.202270 0.186873
vt 0.151672 0.407646
vn 0.285325 0.666405 0.688835
v -0.000000 0.202270 0.202270
vt 0.111928 0.454121
vn -0.000000 0.666406 0.745589
v 0.143026 0.202270 0.143026
vt 0.192049 0.378465
vn 0.527212 0.666405 0.527212
v 0.186873 0.202270 0.077405
vt 0.231795 0.360492
vn 0.688835 0.666404 0.285327
v 0.202270 0.202270 -0.000000
vt 0.271588 0.350567
vn 0.745591 0.666404 0.000000
v 0.077406 0.264278 -0.077405
vt 0.335218 0.421351
vn 0.341687 0.875500 -0.341686
v 0.101135 0.264278 -0.041891
vt 0.308046 0.413717
vn 0.446434 0.875501 -0.184920
v 0.041891 0.264278 -0.101135
vt 0.361749 0.438170
vn 0.184918 0.875501 -0.446434
v -0.000000 0.264278 -0.109468
vt 0.384982 0.466681
vn -0.000000 0.875501 -0.483217
v 0.041891 0.264278 0.101135
vt 0.212316 0.457260
vn 0.184918 0.875501 0.446434
v -0.000000 0.264278 0.109468
vt 0.199039 0.488073
vn -0.000000 0.875500 0.483218
v 0.077406 0.264278 0.077405
vt 0.232326 0.435043
vn 0.341687 0.875500 0.341687
v 0.101135 0.264278 0.041891
vt 0.255868 0.420785
vn 0.446434 0.875501 0.184920
v 0.109468 0.264278 -0.000000
vt 0.281376 0.413732
vn 0.483216 0.875501 0.000000
v -0.000000 0.286053 -0.000000
vt 0.291748 0.495045
vn -0.000000 1.000000 0.000000
v -0.000000 -0.264278 -0.109468
vt 0.125660 0.528359
vn -0.000000 -0.875501 -0.483217
v -0.000000 -0.202270 -0.202270
vt 0.044749 0.595250
vn -0.000000 -0.666405 -0.745590
v -0.077405 -0.202270 -0.186873
vt 0.103083 0.627963
vn -0.285326 -0.666405 -0.688835
v -0.041891 -0.264278 -0.101135
vt 0.148893 0.556869
vn -0.184920 -0.875501 -0.446434
v -0.143026 -0.202270 -0.143026
vt 0.153282 0.642937
vn -0.527213 -0.666405 -0.527211
v -0.077405 -0.264278 -0.077405
vt 0.175424 0.573688
vn -0.341688 -0.875500 -0.341686
v -0.186873 -0.202270 -0.077405
vt 0.197821 0.647474
vn -0.688835 -0.666405 -0.285327
v -0.101135 -0.264278 -0.041891
vt 0.202596 0.581322
vn -0.446435 -0.875500 -0.184921
v -0.202270 -0.202270 -0.000000
vt 0.239054 0.644473
vn -0.745591 -0.666404 -0.000002
v -0.109468 -0.264278 -0.000000
vt 0.229266 0.581308
vn -0.483218 -0.875500 -0.000001
v -0.186873 -0.202270 0.077405
vt 0.278847 0.634548
vn -0.688835 -0.666405 0.285326
v -0.101135 -0.264278 0.041891
vt 0.254775 0.574255
vn -0.446434 -0.875501 0.184920
v -0.143026 -0.202270 0.143026
vt 0.318594 0.616575
vn -0.527211 -0.666406 0.527212
v -0.077405 -0.264278 0.077405
vt 0.278317 0.559996
vn -0.341687 -0.875500 0.341687
v -0.077405 -0.202270 0.186873
vt 0.358971 0.587394
vn -0.285326 -0.666405 0.688835
v -0.041891 -0.264278 0.101135
vt 0.298327 0.537780
vn -0.184920 -0.875501 0.446434
v -0.000000 -0.202270 0.202270
vt 0.398715 0.540919
vn -0.000000 -0.666406 0.745589
v -0.000000 -0.264278 0.109468
vt 0.311604 0.506966
vn -0.000000 -0.875500 0.483218
v -0.186873 -0.109468 -0.186873
vt 0.146803 0.706499
vn -0.660040 -0.358740 -0.660039
v -0.244161 -0.109468 -0.101135
vt 0.199576 0.704084
vn -0.862384 -0.358740 -0.357211
v -0.264278 -0.109468 0.000000
vt 0.247579 0.697960
vn -0.933438 -0.358740 -0.000001
v -0.244161 -0.109468 0.101135
vt 0.294694 0.687916
vn -0.862384 -0.358740 0.357211
v -0.186873 -0.109468 0.186873
vt 0.344405 0.672470
vn -0.660040 -0.358740 0.660039
v -0.101135 -0.109468 0.244161
vt 0.400785 0.648099
vn -0.357211 -0.358740 0.862384
v -0.000000 -0.109468 0.264278
vt 0.469775 0.607063
vn -0.000000 -0.358740 0.933438
v -0.264278 -0.000000 -0.109467
vt 0.205629 0.756103
vn -0.923880 0.000000 -0.382683
v -0.202270 -0.000000 -0.202270
vt 0.151517 0.765771
vn -0.707108 0.000000 -0.707106
v -0.101135 -0.109468 -0.244161
vt 0.083627 0.703980
vn -0.357212 -0.358739 -0.862384
v -0.000000 -0.109468 -0.264278
vt 0.000000 0.691837
vn -0.000000 -0.358740 -0.933438
v -0.109467 -0.000000 -0.264278
vt 0.086808 0.778140
vn -0.382683 0.000000 -0.923880
v -0.000000 -0.000000 -0.286053
vt 0.000000 0.795948
vn -0.000000 0.000000 -1.000000
v -0.286053 -0.000000 0.000000
vt 0.255321 0.747518
vn -1.000000 0.000000 0.000000
v -0.264278 -0.000000 0.109468
vt 0.305013 0.738933
vn -0.923880 0.000000 0.382682
v -0.202270 -0.000000 0.202270
vt 0.359124 0.729265
vn -0.707107 0.000000 0.707106
v -0.109468 -0.000000 0.264278
vt 0.423834 0.716896
vn -0.382684 0.000000 0.923879
v -0.000000 -0.000000 0.286053
vt 0.510642 0.699089
vn -0.000000 0.000000 1.000000
v -0.101135 0.109468 -0.244161
vt 0.109857 0.846937
vn -0.357212 0.358740 -0.862384
v -0.000000 0.109468 -0.264278
vt 0.040867 0.887974
vn -0.000000 0.358740 -0.933438
v -0.186873 0.109468 -0.186873
vt 0.166237 0.822566
vn -0.660040 0.358740 -0.660039
v -0.244161 0.109468 -0.101135
vt 0.215947 0.807119
vn -0.862384 0.358740 -0.357211
v -0.264278 0.109468 0.000000
vt 0.263063 0.797076
vn -0.933438 0.358740 -0.000001
v -0.244161 0.109468 0.101135
vt 0.311066 0.790952
vn -0.862384 0.358740 0.357211
v -0.186873 0.109468 0.186873
vt 0.363838 0.788537
vn -0.660040 0.358740 0.660039
v -0.101135 0.109468 0.244161
vt 0.427015 0.791057
vn -0.357211 0.358740 0.862384
v -0.000000 0.109468 0.264278
vt 0.510641 0.803200
vn -0.000000 0.358740 0.933438
v -0.077405 0.202270 -0.186873
vt 0.151671 0.907641
vn -0.285326 0.666405 -0.688835
v -0.000000 0.202270 -0.202270
vt 0.111928 0.954116
vn -0.000000 0.666405 -0.745590
v -0.143026 0.202270 -0.143026
vt 0.192048 0.878461
vn -0.527213 0.666405 -0.527211
v -0.186873 0.202270 -0.077405
vt 0.231795 0.860488
vn -0.688835 0.666405 -0.285327
v -0.202270 0.202270 -0.000000
vt 0.271588 0.850563
vn -0.745591 0.666404 -0.000002
v -0.186873 0.202270 0.077405
vt 0.312821 0.847561
vn -0.688835 0.666405 0.285326
v -0.143026 0.202270 0.143026
vt 0.357359 0.852099
vn -0.527211 0.666406 0.527211
v -0.077405 0.202270 0.186873
vt 0.407558 0.867073
vn -0.285326 0.666405 0.688835
v -0.000000 0.202270 0.202270
vt 0.465892 0.899787
vn -0.000000 0.666406 0.745589
v -0.041891 0.264278 -0.101135
vt 0.212315 0.957255
vn -0.184920 0.875501 -0.446434
v -0.000000 0.264278 -0.109468
vt 0.199038 0.988068
vn -0.000000 0.875501 -0.483217
v -0.077405 0.264278 -0.077405
vt 0.232325 0.935039
vn -0.341688 0.875500 -0.341686
v -0.101135 0.264278 -0.041891
vt 0.255867 0.920781
vn -0.446435 0.875500 -0.184921
v -0.109468 0.264278 -0.000000
vt 0.281375 0.913728
vn -0.483218 0.875500 -0.000001
v -0.101135 0.264278 0.041891
vt 0.308045 0.913713
vn -0.446434 0.875501 0.184920
v -0.077405 0.264278 0.077405
vt 0.335217 0.921347
vn -0.341687 0.875500 0.341687
v -0.041891 0.264278 0.101135
vt 0.361747 0.938166
vn -0.184920 0.875501 0.446434
v -0.000000 0.264278 0.109468
vt 0.384980 0.966677
vn -0.000000 0.875500 0.483218
v -0.000000 0.286053 -0.000000
vt 0.291746 0.995040
vn -0.000000 1.000000 0.000000
v -0.000000 -0.286053 -0.000000
vt 0.218895 0.000000
vn -0.000000 -1.000000 0.000000
v -0.000000 -0.286053 -0.000000
vt 0.218894 0.499995
vn -0.000000 -1.000000 0.000000
# Faces (1 to 130)
g Ball_Cannonball_0
f -128/-128/-128 -129/-129/-129 -130/-130/-130
f -127/-127/-127 -128/-128/-128 -130/-130/-130
f -126/-126/-126 -128/-128/-128 -127/-127/-127
f -125/-125/-125 -126/-126/-126 -127/-127/-127
f -124/-124/-124 -126/-126/-126 -125/-125/-125
f -123/-123/-123 -124/-124/-124 -125/-125/-125
f -130/-130/-130 -129/-129/-129 -122/-122/-122
f -129/-129/-129 -121/-121/-121 -122/-122/-122
f -122/-122/-122 -121/-121/-121 -120/-120/-120
f -121/-121/-121 -119/-119/-119 -120/-120/-120
f -120/-120/-120 -119/-119/-119 -118/-118/-118
f -119/-119/-119 -117/-117/-117 -118/-118/-118
f -118/-118/-118 -117/-117/-117 -116/-116/-116
f -117/-117/-117 -115/-115/-115 -116/-116/-116
f -116/-116/-116 -115/-115/-115 -114/-114/-114
f -115/-115/-115 -113/-113/-113 -114/-114/-114
f -126/-126/-126 -112/-112/-112 -128/-128/-128
f -111/-111/-111 -112/-112/-112 -126/-126/-126
f -124/-124/-124 -111/-111/-111 -126/-126/-126
f -115/-115/-115 -110/-110/-110 -113/-113/-113
f -110/-110/-110 -109/-109/-109 -113/-113/-113
f -108/-108/-108 -110/-110/-110 -115/-115/-115
f -117/-117/-117 -108/-108/-108 -115/-115/-115
f -107/-107/-107 -108/-108/-108 -117/-117/-117
f -119/-119/-119 -107/-107/-107 -117/-117/-117
f -106/-106/-106 -107/-107/-107 -119/-119/-119
f -121/-121/-121 -106/-106/-106 -119/-119/-119
f -105/-105/-105 -106/-106/-106 -121/-121/-121
f -111/-111/-111 -104/-104/-104 -112/-112/-112
f -104/-104/-104 -103/-103/-103 -112/-112/-112
f -112/-112/-112 -103/-103/-103 -102/-102/-102
f -102/-102/-102 -105/-105/-105 -129/-129/-129
f -128/-128/-128 -102/-102/-102 -129/-129/-129
f -112/-112/-112 -102/-102/-102 -128/-128/-128
f -129/-129/-129 -105/-105/-105 -121/-121/-121
f -102/-102/-102 -101/-101/-101 -105/-105/-105
f -103/-103/-103 -101/-101/-101 -102/-102/-102
f -101/-101/-101 -100/-100/-100 -105/-105/-105
f -105/-105/-105 -100/-100/-100 -106/-106/-106
f -110/-110/-110 -99/-99/-99 -109/-109/-109
f -99/-99/-99 -98/-98/-98 -109/-109/-109
f -97/-97/-97 -99/-99/-99 -110/-110/-110
f -108/-108/-108 -97/-97/-97 -110/-110/-110
f -96/-96/-96 -97/-97/-97 -108/-108/-108
f -107/-107/-107 -96/-96/-96 -108/-108/-108
f -95/-95/-95 -96/-96/-96 -107/-107/-107
f -106/-106/-106 -95/-95/-95 -107/-107/-107
f -100/-100/-100 -95/-95/-95 -106/-106/-106
f -101/-101/-101 -94/-94/-94 -100/-100/-100
f -94/-94/-94 -93/-93/-93 -100/-100/-100
f -100/-100/-100 -93/-93/-93 -95/-95/-95
f -92/-92/-92 -94/-94/-94 -101/-101/-101
f -103/-103/-103 -92/-92/-92 -101/-101/-101
f -91/-91/-91 -92/-92/-92 -103/-103/-103
f -104/-104/-104 -91/-91/-91 -103/-103/-103
f -99/-99/-99 -90/-90/-90 -98/-98/-98
f -90/-90/-90 -89/-89/-89 -98/-98/-98
f -96/-96/-96 -88/-88/-88 -97/-97/-97
f -88/-88/-88 -87/-87/-87 -97/-97/-97
f -87/-87/-87 -90/-90/-90 -99/-99/-99
f -97/-97/-97 -87/-87/-87 -99/-99/-99
f -93/-93/-93 -86/-86/-86 -95/-95/-95
f -86/-86/-86 -88/-88/-88 -96/-96/-96
f -95/-95/-95 -86/-86/-86 -96/-96/-96
f -94/-94/-94 -85/-85/-85 -93/-93/-93
f -85/-85/-85 -84/-84/-84 -93/-93/-93
f -93/-93/-93 -84/-84/-84 -86/-86/-86
f -83/-83/-83 -85/-85/-85 -94/-94/-94
f -92/-92/-92 -83/-83/-83 -94/-94/-94
f -82/-82/-82 -83/-83/-83 -92/-92/-92
f -91/-91/-91 -82/-82/-82 -92/-92/-92
f -90/-90/-90 -81/-81/-81 -89/-89/-89
f -81/-81/-81 -80/-80/-80 -89/-89/-89
f -79/-79/-79 -81/-81/-81 -90/-90/-90
f -87/-87/-87 -79/-79/-79 -90/-90/-90
f -78/-78/-78 -79/-79/-79 -87/-87/-87
f -88/-88/-88 -78/-78/-78 -87/-87/-87
f -77/-77/-77 -78/-78/-78 -88/-88/-88
f -86/-86/-86 -77/-77/-77 -88/-88/-88
f -84/-84/-84 -77/-77/-77 -86/-86/-86
f -85/-85/-85 -76/-76/-76 -84/-84/-84
f -76/-76/-76 -75/-75/-75 -84/-84/-84
f -84/-84/-84 -75/-75/-75 -77/-77/-77
f -74/-74/-74 -76/-76/-76 -85/-85/-85
f -83/-83/-83 -74/-74/-74 -85/-85/-85
f -73/-73/-73 -74/-74/-74 -83/-83/-83
f -82/-82/-82 -73/-73/-73 -83/-83/-83
f -81/-81/-81 -72/-72/-72 -80/-80/-80
f -72/-72/-72 -71/-71/-71 -80/-80/-80
f -70/-70/-70 -72/-72/-72 -81/-81/-81
f -79/-79/-79 -70/-70/-70 -81/-81/-81
f -69/-69/-69 -70/-70/-70 -79/-79/-79
f -78/-78/-78 -69/-69/-69 -79/-79/-79
f -68/-68/-68 -69/-69/-69 -78/-78/-78
f -77/-77/-77 -68/-68/-68 -78/-78/-78
f -75/-75/-75 -68/-68/-68 -77/-77/-77
f -76/-76/-76 -67/-67/-67 -75/-75/-75
f -74/-74/-74 -67/-67/-67 -76/-76/-76
f -73/-73/-73 -67/-67/-67 -74/-74/-74
f -72/-72/-72 -67/-67/-67 -71/-71/-71
f -70/-70/-70 -67/-67/-67 -72/-72/-72
f -69/-69/-69 -67/-67/-67 -70/-70/-70
f -68/-68/-68 -67/-67/-67 -69/-69/-69
f -75/-75/-75 -67/-67/-67 -68/-68/-68
f -64/-64/-64 -65/-65/-65 -66/-66/-66
f -63/-63/-63 -64/-64/-64 -66/-66/-66
f -62/-62/-62 -64/-64/-64 -63/-63/-63
f -61/-61/-61 -62/-62/-62 -63/-63/-63
f -60/-60/-60 -62/-62/-62 -61/-61/-61
f -59/-59/-59 -60/-60/-60 -61/-61/-61
f -58/-58/-58 -60/-60/-60 -59/-59/-59
f -57/-57/-57 -58/-58/-58 -59/-59/-59
f -56/-56/-56 -58/-58/-58 -57/-57/-57
f -55/-55/-55 -56/-56/-56 -57/-57/-57
f -54/-54/-54 -56/-56/-56 -55/-55/-55
f -53/-53/-53 -54/-54/-54 -55/-55/-55
f -52/-52/-52 -54/-54/-54 -53/-53/-53
f -51/-51/-51 -52/-52/-52 -53/-53/-53
f -50/-50/-50 -52/-52/-52 -51/-51/-51
f -49/-49/-49 -50/-50/-50 -51/-51/-51
f -62/-62/-62 -48/-48/-48 -64/-64/-64
f -47/-47/-47 -48/-48/-48 -62/-62/-62
f -60/-60/-60 -47/-47/-47 -62/-62/-62
f -46/-46/-46 -47/-47/-47 -60/-60/-60
f -58/-58/-58 -46/-46/-46 -60/-60/-60
f -45/-45/-45 -46/-46/-46 -58/-58/-58
f -56/-56/-56 -45/-45/-45 -58/-58/-58
f -44/-44/-44 -45/-45/-45 -56/-56/-56
f -54/-54/-54 -44/-44/-44 -56/-56/-56
f -43/-43/-43 -44/-44/-44 -54/-54/-54
f -52/-52/-52 -43/-43/-43 -54/-54/-54
f -42/-42/-42 -43/-43/-43 -52/-52/-52
f -50/-50/-50 -42/-42/-42 -52/-52/-52
f -47/-47/-47 -41/-41/-41 -48/-48/-48
f -41/-41/-41 -40/-40/-40 -48/-48/-48
f -48/-48/-48 -40/-40/-40 -39/-39/-39
f -48/-48/-48 -39/-39/-39 -64/-64/-64
f -64/-64/-64 -39/-39/-39 -65/-65/-65
f -39/-39/-39 -38/-38/-38 -65/-65/-65
f -39/-39/-39 -37/-37/-37 -38/-38/-38
f -40/-40/-40 -37/-37/-37 -39/-39/-39
f -37/-37/-37 -36/-36/-36 -38/-38/-38
f -35/-35/-35 -41/-41/-41 -47/-47/-47
f -46/-46/-46 -35/-35/-35 -47/-47/-47
f -34/-34/-34 -35/-35/-35 -46/-46/-46
f -45/-45/-45 -34/-34/-34 -46/-46/-46
f -33/-33/-33 -34/-34/-34 -45/-45/-45
f -44/-44/-44 -33/-33/-33 -45/-45/-45
f -32/-32/-32 -33/-33/-33 -44/-44/-44
f -43/-43/-43 -32/-32/-32 -44/-44/-44
f -31/-31/-31 -32/-32/-32 -43/-43/-43
f -42/-42/-42 -31/-31/-31 -43/-43/-43
f -37/-37/-37 -30/-30/-30 -36/-36/-36
f -30/-30/-30 -29/-29/-29 -36/-36/-36
f -28/-28/-28 -30/-30/-30 -37/-37/-37
f -40/-40/-40 -28/-28/-28 -37/-37/-37
f -27/-27/-27 -28/-28/-28 -40/-40/-40
f -41/-41/-41 -27/-27/-27 -40/-40/-40
f -26/-26/-26 -27/-27/-27 -41/-41/-41
f -35/-35/-35 -26/-26/-26 -41/-41/-41
f -25/-25/-25 -26/-26/-26 -35/-35/-35
f -34/-34/-34 -25/-25/-25 -35/-35/-35
f -24/-24/-24 -25/-25/-25 -34/-34/-34
f -33/-33/-33 -24/-24/-24 -34/-34/-34
f -23/-23/-23 -24/-24/-24 -33/-33/-33
f -32/-32/-32 -23/-23/-23 -33/-33/-33
f -22/-22/-22 -23/-23/-23 -32/-32/-32
f -31/-31/-31 -22/-22/-22 -32/-32/-32
f -30/-30/-30 -21/-21/-21 -29/-29/-29
f -21/-21/-21 -20/-20/-20 -29/-29/-29
f -19/-19/-19 -21/-21/-21 -30/-30/-30
f -28/-28/-28 -19/-19/-19 -30/-30/-30
f -18/-18/-18 -19/-19/-19 -28/-28/-28
f -27/-27/-27 -18/-18/-18 -28/-28/-28
f -17/-17/-17 -18/-18/-18 -27/-27/-27
f -26/-26/-26 -17/-17/-17 -27/-27/-27
f -16/-16/-16 -17/-17/-17 -26/-26/-26
f -25/-25/-25 -16/-16/-16 -26/-26/-26
f -15/-15/-15 -16/-16/-16 -25/-25/-25
f -24/-24/-24 -15/-15/-15 -25/-25/-25
f -14/-14/-14 -15/-15/-15 -24/-24/-24
f -23/-23/-23 -14/-14/-14 -24/-24/-24
f -13/-13/-13 -14/-14/-14 -23/-23/-23
f -22/-22/-22 -13/-13/-13 -23/-23/-23
f -21/-21/-21 -12/-12/-12 -20/-20/-20
f -12/-12/-12 -11/-11/-11 -20/-20/-20
f -10/-10/-10 -12/-12/-12 -21/-21/-21
f -19/-19/-19 -10/-10/-10 -21/-21/-21
f -9/-9/-9 -10/-10/-10 -19/-19/-19
f -18/-18/-18 -9/-9/-9 -19/-19/-19
f -8/-8/-8 -9/-9/-9 -18/-18/-18
f -17/-17/-17 -8/-8/-8 -18/-18/-18
f -7/-7/-7 -8/-8/-8 -17/-17/-17
f -16/-16/-16 -7/-7/-7 -17/-17/-17
f -6/-6/-6 -7/-7/-7 -16/-16/-16
f -15/-15/-15 -6/-6/-6 -16/-16/-16
f -5/-5/-5 -6/-6/-6 -15/-15/-15
f -14/-14/-14 -5/-5/-5 -15/-15/-15
f -4/-4/-4 -5/-5/-5 -14/-14/-14
f -13/-13/-13 -4/-4/-4 -14/-14/-14
f -12/-12/-12 -3/-3/-3 -11/-11/-11
f -10/-10/-10 -3/-3/-3 -12/-12/-12
f -9/-9/-9 -3/-3/-3 -10/-10/-10
f -8/-8/-8 -3/-3/-3 -9/-9/-9
f -7/-7/-7 -3/-3/-3 -8/-8/-8
f -6/-6/-6 -3/-3/-3 -7/-7/-7
f -5/-5/-5 -3/-3/-3 -6/-6/-6
f -4/-4/-4 -3/-3/-3 -5/-5/-5
f -130/-130/-130 -2/-2/-2 -127/-127/-127
f -127/-127/-127 -2/-2/-2 -125/-125/-125
f -125/-125/-125 -2/-2/-2 -123/-123/-123
f -122/-122/-122 -2/-2/-2 -130/-130/-130
f -120/-120/-120 -2/-2/-2 -122/-122/-122
f -118/-118/-118 -2/-2/-2 -120/-120/-120
f -116/-116/-116 -2/-2/-2 -118/-118/-118
f -114/-114/-114 -2/-2/-2 -116/-116/-116
f -66/-66/-66 -1/-1/-1 -63/-63/-63
f -63/-63/-63 -1/-1/-1 -61/-61/-61
f -61/-61/-61 -1/-1/-1 -59/-59/-59
f -59/-59/-59 -1/-1/-1 -57/-57/-57
f -57/-57/-57 -1/-1/-1 -55/-55/-55
f -55/-55/-55 -1/-1/-1 -53/-53/-53
f -53/-53/-53 -1/-1/-1 -51/-51/-51
f -51/-51/-51 -1/-1/-1 -49/-49/-49

