# Mesh "Boat_Side7" exported with Unity Assets Bundle Extractor; 72 vertices, 156 indices, 384 bits per vertex
g Boat_Side7
# SubMesh 0
# Vertices
v -0.250000 1.500000 0.500000
vt 0.098028 0.618677
vn -0.000000 1.000000 0.000000
v -0.250000 1.500000 -0.500000
vt 0.501972 0.618677
vn -0.000000 1.000000 0.000000
v 0.250000 1.500000 -0.500000
vt 0.501972 0.481323
vn -0.000000 1.000000 0.000000
v 0.250000 1.500000 0.500000
vt 0.098028 0.481323
vn -0.000000 1.000000 0.000000
v 0.250000 1.250000 0.500000
vt 0.098376 0.409055
vn 1.000000 0.000000 0.000000
v 0.250000 1.500000 0.500000
vt 0.098028 0.481323
vn 1.000000 0.000000 0.000000
v 0.250000 1.500000 -0.500000
vt 0.501972 0.481323
vn 1.000000 0.000000 0.000000
v 0.250000 1.250000 -0.500000
vt 0.502319 0.409055
vn 1.000000 0.000000 0.000000
v -0.250000 1.250000 -0.500000
vt 0.501624 0.690945
vn -1.000000 0.000000 0.000000
v -0.250000 1.500000 -0.500000
vt 0.501972 0.618677
vn -1.000000 0.000000 0.000000
v -0.250000 1.500000 0.500000
vt 0.098028 0.618677
vn -1.000000 0.000000 0.000000
v -0.250000 1.250000 0.500000
vt 0.097681 0.690945
vn -1.000000 0.000000 0.000000
v -0.159512 0.250000 0.500000
vt 0.504595 0.092686
vn -1.000000 0.000000 0.000000
v -0.159512 0.250000 0.402924
vt 0.412124 0.092686
vn -1.000000 0.000000 0.000000
v -0.159512 1.088587 0.402924
vt 0.412124 0.326044
vn -1.000000 0.000000 0.000000
v -0.159512 1.088587 0.500000
vt 0.504595 0.326045
vn -1.000000 0.000000 0.000000
v -0.159512 0.000000 0.402924
vt 0.412124 0.023117
vn -1.000000 0.000000 0.000000
v -0.159512 0.000000 0.500000
vt 0.504595 0.023117
vn -1.000000 0.000000 0.000000
v -0.159512 0.000000 -0.402924
vt 0.187876 0.023117
vn -1.000000 0.000000 0.000000
v -0.159512 0.250000 -0.402924
vt 0.187876 0.092686
vn -1.000000 0.000000 0.000000
v -0.159512 0.000000 -0.500000
vt 0.095405 0.023118
vn -1.000000 0.000000 0.000000
v -0.159512 0.250000 -0.500000
vt 0.095405 0.092687
vn -1.000000 0.000000 0.000000
v -0.159512 1.088587 -0.500000
vt 0.095405 0.326045
vn -1.000000 0.000000 0.000000
v -0.159512 1.088587 -0.402924
vt 0.187877 0.326045
vn -1.000000 0.000000 0.000000
v -0.159512 1.271274 0.402924
vt 0.412124 0.376882
vn -1.000000 0.000000 0.000000
v -0.159512 1.271274 0.500000
vt 0.504595 0.376882
vn -1.000000 0.000000 0.000000
v -0.159512 1.271274 -0.402924
vt 0.187877 0.376882
vn -1.000000 0.000000 0.000000
v -0.159512 1.271274 -0.500000
vt 0.095406 0.376883
vn -1.000000 0.000000 0.000000
v 0.159512 1.088587 0.500000
vt 0.095405 0.326045
vn 1.000000 0.000000 0.000000
v 0.159512 1.088587 0.402924
vt 0.187876 0.326045
vn 1.000000 0.000000 0.000000
v 0.159512 0.250000 0.402924
vt 0.187876 0.092686
vn 1.000000 0.000000 0.000000
v 0.159512 0.250000 0.500000
vt 0.095405 0.092687
vn 1.000000 0.000000 0.000000
v 0.159512 1.271274 0.402924
vt 0.187876 0.376882
vn 1.000000 0.000000 0.000000
v 0.159512 1.271274 0.500000
vt 0.095405 0.376883
vn 1.000000 0.000000 0.000000
v 0.159512 1.271274 -0.402924
vt 0.412123 0.376882
vn 1.000000 0.000000 0.000000
v 0.159512 1.088587 -0.402924
vt 0.412123 0.326045
vn 1.000000 0.000000 0.000000
v 0.159512 1.088587 -0.500000
vt 0.504595 0.326045
vn 1.000000 0.000000 0.000000
v 0.159512 0.250000 -0.500000
vt 0.504595 0.092687
vn 1.000000 0.000000 0.000000
v 0.159512 0.250000 -0.402924
vt 0.412124 0.092686
vn 1.000000 0.000000 0.000000
v 0.159512 1.271274 -0.500000
vt 0.504595 0.376883
vn 1.000000 0.000000 0.000000
v 0.159512 0.000000 0.500000
vt 0.095405 0.023118
vn 1.000000 0.000000 0.000000
v 0.159512 0.000000 0.402924
vt 0.187876 0.023117
vn 1.000000 0.000000 0.000000
v 0.159512 0.000000 -0.402924
vt 0.412124 0.023118
vn 1.000000 0.000000 0.000000
v 0.159512 0.000000 -0.500000
vt 0.504595 0.023118
vn 1.000000 0.000000 0.000000
v -0.159512 1.088587 -0.402924
vt 0.609707 0.325997
vn -0.000000 0.000000 1.000000
v 0.159512 1.088587 -0.402924
vt 0.698483 0.325997
vn -0.000000 0.000000 1.000000
v 0.159512 0.250000 -0.402924
vt 0.698483 0.092639
vn -0.000000 0.000000 1.000000
v -0.159512 0.250000 -0.402924
vt 0.609707 0.092639
vn -0.000000 0.000000 1.000000
v -0.159512 0.250000 0.402924
vt 0.699145 0.092639
vn -0.000000 0.000000 -1.000000
v 0.159512 0.250000 0.402924
vt 0.610368 0.092639
vn -0.000000 0.000000 -1.000000
v 0.159512 1.088587 0.402924
vt 0.610368 0.325997
vn -0.000000 0.000000 -1.000000
v -0.159512 1.088587 0.402924
vt 0.699145 0.325997
vn -0.000000 0.000000 -1.000000
v -0.250000 0.297940 0.420981
vt 0.940476 0.343613
vn -0.000000 1.000000 0.000000
v -0.250000 0.297940 -0.420981
vt 0.940476 0.056893
vn -0.000000 1.000000 0.000000
v 0.250000 0.297940 -0.420981
vt 0.770206 0.056893
vn -0.000000 1.000000 0.000000
v 0.250000 0.297940 0.420981
vt 0.770206 0.343613
vn -0.000000 1.000000 0.000000
v 0.250000 0.202060 0.420981
vt 0.732551 0.342954
vn 1.000000 0.000000 0.000000
v 0.250000 0.297940 0.420981
vt 0.770206 0.343613
vn 1.000000 0.000000 0.000000
v 0.250000 0.297940 -0.420981
vt 0.770206 0.056893
vn 1.000000 0.000000 0.000000
v 0.250000 0.202060 -0.420981
vt 0.732551 0.056235
vn 1.000000 0.000000 0.000000
v -0.250000 0.202060 -0.420981
vt 0.978129 0.057552
vn -1.000000 0.000000 0.000000
v -0.250000 0.297940 -0.420981
vt 0.940476 0.056893
vn -1.000000 0.000000 0.000000
v -0.250000 0.297940 0.420981
vt 0.940476 0.343613
vn -1.000000 0.000000 0.000000
v -0.250000 0.202060 0.420981
vt 0.978129 0.344272
vn -1.000000 0.000000 0.000000
v -0.250000 0.297940 -0.420981
vt 0.940476 0.056893
vn -0.000000 0.000000 -1.000000
v -0.250000 0.202060 -0.420981
vt 0.940476 0.024242
vn -0.000000 0.000000 -1.000000
v 0.250000 0.202060 -0.420981
vt 0.770206 0.024242
vn -0.000000 0.000000 -1.000000
v 0.250000 0.297940 -0.420981
vt 0.770206 0.056893
vn -0.000000 0.000000 -1.000000
v -0.250000 0.202060 0.420981
vt 0.940476 0.376263
vn -0.000000 0.000000 1.000000
v -0.250000 0.297940 0.420981
vt 0.940476 0.343613
vn -0.000000 0.000000 1.000000
v 0.250000 0.297940 0.420981
vt 0.770206 0.343613
vn -0.000000 0.000000 1.000000
v 0.250000 0.202060 0.420981
vt 0.770206 0.376263
vn -0.000000 0.000000 1.000000
# Faces (1 to 72)
g Boat_Side7_0
f -70/-70/-70 -71/-71/-71 -72/-72/-72
f -69/-69/-69 -70/-70/-70 -72/-72/-72
f -66/-66/-66 -67/-67/-67 -68/-68/-68
f -65/-65/-65 -66/-66/-66 -68/-68/-68
f -62/-62/-62 -63/-63/-63 -64/-64/-64
f -61/-61/-61 -62/-62/-62 -64/-64/-64
f -58/-58/-58 -59/-59/-59 -60/-60/-60
f -57/-57/-57 -58/-58/-58 -60/-60/-60
f -59/-59/-59 -56/-56/-56 -60/-60/-60
f -56/-56/-56 -55/-55/-55 -60/-60/-60
f -54/-54/-54 -56/-56/-56 -59/-59/-59
f -53/-53/-53 -54/-54/-54 -59/-59/-59
f -54/-54/-54 -53/-53/-53 -52/-52/-52
f -53/-53/-53 -51/-51/-51 -52/-52/-52
f -50/-50/-50 -51/-51/-51 -53/-53/-53
f -49/-49/-49 -50/-50/-50 -53/-53/-53
f -58/-58/-58 -57/-57/-57 -48/-48/-48
f -49/-49/-49 -58/-58/-58 -48/-48/-48
f -57/-57/-57 -47/-47/-47 -48/-48/-48
f -46/-46/-46 -49/-49/-49 -48/-48/-48
f -49/-49/-49 -46/-46/-46 -50/-50/-50
f -46/-46/-46 -45/-45/-45 -50/-50/-50
f -42/-42/-42 -43/-43/-43 -44/-44/-44
f -41/-41/-41 -42/-42/-42 -44/-44/-44
f -43/-43/-43 -40/-40/-40 -44/-44/-44
f -40/-40/-40 -39/-39/-39 -44/-44/-44
f -40/-40/-40 -43/-43/-43 -38/-38/-38
f -43/-43/-43 -37/-37/-37 -38/-38/-38
f -37/-37/-37 -36/-36/-36 -38/-38/-38
f -35/-35/-35 -36/-36/-36 -37/-37/-37
f -34/-34/-34 -35/-35/-35 -37/-37/-37
f -36/-36/-36 -33/-33/-33 -38/-38/-38
f -42/-42/-42 -41/-41/-41 -32/-32/-32
f -31/-31/-31 -42/-42/-42 -32/-32/-32
f -42/-42/-42 -31/-31/-31 -34/-34/-34
f -31/-31/-31 -30/-30/-30 -34/-34/-34
f -34/-34/-34 -30/-30/-30 -35/-35/-35
f -30/-30/-30 -29/-29/-29 -35/-35/-35
f -26/-26/-26 -27/-27/-27 -28/-28/-28
f -25/-25/-25 -26/-26/-26 -28/-28/-28
f -22/-22/-22 -23/-23/-23 -24/-24/-24
f -21/-21/-21 -22/-22/-22 -24/-24/-24
f -18/-18/-18 -19/-19/-19 -20/-20/-20
f -17/-17/-17 -18/-18/-18 -20/-20/-20
f -14/-14/-14 -15/-15/-15 -16/-16/-16
f -13/-13/-13 -14/-14/-14 -16/-16/-16
f -10/-10/-10 -11/-11/-11 -12/-12/-12
f -9/-9/-9 -10/-10/-10 -12/-12/-12
f -6/-6/-6 -7/-7/-7 -8/-8/-8
f -5/-5/-5 -6/-6/-6 -8/-8/-8
f -2/-2/-2 -3/-3/-3 -4/-4/-4
f -1/-1/-1 -2/-2/-2 -4/-4/-4

