# Mesh "Boat_Side" exported with Unity Assets Bundle Extractor; 72 vertices, 156 indices, 384 bits per vertex
g Boat_Side
# SubMesh 0
# Vertices
v -0.250000 1.500000 1.000000
vt 0.025293 0.618677
vn -0.000000 1.000000 0.000000
v -0.250000 1.500000 -1.000000
vt 0.574708 0.618677
vn -0.000000 1.000000 0.000000
v 0.250000 1.500000 -1.000000
vt 0.574708 0.481323
vn -0.000000 1.000000 0.000000
v 0.250000 1.500000 1.000000
vt 0.025293 0.481323
vn -0.000000 1.000000 0.000000
v 0.250000 1.250000 1.000000
vt 0.025766 0.409055
vn 1.000000 0.000000 0.000000
v 0.250000 1.500000 1.000000
vt 0.025293 0.481323
vn 1.000000 0.000000 0.000000
v 0.250000 1.500000 -1.000000
vt 0.574708 0.481323
vn 1.000000 0.000000 0.000000
v 0.250000 1.250000 -1.000000
vt 0.575180 0.409055
vn 1.000000 0.000000 0.000000
v -0.250000 1.250000 -1.000000
vt 0.574234 0.690945
vn -1.000000 0.000000 0.000000
v -0.250000 1.500000 -1.000000
vt 0.574708 0.618677
vn -1.000000 0.000000 0.000000
v -0.250000 1.500000 1.000000
vt 0.025293 0.618677
vn -1.000000 0.000000 0.000000
v -0.250000 1.250000 1.000000
vt 0.024820 0.690945
vn -1.000000 0.000000 0.000000
v -0.159512 0.250000 1.000000
vt 0.940133 0.050477
vn -1.000000 0.000000 0.000000
v -0.159512 0.250000 0.402924
vt 0.815331 0.050477
vn -1.000000 0.000000 0.000000
v -0.159512 1.088587 0.402924
vt 0.815331 0.216348
vn -1.000000 0.000000 0.000000
v -0.159512 1.088587 1.000000
vt 0.940133 0.216349
vn -1.000000 0.000000 0.000000
v -0.159512 0.000000 0.402924
vt 0.815331 0.001028
vn -1.000000 0.000000 0.000000
v -0.159512 0.000000 1.000000
vt 0.940133 0.001028
vn -1.000000 0.000000 0.000000
v -0.159512 0.000000 -0.402924
vt 0.646892 0.001028
vn -1.000000 0.000000 0.000000
v -0.159512 0.250000 -0.402924
vt 0.646892 0.050477
vn -1.000000 0.000000 0.000000
v -0.159512 0.000000 -1.000000
vt 0.522090 0.001028
vn -1.000000 0.000000 0.000000
v -0.159512 0.250000 -1.000000
vt 0.522091 0.050478
vn -1.000000 0.000000 0.000000
v -0.159512 1.088587 -1.000000
vt 0.522091 0.216349
vn -1.000000 0.000000 0.000000
v -0.159512 1.088587 -0.402924
vt 0.646893 0.216349
vn -1.000000 0.000000 0.000000
v -0.159512 1.271274 0.402924
vt 0.815331 0.252484
vn -1.000000 0.000000 0.000000
v -0.159512 1.271274 1.000000
vt 0.940133 0.252484
vn -1.000000 0.000000 0.000000
v -0.159512 1.271274 -0.402924
vt 0.646893 0.252484
vn -1.000000 0.000000 0.000000
v -0.159512 1.271274 -1.000000
vt 0.522092 0.252485
vn -1.000000 0.000000 0.000000
v 0.159512 1.088587 1.000000
vt 0.522090 0.216349
vn 1.000000 0.000000 0.000000
v 0.159512 1.088587 0.402924
vt 0.646892 0.216349
vn 1.000000 0.000000 0.000000
v 0.159512 0.250000 0.402924
vt 0.646892 0.050477
vn 1.000000 0.000000 0.000000
v 0.159512 0.250000 1.000000
vt 0.522090 0.050478
vn 1.000000 0.000000 0.000000
v 0.159512 1.271274 0.402924
vt 0.646892 0.252484
vn 1.000000 0.000000 0.000000
v 0.159512 1.271274 1.000000
vt 0.522091 0.252485
vn 1.000000 0.000000 0.000000
v 0.159512 1.271274 -0.402924
vt 0.815330 0.252484
vn 1.000000 0.000000 0.000000
v 0.159512 1.088587 -0.402924
vt 0.815330 0.216349
vn 1.000000 0.000000 0.000000
v 0.159512 1.088587 -1.000000
vt 0.940132 0.216349
vn 1.000000 0.000000 0.000000
v 0.159512 0.250000 -1.000000
vt 0.940132 0.050478
vn 1.000000 0.000000 0.000000
v 0.159512 0.250000 -0.402924
vt 0.815331 0.050477
vn 1.000000 0.000000 0.000000
v 0.159512 1.271274 -1.000000
vt 0.940132 0.252485
vn 1.000000 0.000000 0.000000
v 0.159512 0.000000 1.000000
vt 0.522090 0.001028
vn 1.000000 0.000000 0.000000
v 0.159512 0.000000 0.402924
vt 0.646892 0.001028
vn 1.000000 0.000000 0.000000
v 0.159512 0.000000 -0.402924
vt 0.815331 0.001028
vn 1.000000 0.000000 0.000000
v 0.159512 0.000000 -1.000000
vt 0.940133 0.001028
vn 1.000000 0.000000 0.000000
v -0.159512 1.088587 -0.402924
vt 0.430743 0.252100
vn -0.000000 0.000000 1.000000
v 0.159512 1.088587 -0.402924
vt 0.503149 0.252100
vn -0.000000 0.000000 1.000000
v 0.159512 0.250000 -0.402924
vt 0.503149 -0.001118
vn -0.000000 0.000000 1.000000
v -0.159512 0.250000 -0.402924
vt 0.430743 -0.001118
vn -0.000000 0.000000 1.000000
v -0.159512 0.250000 0.402924
vt 0.503689 -0.001118
vn -0.000000 0.000000 -1.000000
v 0.159512 0.250000 0.402924
vt 0.431282 -0.001118
vn -0.000000 0.000000 -1.000000
v 0.159512 1.088587 0.402924
vt 0.431282 0.252100
vn -0.000000 0.000000 -1.000000
v -0.159512 1.088587 0.402924
vt 0.503689 0.252100
vn -0.000000 0.000000 -1.000000
v -0.250000 0.297940 0.420981
vt 0.467678 0.750339
vn -0.000000 1.000000 0.000000
v -0.250000 0.297940 -0.420981
vt 0.136221 0.750339
vn -0.000000 1.000000 0.000000
v 0.250000 0.297940 -0.420981
vt 0.136221 0.947176
vn -0.000000 1.000000 0.000000
v 0.250000 0.297940 0.420981
vt 0.467678 0.947176
vn -0.000000 1.000000 0.000000
v 0.250000 0.202060 0.420981
vt 0.466916 0.990706
vn 1.000000 0.000000 0.000000
v 0.250000 0.297940 0.420981
vt 0.467678 0.947176
vn 1.000000 0.000000 0.000000
v 0.250000 0.297940 -0.420981
vt 0.136221 0.947176
vn 1.000000 0.000000 0.000000
v 0.250000 0.202060 -0.420981
vt 0.135460 0.990706
vn 1.000000 0.000000 0.000000
v -0.250000 0.202060 -0.420981
vt 0.136983 0.706810
vn -1.000000 0.000000 0.000000
v -0.250000 0.297940 -0.420981
vt 0.136221 0.750339
vn -1.000000 0.000000 0.000000
v -0.250000 0.297940 0.420981
vt 0.467678 0.750339
vn -1.000000 0.000000 0.000000
v -0.250000 0.202060 0.420981
vt 0.468440 0.706810
vn -1.000000 0.000000 0.000000
v -0.250000 0.297940 -0.420981
vt 0.136221 0.750339
vn -0.000000 0.000000 -1.000000
v -0.250000 0.202060 -0.420981
vt 0.098476 0.750339
vn -0.000000 0.000000 -1.000000
v 0.250000 0.202060 -0.420981
vt 0.098476 0.947176
vn -0.000000 0.000000 -1.000000
v 0.250000 0.297940 -0.420981
vt 0.136221 0.947176
vn -0.000000 0.000000 -1.000000
v -0.250000 0.202060 0.420981
vt 0.505422 0.750339
vn -0.000000 0.000000 1.000000
v -0.250000 0.297940 0.420981
vt 0.467678 0.750339
vn -0.000000 0.000000 1.000000
v 0.250000 0.297940 0.420981
vt 0.467678 0.947176
vn -0.000000 0.000000 1.000000
v 0.250000 0.202060 0.420981
vt 0.505422 0.947176
vn -0.000000 0.000000 1.000000
# Faces (1 to 72)
g Boat_Side_0
f -70/-70/-70 -71/-71/-71 -72/-72/-72
f -69/-69/-69 -70/-70/-70 -72/-72/-72
f -66/-66/-66 -67/-67/-67 -68/-68/-68
f -65/-65/-65 -66/-66/-66 -68/-68/-68
f -62/-62/-62 -63/-63/-63 -64/-64/-64
f -61/-61/-61 -62/-62/-62 -64/-64/-64
f -58/-58/-58 -59/-59/-59 -60/-60/-60
f -57/-57/-57 -58/-58/-58 -60/-60/-60
f -59/-59/-59 -56/-56/-56 -60/-60/-60
f -56/-56/-56 -55/-55/-55 -60/-60/-60
f -54/-54/-54 -56/-56/-56 -59/-59/-59
f -53/-53/-53 -54/-54/-54 -59/-59/-59
f -54/-54/-54 -53/-53/-53 -52/-52/-52
f -53/-53/-53 -51/-51/-51 -52/-52/-52
f -50/-50/-50 -51/-51/-51 -53/-53/-53
f -49/-49/-49 -50/-50/-50 -53/-53/-53
f -58/-58/-58 -57/-57/-57 -48/-48/-48
f -49/-49/-49 -58/-58/-58 -48/-48/-48
f -57/-57/-57 -47/-47/-47 -48/-48/-48
f -46/-46/-46 -49/-49/-49 -48/-48/-48
f -49/-49/-49 -46/-46/-46 -50/-50/-50
f -46/-46/-46 -45/-45/-45 -50/-50/-50
f -42/-42/-42 -43/-43/-43 -44/-44/-44
f -41/-41/-41 -42/-42/-42 -44/-44/-44
f -43/-43/-43 -40/-40/-40 -44/-44/-44
f -40/-40/-40 -39/-39/-39 -44/-44/-44
f -40/-40/-40 -43/-43/-43 -38/-38/-38
f -43/-43/-43 -37/-37/-37 -38/-38/-38
f -37/-37/-37 -36/-36/-36 -38/-38/-38
f -35/-35/-35 -36/-36/-36 -37/-37/-37
f -34/-34/-34 -35/-35/-35 -37/-37/-37
f -36/-36/-36 -33/-33/-33 -38/-38/-38
f -42/-42/-42 -41/-41/-41 -32/-32/-32
f -31/-31/-31 -42/-42/-42 -32/-32/-32
f -42/-42/-42 -31/-31/-31 -34/-34/-34
f -31/-31/-31 -30/-30/-30 -34/-34/-34
f -34/-34/-34 -30/-30/-30 -35/-35/-35
f -30/-30/-30 -29/-29/-29 -35/-35/-35
f -26/-26/-26 -27/-27/-27 -28/-28/-28
f -25/-25/-25 -26/-26/-26 -28/-28/-28
f -22/-22/-22 -23/-23/-23 -24/-24/-24
f -21/-21/-21 -22/-22/-22 -24/-24/-24
f -18/-18/-18 -19/-19/-19 -20/-20/-20
f -17/-17/-17 -18/-18/-18 -20/-20/-20
f -14/-14/-14 -15/-15/-15 -16/-16/-16
f -13/-13/-13 -14/-14/-14 -16/-16/-16
f -10/-10/-10 -11/-11/-11 -12/-12/-12
f -9/-9/-9 -10/-10/-10 -12/-12/-12
f -6/-6/-6 -7/-7/-7 -8/-8/-8
f -5/-5/-5 -6/-6/-6 -8/-8/-8
f -2/-2/-2 -3/-3/-3 -4/-4/-4
f -1/-1/-1 -2/-2/-2 -4/-4/-4

