# Mesh "Boat_Side_Flat" exported with Unity Assets Bundle Extractor; 4 vertices, 6 indices, 384 bits per vertex
g Boat_Side_Flat
# SubMesh 0
# Vertices
v 0.159512 -1.000000 1.000000
vt 0.520680 -0.001717
vn 1.000000 0.000000 0.000000
v 0.159512 -0.000000 1.000000
vt 0.520680 0.197654
vn 1.000000 0.000000 0.000000
v 0.159512 -0.000000 -1.000000
vt 0.940557 0.197402
vn 1.000000 0.000000 0.000000
v 0.159512 -1.000000 -1.000000
vt 0.940557 -0.001717
vn 1.000000 0.000000 0.000000
# Faces (1 to 4)
g Boat_Side_Flat_0
f -2/-2/-2 -3/-3/-3 -4/-4/-4
f -1/-1/-1 -2/-2/-2 -4/-4/-4

