# Mesh "Boat_End_Right" exported with Unity Assets Bundle Extractor; 94 vertices, 240 indices, 384 bits per vertex
g Boat_End_Right
# SubMesh 0
# Vertices
v 3.000035 1.249795 -2.748528
vt 0.121432 0.414275
vn 0.070695 0.000000 0.997498
v 1.843486 1.249795 -2.666561
vt 0.148836 0.414275
vn 0.179972 0.000000 0.983672
v 1.843486 1.500000 -2.666561
vt 0.148836 0.678013
vn 0.179972 0.000000 0.983672
v 3.000035 1.500000 -2.748528
vt 0.121432 0.678013
vn 0.070695 0.000000 0.997498
v 0.766664 1.500000 -2.339911
vt 0.176240 0.678013
vn 0.382683 0.000000 0.923880
v 0.766664 1.249795 -2.339911
vt 0.176240 0.414275
vn 0.382683 0.000000 0.923880
v -0.225741 1.500000 -1.809460
vt 0.203645 0.678013
vn 0.555570 0.000000 0.831470
v -0.225741 1.249795 -1.809460
vt 0.203645 0.414275
vn 0.555570 0.000000 0.831470
v -1.095592 1.500000 -1.095594
vt 0.231049 0.678013
vn 0.707106 0.000000 0.707107
v -1.095592 1.249795 -1.095594
vt 0.231049 0.414275
vn 0.707106 0.000000 0.707107
v -1.809460 1.500000 -0.225743
vt 0.258453 0.678013
vn 0.831469 0.000000 0.555571
v -1.809460 1.249795 -0.225743
vt 0.258453 0.414275
vn 0.831469 0.000000 0.555571
v -2.339912 1.500000 0.766661
vt 0.285857 0.678013
vn 0.923879 0.000000 0.382684
v -2.339912 1.249795 0.766661
vt 0.285857 0.414275
vn 0.923879 0.000000 0.382684
v -2.666563 1.500000 1.843483
vt 0.313261 0.678013
vn 0.983672 0.000000 0.179972
v -2.666563 1.249795 1.843483
vt 0.313261 0.414275
vn 0.983672 0.000000 0.179972
v -2.748528 1.500000 3.000035
vt 0.340665 0.678013
vn 0.997498 0.000000 0.070693
v -2.748528 1.249795 3.000035
vt 0.340665 0.414275
vn 0.997498 0.000000 0.070693
v 3.000036 1.250205 -3.255527
vt 0.121432 0.414275
vn -0.055176 0.000000 -0.998477
v 3.000036 1.500000 -3.255527
vt 0.121432 0.678013
vn -0.055176 0.000000 -0.998477
v 1.767335 1.500000 -3.187408
vt 0.148836 0.678013
vn -0.173921 0.000000 -0.984760
v 1.767335 1.249795 -3.187408
vt 0.148836 0.414275
vn -0.173934 0.000000 -0.984757
v 0.587936 1.500000 -2.829642
vt 0.176240 0.678013
vn -0.382683 0.000000 -0.923880
v 0.587936 1.249795 -2.829642
vt 0.176240 0.414275
vn -0.382683 0.000000 -0.923880
v -0.499003 1.500000 -2.248661
vt 0.203645 0.678013
vn -0.555570 0.000000 -0.831470
v -0.499003 1.249795 -2.248661
vt 0.203645 0.414275
vn -0.555570 0.000000 -0.831470
v -1.451715 1.500000 -1.466792
vt 0.231049 0.678013
vn -0.707106 0.000000 -0.707107
v -1.451715 1.249795 -1.466792
vt 0.231049 0.414275
vn -0.707106 0.000000 -0.707107
v -2.233585 1.500000 -0.514082
vt 0.258453 0.678013
vn -0.831469 0.000000 -0.555571
v -2.233585 1.249795 -0.514082
vt 0.258453 0.414275
vn -0.831469 0.000000 -0.555571
v -2.814567 1.500000 0.572857
vt 0.285857 0.678013
vn -0.923879 0.000000 -0.382684
v -2.814567 1.249795 0.572857
vt 0.285857 0.414275
vn -0.923879 0.000000 -0.382684
v -3.172334 1.500000 1.752256
vt 0.313261 0.678013
vn -0.983886 0.000000 -0.178796
v -3.172334 1.249795 1.752256
vt 0.313261 0.414275
vn -0.983884 0.000000 -0.178808
v -3.255527 1.500000 3.000036
vt 0.340665 0.678013
vn -0.997785 0.000000 -0.066525
v -3.255527 1.250205 3.000036
vt 0.340665 0.414275
vn -0.997785 0.000000 -0.066525
v 3.000035 0.000000 -2.841038
vt 0.544888 0.271336
vn 0.070694 0.000000 0.997498
v 1.824875 0.000000 -2.757753
vt 0.602769 0.271336
vn 0.179972 0.000000 0.983672
v 1.824875 1.271274 -2.757753
vt 0.602769 0.033209
vn 0.179972 0.000000 0.983672
v 3.000035 1.271274 -2.841038
vt 0.544888 0.033209
vn 0.070694 0.000000 0.997498
v 0.730723 1.271274 -2.425847
vt 0.656660 0.033209
vn 0.382683 0.000000 0.923880
v 0.730723 0.000000 -2.425847
vt 0.656659 0.271336
vn 0.382683 0.000000 0.923880
v -0.277653 1.271274 -1.886859
vt 0.706326 0.033209
vn 0.555570 0.000000 0.831470
v -0.277653 0.000000 -1.886859
vt 0.706326 0.271336
vn 0.555570 0.000000 0.831470
v -0.277653 0.000000 -1.886859
vt 0.707261 0.271943
vn 0.555570 0.000000 0.831470
v -1.161502 0.000000 -1.161503
vt 0.742988 0.271943
vn 0.707106 0.000000 0.707107
v -1.161502 1.271274 -1.161503
vt 0.742988 0.033816
vn 0.707106 0.000000 0.707107
v -0.277653 1.271274 -1.886859
vt 0.707261 0.033816
vn 0.555570 0.000000 0.831470
v -1.886858 1.271274 -0.277656
vt 0.786520 0.033816
vn 0.831469 0.000000 0.555571
v -1.886858 0.000000 -0.277656
vt 0.786520 0.271943
vn 0.831469 0.000000 0.555571
v -2.425847 1.271274 0.730720
vt 0.836186 0.033816
vn 0.923879 0.000000 0.382684
v -2.425847 0.000000 0.730720
vt 0.836186 0.271943
vn 0.923879 0.000000 0.382684
v -2.757755 1.271274 1.824871
vt 0.890077 0.033816
vn 0.983672 0.000000 0.179971
v -2.757755 0.000000 1.824871
vt 0.890077 0.271943
vn 0.983672 0.000000 0.179971
v -2.841038 1.271274 3.000035
vt 0.947958 0.033816
vn 0.997498 0.000000 0.070692
v -2.841038 0.000000 3.000035
vt 0.947958 0.271943
vn 0.997498 0.000000 0.070692
v 3.000036 0.000000 -3.159698
vt 0.965592 0.271342
vn -0.070695 0.000000 -0.997498
v 3.000036 1.271274 -3.159698
vt 0.965592 0.033216
vn -0.070695 0.000000 -0.997498
v 1.760764 1.271274 -3.071868
vt 0.904553 0.033216
vn -0.179972 0.000000 -0.983672
v 1.760764 0.000000 -3.071868
vt 0.904553 0.271342
vn -0.179972 0.000000 -0.983672
v 0.606920 1.271274 -2.721855
vt 0.847722 0.033216
vn -0.382683 0.000000 -0.923880
v 0.606920 0.000000 -2.721855
vt 0.847723 0.271342
vn -0.382683 0.000000 -0.923880
v -0.456467 1.271274 -2.153463
vt 0.795347 0.033216
vn -0.555570 0.000000 -0.831470
v -0.456467 0.000000 -2.153463
vt 0.795346 0.271342
vn -0.555570 0.000000 -0.831470
v -0.456467 0.000000 -2.153463
vt 0.793789 0.271560
vn -0.555570 0.000000 -0.831470
v -0.456467 1.271274 -2.153463
vt 0.793789 0.033433
vn -0.555570 0.000000 -0.831470
v -1.388536 1.271274 -1.388536
vt 0.756113 0.033434
vn -0.707106 0.000000 -0.707107
v -1.388536 0.000000 -1.388536
vt 0.756114 0.271560
vn -0.707106 0.000000 -0.707107
v -2.153463 1.271274 -0.456470
vt 0.710206 0.033434
vn -0.831469 0.000000 -0.555571
v -2.153463 0.000000 -0.456470
vt 0.710206 0.271560
vn -0.831469 0.000000 -0.555571
v -2.721857 1.271274 0.606917
vt 0.657830 0.033433
vn -0.923879 0.000000 -0.382684
v -2.721857 0.000000 0.606917
vt 0.657830 0.271560
vn -0.923879 0.000000 -0.382684
v -3.071871 1.271274 1.760760
vt 0.600999 0.033433
vn -0.983672 0.000000 -0.179971
v -3.071871 0.000000 1.760760
vt 0.601000 0.271560
vn -0.983672 0.000000 -0.179971
v -3.159698 1.271274 3.000036
vt 0.539961 0.033433
vn -0.997498 0.000000 -0.070692
v -3.159698 0.000000 3.000036
vt 0.539961 0.271560
vn -0.997498 0.000000 -0.070692
v -2.748528 1.500000 3.000035
vt 0.340665 0.678013
vn -0.000000 1.000000 0.000000
v -3.255527 1.500000 3.000036
vt 0.340665 0.678013
vn -0.000000 1.000000 0.000000
v -3.172334 1.500000 1.752256
vt 0.313261 0.678013
vn -0.000000 1.000000 0.000000
v -2.666563 1.500000 1.843483
vt 0.313261 0.678013
vn -0.000000 1.000000 0.000000
v -2.814567 1.500000 0.572857
vt 0.285857 0.678013
vn -0.000000 1.000000 0.000000
v -2.339912 1.500000 0.766661
vt 0.285857 0.678013
vn -0.000000 1.000000 0.000000
v -2.233585 1.500000 -0.514082
vt 0.258453 0.678013
vn -0.000000 1.000000 0.000000
v -1.809460 1.500000 -0.225743
vt 0.258453 0.678013
vn -0.000000 1.000000 0.000000
v -1.451715 1.500000 -1.466792
vt 0.231049 0.678013
vn -0.000000 1.000000 0.000000
v -1.095592 1.500000 -1.095594
vt 0.231049 0.678013
vn -0.000000 1.000000 0.000000
v -0.499003 1.500000 -2.248661
vt 0.203645 0.678013
vn -0.000000 1.000000 0.000000
v -0.225741 1.500000 -1.809460
vt 0.203645 0.678013
vn -0.000000 1.000000 0.000000
v 0.587936 1.500000 -2.829642
vt 0.176240 0.678013
vn -0.000000 1.000000 0.000000
v 0.766664 1.500000 -2.339911
vt 0.176240 0.678013
vn -0.000000 1.000000 0.000000
v 1.767335 1.500000 -3.187408
vt 0.148836 0.678013
vn -0.000000 1.000000 0.000000
v 1.843486 1.500000 -2.666561
vt 0.148836 0.678013
vn -0.000000 1.000000 0.000000
v 3.000036 1.500000 -3.255527
vt 0.121432 0.678013
vn -0.000000 1.000000 0.000000
v 3.000035 1.500000 -2.748528
vt 0.121432 0.678013
vn -0.000000 1.000000 0.000000
# Faces (1 to 94)
g Boat_End_Right_0
f -92/-92/-92 -93/-93/-93 -94/-94/-94
f -91/-91/-91 -92/-92/-92 -94/-94/-94
f -92/-92/-92 -90/-90/-90 -93/-93/-93
f -90/-90/-90 -89/-89/-89 -93/-93/-93
f -90/-90/-90 -88/-88/-88 -89/-89/-89
f -88/-88/-88 -87/-87/-87 -89/-89/-89
f -88/-88/-88 -86/-86/-86 -87/-87/-87
f -86/-86/-86 -85/-85/-85 -87/-87/-87
f -86/-86/-86 -84/-84/-84 -85/-85/-85
f -84/-84/-84 -83/-83/-83 -85/-85/-85
f -84/-84/-84 -82/-82/-82 -83/-83/-83
f -82/-82/-82 -81/-81/-81 -83/-83/-83
f -82/-82/-82 -80/-80/-80 -81/-81/-81
f -80/-80/-80 -79/-79/-79 -81/-81/-81
f -80/-80/-80 -78/-78/-78 -79/-79/-79
f -78/-78/-78 -77/-77/-77 -79/-79/-79
f -74/-74/-74 -75/-75/-75 -76/-76/-76
f -73/-73/-73 -74/-74/-74 -76/-76/-76
f -72/-72/-72 -74/-74/-74 -73/-73/-73
f -71/-71/-71 -72/-72/-72 -73/-73/-73
f -70/-70/-70 -72/-72/-72 -71/-71/-71
f -69/-69/-69 -70/-70/-70 -71/-71/-71
f -68/-68/-68 -70/-70/-70 -69/-69/-69
f -67/-67/-67 -68/-68/-68 -69/-69/-69
f -66/-66/-66 -68/-68/-68 -67/-67/-67
f -65/-65/-65 -66/-66/-66 -67/-67/-67
f -64/-64/-64 -66/-66/-66 -65/-65/-65
f -63/-63/-63 -64/-64/-64 -65/-65/-65
f -62/-62/-62 -64/-64/-64 -63/-63/-63
f -61/-61/-61 -62/-62/-62 -63/-63/-63
f -60/-60/-60 -62/-62/-62 -61/-61/-61
f -59/-59/-59 -60/-60/-60 -61/-61/-61
f -56/-56/-56 -57/-57/-57 -58/-58/-58
f -55/-55/-55 -56/-56/-56 -58/-58/-58
f -56/-56/-56 -54/-54/-54 -57/-57/-57
f -54/-54/-54 -53/-53/-53 -57/-57/-57
f -54/-54/-54 -52/-52/-52 -53/-53/-53
f -52/-52/-52 -51/-51/-51 -53/-53/-53
f -48/-48/-48 -49/-49/-49 -50/-50/-50
f -47/-47/-47 -48/-48/-48 -50/-50/-50
f -48/-48/-48 -46/-46/-46 -49/-49/-49
f -46/-46/-46 -45/-45/-45 -49/-49/-49
f -46/-46/-46 -44/-44/-44 -45/-45/-45
f -44/-44/-44 -43/-43/-43 -45/-45/-45
f -44/-44/-44 -42/-42/-42 -43/-43/-43
f -42/-42/-42 -41/-41/-41 -43/-43/-43
f -42/-42/-42 -40/-40/-40 -41/-41/-41
f -40/-40/-40 -39/-39/-39 -41/-41/-41
f -36/-36/-36 -37/-37/-37 -38/-38/-38
f -35/-35/-35 -36/-36/-36 -38/-38/-38
f -34/-34/-34 -36/-36/-36 -35/-35/-35
f -33/-33/-33 -34/-34/-34 -35/-35/-35
f -32/-32/-32 -34/-34/-34 -33/-33/-33
f -31/-31/-31 -32/-32/-32 -33/-33/-33
f -28/-28/-28 -29/-29/-29 -30/-30/-30
f -27/-27/-27 -28/-28/-28 -30/-30/-30
f -26/-26/-26 -28/-28/-28 -27/-27/-27
f -25/-25/-25 -26/-26/-26 -27/-27/-27
f -24/-24/-24 -26/-26/-26 -25/-25/-25
f -23/-23/-23 -24/-24/-24 -25/-25/-25
f -22/-22/-22 -24/-24/-24 -23/-23/-23
f -21/-21/-21 -22/-22/-22 -23/-23/-23
f -20/-20/-20 -22/-22/-22 -21/-21/-21
f -19/-19/-19 -20/-20/-20 -21/-21/-21
f -16/-16/-16 -17/-17/-17 -18/-18/-18
f -15/-15/-15 -16/-16/-16 -18/-18/-18
f -14/-14/-14 -16/-16/-16 -15/-15/-15
f -13/-13/-13 -14/-14/-14 -15/-15/-15
f -12/-12/-12 -14/-14/-14 -13/-13/-13
f -11/-11/-11 -12/-12/-12 -13/-13/-13
f -10/-10/-10 -12/-12/-12 -11/-11/-11
f -9/-9/-9 -10/-10/-10 -11/-11/-11
f -8/-8/-8 -10/-10/-10 -9/-9/-9
f -7/-7/-7 -8/-8/-8 -9/-9/-9
f -6/-6/-6 -8/-8/-8 -7/-7/-7
f -5/-5/-5 -6/-6/-6 -7/-7/-7
f -4/-4/-4 -6/-6/-6 -5/-5/-5
f -3/-3/-3 -4/-4/-4 -5/-5/-5
f -2/-2/-2 -4/-4/-4 -3/-3/-3
f -1/-1/-1 -2/-2/-2 -3/-3/-3

