# Mesh "Box001" exported with Unity Assets Bundle Extractor; 74 vertices, 180 indices, 448 bits per vertex
g Box001
# SubMesh 0
# Vertices
v 0.364965 -0.315533 0.000000
vt 0.112167 0.161185
vn -0.000000 0.000000 -1.000000
v 0.382535 -0.273115 0.000000
vt 0.093496 0.206732
vn -0.000000 0.000000 -1.000000
v 0.382535 0.273115 0.000000
vt 0.093496 0.793268
vn -0.000000 0.000000 -1.000000
v 0.364965 0.315533 0.000000
vt 0.112167 0.838815
vn -0.000000 0.000000 -1.000000
v 0.319497 -0.361001 0.000000
vt 0.160484 0.112362
vn -0.000000 0.000000 -1.000000
v 0.319497 0.361001 0.000000
vt 0.160484 0.887638
vn -0.000000 0.000000 -1.000000
v 0.277079 -0.378571 0.000000
vt 0.205559 0.093496
vn -0.000000 0.000000 -1.000000
v 0.277079 0.378571 0.000000
vt 0.205559 0.906504
vn -0.000000 0.000000 -1.000000
v -0.277079 -0.378571 0.000000
vt 0.794441 0.093496
vn -0.000000 0.000000 -1.000000
v -0.277079 0.378571 0.000000
vt 0.794441 0.906504
vn -0.000000 0.000000 -1.000000
v -0.319497 -0.361001 0.000000
vt 0.839517 0.112362
vn -0.000000 0.000000 -1.000000
v -0.319497 0.361001 0.000000
vt 0.839517 0.887638
vn -0.000000 0.000000 -1.000000
v -0.364965 -0.315533 0.000000
vt 0.887833 0.161185
vn -0.000000 0.000000 -1.000000
v -0.364965 0.315533 0.000000
vt 0.887833 0.838815
vn -0.000000 0.000000 -1.000000
v -0.382535 -0.273115 0.000000
vt 0.906504 0.206732
vn -0.000000 0.000000 -1.000000
v -0.382535 0.273115 0.000000
vt 0.906504 0.793268
vn -0.000000 0.000000 -1.000000
v 0.364965 0.315533 0.038824
vt 0.887833 0.838815
vn -0.000000 0.000000 1.000000
v 0.382535 0.273115 0.038824
vt 0.906504 0.793268
vn -0.000000 0.000000 1.000000
v 0.382535 -0.273115 0.038824
vt 0.906504 0.206732
vn -0.000000 0.000000 1.000000
v 0.364965 -0.315533 0.038824
vt 0.887833 0.161185
vn -0.000000 0.000000 1.000000
v 0.319497 0.361001 0.038824
vt 0.839517 0.887638
vn -0.000000 0.000000 1.000000
v 0.319497 -0.361001 0.038824
vt 0.839517 0.112362
vn -0.000000 0.000000 1.000000
v 0.277079 0.378571 0.038824
vt 0.794441 0.906504
vn -0.000000 0.000000 1.000000
v 0.277079 -0.378571 0.038824
vt 0.794441 0.093496
vn -0.000000 0.000000 1.000000
v -0.277079 0.378571 0.038824
vt 0.205559 0.906504
vn -0.000000 0.000000 1.000000
v -0.277079 -0.378571 0.038824
vt 0.205559 0.093496
vn -0.000000 0.000000 1.000000
v -0.319497 0.361001 0.038824
vt 0.160484 0.887638
vn -0.000000 0.000000 1.000000
v -0.319497 -0.361001 0.038824
vt 0.160484 0.112362
vn -0.000000 0.000000 1.000000
v -0.364965 0.315533 0.038824
vt 0.112167 0.838815
vn -0.000000 0.000000 1.000000
v -0.364965 -0.315533 0.038824
vt 0.112167 0.161185
vn -0.000000 0.000000 1.000000
v -0.382535 0.273115 0.038824
vt 0.093496 0.793268
vn -0.000000 0.000000 1.000000
v -0.382535 -0.273115 0.038824
vt 0.093496 0.206732
vn -0.000000 0.000000 1.000000
v -0.277079 -0.378571 0.000000
vt 0.212857 0.476797
vn -0.195090 -0.980785 0.000000
v -0.277079 -0.378571 0.038824
vt 0.212857 0.523202
vn -0.195090 -0.980785 0.000000
v 0.277079 -0.378571 0.038824
vt 0.787143 0.523202
vn 0.195090 -0.980785 0.000000
v 0.277079 -0.378571 0.000000
vt 0.787143 0.476797
vn 0.195090 -0.980785 0.000000
v 0.319497 -0.361001 0.038824
vt 0.831101 0.523202
vn 0.555570 -0.831470 0.000000
v 0.319497 -0.361001 0.000000
vt 0.831101 0.476797
vn 0.555570 -0.831470 0.000000
v -0.319497 -0.361001 0.000000
vt 0.168898 0.476797
vn -0.555570 -0.831470 0.000000
v -0.319497 -0.361001 0.038824
vt 0.168898 0.523202
vn -0.555570 -0.831470 0.000000
v -0.364965 -0.315533 0.000000
vt 0.121779 0.476797
vn -0.831470 -0.555570 0.000000
v -0.364965 -0.315533 0.038824
vt 0.121779 0.523202
vn -0.831470 -0.555570 0.000000
v 0.382535 -0.273115 0.000000
vt 0.214001 0.476797
vn 0.980785 -0.195090 0.000000
v 0.382535 -0.273115 0.038824
vt 0.214001 0.523202
vn 0.980785 -0.195090 0.000000
v 0.382535 0.273115 0.038824
vt 0.785999 0.523202
vn 0.980785 0.195090 0.000000
v 0.382535 0.273115 0.000000
vt 0.785999 0.476797
vn 0.980785 0.195090 0.000000
v 0.364965 0.315533 0.038824
vt 0.830417 0.523202
vn 0.831470 0.555570 0.000000
v 0.364965 0.315533 0.000000
vt 0.830417 0.476797
vn 0.831470 0.555570 0.000000
v 0.364965 -0.315533 0.000000
vt 0.169582 0.476797
vn 0.831470 -0.555570 0.000000
v 0.364965 -0.315533 0.038824
vt 0.169582 0.523202
vn 0.831470 -0.555570 0.000000
v 0.277079 0.378571 0.000000
vt 0.212857 0.476797
vn 0.195090 0.980785 0.000000
v 0.277079 0.378571 0.038824
vt 0.212857 0.523202
vn 0.195090 0.980785 0.000000
v -0.277079 0.378571 0.038824
vt 0.787143 0.523202
vn -0.195090 0.980785 0.000000
v -0.277079 0.378571 0.000000
vt 0.787143 0.476797
vn -0.195090 0.980785 0.000000
v -0.319497 0.361001 0.038824
vt 0.831101 0.523202
vn -0.555570 0.831470 0.000000
v -0.319497 0.361001 0.000000
vt 0.831101 0.476797
vn -0.555570 0.831470 0.000000
v -0.364965 0.315533 0.038824
vt 0.878221 0.523202
vn -0.831470 0.555570 0.000000
v -0.364965 0.315533 0.000000
vt 0.878221 0.476797
vn -0.831470 0.555570 0.000000
v 0.319497 0.361001 0.000000
vt 0.168898 0.476797
vn 0.555570 0.831470 0.000000
v 0.319497 0.361001 0.038824
vt 0.168898 0.523202
vn 0.555570 0.831470 0.000000
v 0.364965 0.315533 0.000000
vt 0.121779 0.476797
vn 0.831470 0.555570 0.000000
v 0.364965 0.315533 0.038824
vt 0.121779 0.523202
vn 0.831470 0.555570 0.000000
v -0.382535 0.273115 0.000000
vt 0.214001 0.476797
vn -0.980785 0.195090 0.000000
v -0.382535 0.273115 0.038824
vt 0.214001 0.523202
vn -0.980785 0.195090 0.000000
v -0.382535 -0.273115 0.038824
vt 0.785999 0.523202
vn -0.980785 -0.195090 0.000000
v -0.382535 -0.273115 0.000000
vt 0.785999 0.476797
vn -0.980785 -0.195090 0.000000
v -0.364965 -0.315533 0.038824
vt 0.830417 0.523202
vn -0.831470 -0.555570 0.000000
v -0.364965 -0.315533 0.000000
vt 0.830417 0.476797
vn -0.831470 -0.555570 0.000000
v -0.364965 0.315533 0.000000
vt 0.169582 0.476797
vn -0.831470 0.555570 0.000000
v -0.364965 0.315533 0.038824
vt 0.169582 0.523202
vn -0.831470 0.555570 0.000000
v 0.319497 -0.361001 0.000000
vt 0.831101 0.476797
vn 0.555570 -0.831470 0.000000
v 0.319497 -0.361001 0.038824
vt 0.831101 0.523202
vn 0.555570 -0.831470 0.000000
v 0.364965 -0.315533 0.038824
vt 0.878221 0.523202
vn 0.831470 -0.555570 0.000000
v 0.364965 -0.315533 0.000000
vt 0.878221 0.476797
vn 0.831470 -0.555570 0.000000
# Faces (1 to 74)
g Box001_0
f -72/-72/-72 -73/-73/-73 -74/-74/-74
f -74/-74/-74 -71/-71/-71 -72/-72/-72
f -74/-74/-74 -70/-70/-70 -71/-71/-71
f -70/-70/-70 -69/-69/-69 -71/-71/-71
f -70/-70/-70 -68/-68/-68 -69/-69/-69
f -68/-68/-68 -67/-67/-67 -69/-69/-69
f -68/-68/-68 -66/-66/-66 -67/-67/-67
f -66/-66/-66 -65/-65/-65 -67/-67/-67
f -66/-66/-66 -64/-64/-64 -65/-65/-65
f -64/-64/-64 -63/-63/-63 -65/-65/-65
f -64/-64/-64 -62/-62/-62 -63/-63/-63
f -62/-62/-62 -61/-61/-61 -63/-63/-63
f -62/-62/-62 -60/-60/-60 -61/-61/-61
f -60/-60/-60 -59/-59/-59 -61/-61/-61
f -56/-56/-56 -57/-57/-57 -58/-58/-58
f -58/-58/-58 -55/-55/-55 -56/-56/-56
f -58/-58/-58 -54/-54/-54 -55/-55/-55
f -54/-54/-54 -53/-53/-53 -55/-55/-55
f -54/-54/-54 -52/-52/-52 -53/-53/-53
f -52/-52/-52 -51/-51/-51 -53/-53/-53
f -52/-52/-52 -50/-50/-50 -51/-51/-51
f -50/-50/-50 -49/-49/-49 -51/-51/-51
f -50/-50/-50 -48/-48/-48 -49/-49/-49
f -48/-48/-48 -47/-47/-47 -49/-49/-49
f -48/-48/-48 -46/-46/-46 -47/-47/-47
f -46/-46/-46 -45/-45/-45 -47/-47/-47
f -46/-46/-46 -44/-44/-44 -45/-45/-45
f -44/-44/-44 -43/-43/-43 -45/-45/-45
f -40/-40/-40 -41/-41/-41 -42/-42/-42
f -39/-39/-39 -40/-40/-40 -42/-42/-42
f -38/-38/-38 -40/-40/-40 -39/-39/-39
f -37/-37/-37 -38/-38/-38 -39/-39/-39
f -36/-36/-36 -42/-42/-42 -41/-41/-41
f -35/-35/-35 -36/-36/-36 -41/-41/-41
f -34/-34/-34 -36/-36/-36 -35/-35/-35
f -33/-33/-33 -34/-34/-34 -35/-35/-35
f -30/-30/-30 -31/-31/-31 -32/-32/-32
f -29/-29/-29 -30/-30/-30 -32/-32/-32
f -28/-28/-28 -30/-30/-30 -29/-29/-29
f -27/-27/-27 -28/-28/-28 -29/-29/-29
f -32/-32/-32 -31/-31/-31 -26/-26/-26
f -31/-31/-31 -25/-25/-25 -26/-26/-26
f -22/-22/-22 -23/-23/-23 -24/-24/-24
f -21/-21/-21 -22/-22/-22 -24/-24/-24
f -20/-20/-20 -22/-22/-22 -21/-21/-21
f -19/-19/-19 -20/-20/-20 -21/-21/-21
f -18/-18/-18 -20/-20/-20 -19/-19/-19
f -17/-17/-17 -18/-18/-18 -19/-19/-19
f -24/-24/-24 -23/-23/-23 -16/-16/-16
f -23/-23/-23 -15/-15/-15 -16/-16/-16
f -16/-16/-16 -15/-15/-15 -14/-14/-14
f -15/-15/-15 -13/-13/-13 -14/-14/-14
f -10/-10/-10 -11/-11/-11 -12/-12/-12
f -9/-9/-9 -10/-10/-10 -12/-12/-12
f -10/-10/-10 -9/-9/-9 -8/-8/-8
f -9/-9/-9 -7/-7/-7 -8/-8/-8
f -12/-12/-12 -11/-11/-11 -6/-6/-6
f -11/-11/-11 -5/-5/-5 -6/-6/-6
f -2/-2/-2 -3/-3/-3 -4/-4/-4
f -1/-1/-1 -2/-2/-2 -4/-4/-4

