# Mesh "Cleaver" exported with Unity Assets Bundle Extractor; 150 vertices, 432 indices, 384 bits per vertex
g Cleaver
# SubMesh 0
# Vertices
v -0.535470 0.336276 0.261949
vt 0.363669 0.066627
vn -0.352870 0.312251 0.882033
v -0.489453 0.313041 0.261949
vt 0.363669 0.027575
vn 0.460767 -0.098552 0.882032
v -0.623313 0.047919 0.303530
vt 0.096488 0.018664
vn 0.412991 -0.132332 0.901070
v -0.669330 0.071153 0.303530
vt 0.096488 0.066623
vn -0.351686 0.253751 0.901070
v -0.690084 0.081809 0.262702
vt 0.096488 0.107089
vn -0.879630 0.393494 0.267234
v -0.556296 0.346790 0.228955
vt 0.363669 0.125768
vn -0.853754 0.464491 0.235272
v -0.556296 0.346790 0.193639
vt 0.363669 0.157433
vn -0.860968 0.434701 -0.264138
v -0.690076 0.081824 0.193639
vt 0.096488 0.165523
vn -0.892779 0.365421 -0.263465
v -0.669251 0.071310 0.160644
vt 0.096488 0.200947
vn -0.388240 0.134698 -0.911661
v -0.535470 0.336276 0.160644
vt 0.363669 0.193942
vn -0.359950 0.181739 -0.915099
v -0.623233 0.048076 0.160644
vt 0.096488 0.232813
vn 0.338896 -0.232431 -0.911661
v -0.489453 0.313041 0.160644
vt 0.363669 0.226632
vn 0.359952 -0.181738 -0.915099
v -0.602408 0.037561 0.193639
vt 0.096488 0.264008
vn 0.824109 -0.501431 -0.263461
v -0.468628 0.302527 0.193639
vt 0.363669 0.257957
vn 0.860969 -0.434701 -0.264134
v -0.468628 0.302527 0.228955
vt 0.363669 0.288168
vn 0.880656 -0.411209 0.235270
v -0.602416 0.037546 0.262702
vt 0.096488 0.306094
vn 0.838891 -0.474184 0.267231
v -0.623313 0.047919 0.303530
vt 0.096488 0.337443
vn 0.412991 -0.132332 0.901070
v -0.489453 0.313041 0.261949
vt 0.363668 0.313830
vn 0.460767 -0.098552 0.882032
v -0.678045 0.045255 0.256939
vt 0.073119 0.115855
vn -0.779732 -0.616081 0.111635
v -0.663503 0.045883 0.284363
vt 0.062404 0.096434
vn -0.605834 -0.632749 0.482280
v -0.647106 0.037604 0.284363
vt 0.046913 0.096625
vn -0.149452 -0.863176 0.482278
v -0.638977 0.025530 0.256939
vt 0.036211 0.116452
vn -0.032795 -0.993208 0.111633
v -0.669330 0.071153 0.303530
vt 0.076391 0.076632
vn -0.351686 0.253751 0.901070
v -0.623313 0.047919 0.303530
vt 0.032917 0.077132
vn 0.412991 -0.132332 0.901070
v -0.602416 0.037546 0.262702
vt 0.013253 0.109689
vn 0.838891 -0.474184 0.267231
v -0.638977 0.025530 0.210695
vt 0.036221 0.148155
vn -0.035903 -0.994662 -0.096743
v -0.602408 0.037561 0.193639
vt 0.013268 0.162926
vn 0.824109 -0.501431 -0.263461
v -0.647106 0.037604 0.183270
vt 0.046935 0.168181
vn -0.197195 -0.863635 -0.463948
v -0.623233 0.048076 0.160644
vt 0.032949 0.190263
vn 0.338896 -0.232431 -0.911661
v -0.663503 0.045883 0.183270
vt 0.062427 0.168426
vn -0.577859 -0.671439 -0.463949
v -0.669251 0.071310 0.160644
vt 0.076423 0.190975
vn -0.388240 0.134698 -0.911661
v -0.678045 0.045255 0.210695
vt 0.073129 0.148535
vn -0.779056 -0.619445 -0.096744
v -0.498577 0.410038 0.417524
vt 0.860259 0.353721
vn -0.450708 -0.892671 -0.000000
v -0.478908 0.400107 0.489386
vt 0.922896 0.334515
vn -0.405448 -0.802961 0.436882
v -0.471673 0.396454 0.489386
vt 0.922896 0.327546
vn -0.405448 -0.802961 0.436881
v -0.452003 0.386523 0.417524
vt 0.859932 0.308596
vn -0.450708 -0.892671 -0.000000
v -0.498577 0.410038 0.261950
vt 0.723949 0.353952
vn -0.450708 -0.892671 0.000000
v -0.452003 0.386523 0.261950
vt 0.723983 0.308452
vn -0.450708 -0.892671 0.000000
v -0.498577 0.410038 0.160644
vt 0.635110 0.354007
vn -0.450708 -0.892671 0.000000
v -0.452003 0.386523 0.160644
vt 0.635498 0.308269
vn -0.450708 -0.892671 0.000000
v -0.148354 0.987931 0.413076
vt 0.352405 0.933009
vn 0.864546 -0.403964 0.298955
v -0.222841 0.840402 0.428996
vt 0.341592 0.790938
vn 0.860430 -0.413849 0.297303
v -0.242835 0.850497 0.500597
vt 0.277417 0.790938
vn 0.860135 -0.414547 0.297184
v -0.168426 0.998065 0.484677
vt 0.288428 0.933009
vn 0.864546 -0.403964 0.298955
v -0.324251 0.688192 0.504698
vt 0.279113 0.634843
vn 0.852843 -0.431598 0.293909
v -0.304680 0.678311 0.433095
vt 0.343594 0.634844
vn 0.852812 -0.431669 0.293894
v -0.382142 0.524890 0.426842
vt 0.352791 0.487098
vn 0.847300 -0.443572 0.292106
v -0.401628 0.534746 0.498550
vt 0.288075 0.487112
vn 0.847406 -0.443373 0.292101
v -0.452003 0.386523 0.417524
vt 0.361924 0.353850
vn 0.845438 -0.447058 0.292188
v -0.471673 0.396454 0.489386
vt 0.296956 0.353850
vn 0.845438 -0.447058 0.292188
v -0.251387 0.854815 0.500597
vt 0.943741 0.790938
vn -0.853132 0.444719 0.272746
v -0.269414 0.863917 0.428996
vt 0.880143 0.790938
vn -0.852906 0.445421 0.272308
v -0.194928 1.011446 0.413076
vt 0.869514 0.934096
vn -0.849720 0.455067 0.266251
v -0.177634 1.002714 0.484677
vt 0.932471 0.933009
vn -0.849720 0.455067 0.266251
v -0.351254 0.701826 0.433095
vt 0.878163 0.634844
vn -0.858013 0.428614 0.283027
v -0.332261 0.692235 0.504697
vt 0.942366 0.634843
vn -0.857997 0.428669 0.282990
v -0.409217 0.538577 0.498549
vt 0.933967 0.487112
vn -0.860866 0.418125 0.289969
v -0.428716 0.548405 0.426842
vt 0.869257 0.487098
vn -0.860910 0.417950 0.290088
v -0.498577 0.410038 0.417524
vt 0.860259 0.353721
vn -0.861691 0.414868 0.292188
v -0.478908 0.400107 0.489386
vt 0.925706 0.353850
vn -0.861691 0.414868 0.292188
v -0.452003 0.386523 0.261950
vt 0.498092 0.353850
vn 0.892672 -0.450708 0.000000
v -0.382142 0.524890 0.261950
vt 0.497011 0.487098
vn 0.892672 -0.450708 0.000000
v -0.382142 0.524890 0.160644
vt 0.587477 0.487098
vn 0.892672 -0.450708 0.000000
v -0.452003 0.386523 0.160644
vt 0.587893 0.353850
vn 0.892672 -0.450708 0.000000
v -0.382142 0.524890 0.426842
vt 0.352791 0.487098
vn 0.892672 -0.450708 0.000000
v -0.452003 0.386523 0.417524
vt 0.361924 0.353850
vn 0.892672 -0.450708 0.000000
v -0.304680 0.678311 0.433095
vt 0.343594 0.634844
vn 0.892672 -0.450708 0.000000
v -0.304680 0.678311 0.260491
vt 0.493176 0.634844
vn 0.892672 -0.450708 0.000000
v -0.222841 0.840402 0.254313
vt 0.488967 0.790938
vn 0.892671 -0.450708 0.000000
v -0.222841 0.840402 0.428996
vt 0.341592 0.790938
vn 0.892671 -0.450708 0.000000
v -0.148354 0.987931 0.413076
vt 0.352405 0.933009
vn 0.892672 -0.450708 0.000000
v -0.148354 0.987931 0.241931
vt 0.494475 0.933009
vn 0.892671 -0.450708 0.000000
v -0.147906 0.988817 0.154830
vt 0.562989 0.933863
vn 0.892671 -0.450708 -0.000001
v -0.157450 0.969914 0.122829
vt 0.587804 0.915659
vn 0.892671 -0.450708 -0.000000
v -0.222841 0.840402 0.132533
vt 0.589368 0.790938
vn 0.892672 -0.450708 0.000000
v -0.304682 0.678308 0.153781
vt 0.587499 0.634841
vn 0.892672 -0.450708 0.000000
v -0.171342 0.942400 0.113336
vt 0.594658 0.889163
vn 0.892672 -0.450708 0.000000
v -0.452003 0.386523 0.160644
vt 0.587893 0.353850
vn 0.000000 0.000001 -1.000000
v -0.382142 0.524890 0.160644
vt 0.587477 0.487098
vn -0.009462 -0.018740 -0.999780
v -0.428716 0.548405 0.160644
vt 0.634577 0.487098
vn -0.009462 -0.018740 -0.999780
v -0.498577 0.410038 0.160644
vt 0.635110 0.354007
vn 0.000000 0.000001 -1.000000
v -0.304682 0.678308 0.153781
vt 0.587499 0.634841
vn -0.035735 -0.070776 -0.996852
v -0.351255 0.701823 0.153781
vt 0.634422 0.634841
vn -0.035735 -0.070776 -0.996852
v -0.269414 0.863917 0.132533
vt 0.632402 0.790938
vn -0.061049 -0.120914 -0.990784
v -0.222841 0.840402 0.132533
vt 0.589368 0.790938
vn -0.061049 -0.120913 -0.990784
v -0.217916 0.965915 0.113336
vt 0.627016 0.889163
vn -0.030078 -0.059573 -0.997771
v -0.171342 0.942400 0.113336
vt 0.594658 0.889163
vn -0.030078 -0.059573 -0.997771
v -0.498577 0.410038 0.160644
vt 0.635110 0.354007
vn -0.892672 0.450708 -0.000000
v -0.428716 0.548405 0.160644
vt 0.634577 0.487098
vn -0.892672 0.450708 -0.000000
v -0.428716 0.548405 0.261950
vt 0.725031 0.487098
vn -0.892672 0.450708 -0.000000
v -0.498577 0.410038 0.261950
vt 0.723949 0.353952
vn -0.892672 0.450708 -0.000000
v -0.428716 0.548405 0.426842
vt 0.869257 0.487098
vn -0.892672 0.450708 -0.000000
v -0.498577 0.410038 0.417524
vt 0.860259 0.353721
vn -0.892672 0.450708 -0.000000
v -0.351255 0.701823 0.153781
vt 0.634422 0.634841
vn -0.892672 0.450708 -0.000000
v -0.351254 0.701826 0.260491
vt 0.728693 0.634844
vn -0.892672 0.450708 -0.000000
v -0.269414 0.863917 0.254313
vt 0.732816 0.790938
vn -0.892672 0.450708 -0.000000
v -0.269414 0.863917 0.428996
vt 0.880143 0.790938
vn -0.892672 0.450708 -0.000000
v -0.194928 1.011446 0.241930
vt 0.729738 0.934096
vn -0.892672 0.450708 -0.000000
v -0.194928 1.011446 0.413076
vt 0.869514 0.934096
vn -0.892672 0.450708 -0.000000
v -0.351254 0.701826 0.433095
vt 0.878163 0.634844
vn -0.892672 0.450708 -0.000000
v -0.269414 0.863917 0.132533
vt 0.632402 0.790938
vn -0.892671 0.450708 -0.000000
v -0.204024 0.993429 0.122829
vt 0.633876 0.915659
vn -0.892672 0.450708 -0.000000
v -0.217916 0.965915 0.113336
vt 0.627016 0.889163
vn -0.892671 0.450708 0.000000
v -0.194480 1.012332 0.154830
vt 0.659547 0.934251
vn -0.892672 0.450708 -0.000000
v -0.157450 0.969914 0.122829
vt 0.629304 0.976914
vn 0.281124 0.556794 -0.781633
v -0.147906 0.988817 0.154830
vt 0.660401 0.976914
vn 0.444373 0.880124 -0.167076
v -0.194480 1.012332 0.154830
vt 0.659547 0.934251
vn 0.444373 0.880124 -0.167076
v -0.204024 0.993429 0.122829
vt 0.629307 0.934640
vn 0.281124 0.556794 -0.781633
v -0.148354 0.987931 0.241931
vt 0.730977 0.976914
vn 0.450705 0.892665 0.003845
v -0.194928 1.011446 0.241930
vt 0.729738 0.934096
vn 0.450705 0.892665 0.003845
v -0.148354 0.987931 0.413076
vt 0.869651 0.976914
vn 0.450708 0.892671 -0.000000
v -0.194928 1.011446 0.413076
vt 0.869514 0.934096
vn 0.450708 0.892671 -0.000000
v -0.168426 0.998065 0.484677
vt 0.927665 0.958695
vn 0.450708 0.892671 -0.000001
v -0.177634 1.002714 0.484677
vt 0.927665 0.950337
vn 0.450708 0.892671 -0.000001
v -0.171342 0.942400 0.113336
vt 0.603174 0.976914
vn -0.030078 -0.059573 -0.997771
v -0.217916 0.965915 0.113336
vt 0.603173 0.934640
vn -0.030078 -0.059573 -0.997771
v -0.168426 0.998065 0.484677
vt 0.973859 0.933009
vn 0.043217 0.085593 0.995392
v -0.242835 0.850497 0.500597
vt 0.974046 0.790938
vn 0.026500 0.052565 0.998266
v -0.251387 0.854815 0.500597
vt 0.943741 0.790938
vn 0.026575 0.052711 0.998256
v -0.177634 1.002714 0.484677
vt 0.942944 0.933009
vn 0.043217 0.085593 0.995392
v -0.332261 0.692235 0.504697
vt 0.942366 0.634843
vn -0.002268 -0.004275 0.999988
v -0.324251 0.688192 0.504698
vt 0.972157 0.634843
vn -0.002318 -0.004373 0.999988
v -0.401628 0.534746 0.498550
vt 0.963352 0.487112
vn -0.021046 -0.041458 0.998919
v -0.409217 0.538577 0.498549
vt 0.933967 0.487112
vn -0.021040 -0.041445 0.998919
v -0.478908 0.400107 0.489386
vt 0.925706 0.353850
vn -0.405448 -0.802961 0.436882
v -0.471673 0.396454 0.489386
vt 0.954776 0.353850
vn -0.405448 -0.802961 0.436881
v -0.556296 0.346790 0.193639
vt 0.363669 0.157433
vn -0.844766 0.426520 -0.323189
v -0.519124 0.420412 0.193639
vt 0.434204 0.158066
vn -0.844766 0.426520 -0.323189
v -0.519124 0.420412 0.228955
vt 0.434204 0.125042
vn -0.844766 0.426520 0.323189
v -0.556296 0.346790 0.228955
vt 0.363669 0.125768
vn -0.844766 0.426520 0.323189
v -0.498299 0.409897 0.261950
vt 0.434204 0.066545
vn -0.359951 0.181737 0.915100
v -0.535470 0.336276 0.261949
vt 0.363669 0.066627
vn -0.359951 0.181737 0.915100
v -0.452281 0.386663 0.261950
vt 0.434204 0.027684
vn 0.359952 -0.181739 0.915099
v -0.489453 0.313041 0.261949
vt 0.363669 0.027575
vn 0.359952 -0.181739 0.915099
v -0.498299 0.409897 0.160644
vt 0.434204 0.192981
vn -0.359951 0.181739 -0.915099
v -0.452281 0.386663 0.160644
vt 0.434204 0.224403
vn 0.359952 -0.181738 -0.915099
v -0.468628 0.302527 0.193639
vt 0.363669 0.257957
vn 0.844767 -0.426520 -0.323185
v -0.431456 0.376149 0.193639
vt 0.434204 0.255700
vn 0.844767 -0.426520 -0.323185
v -0.468628 0.302527 0.228955
vt 0.363669 0.288168
vn 0.844767 -0.426521 0.323186
v -0.431456 0.376149 0.228955
vt 0.434204 0.285896
vn 0.844767 -0.426521 0.323186
v -0.489453 0.313041 0.261949
vt 0.363668 0.313830
vn 0.359952 -0.181739 0.915099
v -0.452281 0.386663 0.261950
vt 0.434204 0.311500
vn 0.359952 -0.181739 0.915099
v -0.519124 0.420412 0.193639
vt 0.434204 0.158066
vn 0.450708 0.892672 0.000000
v -0.498299 0.409897 0.160644
vt 0.455097 0.190479
vn 0.450708 0.892672 0.000002
v -0.452281 0.386663 0.160644
vt 0.505508 0.190720
vn 0.450708 0.892672 0.000002
v -0.431456 0.376149 0.193639
vt 0.528323 0.158609
vn 0.450708 0.892672 0.000000
v -0.431456 0.376149 0.228955
vt 0.528324 0.124265
vn 0.450708 0.892672 -0.000000
v -0.519124 0.420412 0.228955
vt 0.434204 0.125042
vn 0.450708 0.892672 -0.000000
v -0.498299 0.409897 0.261950
vt 0.455101 0.092552
vn 0.450707 0.892672 -0.000001
v -0.452281 0.386663 0.261950
vt 0.505512 0.092233
vn 0.450707 0.892672 -0.000001
# Faces (1 to 150)
g Cleaver_0
f -148/-148/-148 -149/-149/-149 -150/-150/-150
f -147/-147/-147 -148/-148/-148 -150/-150/-150
f -147/-147/-147 -150/-150/-150 -146/-146/-146
f -150/-150/-150 -145/-145/-145 -146/-146/-146
f -146/-146/-146 -145/-145/-145 -144/-144/-144
f -143/-143/-143 -146/-146/-146 -144/-144/-144
f -142/-142/-142 -143/-143/-143 -144/-144/-144
f -141/-141/-141 -142/-142/-142 -144/-144/-144
f -142/-142/-142 -141/-141/-141 -140/-140/-140
f -141/-141/-141 -139/-139/-139 -140/-140/-140
f -138/-138/-138 -140/-140/-140 -139/-139/-139
f -137/-137/-137 -138/-138/-138 -139/-139/-139
f -138/-138/-138 -137/-137/-137 -136/-136/-136
f -135/-135/-135 -138/-138/-138 -136/-136/-136
f -135/-135/-135 -136/-136/-136 -134/-134/-134
f -136/-136/-136 -133/-133/-133 -134/-134/-134
f -146/-146/-146 -143/-143/-143 -132/-132/-132
f -146/-146/-146 -132/-132/-132 -131/-131/-131
f -130/-130/-130 -131/-131/-131 -132/-132/-132
f -129/-129/-129 -130/-130/-130 -132/-132/-132
f -131/-131/-131 -130/-130/-130 -128/-128/-128
f -128/-128/-128 -146/-146/-146 -131/-131/-131
f -130/-130/-130 -127/-127/-127 -128/-128/-128
f -130/-130/-130 -129/-129/-129 -127/-127/-127
f -129/-129/-129 -126/-126/-126 -127/-127/-127
f -129/-129/-129 -125/-125/-125 -126/-126/-126
f -125/-125/-125 -129/-129/-129 -132/-132/-132
f -125/-125/-125 -124/-124/-124 -126/-126/-126
f -124/-124/-124 -125/-125/-125 -123/-123/-123
f -122/-122/-122 -124/-124/-124 -123/-123/-123
f -122/-122/-122 -123/-123/-123 -121/-121/-121
f -121/-121/-121 -123/-123/-123 -125/-125/-125
f -120/-120/-120 -122/-122/-122 -121/-121/-121
f -120/-120/-120 -121/-121/-121 -119/-119/-119
f -119/-119/-119 -125/-125/-125 -132/-132/-132
f -119/-119/-119 -121/-121/-121 -125/-125/-125
f -143/-143/-143 -119/-119/-119 -132/-132/-132
f -143/-143/-143 -120/-120/-120 -119/-119/-119
f -116/-116/-116 -117/-117/-117 -118/-118/-118
f -115/-115/-115 -116/-116/-116 -118/-118/-118
f -115/-115/-115 -118/-118/-118 -114/-114/-114
f -113/-113/-113 -115/-115/-115 -114/-114/-114
f -114/-114/-114 -112/-112/-112 -113/-113/-113
f -112/-112/-112 -111/-111/-111 -113/-113/-113
f -108/-108/-108 -109/-109/-109 -110/-110/-110
f -107/-107/-107 -108/-108/-108 -110/-110/-110
f -108/-108/-108 -106/-106/-106 -109/-109/-109
f -106/-106/-106 -105/-105/-105 -109/-109/-109
f -105/-105/-105 -106/-106/-106 -104/-104/-104
f -106/-106/-106 -103/-103/-103 -104/-104/-104
f -104/-104/-104 -103/-103/-103 -102/-102/-102
f -103/-103/-103 -101/-101/-101 -102/-102/-102
f -98/-98/-98 -99/-99/-99 -100/-100/-100
f -97/-97/-97 -98/-98/-98 -100/-100/-100
f -100/-100/-100 -99/-99/-99 -96/-96/-96
f -95/-95/-95 -100/-100/-100 -96/-96/-96
f -94/-94/-94 -95/-95/-95 -96/-96/-96
f -93/-93/-93 -94/-94/-94 -96/-96/-96
f -93/-93/-93 -92/-92/-92 -94/-94/-94
f -92/-92/-92 -91/-91/-91 -94/-94/-94
f -88/-88/-88 -89/-89/-89 -90/-90/-90
f -87/-87/-87 -88/-88/-88 -90/-90/-90
f -89/-89/-89 -86/-86/-86 -90/-90/-90
f -86/-86/-86 -85/-85/-85 -90/-90/-90
f -84/-84/-84 -86/-86/-86 -89/-89/-89
f -83/-83/-83 -84/-84/-84 -89/-89/-89
f -89/-89/-89 -88/-88/-88 -83/-83/-83
f -83/-83/-83 -82/-82/-82 -84/-84/-84
f -82/-82/-82 -81/-81/-81 -84/-84/-84
f -80/-80/-80 -81/-81/-81 -82/-82/-82
f -79/-79/-79 -80/-80/-80 -82/-82/-82
f -78/-78/-78 -79/-79/-79 -82/-82/-82
f -77/-77/-77 -78/-78/-78 -82/-82/-82
f -76/-76/-76 -82/-82/-82 -83/-83/-83
f -75/-75/-75 -76/-76/-76 -83/-83/-83
f -88/-88/-88 -75/-75/-75 -83/-83/-83
f -74/-74/-74 -77/-77/-77 -82/-82/-82
f -76/-76/-76 -74/-74/-74 -82/-82/-82
f -71/-71/-71 -72/-72/-72 -73/-73/-73
f -70/-70/-70 -71/-71/-71 -73/-73/-73
f -72/-72/-72 -71/-71/-71 -69/-69/-69
f -71/-71/-71 -68/-68/-68 -69/-69/-69
f -68/-68/-68 -67/-67/-67 -69/-69/-69
f -67/-67/-67 -66/-66/-66 -69/-69/-69
f -67/-67/-67 -65/-65/-65 -66/-66/-66
f -65/-65/-65 -64/-64/-64 -66/-66/-66
f -61/-61/-61 -62/-62/-62 -63/-63/-63
f -60/-60/-60 -61/-61/-61 -63/-63/-63
f -61/-61/-61 -60/-60/-60 -59/-59/-59
f -60/-60/-60 -58/-58/-58 -59/-59/-59
f -57/-57/-57 -62/-62/-62 -61/-61/-61
f -56/-56/-56 -57/-57/-57 -61/-61/-61
f -61/-61/-61 -59/-59/-59 -56/-56/-56
f -56/-56/-56 -55/-55/-55 -57/-57/-57
f -54/-54/-54 -55/-55/-55 -56/-56/-56
f -53/-53/-53 -55/-55/-55 -54/-54/-54
f -52/-52/-52 -53/-53/-53 -54/-54/-54
f -51/-51/-51 -54/-54/-54 -56/-56/-56
f -59/-59/-59 -51/-51/-51 -56/-56/-56
f -55/-55/-55 -50/-50/-50 -57/-57/-57
f -55/-55/-55 -49/-49/-49 -50/-50/-50
f -55/-55/-55 -53/-53/-53 -49/-49/-49
f -49/-49/-49 -48/-48/-48 -50/-50/-50
f -53/-53/-53 -47/-47/-47 -49/-49/-49
f -44/-44/-44 -45/-45/-45 -46/-46/-46
f -43/-43/-43 -44/-44/-44 -46/-46/-46
f -45/-45/-45 -44/-44/-44 -42/-42/-42
f -44/-44/-44 -41/-41/-41 -42/-42/-42
f -42/-42/-42 -41/-41/-41 -40/-40/-40
f -41/-41/-41 -39/-39/-39 -40/-40/-40
f -40/-40/-40 -39/-39/-39 -38/-38/-38
f -39/-39/-39 -37/-37/-37 -38/-38/-38
f -43/-43/-43 -46/-46/-46 -36/-36/-36
f -35/-35/-35 -43/-43/-43 -36/-36/-36
f -32/-32/-32 -33/-33/-33 -34/-34/-34
f -31/-31/-31 -32/-32/-32 -34/-34/-34
f -32/-32/-32 -30/-30/-30 -33/-33/-33
f -30/-30/-30 -29/-29/-29 -33/-33/-33
f -28/-28/-28 -29/-29/-29 -30/-30/-30
f -27/-27/-27 -28/-28/-28 -30/-30/-30
f -28/-28/-28 -27/-27/-27 -26/-26/-26
f -25/-25/-25 -28/-28/-28 -26/-26/-26
f -22/-22/-22 -23/-23/-23 -24/-24/-24
f -21/-21/-21 -22/-22/-22 -24/-24/-24
f -20/-20/-20 -22/-22/-22 -21/-21/-21
f -19/-19/-19 -20/-20/-20 -21/-21/-21
f -18/-18/-18 -20/-20/-20 -19/-19/-19
f -17/-17/-17 -18/-18/-18 -19/-19/-19
f -24/-24/-24 -23/-23/-23 -141/-141/-141
f -23/-23/-23 -16/-16/-16 -141/-141/-141
f -141/-141/-141 -16/-16/-16 -139/-139/-139
f -16/-16/-16 -15/-15/-15 -139/-139/-139
f -139/-139/-139 -15/-15/-15 -14/-14/-14
f -15/-15/-15 -13/-13/-13 -14/-14/-14
f -14/-14/-14 -13/-13/-13 -12/-12/-12
f -13/-13/-13 -11/-11/-11 -12/-12/-12
f -12/-12/-12 -11/-11/-11 -10/-10/-10
f -11/-11/-11 -9/-9/-9 -10/-10/-10
f -6/-6/-6 -7/-7/-7 -8/-8/-8
f -5/-5/-5 -6/-6/-6 -8/-8/-8
f -4/-4/-4 -5/-5/-5 -8/-8/-8
f -3/-3/-3 -4/-4/-4 -8/-8/-8
f -3/-3/-3 -2/-2/-2 -4/-4/-4
f -2/-2/-2 -1/-1/-1 -4/-4/-4

