# Mesh "cone1" exported with Unity Assets Bundle Extractor; 123 vertices, 336 indices, 384 bits per vertex
g cone1
# SubMesh 0
# Vertices
v 0.220660 0.096452 -0.147440
vt 0.617214 0.626310
vn 0.773550 0.366700 -0.516868
v 0.054755 0.602677 -0.036586
vt 0.982861 0.606878
vn 0.773550 0.366700 -0.516868
v 0.036586 0.602677 -0.054755
vt 0.982861 0.562685
vn 0.516869 0.366700 -0.773549
v 0.147440 0.096452 -0.220660
vt 0.617217 0.562098
vn 0.516869 0.366700 -0.773549
v 0.012847 0.602677 -0.064588
vt 0.982862 0.518334
vn 0.181501 0.366700 -0.912463
v 0.051774 0.096452 -0.260286
vt 0.617217 0.497733
vn 0.181501 0.366700 -0.912463
v -0.012847 0.602677 -0.064588
vt 0.982861 0.473984
vn -0.181500 0.366700 -0.912463
v -0.051774 0.096452 -0.260286
vt 0.617215 0.433441
vn -0.181499 0.366700 -0.912463
v -0.036586 0.602677 -0.054755
vt 0.982861 0.429790
vn -0.516869 0.366699 -0.773549
v -0.147440 0.096452 -0.220660
vt 0.617211 0.369446
vn -0.516869 0.366699 -0.773549
v -0.054755 0.602677 -0.036586
vt 0.982861 0.385905
vn -0.773548 0.366700 -0.516870
v -0.220660 0.096452 -0.147440
vt 0.617205 0.305972
vn -0.773548 0.366700 -0.516870
v -0.064588 0.602677 -0.012847
vt 0.982861 0.342486
vn -0.912464 0.366699 -0.181499
v -0.260286 0.096452 -0.051774
vt 0.617196 0.243243
vn -0.912464 0.366699 -0.181499
v -0.064588 0.602677 0.012847
vt 0.982860 0.299681
vn -0.912463 0.366700 0.181500
v -0.260286 0.096452 0.051774
vt 0.617185 0.181478
vn -0.912463 0.366700 0.181500
v -0.054755 0.602677 0.036586
vt 0.982860 0.257643
vn -0.773550 0.366700 0.516868
v -0.220660 0.096452 0.147440
vt 0.617172 0.120894
vn -0.773550 0.366700 0.516868
v -0.036586 0.602677 0.054755
vt 0.982859 0.216520
vn -0.516869 0.366700 0.773549
v -0.147440 0.096452 0.220660
vt 0.617156 0.061703
vn -0.516869 0.366700 0.773549
v -0.012847 0.602677 0.064588
vt 0.982859 0.176453
vn -0.181501 0.366700 0.912463
v -0.051774 0.096452 0.260286
vt 0.617139 0.004112
vn -0.181501 0.366700 0.912463
v -0.051774 0.096452 0.260286
vt 0.617150 0.995888
vn -0.181501 0.366700 0.912463
v -0.012847 0.602677 0.064588
vt 0.982859 0.860213
vn -0.181501 0.366700 0.912463
v 0.012847 0.602677 0.064588
vt 0.982859 0.820148
vn 0.181500 0.366699 0.912463
v 0.051774 0.096452 0.260286
vt 0.617166 0.937250
vn 0.181500 0.366699 0.912463
v 0.036586 0.602677 0.054755
vt 0.982860 0.779023
vn 0.516870 0.366699 0.773549
v 0.147440 0.096452 0.220660
vt 0.617180 0.877144
vn 0.516870 0.366699 0.773549
v 0.054755 0.602677 0.036586
vt 0.982860 0.736986
vn 0.773548 0.366699 0.516870
v 0.220660 0.096452 0.147440
vt 0.617192 0.815780
vn 0.773548 0.366699 0.516870
v 0.064588 0.602677 0.012847
vt 0.982861 0.694182
vn 0.912464 0.366699 0.181499
v 0.260286 0.096452 0.051774
vt 0.617202 0.753372
vn 0.912464 0.366699 0.181500
v 0.064588 0.602677 -0.012847
vt 0.982861 0.650763
vn 0.912463 0.366699 -0.181501
v 0.260286 0.096452 -0.051774
vt 0.617209 0.690143
vn 0.912463 0.366699 -0.181500
v 0.054755 0.602677 -0.036586
vt 0.211893 0.317525
vn -0.000000 1.000000 0.000000
v 0.000000 0.602677 -0.000000
vt 0.299999 0.300000
vn -0.000000 1.000000 0.000000
v 0.036586 0.602677 -0.054755
vt 0.211893 0.282475
vn -0.000000 1.000000 0.000001
v 0.012847 0.602677 -0.064588
vt 0.225308 0.250092
vn -0.000000 1.000000 0.000001
v -0.012847 0.602677 -0.064588
vt 0.250091 0.225307
vn -0.000000 1.000000 0.000000
v -0.036586 0.602677 -0.054755
vt 0.282474 0.211894
vn -0.000000 1.000000 0.000000
v -0.054755 0.602677 -0.036586
vt 0.317526 0.211894
vn -0.000000 1.000000 0.000000
v -0.064588 0.602677 -0.012847
vt 0.349909 0.225307
vn -0.000000 1.000000 0.000000
v -0.064588 0.602677 0.012847
vt 0.374692 0.250092
vn -0.000000 1.000000 0.000000
v -0.054755 0.602677 0.036586
vt 0.388107 0.282475
vn -0.000000 1.000000 0.000000
v -0.036586 0.602677 0.054755
vt 0.388107 0.317525
vn -0.000000 1.000000 -0.000001
v -0.012847 0.602677 0.064588
vt 0.374692 0.349908
vn -0.000000 1.000000 -0.000001
v 0.012847 0.602677 0.064588
vt 0.349909 0.374693
vn -0.000000 1.000000 0.000000
v 0.036586 0.602677 0.054755
vt 0.317524 0.388106
vn -0.000000 1.000000 0.000000
v 0.054755 0.602677 0.036586
vt 0.282474 0.388106
vn -0.000000 1.000000 0.000000
v 0.064588 0.602677 0.012847
vt 0.250091 0.374693
vn -0.000000 1.000000 0.000000
v 0.064588 0.602677 -0.012847
vt 0.225308 0.349908
vn -0.000000 1.000000 0.000000
v 0.147440 0.096452 -0.220660
vt 0.150721 0.393444
vn 0.052775 0.994473 -0.090762
v 0.225689 0.079938 -0.368096
vt 0.052857 0.445344
vn 0.053355 0.994490 -0.090243
v 0.368096 0.079938 -0.225689
vt 0.147065 0.539519
vn 0.090243 0.994490 -0.053355
v 0.220660 0.096452 -0.147440
vt 0.199034 0.441706
vn 0.090762 0.994473 -0.052775
v 0.051774 0.096452 -0.260286
vt 0.124608 0.330366
vn 0.010295 0.990771 -0.135155
v 0.079252 0.079938 -0.368096
vt 0.052660 0.348560
vn 0.012107 0.991137 -0.132288
v -0.051774 0.096452 -0.260286
vt 0.124590 0.262115
vn -0.010294 0.990771 -0.135155
v -0.079251 0.079938 -0.368096
vt 0.052665 0.243841
vn -0.012107 0.991137 -0.132288
v -0.147440 0.096452 -0.220660
vt 0.150641 0.199022
vn -0.052775 0.994473 -0.090762
v -0.225689 0.079938 -0.368096
vt 0.052832 0.147033
vn -0.053355 0.994490 -0.090243
v -0.220660 0.096452 -0.147440
vt 0.198917 0.150716
vn -0.090762 0.994473 -0.052775
v -0.368096 0.079938 -0.225689
vt 0.147031 0.052840
vn -0.090243 0.994490 -0.053355
v -0.260286 0.096452 -0.051774
vt 0.262005 0.124601
vn -0.135155 0.990771 -0.010295
v -0.368096 0.079938 -0.079252
vt 0.243818 0.052657
vn -0.132288 0.991137 -0.012107
v -0.260286 0.096452 0.051774
vt 0.330238 0.124580
vn -0.135155 0.990771 0.010294
v -0.368096 0.079938 0.079251
vt 0.348523 0.052685
vn -0.132288 0.991137 0.012107
v -0.220660 0.096452 0.147440
vt 0.393289 0.150649
vn -0.090762 0.994473 0.052775
v -0.368096 0.079938 0.225689
vt 0.445298 0.052889
vn -0.090243 0.994490 0.053355
v -0.147440 0.096452 0.220660
vt 0.441567 0.198932
vn -0.052775 0.994473 0.090762
v -0.225689 0.079938 0.368096
vt 0.539416 0.147083
vn -0.053355 0.994490 0.090243
v -0.051774 0.096452 0.260286
vt 0.467670 0.261987
vn -0.010295 0.990771 0.135155
v -0.079252 0.079938 0.368096
vt 0.539583 0.243824
vn -0.012107 0.991137 0.132288
v 0.051774 0.096452 0.260286
vt 0.467649 0.330205
vn 0.010294 0.990771 0.135155
v 0.079251 0.079938 0.368096
vt 0.539549 0.348479
vn 0.012107 0.991137 0.132288
v 0.147440 0.096452 0.220660
vt 0.441604 0.393278
vn 0.052775 0.994473 0.090762
v 0.225689 0.079938 0.368096
vt 0.539390 0.445222
vn 0.053355 0.994490 0.090242
v 0.220660 0.096452 0.147440
vt 0.393373 0.441595
vn 0.090762 0.994473 0.052775
v 0.368096 0.079938 0.225689
vt 0.445293 0.539413
vn 0.090242 0.994490 0.053355
v 0.260286 0.096452 0.051774
vt 0.330340 0.467740
vn 0.135155 0.990771 0.010295
v 0.368096 0.079938 0.079251
vt 0.348544 0.539649
vn 0.132288 0.991137 0.012107
v 0.260286 0.096452 -0.051774
vt 0.262123 0.467766
vn 0.135155 0.990771 -0.010294
v 0.368096 0.079938 -0.079252
vt 0.243857 0.539670
vn 0.132288 0.991137 -0.012107
v 0.225689 0.079938 -0.368096
vt 0.052857 0.445344
vn 0.442202 0.000000 -0.896916
v 0.225689 0.000263 -0.368096
vt 0.015600 0.482614
vn 0.442202 0.000000 -0.896916
v 0.368096 0.000263 -0.225689
vt 0.109807 0.576789
vn 0.896916 0.000000 -0.442201
v 0.368096 0.079938 -0.225689
vt 0.147065 0.539519
vn 0.896916 0.000000 -0.442201
v 0.079252 0.079938 -0.368096
vt 0.052660 0.348560
vn 0.000002 0.000000 -1.000000
v 0.225689 0.000263 -0.368096
vt 0.000170 0.445444
vn 0.442202 0.000000 -0.896916
v 0.079252 0.000263 -0.368096
vt 0.000000 0.348608
vn 0.000002 0.000000 -1.000000
v -0.079251 0.079938 -0.368096
vt 0.052665 0.243841
vn -0.000002 0.000000 -1.000000
v -0.079251 0.000263 -0.368096
vt 0.000000 0.243798
vn -0.000002 0.000000 -1.000000
v -0.225689 0.079938 -0.368096
vt 0.052832 0.147033
vn -0.442200 0.000000 -0.896916
v -0.225689 0.000263 -0.368096
vt 0.000141 0.146956
vn -0.442200 0.000000 -0.896916
v -0.368096 0.079938 -0.225689
vt 0.147031 0.052840
vn -0.896916 0.000000 -0.442202
v -0.225689 0.000263 -0.368096
vt 0.015568 0.109766
vn -0.442200 0.000000 -0.896916
v -0.368096 0.000263 -0.225689
vt 0.109767 0.015573
vn -0.896916 0.000000 -0.442202
v -0.368096 0.079938 -0.079252
vt 0.243818 0.052657
vn -1.000000 0.000000 -0.000002
v -0.368096 0.000263 -0.225689
vt 0.146940 0.000150
vn -0.896916 0.000000 -0.442202
v -0.368096 0.000263 -0.079252
vt 0.243782 0.000000
vn -1.000000 0.000000 -0.000002
v -0.368096 0.079938 0.079251
vt 0.348523 0.052685
vn -1.000000 0.000000 0.000002
v -0.368096 0.000263 0.079251
vt 0.348583 0.000031
vn -1.000000 0.000000 0.000002
v -0.368096 0.079938 0.225689
vt 0.445298 0.052889
vn -0.896916 0.000000 0.442201
v -0.368096 0.000263 0.225689
vt 0.445397 0.000213
vn -0.896916 0.000000 0.442201
v -0.225689 0.079938 0.368096
vt 0.539416 0.147083
vn -0.442201 0.000000 0.896916
v -0.368096 0.000263 0.225689
vt 0.482563 0.015654
vn -0.896916 0.000000 0.442201
v -0.225689 0.000263 0.368096
vt 0.576681 0.109848
vn -0.442201 0.000000 0.896916
v -0.079252 0.079938 0.368096
vt 0.539583 0.243824
vn -0.000002 0.000000 1.000000
v -0.225689 0.000263 0.368096
vt 0.592077 0.147001
vn -0.442201 0.000000 0.896916
v -0.079252 0.000263 0.368096
vt 0.592212 0.243791
vn -0.000002 0.000000 1.000000
v 0.079251 0.079938 0.368096
vt 0.539549 0.348479
vn 0.000002 0.000000 1.000000
v 0.079251 0.000263 0.368096
vt 0.592181 0.348528
vn 0.000002 0.000000 1.000000
v 0.225689 0.079938 0.368096
vt 0.539390 0.445222
vn 0.442201 0.000000 0.896916
v 0.225689 0.000263 0.368096
vt 0.592042 0.445298
vn 0.442201 0.000000 0.896916
v 0.368096 0.079938 0.225689
vt 0.445293 0.539413
vn 0.896916 0.000000 0.442201
v 0.225689 0.000263 0.368096
vt 0.576654 0.482449
vn 0.442201 0.000000 0.896916
v 0.368096 0.000263 0.225689
vt 0.482557 0.576640
vn 0.896916 0.000000 0.442201
v 0.368096 0.079938 0.079251
vt 0.348544 0.539649
vn 1.000000 0.000000 0.000002
v 0.368096 0.000263 0.225689
vt 0.445416 0.592085
vn 0.896916 0.000000 0.442201
v 0.368096 0.000263 0.079251
vt 0.348609 0.592293
vn 1.000000 0.000000 0.000002
v 0.368096 0.079938 -0.079252
vt 0.243857 0.539670
vn 1.000000 0.000000 -0.000002
v 0.368096 0.000263 -0.079252
vt 0.243826 0.592323
vn 1.000000 0.000000 -0.000002
v 0.368096 0.000263 -0.225689
vt 0.146999 0.592201
vn 0.896916 0.000000 -0.442201
# Faces (1 to 123)
g cone1_0
f -121/-121/-121 -122/-122/-122 -123/-123/-123
f -120/-120/-120 -121/-121/-121 -123/-123/-123
f -119/-119/-119 -121/-121/-121 -120/-120/-120
f -118/-118/-118 -119/-119/-119 -120/-120/-120
f -117/-117/-117 -119/-119/-119 -118/-118/-118
f -116/-116/-116 -117/-117/-117 -118/-118/-118
f -115/-115/-115 -117/-117/-117 -116/-116/-116
f -114/-114/-114 -115/-115/-115 -116/-116/-116
f -113/-113/-113 -115/-115/-115 -114/-114/-114
f -112/-112/-112 -113/-113/-113 -114/-114/-114
f -111/-111/-111 -113/-113/-113 -112/-112/-112
f -110/-110/-110 -111/-111/-111 -112/-112/-112
f -109/-109/-109 -111/-111/-111 -110/-110/-110
f -108/-108/-108 -109/-109/-109 -110/-110/-110
f -107/-107/-107 -109/-109/-109 -108/-108/-108
f -106/-106/-106 -107/-107/-107 -108/-108/-108
f -105/-105/-105 -107/-107/-107 -106/-106/-106
f -104/-104/-104 -105/-105/-105 -106/-106/-106
f -103/-103/-103 -105/-105/-105 -104/-104/-104
f -102/-102/-102 -103/-103/-103 -104/-104/-104
f -99/-99/-99 -100/-100/-100 -101/-101/-101
f -98/-98/-98 -99/-99/-99 -101/-101/-101
f -97/-97/-97 -99/-99/-99 -98/-98/-98
f -96/-96/-96 -97/-97/-97 -98/-98/-98
f -95/-95/-95 -97/-97/-97 -96/-96/-96
f -94/-94/-94 -95/-95/-95 -96/-96/-96
f -93/-93/-93 -95/-95/-95 -94/-94/-94
f -92/-92/-92 -93/-93/-93 -94/-94/-94
f -91/-91/-91 -93/-93/-93 -92/-92/-92
f -90/-90/-90 -91/-91/-91 -92/-92/-92
f -122/-122/-122 -91/-91/-91 -90/-90/-90
f -123/-123/-123 -122/-122/-122 -90/-90/-90
f -87/-87/-87 -88/-88/-88 -89/-89/-89
f -86/-86/-86 -88/-88/-88 -87/-87/-87
f -85/-85/-85 -88/-88/-88 -86/-86/-86
f -84/-84/-84 -88/-88/-88 -85/-85/-85
f -83/-83/-83 -88/-88/-88 -84/-84/-84
f -82/-82/-82 -88/-88/-88 -83/-83/-83
f -81/-81/-81 -88/-88/-88 -82/-82/-82
f -80/-80/-80 -88/-88/-88 -81/-81/-81
f -79/-79/-79 -88/-88/-88 -80/-80/-80
f -78/-78/-78 -88/-88/-88 -79/-79/-79
f -77/-77/-77 -88/-88/-88 -78/-78/-78
f -76/-76/-76 -88/-88/-88 -77/-77/-77
f -75/-75/-75 -88/-88/-88 -76/-76/-76
f -74/-74/-74 -88/-88/-88 -75/-75/-75
f -73/-73/-73 -88/-88/-88 -74/-74/-74
f -89/-89/-89 -88/-88/-88 -73/-73/-73
f -70/-70/-70 -71/-71/-71 -72/-72/-72
f -69/-69/-69 -70/-70/-70 -72/-72/-72
f -72/-72/-72 -71/-71/-71 -68/-68/-68
f -71/-71/-71 -67/-67/-67 -68/-68/-68
f -68/-68/-68 -67/-67/-67 -66/-66/-66
f -67/-67/-67 -65/-65/-65 -66/-66/-66
f -66/-66/-66 -65/-65/-65 -64/-64/-64
f -65/-65/-65 -63/-63/-63 -64/-64/-64
f -64/-64/-64 -63/-63/-63 -62/-62/-62
f -63/-63/-63 -61/-61/-61 -62/-62/-62
f -62/-62/-62 -61/-61/-61 -60/-60/-60
f -61/-61/-61 -59/-59/-59 -60/-60/-60
f -60/-60/-60 -59/-59/-59 -58/-58/-58
f -59/-59/-59 -57/-57/-57 -58/-58/-58
f -58/-58/-58 -57/-57/-57 -56/-56/-56
f -57/-57/-57 -55/-55/-55 -56/-56/-56
f -56/-56/-56 -55/-55/-55 -54/-54/-54
f -55/-55/-55 -53/-53/-53 -54/-54/-54
f -54/-54/-54 -53/-53/-53 -52/-52/-52
f -53/-53/-53 -51/-51/-51 -52/-52/-52
f -52/-52/-52 -51/-51/-51 -50/-50/-50
f -51/-51/-51 -49/-49/-49 -50/-50/-50
f -50/-50/-50 -49/-49/-49 -48/-48/-48
f -49/-49/-49 -47/-47/-47 -48/-48/-48
f -48/-48/-48 -47/-47/-47 -46/-46/-46
f -47/-47/-47 -45/-45/-45 -46/-46/-46
f -46/-46/-46 -45/-45/-45 -44/-44/-44
f -45/-45/-45 -43/-43/-43 -44/-44/-44
f -44/-44/-44 -43/-43/-43 -42/-42/-42
f -43/-43/-43 -41/-41/-41 -42/-42/-42
f -42/-42/-42 -41/-41/-41 -69/-69/-69
f -41/-41/-41 -70/-70/-70 -69/-69/-69
f -38/-38/-38 -39/-39/-39 -40/-40/-40
f -37/-37/-37 -38/-38/-38 -40/-40/-40
f -40/-40/-40 -35/-35/-35 -36/-36/-36
f -35/-35/-35 -34/-34/-34 -36/-36/-36
f -36/-36/-36 -34/-34/-34 -33/-33/-33
f -34/-34/-34 -32/-32/-32 -33/-33/-33
f -33/-33/-33 -32/-32/-32 -31/-31/-31
f -32/-32/-32 -30/-30/-30 -31/-31/-31
f -31/-31/-31 -28/-28/-28 -29/-29/-29
f -28/-28/-28 -27/-27/-27 -29/-29/-29
f -29/-29/-29 -25/-25/-25 -26/-26/-26
f -25/-25/-25 -24/-24/-24 -26/-26/-26
f -26/-26/-26 -24/-24/-24 -23/-23/-23
f -24/-24/-24 -22/-22/-22 -23/-23/-23
f -23/-23/-23 -22/-22/-22 -21/-21/-21
f -22/-22/-22 -20/-20/-20 -21/-21/-21
f -21/-21/-21 -18/-18/-18 -19/-19/-19
f -18/-18/-18 -17/-17/-17 -19/-19/-19
f -19/-19/-19 -15/-15/-15 -16/-16/-16
f -15/-15/-15 -14/-14/-14 -16/-16/-16
f -16/-16/-16 -14/-14/-14 -13/-13/-13
f -14/-14/-14 -12/-12/-12 -13/-13/-13
f -13/-13/-13 -12/-12/-12 -11/-11/-11
f -12/-12/-12 -10/-10/-10 -11/-11/-11
f -11/-11/-11 -8/-8/-8 -9/-9/-9
f -8/-8/-8 -7/-7/-7 -9/-9/-9
f -9/-9/-9 -5/-5/-5 -6/-6/-6
f -5/-5/-5 -4/-4/-4 -6/-6/-6
f -6/-6/-6 -4/-4/-4 -3/-3/-3
f -4/-4/-4 -2/-2/-2 -3/-3/-3
f -3/-3/-3 -2/-2/-2 -37/-37/-37
f -2/-2/-2 -1/-1/-1 -37/-37/-37

