# Mesh "Crate:Crate_mesh" exported with Unity Assets Bundle Extractor; 154 vertices, 276 indices, 384 bits per vertex
g Crate:Crate_mesh
# SubMesh 0
# Vertices
v -0.370000 -0.370000 0.430000
vt 0.087726 0.086403
vn -0.000000 0.000000 1.000000
v -0.370000 -0.232433 0.430000
vt 0.087726 0.390293
vn -0.000000 0.000000 1.000000
v 0.370000 -0.232433 0.430000
vt 0.389110 0.390293
vn -0.000000 0.000000 1.000000
v 0.370000 -0.370000 0.430000
vt 0.389110 0.086403
vn -0.000000 0.000000 1.000000
v -0.345652 -0.155253 0.345652
vt 0.087879 0.086075
vn -0.000000 1.000000 -0.000000
v -0.345652 -0.155253 -0.345652
vt 0.087879 0.388522
vn -0.000000 1.000000 -0.000000
v 0.345652 -0.155253 -0.345652
vt 0.390327 0.388522
vn -0.000000 1.000000 -0.000000
v 0.345652 -0.155253 0.345652
vt 0.390327 0.086075
vn -0.000000 1.000000 -0.000000
v -0.370000 -0.232433 -0.430000
vt 0.087400 0.086617
vn -0.000000 0.000000 -1.000000
v -0.370000 -0.370000 -0.430000
vt 0.087400 0.390507
vn -0.000000 0.000000 -1.000000
v 0.370000 -0.370000 -0.430000
vt 0.388784 0.390507
vn -0.000000 0.000000 -1.000000
v 0.370000 -0.232433 -0.430000
vt 0.388784 0.086617
vn -0.000000 0.000000 -1.000000
v -0.500000 -0.500000 -0.500000
vt 0.489291 0.654466
vn -0.000000 -1.000000 0.000000
v -0.500000 -0.500000 0.500000
vt 0.489291 0.985721
vn -0.000000 -1.000000 0.000000
v 0.500000 -0.500000 0.500000
vt 0.820420 0.985721
vn -0.000000 -1.000000 0.000000
v 0.500000 -0.500000 -0.500000
vt 0.820420 0.654466
vn -0.000000 -1.000000 0.000000
v 0.430000 -0.370000 0.370000
vt 0.087663 0.086691
vn 1.000000 0.000000 0.000000
v 0.430000 -0.232433 0.370000
vt 0.087663 0.390581
vn 1.000000 0.000000 0.000000
v 0.430000 -0.232433 -0.370000
vt 0.389047 0.390581
vn 1.000000 0.000000 0.000000
v 0.430000 -0.370000 -0.370000
vt 0.389047 0.086691
vn 1.000000 0.000000 0.000000
v -0.430000 -0.370000 -0.370000
vt 0.087778 0.085730
vn -1.000000 0.000000 0.000000
v -0.430000 -0.232433 -0.370000
vt 0.087778 0.389620
vn -1.000000 0.000000 0.000000
v -0.430000 -0.232433 0.370000
vt 0.389163 0.389620
vn -1.000000 0.000000 0.000000
v -0.430000 -0.370000 0.370000
vt 0.389162 0.085730
vn -1.000000 0.000000 0.000000
v -0.500000 -0.102433 0.500000
vt 0.015236 0.016255
vn -0.000000 1.000000 0.000000
v -0.345652 -0.102433 0.345652
vt 0.074881 0.075901
vn -0.000000 1.000000 0.000000
v 0.345652 -0.102433 0.345652
vt 0.403325 0.075901
vn -0.000000 1.000000 0.000000
v 0.500000 -0.102433 0.500000
vt 0.462971 0.016255
vn -0.000000 1.000000 0.000000
v 0.345652 -0.102433 -0.345652
vt 0.403325 0.404344
vn -0.000000 1.000000 0.000000
v 0.500000 -0.102433 -0.500000
vt 0.462971 0.463990
vn -0.000000 1.000000 0.000000
v -0.345652 -0.102433 -0.345652
vt 0.074881 0.404344
vn -0.000000 1.000000 0.000000
v -0.500000 -0.102433 -0.500000
vt 0.015236 0.463990
vn -0.000000 1.000000 0.000000
v -0.345652 -0.102433 0.345652
vt 0.074881 0.075901
vn -0.000000 0.000000 -1.000000
v -0.345652 -0.155253 0.345652
vt 0.087879 0.086075
vn -0.000000 0.000000 -1.000000
v 0.345652 -0.155253 0.345652
vt 0.390327 0.086075
vn -0.000000 0.000000 -1.000000
v 0.345652 -0.102433 0.345652
vt 0.403325 0.075901
vn -0.000000 0.000000 -1.000000
v 0.345652 -0.102433 0.345652
vt 0.403325 0.075901
vn -1.000000 0.000000 0.000000
v 0.345652 -0.155253 0.345652
vt 0.390327 0.086075
vn -1.000000 0.000000 0.000000
v 0.345652 -0.155253 -0.345652
vt 0.390327 0.388522
vn -1.000000 0.000000 0.000000
v 0.345652 -0.102433 0.345652
vt 0.403325 0.075901
vn -1.000000 0.000000 0.000000
v 0.345652 -0.102433 -0.345652
vt 0.403325 0.404344
vn -1.000000 0.000000 0.000000
v 0.345652 -0.102433 -0.345652
vt 0.403325 0.404344
vn -0.000000 0.000000 1.000000
v 0.345652 -0.155253 -0.345652
vt 0.390327 0.388522
vn -0.000000 0.000000 1.000000
v -0.345652 -0.155253 -0.345652
vt 0.087879 0.388522
vn -0.000000 0.000000 1.000000
v -0.345652 -0.102433 -0.345652
vt 0.074881 0.404344
vn -0.000000 0.000000 1.000000
v -0.345652 -0.102433 -0.345652
vt 0.074881 0.404344
vn 1.000000 0.000000 0.000000
v -0.345652 -0.155253 -0.345652
vt 0.087879 0.388522
vn 1.000000 0.000000 0.000000
v -0.345652 -0.155253 0.345652
vt 0.087879 0.086075
vn 1.000000 0.000000 0.000000
v -0.345652 -0.102433 -0.345652
vt 0.074881 0.404344
vn 1.000000 0.000000 0.000000
v -0.345652 -0.102433 0.345652
vt 0.074881 0.075901
vn 1.000000 0.000000 0.000000
v -0.500000 -0.500000 0.500000
vt 0.012290 0.013037
vn -0.000000 0.000000 1.000000
v -0.370000 -0.370000 0.500000
vt 0.073138 0.070473
vn -0.000000 0.000000 1.000000
v 0.370000 -0.370000 0.500000
vt 0.403697 0.070473
vn -0.000000 0.000000 1.000000
v 0.500000 -0.500000 0.500000
vt 0.464545 0.013037
vn -0.000000 0.000000 1.000000
v 0.370000 -0.232433 0.500000
vt 0.403697 0.404592
vn -0.000000 0.000000 1.000000
v 0.500000 -0.102433 0.500000
vt 0.464545 0.465292
vn -0.000000 0.000000 1.000000
v -0.370000 -0.232433 0.500000
vt 0.073138 0.404592
vn -0.000000 0.000000 1.000000
v -0.500000 -0.102433 0.500000
vt 0.012290 0.465292
vn -0.000000 0.000000 1.000000
v -0.500000 -0.102433 -0.500000
vt 0.011965 0.013251
vn -0.000000 0.000000 -1.000000
v -0.370000 -0.232433 -0.500000
vt 0.072813 0.070687
vn -0.000000 0.000000 -1.000000
v 0.370000 -0.232433 -0.500000
vt 0.403372 0.070687
vn -0.000000 0.000000 -1.000000
v 0.500000 -0.102433 -0.500000
vt 0.464220 0.013251
vn -0.000000 0.000000 -1.000000
v 0.370000 -0.370000 -0.500000
vt 0.403372 0.404806
vn -0.000000 0.000000 -1.000000
v 0.500000 -0.500000 -0.500000
vt 0.464220 0.465506
vn -0.000000 0.000000 -1.000000
v -0.370000 -0.370000 -0.500000
vt 0.072813 0.404806
vn -0.000000 0.000000 -1.000000
v -0.500000 -0.500000 -0.500000
vt 0.011965 0.465506
vn -0.000000 0.000000 -1.000000
v 0.500000 -0.500000 0.500000
vt 0.012227 0.013324
vn 1.000000 0.000000 0.000000
v 0.500000 -0.370000 0.370000
vt 0.073076 0.070760
vn 1.000000 0.000000 0.000000
v 0.500000 -0.370000 -0.370000
vt 0.403634 0.070760
vn 1.000000 0.000000 0.000000
v 0.500000 -0.500000 -0.500000
vt 0.464482 0.013324
vn 1.000000 0.000000 0.000000
v 0.500000 -0.232433 -0.370000
vt 0.403634 0.404879
vn 1.000000 0.000000 0.000000
v 0.500000 -0.102433 -0.500000
vt 0.464482 0.465579
vn 1.000000 0.000000 0.000000
v 0.500000 -0.232433 0.370000
vt 0.073076 0.404879
vn 1.000000 0.000000 0.000000
v 0.500000 -0.102433 0.500000
vt 0.012227 0.465579
vn 1.000000 0.000000 0.000000
v -0.500000 -0.500000 -0.500000
vt 0.012343 0.012363
vn -1.000000 0.000000 0.000000
v -0.500000 -0.370000 -0.370000
vt 0.073191 0.069800
vn -1.000000 0.000000 0.000000
v -0.500000 -0.370000 0.370000
vt 0.403750 0.069800
vn -1.000000 0.000000 0.000000
v -0.500000 -0.500000 0.500000
vt 0.464598 0.012363
vn -1.000000 0.000000 0.000000
v -0.500000 -0.232433 0.370000
vt 0.403750 0.403919
vn -1.000000 0.000000 0.000000
v -0.500000 -0.102433 0.500000
vt 0.464598 0.464618
vn -1.000000 0.000000 0.000000
v -0.500000 -0.232433 -0.370000
vt 0.073191 0.403919
vn -1.000000 0.000000 0.000000
v -0.500000 -0.102433 -0.500000
vt 0.012343 0.464618
vn -1.000000 0.000000 0.000000
v -0.370000 -0.370000 0.500000
vt 0.073138 0.070473
vn -0.000000 1.000000 0.000000
v -0.370000 -0.370000 0.430000
vt 0.087726 0.086403
vn -0.000000 1.000000 0.000000
v 0.370000 -0.370000 0.430000
vt 0.389110 0.086403
vn -0.000000 1.000000 0.000000
v 0.370000 -0.370000 0.500000
vt 0.403697 0.070473
vn -0.000000 1.000000 0.000000
v 0.370000 -0.370000 0.500000
vt 0.403697 0.070473
vn -1.000000 0.000000 0.000000
v 0.370000 -0.370000 0.430000
vt 0.389110 0.086403
vn -1.000000 0.000000 0.000000
v 0.370000 -0.232433 0.430000
vt 0.389110 0.390293
vn -1.000000 0.000000 0.000000
v 0.370000 -0.370000 0.500000
vt 0.403697 0.070473
vn -1.000000 0.000000 0.000000
v 0.370000 -0.232433 0.500000
vt 0.403697 0.404592
vn -1.000000 0.000000 0.000000
v 0.370000 -0.232433 0.500000
vt 0.403697 0.404592
vn -0.000000 -1.000000 0.000000
v 0.370000 -0.232433 0.430000
vt 0.389110 0.390293
vn -0.000000 -1.000000 0.000000
v -0.370000 -0.232433 0.430000
vt 0.087726 0.390293
vn -0.000000 -1.000000 0.000000
v -0.370000 -0.232433 0.500000
vt 0.073138 0.404592
vn -0.000000 -1.000000 0.000000
v -0.370000 -0.232433 0.500000
vt 0.073138 0.404592
vn 1.000000 0.000000 0.000000
v -0.370000 -0.232433 0.430000
vt 0.087726 0.390293
vn 1.000000 0.000000 0.000000
v -0.370000 -0.370000 0.430000
vt 0.087726 0.086403
vn 1.000000 0.000000 0.000000
v -0.370000 -0.232433 0.500000
vt 0.073138 0.404592
vn 1.000000 0.000000 0.000000
v -0.370000 -0.370000 0.500000
vt 0.073138 0.070473
vn 1.000000 0.000000 0.000000
v -0.370000 -0.232433 -0.500000
vt 0.072813 0.070687
vn -0.000000 -1.000000 0.000000
v -0.370000 -0.232433 -0.430000
vt 0.087400 0.086617
vn -0.000000 -1.000000 0.000000
v 0.370000 -0.232433 -0.430000
vt 0.388784 0.086617
vn -0.000000 -1.000000 0.000000
v 0.370000 -0.232433 -0.500000
vt 0.403372 0.070687
vn -0.000000 -1.000000 0.000000
v 0.370000 -0.232433 -0.500000
vt 0.403372 0.070687
vn -1.000000 0.000000 0.000000
v 0.370000 -0.232433 -0.430000
vt 0.388784 0.086617
vn -1.000000 0.000000 0.000000
v 0.370000 -0.370000 -0.430000
vt 0.388784 0.390507
vn -1.000000 0.000000 0.000000
v 0.370000 -0.232433 -0.500000
vt 0.403372 0.070687
vn -1.000000 0.000000 0.000000
v 0.370000 -0.370000 -0.500000
vt 0.403372 0.404806
vn -1.000000 0.000000 0.000000
v 0.370000 -0.370000 -0.500000
vt 0.403372 0.404806
vn -0.000000 1.000000 0.000000
v 0.370000 -0.370000 -0.430000
vt 0.388784 0.390507
vn -0.000000 1.000000 0.000000
v -0.370000 -0.370000 -0.430000
vt 0.087400 0.390507
vn -0.000000 1.000000 0.000000
v -0.370000 -0.370000 -0.500000
vt 0.072813 0.404806
vn -0.000000 1.000000 0.000000
v -0.370000 -0.370000 -0.500000
vt 0.072813 0.404806
vn 1.000000 0.000000 0.000000
v -0.370000 -0.370000 -0.430000
vt 0.087400 0.390507
vn 1.000000 0.000000 0.000000
v -0.370000 -0.232433 -0.430000
vt 0.087400 0.086617
vn 1.000000 0.000000 0.000000
v -0.370000 -0.370000 -0.500000
vt 0.072813 0.404806
vn 1.000000 0.000000 0.000000
v -0.370000 -0.232433 -0.500000
vt 0.072813 0.070687
vn 1.000000 0.000000 0.000000
v 0.500000 -0.370000 0.370000
vt 0.073076 0.070760
vn -0.000000 1.000000 0.000000
v 0.430000 -0.370000 0.370000
vt 0.087663 0.086691
vn -0.000000 1.000000 0.000000
v 0.430000 -0.370000 -0.370000
vt 0.389047 0.086691
vn -0.000000 1.000000 0.000000
v 0.500000 -0.370000 -0.370000
vt 0.403634 0.070760
vn -0.000000 1.000000 0.000000
v 0.500000 -0.370000 -0.370000
vt 0.403634 0.070760
vn -0.000000 0.000000 1.000000
v 0.430000 -0.370000 -0.370000
vt 0.389047 0.086691
vn -0.000000 0.000000 1.000000
v 0.430000 -0.232433 -0.370000
vt 0.389047 0.390581
vn -0.000000 0.000000 1.000000
v 0.500000 -0.370000 -0.370000
vt 0.403634 0.070760
vn -0.000000 0.000000 1.000000
v 0.500000 -0.232433 -0.370000
vt 0.403634 0.404879
vn -0.000000 0.000000 1.000000
v 0.500000 -0.232433 -0.370000
vt 0.403634 0.404879
vn -0.000000 -1.000000 0.000000
v 0.430000 -0.232433 -0.370000
vt 0.389047 0.390581
vn -0.000000 -1.000000 0.000000
v 0.430000 -0.232433 0.370000
vt 0.087663 0.390581
vn -0.000000 -1.000000 0.000000
v 0.500000 -0.232433 0.370000
vt 0.073076 0.404879
vn -0.000000 -1.000000 0.000000
v 0.500000 -0.232433 0.370000
vt 0.073076 0.404879
vn -0.000000 0.000000 -1.000000
v 0.430000 -0.232433 0.370000
vt 0.087663 0.390581
vn -0.000000 0.000000 -1.000000
v 0.430000 -0.370000 0.370000
vt 0.087663 0.086691
vn -0.000000 0.000000 -1.000000
v 0.500000 -0.232433 0.370000
vt 0.073076 0.404879
vn -0.000000 0.000000 -1.000000
v 0.500000 -0.370000 0.370000
vt 0.073076 0.070760
vn -0.000000 0.000000 -1.000000
v -0.430000 -0.370000 0.370000
vt 0.389162 0.085730
vn -0.000000 1.000000 0.000000
v -0.500000 -0.370000 0.370000
vt 0.403750 0.069800
vn -0.000000 1.000000 0.000000
v -0.500000 -0.370000 -0.370000
vt 0.073191 0.069800
vn -0.000000 1.000000 0.000000
v -0.430000 -0.370000 -0.370000
vt 0.087778 0.085730
vn -0.000000 1.000000 0.000000
v -0.500000 -0.370000 0.370000
vt 0.403750 0.069800
vn -0.000000 0.000000 -1.000000
v -0.430000 -0.370000 0.370000
vt 0.389162 0.085730
vn -0.000000 0.000000 -1.000000
v -0.430000 -0.232433 0.370000
vt 0.389163 0.389620
vn -0.000000 0.000000 -1.000000
v -0.500000 -0.370000 0.370000
vt 0.403750 0.069800
vn -0.000000 0.000000 -1.000000
v -0.500000 -0.232433 0.370000
vt 0.403750 0.403919
vn -0.000000 0.000000 -1.000000
v -0.500000 -0.232433 0.370000
vt 0.403750 0.403919
vn -0.000000 -1.000000 0.000000
v -0.430000 -0.232433 0.370000
vt 0.389163 0.389620
vn -0.000000 -1.000000 0.000000
v -0.430000 -0.232433 -0.370000
vt 0.087778 0.389620
vn -0.000000 -1.000000 0.000000
v -0.500000 -0.232433 -0.370000
vt 0.073191 0.403919
vn -0.000000 -1.000000 0.000000
v -0.500000 -0.232433 -0.370000
vt 0.073191 0.403919
vn -0.000000 0.000000 1.000000
v -0.430000 -0.232433 -0.370000
vt 0.087778 0.389620
vn -0.000000 0.000000 1.000000
v -0.430000 -0.370000 -0.370000
vt 0.087778 0.085730
vn -0.000000 0.000000 1.000000
v -0.500000 -0.232433 -0.370000
vt 0.073191 0.403919
vn -0.000000 0.000000 1.000000
v -0.500000 -0.370000 -0.370000
vt 0.073191 0.069800
vn -0.000000 0.000000 1.000000
# Faces (1 to 154)
g Crate:Crate_mesh_0
f -152/-152/-152 -153/-153/-153 -154/-154/-154
f -151/-151/-151 -152/-152/-152 -154/-154/-154
f -148/-148/-148 -149/-149/-149 -150/-150/-150
f -147/-147/-147 -148/-148/-148 -150/-150/-150
f -144/-144/-144 -145/-145/-145 -146/-146/-146
f -143/-143/-143 -144/-144/-144 -146/-146/-146
f -140/-140/-140 -141/-141/-141 -142/-142/-142
f -139/-139/-139 -140/-140/-140 -142/-142/-142
f -136/-136/-136 -137/-137/-137 -138/-138/-138
f -135/-135/-135 -136/-136/-136 -138/-138/-138
f -132/-132/-132 -133/-133/-133 -134/-134/-134
f -131/-131/-131 -132/-132/-132 -134/-134/-134
f -128/-128/-128 -129/-129/-129 -130/-130/-130
f -127/-127/-127 -128/-128/-128 -130/-130/-130
f -126/-126/-126 -128/-128/-128 -127/-127/-127
f -125/-125/-125 -126/-126/-126 -127/-127/-127
f -124/-124/-124 -126/-126/-126 -125/-125/-125
f -123/-123/-123 -124/-124/-124 -125/-125/-125
f -129/-129/-129 -124/-124/-124 -123/-123/-123
f -130/-130/-130 -129/-129/-129 -123/-123/-123
f -120/-120/-120 -121/-121/-121 -122/-122/-122
f -119/-119/-119 -120/-120/-120 -122/-122/-122
f -116/-116/-116 -117/-117/-117 -118/-118/-118
f -114/-114/-114 -116/-116/-116 -115/-115/-115
f -111/-111/-111 -112/-112/-112 -113/-113/-113
f -110/-110/-110 -111/-111/-111 -113/-113/-113
f -107/-107/-107 -108/-108/-108 -109/-109/-109
f -105/-105/-105 -107/-107/-107 -106/-106/-106
f -102/-102/-102 -103/-103/-103 -104/-104/-104
f -101/-101/-101 -102/-102/-102 -104/-104/-104
f -100/-100/-100 -102/-102/-102 -101/-101/-101
f -99/-99/-99 -100/-100/-100 -101/-101/-101
f -98/-98/-98 -100/-100/-100 -99/-99/-99
f -97/-97/-97 -98/-98/-98 -99/-99/-99
f -103/-103/-103 -98/-98/-98 -97/-97/-97
f -104/-104/-104 -103/-103/-103 -97/-97/-97
f -94/-94/-94 -95/-95/-95 -96/-96/-96
f -93/-93/-93 -94/-94/-94 -96/-96/-96
f -92/-92/-92 -94/-94/-94 -93/-93/-93
f -91/-91/-91 -92/-92/-92 -93/-93/-93
f -90/-90/-90 -92/-92/-92 -91/-91/-91
f -89/-89/-89 -90/-90/-90 -91/-91/-91
f -95/-95/-95 -90/-90/-90 -89/-89/-89
f -96/-96/-96 -95/-95/-95 -89/-89/-89
f -86/-86/-86 -87/-87/-87 -88/-88/-88
f -85/-85/-85 -86/-86/-86 -88/-88/-88
f -84/-84/-84 -86/-86/-86 -85/-85/-85
f -83/-83/-83 -84/-84/-84 -85/-85/-85
f -82/-82/-82 -84/-84/-84 -83/-83/-83
f -81/-81/-81 -82/-82/-82 -83/-83/-83
f -87/-87/-87 -82/-82/-82 -81/-81/-81
f -88/-88/-88 -87/-87/-87 -81/-81/-81
f -78/-78/-78 -79/-79/-79 -80/-80/-80
f -77/-77/-77 -78/-78/-78 -80/-80/-80
f -76/-76/-76 -78/-78/-78 -77/-77/-77
f -75/-75/-75 -76/-76/-76 -77/-77/-77
f -74/-74/-74 -76/-76/-76 -75/-75/-75
f -73/-73/-73 -74/-74/-74 -75/-75/-75
f -79/-79/-79 -74/-74/-74 -73/-73/-73
f -80/-80/-80 -79/-79/-79 -73/-73/-73
f -70/-70/-70 -71/-71/-71 -72/-72/-72
f -69/-69/-69 -70/-70/-70 -72/-72/-72
f -66/-66/-66 -67/-67/-67 -68/-68/-68
f -64/-64/-64 -66/-66/-66 -65/-65/-65
f -61/-61/-61 -62/-62/-62 -63/-63/-63
f -60/-60/-60 -61/-61/-61 -63/-63/-63
f -57/-57/-57 -58/-58/-58 -59/-59/-59
f -55/-55/-55 -57/-57/-57 -56/-56/-56
f -52/-52/-52 -53/-53/-53 -54/-54/-54
f -51/-51/-51 -52/-52/-52 -54/-54/-54
f -48/-48/-48 -49/-49/-49 -50/-50/-50
f -46/-46/-46 -48/-48/-48 -47/-47/-47
f -43/-43/-43 -44/-44/-44 -45/-45/-45
f -42/-42/-42 -43/-43/-43 -45/-45/-45
f -39/-39/-39 -40/-40/-40 -41/-41/-41
f -37/-37/-37 -39/-39/-39 -38/-38/-38
f -34/-34/-34 -35/-35/-35 -36/-36/-36
f -33/-33/-33 -34/-34/-34 -36/-36/-36
f -30/-30/-30 -31/-31/-31 -32/-32/-32
f -28/-28/-28 -30/-30/-30 -29/-29/-29
f -25/-25/-25 -26/-26/-26 -27/-27/-27
f -24/-24/-24 -25/-25/-25 -27/-27/-27
f -21/-21/-21 -22/-22/-22 -23/-23/-23
f -19/-19/-19 -21/-21/-21 -20/-20/-20
f -16/-16/-16 -17/-17/-17 -18/-18/-18
f -15/-15/-15 -16/-16/-16 -18/-18/-18
f -12/-12/-12 -13/-13/-13 -14/-14/-14
f -10/-10/-10 -12/-12/-12 -11/-11/-11
f -7/-7/-7 -8/-8/-8 -9/-9/-9
f -6/-6/-6 -7/-7/-7 -9/-9/-9
f -3/-3/-3 -4/-4/-4 -5/-5/-5
f -1/-1/-1 -3/-3/-3 -2/-2/-2

