# Mesh "DLC2_OnionHouse_Table" exported with Unity Assets Bundle Extractor; 194 vertices, 576 indices, 384 bits per vertex
g DLC2_OnionHouse_Table
# SubMesh 0
# Vertices
v -0.282833 0.085149 -2.303427
vt 1.077695 -4.330608
vn -0.000000 1.000000 0.000000
v 0.000001 0.085149 -0.000001
vt 0.485160 0.495040
vn -0.000000 1.000000 0.000000
v -0.560829 0.085149 -2.139110
vt 1.660092 -3.986367
vn -0.000000 1.000000 0.000000
v -0.829229 0.085149 -2.001940
vt 2.222387 -3.698997
vn -0.000000 1.000000 0.000000
v -1.083440 0.085149 -1.876576
vt 2.754954 -3.436362
vn -0.000000 1.000000 0.000000
v -1.319113 0.085149 -1.719105
vt 3.248690 -3.106461
vn -0.000000 1.000000 0.000000
v -1.532217 0.085149 -1.532219
vt 3.695138 -2.714937
vn -0.000000 1.000000 0.000000
v -1.719103 0.085149 -1.319116
vt 4.086660 -2.268489
vn -0.000000 1.000000 0.000000
v -1.876574 0.085149 -1.083442
vt 4.416560 -1.774756
vn -0.000000 1.000000 0.000000
v -2.001938 0.085149 -0.829231
vt 4.679198 -1.242188
vn -0.000000 1.000000 0.000000
v -2.093046 0.085149 -0.560831
vt 4.870068 -0.679893
vn -0.000000 1.000000 0.000000
v -2.148344 0.085149 -0.282836
vt 4.985914 -0.097496
vn -0.000000 1.000000 0.000000
v -2.166881 0.085149 -0.000001
vt 5.024752 0.495040
vn -0.000000 1.000000 0.000000
v -2.148344 0.085149 0.282834
vt 4.985914 1.087574
vn -0.000000 1.000000 0.000000
v -2.093046 0.085149 0.560830
vt 4.870068 1.669971
vn -0.000000 1.000000 0.000000
v -2.001938 0.085149 0.829230
vt 4.679198 2.232265
vn -0.000000 1.000000 0.000000
v -1.876574 0.085149 1.083440
vt 4.416560 2.764834
vn -0.000000 1.000000 0.000000
v -1.719102 0.085149 1.319113
vt 4.086662 3.258566
vn -0.000000 1.000000 0.000000
v -1.532217 0.085149 1.532219
vt 3.695138 3.705015
vn -0.000000 1.000000 0.000000
v -1.319113 0.085149 1.719103
vt 3.248690 4.096539
vn -0.000000 1.000000 0.000000
v -1.083440 0.085149 1.876574
vt 2.754956 4.426440
vn -0.000000 1.000000 0.000000
v -0.829229 0.085149 2.001938
vt 2.222388 4.689076
vn -0.000000 1.000000 0.000000
v -0.560829 0.085149 2.093045
vt 1.660093 4.879944
vn -0.000000 1.000000 0.000000
v -0.282834 0.085149 2.148344
vt 1.077696 4.995794
vn -0.000000 1.000000 0.000000
v 0.000001 0.085149 2.166881
vt 0.485161 5.034628
vn -0.000000 1.000000 0.000000
v 0.282836 0.085149 2.148344
vt -0.107374 4.995794
vn -0.000000 1.000000 0.000000
v 0.560831 0.085149 2.093045
vt -0.689771 4.879944
vn -0.000000 1.000000 0.000000
v 0.829231 0.085149 2.001938
vt -1.252065 4.689075
vn -0.000000 1.000000 0.000000
v 1.083442 0.085149 1.876576
vt -1.784633 4.426438
vn -0.000000 1.000000 0.000000
v 1.319114 0.085149 1.719102
vt -2.278365 4.096539
vn -0.000000 1.000000 0.000000
v 1.532218 0.085149 1.532217
vt -2.724815 3.705015
vn -0.000000 1.000000 0.000000
v 1.719104 0.085149 1.319113
vt -3.116338 3.258565
vn -0.000000 1.000000 0.000000
v 1.876574 0.085149 1.083442
vt -3.446236 2.764834
vn -0.000000 1.000000 0.000000
v 2.001938 0.085149 0.829229
vt -3.708874 2.232265
vn -0.000000 1.000000 0.000000
v 2.093046 0.085149 0.560830
vt -3.899743 1.669971
vn -0.000000 1.000000 0.000000
v 2.148345 0.085149 0.282834
vt -4.015593 1.087574
vn -0.000000 1.000000 0.000000
v 2.166881 0.085149 0.000000
vt -4.054426 0.495040
vn -0.000000 1.000000 0.000000
v 2.148344 0.085149 -0.282836
vt -4.015591 -0.097495
vn -0.000000 1.000000 0.000000
v 2.093046 0.085149 -0.560830
vt -3.899743 -0.679890
vn -0.000000 1.000000 0.000000
v 2.001938 0.085149 -0.829230
vt -3.708871 -1.242183
vn -0.000000 1.000000 0.000000
v 1.876574 0.085149 -1.083441
vt -3.446236 -1.774754
vn -0.000000 1.000000 0.000000
v 1.719104 0.085149 -1.319114
vt -3.116338 -2.268484
vn -0.000000 1.000000 0.000000
v 1.532218 0.085149 -1.532217
vt -2.724814 -2.714934
vn -0.000000 1.000000 0.000000
v 1.319114 0.085149 -1.719103
vt -2.278365 -3.106458
vn -0.000000 1.000000 0.000000
v 1.083441 0.085149 -1.876573
vt -1.784633 -3.436356
vn -0.000000 1.000000 0.000000
v 0.829230 0.085149 -2.001937
vt -1.252065 -3.698992
vn -0.000000 1.000000 0.000000
v 0.560831 0.085149 -2.139107
vt -0.689771 -3.986361
vn -0.000000 1.000000 0.000000
v 0.282836 0.085149 -2.303425
vt -0.107374 -4.330604
vn -0.000000 1.000000 0.000000
v 0.000001 0.085149 -2.523381
vt 0.485160 -4.791409
vn -0.000000 1.000000 0.000000
v -0.282833 0.000000 -2.303427
vt 1.077695 -4.330608
vn -0.000000 -1.000000 0.000000
v -0.560829 0.000000 -2.139110
vt 1.660092 -3.986367
vn -0.000000 -1.000000 0.000000
v 0.000001 0.000000 -0.000001
vt 0.485160 0.495040
vn -0.000000 -1.000000 0.000000
v -0.829229 0.000000 -2.001940
vt 2.222387 -3.698997
vn -0.000000 -1.000000 0.000000
v -1.083440 0.000000 -1.876576
vt 2.754954 -3.436362
vn -0.000000 -1.000000 0.000000
v -1.319114 0.000000 -1.719105
vt 3.248690 -3.106461
vn -0.000000 -1.000000 0.000000
v -1.532217 0.000000 -1.532219
vt 3.695138 -2.714937
vn -0.000000 -1.000000 0.000000
v -1.719103 0.000000 -1.319116
vt 4.086660 -2.268489
vn -0.000000 -1.000000 0.000000
v -1.876574 0.000000 -1.083442
vt 4.416560 -1.774756
vn -0.000000 -1.000000 0.000000
v -2.001938 0.000000 -0.829231
vt 4.679198 -1.242188
vn -0.000000 -1.000000 0.000000
v -2.093046 0.000000 -0.560831
vt 4.870068 -0.679893
vn -0.000000 -1.000000 0.000000
v -2.148344 0.000000 -0.282836
vt 4.985914 -0.097496
vn -0.000000 -1.000000 0.000000
v -2.166881 0.000000 -0.000001
vt 5.024752 0.495040
vn -0.000000 -1.000000 0.000000
v -2.148344 0.000000 0.282834
vt 4.985914 1.087574
vn -0.000000 -1.000000 0.000000
v -2.093046 0.000000 0.560829
vt 4.870068 1.669971
vn -0.000000 -1.000000 0.000000
v -2.001938 0.000000 0.829230
vt 4.679198 2.232265
vn -0.000000 -1.000000 0.000000
v -1.876574 0.000000 1.083440
vt 4.416560 2.764834
vn -0.000000 -1.000000 0.000000
v -1.719103 0.000000 1.319113
vt 4.086662 3.258566
vn -0.000000 -1.000000 0.000000
v -1.532217 0.000000 1.532217
vt 3.695138 3.705015
vn -0.000000 -1.000000 0.000000
v -1.319114 0.000000 1.719103
vt 3.248690 4.096539
vn -0.000000 -1.000000 0.000000
v -1.083440 0.000000 1.876574
vt 2.754956 4.426440
vn -0.000000 -1.000000 0.000000
v -0.829229 0.000000 2.001938
vt 2.222388 4.689076
vn -0.000000 -1.000000 0.000000
v -0.560829 0.000000 2.093045
vt 1.660093 4.879944
vn -0.000000 -1.000000 0.000000
v -0.282834 0.000000 2.148344
vt 1.077696 4.995794
vn -0.000000 -1.000000 0.000000
v 0.000001 0.000000 2.166881
vt 0.485161 5.034628
vn -0.000000 -1.000000 0.000000
v 0.282836 0.000000 2.148344
vt -0.107374 4.995794
vn -0.000000 -1.000000 0.000000
v 0.560831 0.000000 2.093045
vt -0.689771 4.879944
vn -0.000000 -1.000000 0.000000
v 0.829231 0.000000 2.001938
vt -1.252065 4.689075
vn -0.000000 -1.000000 0.000000
v 1.083442 0.000000 1.876573
vt -1.784633 4.426438
vn -0.000000 -1.000000 0.000000
v 1.319114 0.000000 1.719102
vt -2.278365 4.096539
vn -0.000000 -1.000000 0.000000
v 1.532218 0.000000 1.532217
vt -2.724815 3.705015
vn -0.000000 -1.000000 0.000000
v 1.719104 0.000000 1.319113
vt -3.116338 3.258565
vn -0.000000 -1.000000 0.000000
v 1.876574 0.000000 1.083440
vt -3.446236 2.764834
vn -0.000000 -1.000000 0.000000
v 2.001938 0.000000 0.829229
vt -3.708874 2.232265
vn -0.000000 -1.000000 0.000000
v 2.093046 0.000000 0.560829
vt -3.899743 1.669971
vn -0.000000 -1.000000 0.000000
v 2.148345 0.000000 0.282834
vt -4.015593 1.087574
vn -0.000000 -1.000000 0.000000
v 2.166881 0.000000 0.000000
vt -4.054426 0.495040
vn -0.000000 -1.000000 0.000000
v 2.148344 0.000000 -0.282836
vt -4.015591 -0.097495
vn -0.000000 -1.000000 0.000000
v 2.093046 0.000000 -0.560830
vt -3.899743 -0.679890
vn -0.000000 -1.000000 0.000000
v 2.001938 0.000000 -0.829230
vt -3.708871 -1.242183
vn -0.000000 -1.000000 0.000000
v 1.876574 0.000000 -1.083441
vt -3.446236 -1.774754
vn -0.000000 -1.000000 0.000000
v 1.719104 0.000000 -1.319114
vt -3.116338 -2.268484
vn -0.000000 -1.000000 0.000000
v 1.532218 0.000000 -1.532217
vt -2.724814 -2.714934
vn -0.000000 -1.000000 0.000000
v 1.319114 0.000000 -1.719103
vt -2.278365 -3.106458
vn -0.000000 -1.000000 0.000000
v 1.083441 0.000000 -1.876573
vt -1.784633 -3.436356
vn -0.000000 -1.000000 0.000000
v 0.829230 0.000000 -2.001937
vt -1.252065 -3.698992
vn -0.000000 -1.000000 0.000000
v 0.560831 0.000000 -2.139107
vt -0.689771 -3.986361
vn -0.000000 -1.000000 0.000000
v 0.282836 0.000000 -2.303425
vt -0.107374 -4.330604
vn -0.000000 -1.000000 0.000000
v 0.000001 0.000000 -2.523381
vt 0.485160 -4.791409
vn -0.000000 -1.000000 0.000000
v -0.282833 0.000000 -2.303427
vt 1.077695 -4.330608
vn -0.565230 0.000000 -0.824933
v -0.282833 0.085149 -2.303427
vt 1.077695 -4.330608
vn -0.565230 0.000000 -0.824933
v -0.560829 0.085149 -2.139110
vt 1.660092 -3.986367
vn -0.483110 0.000000 -0.875559
v -0.560829 0.000000 -2.139110
vt 1.660092 -3.986367
vn -0.483110 0.000000 -0.875559
v -0.829229 0.085149 -2.001940
vt 2.222387 -3.698997
vn -0.448893 0.000000 -0.893585
v -0.829229 0.000000 -2.001940
vt 2.222387 -3.698997
vn -0.448893 0.000000 -0.893585
v -1.083440 0.085149 -1.876576
vt 2.754954 -3.436362
vn -0.500000 0.000001 -0.866025
v -1.083440 0.000000 -1.876576
vt 2.754954 -3.436362
vn -0.500000 0.000001 -0.866025
v -1.319113 0.085149 -1.719105
vt 3.248690 -3.106461
vn -0.608760 0.000001 -0.793355
v -1.319114 0.000000 -1.719105
vt 3.248690 -3.106461
vn -0.608760 0.000001 -0.793354
v -1.532217 0.085149 -1.532219
vt 3.695138 -2.714937
vn -0.707107 -0.000002 -0.707107
v -1.532217 0.000000 -1.532219
vt 3.695138 -2.714937
vn -0.707106 -0.000002 -0.707107
v -1.719103 0.085149 -1.319116
vt 4.086660 -2.268489
vn -0.793354 -0.000002 -0.608760
v -1.719103 0.000000 -1.319116
vt 4.086660 -2.268489
vn -0.793354 -0.000002 -0.608760
v -1.876574 0.085149 -1.083442
vt 4.416560 -1.774756
vn -0.866025 0.000000 -0.500000
v -1.876574 0.000000 -1.083442
vt 4.416560 -1.774756
vn -0.866025 0.000000 -0.500000
v -2.001938 0.085149 -0.829231
vt 4.679198 -1.242188
vn -0.923880 0.000000 -0.382683
v -2.001938 0.000000 -0.829231
vt 4.679198 -1.242188
vn -0.923880 0.000000 -0.382683
v -2.093046 0.085149 -0.560831
vt 4.870068 -0.679893
vn -0.965926 0.000000 -0.258818
v -2.093046 0.000000 -0.560831
vt 4.870068 -0.679893
vn -0.965926 0.000000 -0.258818
v -2.148344 0.085149 -0.282836
vt 4.985914 -0.097496
vn -0.991445 0.000000 -0.130526
v -2.148344 0.000000 -0.282836
vt 4.985914 -0.097496
vn -0.991445 0.000000 -0.130526
v -2.166881 0.085149 -0.000001
vt 5.024752 0.495040
vn -1.000000 0.000000 -0.000000
v -2.166881 0.000000 -0.000001
vt 5.024752 0.495040
vn -1.000000 0.000000 -0.000000
v -2.148344 0.085149 0.282834
vt 4.985914 1.087574
vn -0.991445 -0.000001 0.130526
v -2.148344 0.000000 0.282834
vt 4.985914 1.087574
vn -0.991445 -0.000001 0.130526
v -2.093046 0.085149 0.560830
vt 4.870068 1.669971
vn -0.965926 -0.000002 0.258819
v -2.093046 0.000000 0.560829
vt 4.870068 1.669971
vn -0.965926 -0.000002 0.258818
v -2.001938 0.085149 0.829230
vt 4.679198 2.232265
vn -0.923879 -0.000001 0.382684
v -2.001938 0.000000 0.829230
vt 4.679198 2.232265
vn -0.923879 -0.000001 0.382684
v -1.876574 0.085149 1.083440
vt 4.416560 2.764834
vn -0.866024 0.000001 0.500002
v -1.876574 0.000000 1.083440
vt 4.416560 2.764834
vn -0.866024 0.000001 0.500002
v -1.719102 0.085149 1.319113
vt 4.086662 3.258566
vn -0.793355 -0.000004 0.608759
v -1.719103 0.000000 1.319113
vt 4.086662 3.258566
vn -0.793356 -0.000004 0.608759
v -1.532217 0.085149 1.532219
vt 3.695138 3.705015
vn -0.707107 -0.000011 0.707106
v -1.532217 0.000000 1.532217
vt 3.695138 3.705015
vn -0.707108 -0.000011 0.707105
v -1.319113 0.085149 1.719103
vt 3.248690 4.096539
vn -0.608758 -0.000005 0.793356
v -1.319114 0.000000 1.719103
vt 3.248690 4.096539
vn -0.608759 -0.000005 0.793356
v -1.083440 0.085149 1.876574
vt 2.754956 4.426440
vn -0.500000 0.000001 0.866025
v -1.083440 0.000000 1.876574
vt 2.754956 4.426440
vn -0.500000 0.000001 0.866025
v -0.829229 0.085149 2.001938
vt 2.222388 4.689076
vn -0.382681 0.000000 0.923880
v -0.829229 0.000000 2.001938
vt 2.222388 4.689076
vn -0.382681 0.000000 0.923880
v -0.560829 0.085149 2.093045
vt 1.660093 4.879944
vn -0.258819 0.000000 0.965926
v -0.560829 0.000000 2.093045
vt 1.660093 4.879944
vn -0.258819 0.000000 0.965926
v -0.282834 0.085149 2.148344
vt 1.077696 4.995794
vn -0.130527 0.000000 0.991445
v -0.282834 0.000000 2.148344
vt 1.077696 4.995794
vn -0.130527 0.000000 0.991445
v 0.000001 0.085149 2.166881
vt 0.485161 5.034628
vn 0.000000 0.000000 1.000000
v 0.000001 0.000000 2.166881
vt 0.485161 5.034628
vn 0.000000 0.000000 1.000000
v 0.282836 0.085149 2.148344
vt -0.107374 4.995794
vn 0.130528 0.000000 0.991445
v 0.282836 0.000000 2.148344
vt -0.107374 4.995794
vn 0.130528 0.000000 0.991445
v 0.560831 0.085149 2.093045
vt -0.689771 4.879944
vn 0.258819 0.000000 0.965926
v 0.560831 0.000000 2.093045
vt -0.689771 4.879944
vn 0.258819 0.000000 0.965926
v 0.829231 0.085149 2.001938
vt -1.252065 4.689075
vn 0.382680 -0.000007 0.923881
v 0.829231 0.000000 2.001938
vt -1.252065 4.689075
vn 0.382680 -0.000007 0.923881
v 1.083442 0.085149 1.876576
vt -1.784633 4.426438
vn 0.500001 -0.000013 0.866025
v 1.083442 0.000000 1.876573
vt -1.784633 4.426438
vn 0.500002 -0.000013 0.866024
v 1.319114 0.085149 1.719102
vt -2.278365 4.096539
vn 0.608761 -0.000006 0.793354
v 1.319114 0.000000 1.719102
vt -2.278365 4.096539
vn 0.608761 -0.000006 0.793354
v 1.532218 0.085149 1.532217
vt -2.724815 3.705015
vn 0.707106 0.000000 0.707107
v 1.532218 0.000000 1.532217
vt -2.724815 3.705015
vn 0.707106 0.000000 0.707107
v 1.719104 0.085149 1.319113
vt -3.116338 3.258565
vn 0.793355 -0.000005 0.608760
v 1.719104 0.000000 1.319113
vt -3.116338 3.258565
vn 0.793355 -0.000005 0.608760
v 1.876574 0.085149 1.083442
vt -3.446236 2.764834
vn 0.866025 -0.000008 0.500001
v 1.876574 0.000000 1.083440
vt -3.446236 2.764834
vn 0.866026 -0.000008 0.499999
v 2.001938 0.085149 0.829229
vt -3.708874 2.232265
vn 0.923880 -0.000004 0.382682
v 2.001938 0.000000 0.829229
vt -3.708874 2.232265
vn 0.923880 -0.000004 0.382682
v 2.093046 0.085149 0.560830
vt -3.899743 1.669971
vn 0.965926 -0.000002 0.258820
v 2.093046 0.000000 0.560829
vt -3.899743 1.669971
vn 0.965926 -0.000002 0.258819
v 2.148345 0.085149 0.282834
vt -4.015593 1.087574
vn 0.991445 -0.000001 0.130527
v 2.148345 0.000000 0.282834
vt -4.015593 1.087574
vn 0.991445 -0.000001 0.130527
v 2.166881 0.085149 0.000000
vt -4.054426 0.495040
vn 1.000000 0.000000 -0.000001
v 2.166881 0.000000 0.000000
vt -4.054426 0.495040
vn 1.000000 0.000000 -0.000001
v 2.148344 0.085149 -0.282836
vt -4.015591 -0.097495
vn 0.991445 0.000000 -0.130527
v 2.148344 0.000000 -0.282836
vt -4.015591 -0.097495
vn 0.991445 0.000000 -0.130527
v 2.093046 0.085149 -0.560830
vt -3.899743 -0.679890
vn 0.965926 0.000000 -0.258819
v 2.093046 0.000000 -0.560830
vt -3.899743 -0.679890
vn 0.965926 0.000000 -0.258819
v 2.001938 0.085149 -0.829230
vt -3.708871 -1.242183
vn 0.923880 0.000000 -0.382683
v 2.001938 0.000000 -0.829230
vt -3.708871 -1.242183
vn 0.923880 0.000000 -0.382683
v 1.876574 0.085149 -1.083441
vt -3.446236 -1.774754
vn 0.866026 0.000000 -0.500000
v 1.876574 0.000000 -1.083441
vt -3.446236 -1.774754
vn 0.866026 0.000000 -0.500000
v 1.719104 0.085149 -1.319114
vt -3.116338 -2.268484
vn 0.793355 0.000000 -0.608759
v 1.719104 0.000000 -1.319114
vt -3.116338 -2.268484
vn 0.793355 0.000000 -0.608759
v 1.532218 0.085149 -1.532217
vt -2.724814 -2.714934
vn 0.707107 0.000000 -0.707107
v 1.532218 0.000000 -1.532217
vt -2.724814 -2.714934
vn 0.707107 0.000000 -0.707107
v 1.319114 0.085149 -1.719103
vt -2.278365 -3.106458
vn 0.608759 0.000000 -0.793355
v 1.319114 0.000000 -1.719103
vt -2.278365 -3.106458
vn 0.608759 0.000000 -0.793355
v 1.083441 0.085149 -1.876573
vt -1.784633 -3.436356
vn 0.499999 0.000000 -0.866026
v 1.083441 0.000000 -1.876573
vt -1.784633 -3.436356
vn 0.499999 0.000000 -0.866026
v 0.829230 0.085149 -2.001937
vt -1.252065 -3.698992
vn 0.448893 0.000000 -0.893586
v 0.829230 0.000000 -2.001937
vt -1.252065 -3.698992
vn 0.448893 0.000000 -0.893586
v 0.560831 0.085149 -2.139107
vt -0.689771 -3.986361
vn 0.483112 0.000000 -0.875558
v 0.560831 0.000000 -2.139107
vt -0.689771 -3.986361
vn 0.483112 0.000000 -0.875558
v 0.282836 0.085149 -2.303425
vt -0.107374 -4.330604
vn 0.565234 0.000000 -0.824931
v 0.282836 0.000000 -2.303425
vt -0.107374 -4.330604
vn 0.565234 0.000000 -0.824931
v 0.000001 0.085149 -2.523381
vt 0.485160 -4.791409
vn 0.000003 0.000000 -1.000000
v 0.000001 0.000000 -2.523381
vt 0.485160 -4.791409
vn 0.000003 0.000000 -1.000000
# Faces (1 to 194)
g DLC2_OnionHouse_Table_0
f -192/-192/-192 -193/-193/-193 -194/-194/-194
f -191/-191/-191 -193/-193/-193 -192/-192/-192
f -190/-190/-190 -193/-193/-193 -191/-191/-191
f -189/-189/-189 -193/-193/-193 -190/-190/-190
f -188/-188/-188 -193/-193/-193 -189/-189/-189
f -187/-187/-187 -193/-193/-193 -188/-188/-188
f -186/-186/-186 -193/-193/-193 -187/-187/-187
f -185/-185/-185 -193/-193/-193 -186/-186/-186
f -184/-184/-184 -193/-193/-193 -185/-185/-185
f -183/-183/-183 -193/-193/-193 -184/-184/-184
f -182/-182/-182 -193/-193/-193 -183/-183/-183
f -181/-181/-181 -193/-193/-193 -182/-182/-182
f -180/-180/-180 -193/-193/-193 -181/-181/-181
f -179/-179/-179 -193/-193/-193 -180/-180/-180
f -178/-178/-178 -193/-193/-193 -179/-179/-179
f -177/-177/-177 -193/-193/-193 -178/-178/-178
f -176/-176/-176 -193/-193/-193 -177/-177/-177
f -175/-175/-175 -193/-193/-193 -176/-176/-176
f -174/-174/-174 -193/-193/-193 -175/-175/-175
f -173/-173/-173 -193/-193/-193 -174/-174/-174
f -172/-172/-172 -193/-193/-193 -173/-173/-173
f -171/-171/-171 -193/-193/-193 -172/-172/-172
f -170/-170/-170 -193/-193/-193 -171/-171/-171
f -169/-169/-169 -193/-193/-193 -170/-170/-170
f -168/-168/-168 -193/-193/-193 -169/-169/-169
f -167/-167/-167 -193/-193/-193 -168/-168/-168
f -166/-166/-166 -193/-193/-193 -167/-167/-167
f -165/-165/-165 -193/-193/-193 -166/-166/-166
f -164/-164/-164 -193/-193/-193 -165/-165/-165
f -163/-163/-163 -193/-193/-193 -164/-164/-164
f -162/-162/-162 -193/-193/-193 -163/-163/-163
f -161/-161/-161 -193/-193/-193 -162/-162/-162
f -160/-160/-160 -193/-193/-193 -161/-161/-161
f -159/-159/-159 -193/-193/-193 -160/-160/-160
f -158/-158/-158 -193/-193/-193 -159/-159/-159
f -157/-157/-157 -193/-193/-193 -158/-158/-158
f -156/-156/-156 -193/-193/-193 -157/-157/-157
f -155/-155/-155 -193/-193/-193 -156/-156/-156
f -154/-154/-154 -193/-193/-193 -155/-155/-155
f -153/-153/-153 -193/-193/-193 -154/-154/-154
f -152/-152/-152 -193/-193/-193 -153/-153/-153
f -151/-151/-151 -193/-193/-193 -152/-152/-152
f -150/-150/-150 -193/-193/-193 -151/-151/-151
f -149/-149/-149 -193/-193/-193 -150/-150/-150
f -148/-148/-148 -193/-193/-193 -149/-149/-149
f -147/-147/-147 -193/-193/-193 -148/-148/-148
f -146/-146/-146 -193/-193/-193 -147/-147/-147
f -194/-194/-194 -193/-193/-193 -146/-146/-146
f -143/-143/-143 -144/-144/-144 -145/-145/-145
f -143/-143/-143 -142/-142/-142 -144/-144/-144
f -143/-143/-143 -141/-141/-141 -142/-142/-142
f -143/-143/-143 -140/-140/-140 -141/-141/-141
f -143/-143/-143 -139/-139/-139 -140/-140/-140
f -143/-143/-143 -138/-138/-138 -139/-139/-139
f -143/-143/-143 -137/-137/-137 -138/-138/-138
f -143/-143/-143 -136/-136/-136 -137/-137/-137
f -143/-143/-143 -135/-135/-135 -136/-136/-136
f -143/-143/-143 -134/-134/-134 -135/-135/-135
f -143/-143/-143 -133/-133/-133 -134/-134/-134
f -143/-143/-143 -132/-132/-132 -133/-133/-133
f -143/-143/-143 -131/-131/-131 -132/-132/-132
f -143/-143/-143 -130/-130/-130 -131/-131/-131
f -143/-143/-143 -129/-129/-129 -130/-130/-130
f -143/-143/-143 -128/-128/-128 -129/-129/-129
f -143/-143/-143 -127/-127/-127 -128/-128/-128
f -143/-143/-143 -126/-126/-126 -127/-127/-127
f -143/-143/-143 -125/-125/-125 -126/-126/-126
f -143/-143/-143 -124/-124/-124 -125/-125/-125
f -143/-143/-143 -123/-123/-123 -124/-124/-124
f -143/-143/-143 -122/-122/-122 -123/-123/-123
f -143/-143/-143 -121/-121/-121 -122/-122/-122
f -143/-143/-143 -120/-120/-120 -121/-121/-121
f -143/-143/-143 -119/-119/-119 -120/-120/-120
f -143/-143/-143 -118/-118/-118 -119/-119/-119
f -143/-143/-143 -117/-117/-117 -118/-118/-118
f -143/-143/-143 -116/-116/-116 -117/-117/-117
f -143/-143/-143 -115/-115/-115 -116/-116/-116
f -143/-143/-143 -114/-114/-114 -115/-115/-115
f -143/-143/-143 -113/-113/-113 -114/-114/-114
f -143/-143/-143 -112/-112/-112 -113/-113/-113
f -143/-143/-143 -111/-111/-111 -112/-112/-112
f -143/-143/-143 -110/-110/-110 -111/-111/-111
f -143/-143/-143 -109/-109/-109 -110/-110/-110
f -143/-143/-143 -108/-108/-108 -109/-109/-109
f -143/-143/-143 -107/-107/-107 -108/-108/-108
f -143/-143/-143 -106/-106/-106 -107/-107/-107
f -143/-143/-143 -105/-105/-105 -106/-106/-106
f -143/-143/-143 -104/-104/-104 -105/-105/-105
f -143/-143/-143 -103/-103/-103 -104/-104/-104
f -143/-143/-143 -102/-102/-102 -103/-103/-103
f -143/-143/-143 -101/-101/-101 -102/-102/-102
f -143/-143/-143 -100/-100/-100 -101/-101/-101
f -143/-143/-143 -99/-99/-99 -100/-100/-100
f -143/-143/-143 -98/-98/-98 -99/-99/-99
f -143/-143/-143 -97/-97/-97 -98/-98/-98
f -143/-143/-143 -145/-145/-145 -97/-97/-97
f -94/-94/-94 -95/-95/-95 -96/-96/-96
f -93/-93/-93 -94/-94/-94 -96/-96/-96
f -92/-92/-92 -94/-94/-94 -93/-93/-93
f -91/-91/-91 -92/-92/-92 -93/-93/-93
f -90/-90/-90 -92/-92/-92 -91/-91/-91
f -89/-89/-89 -90/-90/-90 -91/-91/-91
f -88/-88/-88 -90/-90/-90 -89/-89/-89
f -87/-87/-87 -88/-88/-88 -89/-89/-89
f -86/-86/-86 -88/-88/-88 -87/-87/-87
f -85/-85/-85 -86/-86/-86 -87/-87/-87
f -84/-84/-84 -86/-86/-86 -85/-85/-85
f -83/-83/-83 -84/-84/-84 -85/-85/-85
f -82/-82/-82 -84/-84/-84 -83/-83/-83
f -81/-81/-81 -82/-82/-82 -83/-83/-83
f -80/-80/-80 -82/-82/-82 -81/-81/-81
f -79/-79/-79 -80/-80/-80 -81/-81/-81
f -78/-78/-78 -80/-80/-80 -79/-79/-79
f -77/-77/-77 -78/-78/-78 -79/-79/-79
f -76/-76/-76 -78/-78/-78 -77/-77/-77
f -75/-75/-75 -76/-76/-76 -77/-77/-77
f -74/-74/-74 -76/-76/-76 -75/-75/-75
f -73/-73/-73 -74/-74/-74 -75/-75/-75
f -72/-72/-72 -74/-74/-74 -73/-73/-73
f -71/-71/-71 -72/-72/-72 -73/-73/-73
f -70/-70/-70 -72/-72/-72 -71/-71/-71
f -69/-69/-69 -70/-70/-70 -71/-71/-71
f -68/-68/-68 -70/-70/-70 -69/-69/-69
f -67/-67/-67 -68/-68/-68 -69/-69/-69
f -66/-66/-66 -68/-68/-68 -67/-67/-67
f -65/-65/-65 -66/-66/-66 -67/-67/-67
f -64/-64/-64 -66/-66/-66 -65/-65/-65
f -63/-63/-63 -64/-64/-64 -65/-65/-65
f -62/-62/-62 -64/-64/-64 -63/-63/-63
f -61/-61/-61 -62/-62/-62 -63/-63/-63
f -60/-60/-60 -62/-62/-62 -61/-61/-61
f -59/-59/-59 -60/-60/-60 -61/-61/-61
f -58/-58/-58 -60/-60/-60 -59/-59/-59
f -57/-57/-57 -58/-58/-58 -59/-59/-59
f -56/-56/-56 -58/-58/-58 -57/-57/-57
f -55/-55/-55 -56/-56/-56 -57/-57/-57
f -54/-54/-54 -56/-56/-56 -55/-55/-55
f -53/-53/-53 -54/-54/-54 -55/-55/-55
f -52/-52/-52 -54/-54/-54 -53/-53/-53
f -51/-51/-51 -52/-52/-52 -53/-53/-53
f -50/-50/-50 -52/-52/-52 -51/-51/-51
f -49/-49/-49 -50/-50/-50 -51/-51/-51
f -48/-48/-48 -50/-50/-50 -49/-49/-49
f -47/-47/-47 -48/-48/-48 -49/-49/-49
f -46/-46/-46 -48/-48/-48 -47/-47/-47
f -45/-45/-45 -46/-46/-46 -47/-47/-47
f -44/-44/-44 -46/-46/-46 -45/-45/-45
f -43/-43/-43 -44/-44/-44 -45/-45/-45
f -42/-42/-42 -44/-44/-44 -43/-43/-43
f -41/-41/-41 -42/-42/-42 -43/-43/-43
f -40/-40/-40 -42/-42/-42 -41/-41/-41
f -39/-39/-39 -40/-40/-40 -41/-41/-41
f -38/-38/-38 -40/-40/-40 -39/-39/-39
f -37/-37/-37 -38/-38/-38 -39/-39/-39
f -36/-36/-36 -38/-38/-38 -37/-37/-37
f -35/-35/-35 -36/-36/-36 -37/-37/-37
f -34/-34/-34 -36/-36/-36 -35/-35/-35
f -33/-33/-33 -34/-34/-34 -35/-35/-35
f -32/-32/-32 -34/-34/-34 -33/-33/-33
f -31/-31/-31 -32/-32/-32 -33/-33/-33
f -30/-30/-30 -32/-32/-32 -31/-31/-31
f -29/-29/-29 -30/-30/-30 -31/-31/-31
f -28/-28/-28 -30/-30/-30 -29/-29/-29
f -27/-27/-27 -28/-28/-28 -29/-29/-29
f -26/-26/-26 -28/-28/-28 -27/-27/-27
f -25/-25/-25 -26/-26/-26 -27/-27/-27
f -24/-24/-24 -26/-26/-26 -25/-25/-25
f -23/-23/-23 -24/-24/-24 -25/-25/-25
f -22/-22/-22 -24/-24/-24 -23/-23/-23
f -21/-21/-21 -22/-22/-22 -23/-23/-23
f -20/-20/-20 -22/-22/-22 -21/-21/-21
f -19/-19/-19 -20/-20/-20 -21/-21/-21
f -18/-18/-18 -20/-20/-20 -19/-19/-19
f -17/-17/-17 -18/-18/-18 -19/-19/-19
f -16/-16/-16 -18/-18/-18 -17/-17/-17
f -15/-15/-15 -16/-16/-16 -17/-17/-17
f -14/-14/-14 -16/-16/-16 -15/-15/-15
f -13/-13/-13 -14/-14/-14 -15/-15/-15
f -12/-12/-12 -14/-14/-14 -13/-13/-13
f -11/-11/-11 -12/-12/-12 -13/-13/-13
f -10/-10/-10 -12/-12/-12 -11/-11/-11
f -9/-9/-9 -10/-10/-10 -11/-11/-11
f -8/-8/-8 -10/-10/-10 -9/-9/-9
f -7/-7/-7 -8/-8/-8 -9/-9/-9
f -6/-6/-6 -8/-8/-8 -7/-7/-7
f -5/-5/-5 -6/-6/-6 -7/-7/-7
f -4/-4/-4 -6/-6/-6 -5/-5/-5
f -3/-3/-3 -4/-4/-4 -5/-5/-5
f -2/-2/-2 -4/-4/-4 -3/-3/-3
f -1/-1/-1 -2/-2/-2 -3/-3/-3
f -95/-95/-95 -2/-2/-2 -1/-1/-1
f -96/-96/-96 -95/-95/-95 -1/-1/-1

