# Mesh "DLC2_SnowmobileSnow" exported with Unity Assets Bundle Extractor; 87 vertices, 432 indices, 384 bits per vertex
g DLC2_SnowmobileSnow
# SubMesh 0
# Vertices
v -0.000000 0.007512 0.015364
vt 0.500000 0.250000
vn -0.000000 0.540620 0.841267
v 0.006570 0.007512 0.013208
vt 0.625000 0.250000
vn 0.549262 0.512906 0.659726
v 0.007176 0.000000 0.014875
vt 0.625000 0.125000
vn 0.621420 0.000000 0.783478
v -0.000000 0.000000 0.016912
vt 0.500000 0.125000
vn -0.000000 0.000000 1.000000
v 0.007933 0.009070 0.007933
vt 0.625000 0.250000
vn 0.509211 0.641453 0.573796
v 0.009748 0.000000 0.009829
vt 0.625000 0.125000
vn 0.690076 0.000000 0.723736
v -0.000000 0.010675 0.009661
vt 0.500000 0.250000
vn -0.000000 0.809163 0.587584
v -0.000000 0.014942 0.005101
vt 0.500000 0.250000
vn -0.000000 0.845159 0.534516
v 0.006319 0.013906 0.004845
vt 0.625000 0.250000
vn 0.452092 0.755908 0.473515
v 0.014913 0.000000 0.007447
vt 0.625000 0.125000
vn 0.778450 0.000000 0.627706
v 0.013193 0.007749 0.006778
vt 0.625000 0.250000
vn 0.650583 0.513604 0.559422
v -0.000000 0.015927 -0.000000
vt 0.500000 0.375000
vn -0.000000 1.000000 0.000000
v 0.006319 0.015099 -0.000000
vt 0.625000 0.375000
vn 0.503745 0.863853 0.000000
v -0.000000 0.014942 -0.005101
vt 0.500000 0.500000
vn -0.000000 0.845159 -0.534516
v 0.006319 0.013906 -0.004845
vt 0.625000 0.500000
vn 0.452092 0.755908 -0.473515
v 0.007933 0.009070 -0.007933
vt 0.625000 0.500000
vn 0.509211 0.641453 -0.573796
v 0.009478 0.011218 -0.000000
vt 0.625000 0.375000
vn 0.612117 0.790767 0.000000
v -0.000000 0.010675 -0.009661
vt 0.500000 0.500000
vn -0.000000 0.809164 -0.587583
v -0.000000 0.007512 -0.015364
vt 0.500000 0.500000
vn -0.000000 0.540620 -0.841267
v 0.006570 0.007512 -0.013208
vt 0.625000 0.500000
vn 0.549262 0.512907 -0.659726
v 0.007176 0.000000 -0.014875
vt 0.625000 0.625000
vn 0.621420 0.000000 -0.783477
v -0.000000 0.000000 -0.016912
vt 0.500000 0.625000
vn -0.000000 0.000000 -1.000000
v 0.009748 0.000000 -0.009829
vt 0.625000 0.625000
vn 0.690077 0.000000 -0.723736
v 0.015471 0.007749 -0.000000
vt 0.750000 0.250000
vn 0.843058 0.537823 0.000000
v 0.009478 0.011218 -0.000000
vt 0.750000 0.250000
vn 0.612117 0.790767 0.000000
v 0.007933 0.009070 -0.007933
vt 0.875000 0.250000
vn 0.509211 0.641453 -0.573796
v 0.013193 0.007749 -0.006778
vt 0.875000 0.250000
vn 0.650583 0.513604 -0.559422
v 0.014913 0.000000 -0.007447
vt 0.875000 0.125000
vn 0.778451 0.000000 -0.627706
v 0.017068 0.000000 -0.000000
vt 0.750000 0.125000
vn 1.000000 0.000000 0.000000
v 0.009748 0.000000 -0.009829
vt 0.875000 0.125000
vn 0.690077 0.000000 -0.723736
v -0.006570 0.007512 -0.013208
vt 0.375000 0.500000
vn -0.549262 0.512906 -0.659726
v -0.007176 0.000000 -0.014875
vt 0.375000 0.625000
vn -0.621420 0.000000 -0.783477
v -0.007933 0.009070 -0.007933
vt 0.375000 0.500000
vn -0.509211 0.641453 -0.573796
v -0.009748 0.000000 -0.009829
vt 0.375000 0.625000
vn -0.690077 0.000000 -0.723736
v -0.006319 0.013906 -0.004845
vt 0.375000 0.500000
vn -0.452092 0.755908 -0.473515
v -0.006319 0.015099 -0.000000
vt 0.375000 0.375000
vn -0.503745 0.863853 0.000000
v -0.009478 0.011218 -0.000000
vt 0.375000 0.375000
vn -0.612117 0.790767 0.000000
v -0.007933 0.009070 0.007933
vt 0.375000 0.250000
vn -0.509211 0.641453 0.573796
v -0.006319 0.013906 0.004845
vt 0.375000 0.250000
vn -0.452092 0.755908 0.473515
v -0.006570 0.007512 0.013208
vt 0.375000 0.250000
vn -0.549262 0.512906 0.659726
v -0.007176 0.000000 0.014875
vt 0.375000 0.125000
vn -0.621420 0.000000 0.783478
v -0.009748 0.000000 0.009829
vt 0.375000 0.125000
vn -0.690076 0.000000 0.723736
v -0.014913 0.000000 0.007447
vt 0.375000 0.125000
vn -0.778450 0.000000 0.627706
v -0.013193 0.007749 0.006778
vt 0.375000 0.250000
vn -0.650583 0.513604 0.559422
v -0.015471 0.007749 -0.000000
vt 0.250000 0.250000
vn -0.843058 0.537823 0.000000
v -0.017068 0.000000 -0.000000
vt 0.250000 0.125000
vn -1.000000 0.000000 0.000000
v -0.014913 0.000000 -0.007447
vt 0.125000 0.125000
vn -0.778450 0.000000 -0.627706
v -0.013193 0.007749 -0.006778
vt 0.125000 0.250000
vn -0.650583 0.513604 -0.559422
v -0.007933 0.009070 -0.007933
vt 0.125000 0.250000
vn -0.509211 0.641453 -0.573796
v -0.009478 0.011218 -0.000000
vt 0.250000 0.250000
vn -0.612117 0.790767 0.000000
v -0.009748 0.000000 -0.009829
vt 0.125000 0.125000
vn -0.690077 0.000000 -0.723736
v -0.007933 -0.009070 0.007933
vt 0.375000 0.000000
vn -0.509211 -0.641453 0.573796
v -0.006570 -0.007512 0.013208
vt 0.375000 0.000000
vn -0.549262 -0.512906 0.659726
v -0.000000 -0.007512 0.015364
vt 0.500000 0.000000
vn -0.000000 -0.540620 0.841267
v -0.000000 -0.010675 0.009661
vt 0.500000 0.000000
vn -0.000000 -0.809163 0.587584
v 0.007933 -0.009070 0.007933
vt 0.625000 0.000000
vn 0.509211 -0.641453 0.573796
v 0.006570 -0.007512 0.013208
vt 0.625000 0.000000
vn 0.549262 -0.512906 0.659726
v 0.013193 -0.007749 0.006778
vt 0.625000 0.000000
vn 0.650583 -0.513604 0.559422
v 0.015471 -0.007749 -0.000000
vt 0.750000 0.000000
vn 0.843058 -0.537823 0.000000
v 0.009478 -0.011218 -0.000000
vt 0.750000 0.000000
vn 0.612118 -0.790767 0.000000
v 0.007933 -0.009070 -0.007933
vt 0.875000 0.000000
vn 0.509212 -0.641453 -0.573796
v 0.013193 -0.007749 -0.006778
vt 0.875000 0.000000
vn 0.650583 -0.513604 -0.559422
v -0.000000 -0.015927 -0.000000
vt 0.500000 0.875000
vn -0.000000 -1.000000 0.000000
v 0.006319 -0.015099 -0.000000
vt 0.625000 0.875000
vn 0.503745 -0.863852 0.000000
v 0.006319 -0.013906 -0.004845
vt 0.625000 0.750000
vn 0.452092 -0.755908 -0.473515
v -0.000000 -0.014942 -0.005101
vt 0.500000 0.750000
vn -0.000000 -0.845158 -0.534516
v 0.007933 -0.009070 -0.007933
vt 0.625000 0.750000
vn 0.509212 -0.641453 -0.573796
v -0.000000 -0.010675 -0.009661
vt 0.500000 0.750000
vn -0.000000 -0.809163 -0.587584
v 0.009478 -0.011218 -0.000000
vt 0.625000 0.875000
vn 0.612118 -0.790767 0.000000
v -0.000000 -0.007512 -0.015364
vt 0.500000 0.750000
vn -0.000000 -0.540620 -0.841267
v 0.006570 -0.007512 -0.013208
vt 0.625000 0.750000
vn 0.549262 -0.512907 -0.659726
v 0.007933 -0.009070 0.007933
vt 0.625000 1.000000
vn 0.509211 -0.641453 0.573796
v 0.006319 -0.013906 0.004845
vt 0.625000 1.000000
vn 0.452092 -0.755908 0.473515
v -0.000000 -0.014942 0.005101
vt 0.500000 1.000000
vn -0.000000 -0.845159 0.534516
v -0.000000 -0.010675 0.009661
vt 0.500000 1.000000
vn -0.000000 -0.809163 0.587584
v -0.007933 -0.009070 0.007933
vt 0.375000 1.000000
vn -0.509211 -0.641453 0.573796
v -0.006319 -0.013906 0.004845
vt 0.375000 1.000000
vn -0.452092 -0.755907 0.473515
v -0.006319 -0.015099 -0.000000
vt 0.375000 0.875000
vn -0.503745 -0.863852 0.000000
v -0.009478 -0.011218 -0.000000
vt 0.375000 0.875000
vn -0.612118 -0.790767 0.000000
v -0.007933 -0.009070 -0.007933
vt 0.375000 0.750000
vn -0.509212 -0.641453 -0.573796
v -0.006319 -0.013906 -0.004845
vt 0.375000 0.750000
vn -0.452092 -0.755908 -0.473515
v -0.006570 -0.007512 -0.013208
vt 0.375000 0.750000
vn -0.549262 -0.512907 -0.659726
v -0.007933 -0.009070 -0.007933
vt 0.125000 0.000000
vn -0.509212 -0.641453 -0.573796
v -0.013193 -0.007749 -0.006778
vt 0.125000 0.000000
vn -0.650583 -0.513604 -0.559422
v -0.015471 -0.007749 -0.000000
vt 0.250000 0.000000
vn -0.843058 -0.537823 0.000000
v -0.009478 -0.011218 -0.000000
vt 0.250000 0.000000
vn -0.612118 -0.790767 0.000000
v -0.013193 -0.007749 0.006778
vt 0.375000 0.000000
vn -0.650583 -0.513604 0.559422
# Faces (1 to 87)
g DLC2_SnowmobileSnow_0
f -85/-85/-85 -86/-86/-86 -87/-87/-87
f -84/-84/-84 -85/-85/-85 -87/-87/-87
f -83/-83/-83 -86/-86/-86 -85/-85/-85
f -87/-87/-87 -86/-86/-86 -83/-83/-83
f -82/-82/-82 -83/-83/-83 -85/-85/-85
f -81/-81/-81 -87/-87/-87 -83/-83/-83
f -81/-81/-81 -83/-83/-83 -80/-80/-80
f -83/-83/-83 -79/-79/-79 -80/-80/-80
f -82/-82/-82 -78/-78/-78 -83/-83/-83
f -78/-78/-78 -77/-77/-77 -83/-83/-83
f -80/-80/-80 -79/-79/-79 -76/-76/-76
f -79/-79/-79 -75/-75/-75 -76/-76/-76
f -75/-75/-75 -79/-79/-79 -83/-83/-83
f -76/-76/-76 -75/-75/-75 -74/-74/-74
f -75/-75/-75 -73/-73/-73 -74/-74/-74
f -72/-72/-72 -73/-73/-73 -75/-75/-75
f -74/-74/-74 -73/-73/-73 -72/-72/-72
f -71/-71/-71 -72/-72/-72 -75/-75/-75
f -71/-71/-71 -75/-75/-75 -83/-83/-83
f -70/-70/-70 -74/-74/-74 -72/-72/-72
f -70/-70/-70 -72/-72/-72 -69/-69/-69
f -72/-72/-72 -68/-68/-68 -69/-69/-69
f -69/-69/-69 -68/-68/-68 -67/-67/-67
f -67/-67/-67 -68/-68/-68 -72/-72/-72
f -66/-66/-66 -69/-69/-69 -67/-67/-67
f -65/-65/-65 -67/-67/-67 -72/-72/-72
f -64/-64/-64 -77/-77/-77 -78/-78/-78
f -83/-83/-83 -77/-77/-77 -64/-64/-64
f -63/-63/-63 -83/-83/-83 -64/-64/-64
f -63/-63/-63 -64/-64/-64 -62/-62/-62
f -64/-64/-64 -61/-61/-61 -62/-62/-62
f -60/-60/-60 -61/-61/-61 -64/-64/-64
f -62/-62/-62 -61/-61/-61 -60/-60/-60
f -59/-59/-59 -60/-60/-60 -64/-64/-64
f -58/-58/-58 -62/-62/-62 -60/-60/-60
f -59/-59/-59 -64/-64/-64 -78/-78/-78
f -69/-69/-69 -66/-66/-66 -57/-57/-57
f -66/-66/-66 -56/-56/-56 -57/-57/-57
f -55/-55/-55 -57/-57/-57 -56/-56/-56
f -54/-54/-54 -55/-55/-55 -56/-56/-56
f -69/-69/-69 -57/-57/-57 -55/-55/-55
f -70/-70/-70 -69/-69/-69 -55/-55/-55
f -70/-70/-70 -55/-55/-55 -74/-74/-74
f -55/-55/-55 -53/-53/-53 -74/-74/-74
f -52/-52/-52 -53/-53/-53 -55/-55/-55
f -74/-74/-74 -53/-53/-53 -52/-52/-52
f -51/-51/-51 -52/-52/-52 -55/-55/-55
f -51/-51/-51 -50/-50/-50 -52/-52/-52
f -50/-50/-50 -49/-49/-49 -52/-52/-52
f -76/-76/-76 -74/-74/-74 -52/-52/-52
f -76/-76/-76 -52/-52/-52 -49/-49/-49
f -80/-80/-80 -76/-76/-76 -49/-49/-49
f -80/-80/-80 -49/-49/-49 -50/-50/-50
f -81/-81/-81 -80/-80/-80 -50/-50/-50
f -81/-81/-81 -50/-50/-50 -87/-87/-87
f -50/-50/-50 -48/-48/-48 -87/-87/-87
f -47/-47/-47 -48/-48/-48 -50/-50/-50
f -87/-87/-87 -48/-48/-48 -47/-47/-47
f -46/-46/-46 -47/-47/-47 -50/-50/-50
f -46/-46/-46 -50/-50/-50 -45/-45/-45
f -50/-50/-50 -44/-44/-44 -45/-45/-45
f -45/-45/-45 -44/-44/-44 -43/-43/-43
f -43/-43/-43 -44/-44/-44 -50/-50/-50
f -42/-42/-42 -45/-45/-45 -43/-43/-43
f -42/-42/-42 -43/-43/-43 -41/-41/-41
f -43/-43/-43 -40/-40/-40 -41/-41/-41
f -39/-39/-39 -40/-40/-40 -43/-43/-43
f -41/-41/-41 -40/-40/-40 -39/-39/-39
f -38/-38/-38 -39/-39/-39 -43/-43/-43
f -37/-37/-37 -41/-41/-41 -39/-39/-39
f -38/-38/-38 -43/-43/-43 -50/-50/-50
f -84/-84/-84 -87/-87/-87 -47/-47/-47
f -46/-46/-46 -36/-36/-36 -47/-47/-47
f -46/-46/-46 -45/-45/-45 -36/-36/-36
f -36/-36/-36 -35/-35/-35 -47/-47/-47
f -84/-84/-84 -47/-47/-47 -35/-35/-35
f -34/-34/-34 -35/-35/-35 -36/-36/-36
f -34/-34/-34 -84/-84/-84 -35/-35/-35
f -33/-33/-33 -34/-34/-34 -36/-36/-36
f -33/-33/-33 -32/-32/-32 -34/-34/-34
f -32/-32/-32 -31/-31/-31 -34/-34/-34
f -34/-34/-34 -31/-31/-31 -85/-85/-85
f -84/-84/-84 -34/-34/-34 -85/-85/-85
f -85/-85/-85 -31/-31/-31 -32/-32/-32
f -82/-82/-82 -85/-85/-85 -32/-32/-32
f -82/-82/-82 -32/-32/-32 -78/-78/-78
f -32/-32/-32 -30/-30/-30 -78/-78/-78
f -29/-29/-29 -30/-30/-30 -32/-32/-32
f -28/-28/-28 -29/-29/-29 -32/-32/-32
f -28/-28/-28 -27/-27/-27 -29/-29/-29
f -27/-27/-27 -26/-26/-26 -29/-29/-29
f -59/-59/-59 -78/-78/-78 -30/-30/-30
f -29/-29/-29 -59/-59/-59 -30/-30/-30
f -29/-29/-29 -26/-26/-26 -60/-60/-60
f -59/-59/-59 -29/-29/-29 -60/-60/-60
f -60/-60/-60 -26/-26/-26 -27/-27/-27
f -58/-58/-58 -60/-60/-60 -27/-27/-27
f -23/-23/-23 -24/-24/-24 -25/-25/-25
f -22/-22/-22 -23/-23/-23 -25/-25/-25
f -21/-21/-21 -23/-23/-23 -22/-22/-22
f -24/-24/-24 -23/-23/-23 -21/-21/-21
f -20/-20/-20 -21/-21/-21 -22/-22/-22
f -19/-19/-19 -24/-24/-24 -21/-21/-21
f -20/-20/-20 -18/-18/-18 -21/-21/-21
f -18/-18/-18 -17/-17/-17 -21/-21/-21
f -19/-19/-19 -16/-16/-16 -24/-24/-24
f -16/-16/-16 -15/-15/-15 -24/-24/-24
f -14/-14/-14 -15/-15/-15 -16/-16/-16
f -24/-24/-24 -15/-15/-15 -14/-14/-14
f -25/-25/-25 -24/-24/-24 -14/-14/-14
f -13/-13/-13 -14/-14/-14 -16/-16/-16
f -13/-13/-13 -12/-12/-12 -14/-14/-14
f -12/-12/-12 -11/-11/-11 -14/-14/-14
f -10/-10/-10 -11/-11/-11 -12/-12/-12
f -14/-14/-14 -11/-11/-11 -10/-10/-10
f -25/-25/-25 -14/-14/-14 -10/-10/-10
f -9/-9/-9 -10/-10/-10 -12/-12/-12
f -9/-9/-9 -8/-8/-8 -10/-10/-10
f -20/-20/-20 -22/-22/-22 -8/-8/-8
f -20/-20/-20 -8/-8/-8 -18/-18/-18
f -8/-8/-8 -7/-7/-7 -10/-10/-10
f -22/-22/-22 -7/-7/-7 -8/-8/-8
f -25/-25/-25 -10/-10/-10 -7/-7/-7
f -22/-22/-22 -25/-25/-25 -7/-7/-7
f -8/-8/-8 -6/-6/-6 -18/-18/-18
f -67/-67/-67 -17/-17/-17 -18/-18/-18
f -21/-21/-21 -17/-17/-17 -67/-67/-67
f -65/-65/-65 -21/-21/-21 -67/-67/-67
f -56/-56/-56 -6/-6/-6 -8/-8/-8
f -18/-18/-18 -6/-6/-6 -56/-56/-56
f -66/-66/-66 -67/-67/-67 -18/-18/-18
f -66/-66/-66 -18/-18/-18 -56/-56/-56
f -54/-54/-54 -56/-56/-56 -8/-8/-8
f -3/-3/-3 -4/-4/-4 -5/-5/-5
f -2/-2/-2 -3/-3/-3 -5/-5/-5
f -2/-2/-2 -36/-36/-36 -3/-3/-3
f -36/-36/-36 -1/-1/-1 -3/-3/-3
f -5/-5/-5 -4/-4/-4 -41/-41/-41
f -37/-37/-37 -5/-5/-5 -41/-41/-41
f -42/-42/-42 -41/-41/-41 -4/-4/-4
f -3/-3/-3 -42/-42/-42 -4/-4/-4
f -3/-3/-3 -1/-1/-1 -45/-45/-45
f -42/-42/-42 -3/-3/-3 -45/-45/-45
f -45/-45/-45 -1/-1/-1 -36/-36/-36

