# Mesh "DLC2_Beams2" exported with Unity Assets Bundle Extractor; 24 vertices, 36 indices, 384 bits per vertex
g DLC2_Beams2
# SubMesh 0
# Vertices
v -0.270934 -1.000000 0.275274
vt 0.933016 0.631731
vn -0.000000 0.000000 1.000000
v -0.270934 1.000000 0.275274
vt 0.600861 0.630720
vn -0.000000 0.000000 1.000000
v 0.029066 1.000000 0.275274
vt 0.600763 0.662629
vn -0.000000 0.000000 1.000000
v 0.029066 -1.000000 0.275274
vt 0.932919 0.663640
vn -0.000000 0.000000 1.000000
v -0.270934 1.000000 0.275274
vt 0.626912 0.743846
vn -0.000000 1.000000 0.000000
v -0.270934 1.000000 -0.024726
vt 0.626808 0.778113
vn -0.000000 1.000000 0.000000
v 0.029066 1.000000 -0.024726
vt 0.661075 0.778218
vn -0.000000 1.000000 0.000000
v 0.029066 1.000000 0.275274
vt 0.661179 0.743950
vn -0.000000 1.000000 0.000000
v -0.270934 1.000000 -0.024726
vt 0.932739 0.632097
vn -0.000000 0.000000 -1.000000
v -0.270934 -1.000000 -0.024726
vt 0.600584 0.631085
vn -0.000000 0.000000 -1.000000
v 0.029066 -1.000000 -0.024726
vt 0.600487 0.662994
vn -0.000000 0.000000 -1.000000
v 0.029066 1.000000 -0.024726
vt 0.932642 0.664006
vn -0.000000 0.000000 -1.000000
v -0.270934 -1.000000 -0.024726
vt 0.663072 0.745206
vn -0.000000 -1.000000 0.000000
v -0.270934 -1.000000 0.275274
vt 0.628805 0.745101
vn -0.000000 -1.000000 0.000000
v 0.029066 -1.000000 0.275274
vt 0.628700 0.779369
vn -0.000000 -1.000000 0.000000
v 0.029066 -1.000000 -0.024726
vt 0.662968 0.779473
vn -0.000000 -1.000000 0.000000
v 0.029066 -1.000000 0.275274
vt 0.932633 0.632173
vn 1.000000 0.000000 0.000000
v 0.029066 1.000000 0.275274
vt 0.600478 0.631162
vn 1.000000 0.000000 0.000000
v 0.029066 1.000000 -0.024726
vt 0.600381 0.663071
vn 1.000000 0.000000 0.000000
v 0.029066 -1.000000 -0.024726
vt 0.932536 0.664082
vn 1.000000 0.000000 0.000000
v -0.270934 -1.000000 -0.024726
vt 0.932527 0.633078
vn -1.000000 0.000000 0.000000
v -0.270934 1.000000 -0.024726
vt 0.600372 0.632067
vn -1.000000 0.000000 0.000000
v -0.270934 1.000000 0.275274
vt 0.600275 0.663976
vn -1.000000 0.000000 0.000000
v -0.270934 -1.000000 0.275274
vt 0.932430 0.664987
vn -1.000000 0.000000 0.000000
# Faces (1 to 24)
g DLC2_Beams2_0
f -22/-22/-22 -23/-23/-23 -24/-24/-24
f -21/-21/-21 -22/-22/-22 -24/-24/-24
f -18/-18/-18 -19/-19/-19 -20/-20/-20
f -17/-17/-17 -18/-18/-18 -20/-20/-20
f -14/-14/-14 -15/-15/-15 -16/-16/-16
f -13/-13/-13 -14/-14/-14 -16/-16/-16
f -10/-10/-10 -11/-11/-11 -12/-12/-12
f -9/-9/-9 -10/-10/-10 -12/-12/-12
f -6/-6/-6 -7/-7/-7 -8/-8/-8
f -5/-5/-5 -6/-6/-6 -8/-8/-8
f -2/-2/-2 -3/-3/-3 -4/-4/-4
f -1/-1/-1 -2/-2/-2 -4/-4/-4

