# Mesh "Hat_Tall" exported with Unity Assets Bundle Extractor; 100 vertices, 384 indices, 384 bits per vertex
g Hat_Tall
# SubMesh 0
# Vertices
v -0.219828 1.126263 0.125154
vt 0.263404 0.240465
vn -0.775758 0.273742 0.568564
v -0.241922 1.536330 -0.100719
vt 0.263404 0.437360
vn -0.767869 0.278297 0.576999
v -0.141182 1.573332 -0.042158
vt 0.302776 0.437157
vn -0.391589 0.411756 0.822870
v -0.124486 1.158441 0.170359
vt 0.303339 0.240465
vn -0.393628 0.411348 0.822100
v -0.026560 1.587202 -0.019034
vt 0.338500 0.436274
vn -0.040736 0.449404 0.892399
v -0.024224 1.172503 0.190241
vt 0.338566 0.240317
vn -0.040736 0.449404 0.892399
v -0.274063 1.061873 0.034993
vt 0.222220 0.240465
vn -0.955103 0.120488 0.270665
v -0.293897 1.466572 -0.212016
vt 0.222220 0.437360
vn -0.953798 0.122281 0.274440
v -0.303924 0.990819 -0.064337
vt 0.180290 0.240465
vn -0.999478 -0.007581 0.031410
v -0.312767 1.393735 -0.325143
vt 0.180290 0.437360
vn -0.999345 -0.005046 0.035828
v -0.289095 0.919309 -0.164401
vt 0.138998 0.240465
vn -0.953078 -0.179750 -0.243581
v -0.292880 1.318011 -0.438916
vt 0.138998 0.437360
vn -0.954020 -0.178079 -0.241111
v -0.228398 0.851465 -0.259143
vt 0.095215 0.240465
vn -0.696302 -0.417131 -0.584094
v -0.231943 1.246586 -0.535682
vt 0.095215 0.437360
vn -0.703459 -0.413072 -0.578375
v -0.113079 0.822307 -0.299668
vt 0.053343 0.240465
vn -0.292575 -0.556879 -0.777358
v -0.118796 1.212147 -0.577643
vt 0.053343 0.437360
vn -0.295739 -0.556270 -0.776596
v 0.001219 0.812056 -0.313755
vt 0.014817 0.240465
vn 0.041024 -0.583827 -0.810841
v 0.001934 1.200061 -0.594515
vt 0.014817 0.437360
vn 0.041024 -0.583827 -0.810841
v 0.077696 1.163063 0.177261
vt 0.373601 0.240465
vn 0.317496 0.427604 0.846375
v 0.089885 1.578614 -0.034271
vt 0.374164 0.437157
vn 0.315392 0.427917 0.847004
v 0.177266 1.135340 0.138710
vt 0.413537 0.240465
vn 0.721898 0.307977 0.619688
v 0.195966 1.546340 -0.085771
vt 0.413537 0.437360
vn 0.713254 0.312154 0.627558
v 0.240403 1.073633 0.052555
vt 0.454720 0.240465
vn 0.927938 0.163532 0.334945
v 0.258535 1.479200 -0.193159
vt 0.454720 0.437360
vn 0.926298 0.165258 0.338619
v 0.280176 1.004171 -0.044398
vt 0.496650 0.240465
vn 0.994315 0.037995 0.099470
v 0.288375 1.407476 -0.304623
vt 0.496650 0.437360
vn 0.993766 0.040514 0.103865
v 0.275481 0.932215 -0.145129
vt 0.537942 0.240465
vn 0.974672 -0.135684 -0.177775
v 0.279766 1.331101 -0.419368
vt 0.537942 0.437360
vn 0.975366 -0.133976 -0.175250
v 0.224542 0.861819 -0.243681
vt 0.581724 0.240465
vn 0.752804 -0.384006 -0.534627
v 0.228889 1.257120 -0.519952
vt 0.581724 0.437360
vn 0.759361 -0.379633 -0.528440
v 0.113704 0.827491 -0.291927
vt 0.623597 0.240465
vn 0.369988 -0.541734 -0.754741
v 0.120556 1.217619 -0.569472
vt 0.623597 0.437360
vn 0.373061 -0.540982 -0.753766
v 0.001219 0.812056 -0.313755
vt 0.662123 0.240465
vn 0.041024 -0.583827 -0.810841
v 0.001934 1.200061 -0.594515
vt 0.662123 0.437360
vn 0.041024 -0.583827 -0.810841
v -0.199457 1.552268 -0.171747
vt 0.283708 0.473674
vn -0.385595 0.894054 -0.228002
v -0.242666 1.494234 -0.264357
vt 0.271796 0.507766
vn -0.446008 0.809793 -0.381198
v -0.131774 1.535955 -0.255270
vt 0.305279 0.499154
vn -0.153399 0.890622 -0.428090
v -0.115143 1.583202 -0.121457
vt 0.309051 0.456062
vn -0.178074 0.970188 -0.164394
v -0.018091 1.550529 -0.242581
vt 0.338425 0.494665
vn -0.007001 0.913549 -0.406669
v -0.023914 1.595217 -0.101933
vt 0.338425 0.449987
vn -0.017703 0.989426 -0.143953
v -0.132496 1.466705 -0.372798
vt 0.305069 0.542312
vn -0.162589 0.818676 -0.550758
v -0.256713 1.431528 -0.361659
vt 0.267864 0.544314
vn -0.449830 0.737925 -0.503110
v -0.011965 1.477147 -0.372889
vt 0.338425 0.541977
vn -0.000050 0.831589 -0.555391
v -0.122524 1.385300 -0.480015
vt 0.305772 0.585191
vn -0.133046 0.727407 -0.673185
v -0.238157 1.367942 -0.456472
vt 0.271599 0.580806
vn -0.421998 0.647376 -0.634683
v -0.006036 1.387856 -0.486805
vt 0.338425 0.587993
vn 0.007205 0.720427 -0.693493
v -0.095122 1.283749 -0.566383
vt 0.310768 0.626633
vn -0.137688 0.477125 -0.867983
v -0.187598 1.312166 -0.530365
vt 0.283594 0.610868
vn -0.323582 0.502782 -0.801564
v -0.000203 1.273431 -0.581038
vt 0.338425 0.633565
vn 0.019463 0.467970 -0.883530
v -0.241922 1.536330 -0.100719
vt 0.269519 0.457711
vn -0.475929 0.875033 -0.088367
v -0.141182 1.573332 -0.042158
vt 0.302776 0.437157
vn -0.247842 0.967853 0.042826
v -0.026560 1.587202 -0.019034
vt 0.338500 0.436274
vn -0.025777 0.995760 0.088310
v -0.292880 1.318011 -0.438916
vt 0.249650 0.584784
vn -0.635374 0.494011 -0.593509
v -0.312767 1.393735 -0.325143
vt 0.245825 0.541131
vn -0.677745 0.615748 -0.401891
v -0.293897 1.466572 -0.212016
vt 0.250709 0.498684
vn -0.640531 0.726234 -0.249609
v -0.118796 1.212147 -0.577643
vt 0.303010 0.644274
vn -0.207510 0.220650 -0.953023
v -0.231943 1.246586 -0.535682
vt 0.268393 0.623783
vn -0.442871 0.347080 -0.826680
v 0.001934 1.200061 -0.594515
vt 0.338470 0.652442
vn 0.029145 0.190390 -0.981276
v 0.109714 1.390608 -0.472087
vt 0.371168 0.585191
vn 0.145281 0.733770 -0.663683
v 0.108629 1.472217 -0.364567
vt 0.371871 0.542312
vn 0.162214 0.826101 -0.539670
v 0.233274 1.442728 -0.344933
vt 0.409076 0.544314
vn 0.448925 0.758470 -0.472430
v 0.209781 1.504577 -0.248913
vt 0.405144 0.507766
vn 0.433527 0.829898 -0.351175
v 0.096739 1.541179 -0.247470
vt 0.371661 0.499154
vn 0.141411 0.897361 -0.418027
v 0.157756 1.560434 -0.159553
vt 0.393232 0.473674
vn 0.359029 0.911075 -0.202583
v 0.068888 1.587409 -0.115175
vt 0.367889 0.456062
vn 0.144399 0.977559 -0.153387
v 0.224145 1.378509 -0.440691
vt 0.405341 0.580806
vn 0.434287 0.666950 -0.605452
v 0.092926 1.288047 -0.559964
vt 0.366172 0.626633
vn 0.174606 0.484264 -0.857322
v 0.181339 1.320600 -0.517771
vt 0.393346 0.610868
vn 0.354176 0.518275 -0.778428
v 0.195966 1.546340 -0.085771
vt 0.407421 0.457711
vn 0.440410 0.895980 -0.057086
v 0.089885 1.578614 -0.034271
vt 0.374164 0.437157
vn 0.199914 0.978089 0.058110
v 0.258535 1.479200 -0.193159
vt 0.426231 0.498684
vn 0.622239 0.755099 -0.206503
v 0.288375 1.407476 -0.304623
vt 0.431115 0.541131
vn 0.674749 0.646665 -0.355723
v 0.279766 1.331101 -0.419368
vt 0.427290 0.584784
vn 0.651137 0.523420 -0.549593
v 0.120556 1.217619 -0.569472
vt 0.373930 0.644274
vn 0.261695 0.231376 -0.937006
v 0.228889 1.257120 -0.519952
vt 0.408547 0.623783
vn 0.481881 0.368220 -0.795113
v -0.228398 0.851465 -0.259143
vt 0.049684 0.811803
vn -0.001262 -0.813419 0.581677
v -0.289095 0.919309 -0.164401
vt 0.031997 0.841241
vn -0.001281 -0.813593 0.581433
v -0.146798 0.905291 -0.183695
vt 0.069871 0.837296
vn -0.001268 -0.813540 0.581508
v -0.113079 0.822307 -0.299668
vt 0.080791 0.798592
vn -0.001262 -0.813419 0.581677
v -0.005105 0.901649 -0.188481
vt 0.109139 0.835129
vn -0.001254 -0.813527 0.581525
v 0.001219 0.812056 -0.313755
vt 0.108989 0.791720
vn -0.001262 -0.813419 0.581677
v -0.158613 0.994140 -0.059377
vt 0.062869 0.884170
vn -0.001289 -0.813425 0.581668
v -0.303924 0.990819 -0.064337
vt 0.019906 0.883415
vn -0.001302 -0.813444 0.581642
v -0.011874 0.997495 -0.054368
vt 0.109139 0.884170
vn -0.001262 -0.813424 0.581670
v -0.147086 1.079247 0.059565
vt 0.068316 0.929465
vn -0.001285 -0.813287 0.581861
v -0.274063 1.061873 0.034993
vt 0.028479 0.921735
vn -0.001307 -0.813226 0.581947
v -0.018308 1.088691 0.073051
vt 0.109139 0.932937
vn -0.001270 -0.813302 0.581841
v -0.124486 1.158441 0.170359
vt 0.077076 0.971491
vn -0.001262 -0.813419 0.581677
v -0.219828 1.126263 0.125154
vt 0.046744 0.955467
vn -0.001263 -0.813419 0.581677
v -0.024224 1.172503 0.190241
vt 0.109155 0.978036
vn -0.001262 -0.813419 0.581677
v 0.113704 0.827491 -0.291927
vt 0.140205 0.797083
vn -0.001263 -0.813419 0.581677
v 0.135618 0.911747 -0.174055
vt 0.148108 0.836541
vn -0.001240 -0.813539 0.581509
v 0.224542 0.861819 -0.243681
vt 0.167855 0.812558
vn -0.001262 -0.813419 0.581677
v 0.275481 0.932215 -0.145129
vt 0.187490 0.841241
vn -0.001219 -0.813592 0.581435
v 0.134865 1.000849 -0.049359
vt 0.155109 0.884170
vn -0.001234 -0.813424 0.581670
v 0.280176 1.004171 -0.044398
vt 0.200335 0.884170
vn -0.001220 -0.813442 0.581645
v 0.111386 1.085156 0.068389
vt 0.152679 0.928711
vn -0.001258 -0.813287 0.581861
v 0.240403 1.073633 0.052555
vt 0.195533 0.917963
vn -0.001246 -0.813224 0.581949
v 0.077696 1.163063 0.177261
vt 0.143920 0.970737
vn -0.001262 -0.813419 0.581677
v 0.177266 1.135340 0.138710
vt 0.177268 0.953958
vn -0.001262 -0.813420 0.581676
# Faces (1 to 100)
g Hat_Tall_0
f -98/-98/-98 -99/-99/-99 -100/-100/-100
f -97/-97/-97 -98/-98/-98 -100/-100/-100
f -96/-96/-96 -98/-98/-98 -97/-97/-97
f -95/-95/-95 -96/-96/-96 -97/-97/-97
f -100/-100/-100 -99/-99/-99 -94/-94/-94
f -99/-99/-99 -93/-93/-93 -94/-94/-94
f -94/-94/-94 -93/-93/-93 -92/-92/-92
f -93/-93/-93 -91/-91/-91 -92/-92/-92
f -92/-92/-92 -91/-91/-91 -90/-90/-90
f -91/-91/-91 -89/-89/-89 -90/-90/-90
f -90/-90/-90 -89/-89/-89 -88/-88/-88
f -89/-89/-89 -87/-87/-87 -88/-88/-88
f -86/-86/-86 -88/-88/-88 -87/-87/-87
f -85/-85/-85 -86/-86/-86 -87/-87/-87
f -84/-84/-84 -86/-86/-86 -85/-85/-85
f -83/-83/-83 -84/-84/-84 -85/-85/-85
f -96/-96/-96 -95/-95/-95 -82/-82/-82
f -81/-81/-81 -96/-96/-96 -82/-82/-82
f -81/-81/-81 -82/-82/-82 -80/-80/-80
f -79/-79/-79 -81/-81/-81 -80/-80/-80
f -79/-79/-79 -80/-80/-80 -78/-78/-78
f -77/-77/-77 -79/-79/-79 -78/-78/-78
f -77/-77/-77 -78/-78/-78 -76/-76/-76
f -75/-75/-75 -77/-77/-77 -76/-76/-76
f -75/-75/-75 -76/-76/-76 -74/-74/-74
f -73/-73/-73 -75/-75/-75 -74/-74/-74
f -73/-73/-73 -74/-74/-74 -72/-72/-72
f -71/-71/-71 -73/-73/-73 -72/-72/-72
f -72/-72/-72 -70/-70/-70 -71/-71/-71
f -70/-70/-70 -69/-69/-69 -71/-71/-71
f -70/-70/-70 -68/-68/-68 -69/-69/-69
f -68/-68/-68 -67/-67/-67 -69/-69/-69
f -64/-64/-64 -65/-65/-65 -66/-66/-66
f -63/-63/-63 -64/-64/-64 -66/-66/-66
f -62/-62/-62 -64/-64/-64 -63/-63/-63
f -61/-61/-61 -62/-62/-62 -63/-63/-63
f -64/-64/-64 -60/-60/-60 -65/-65/-65
f -60/-60/-60 -59/-59/-59 -65/-65/-65
f -58/-58/-58 -60/-60/-60 -64/-64/-64
f -62/-62/-62 -58/-58/-58 -64/-64/-64
f -60/-60/-60 -57/-57/-57 -59/-59/-59
f -57/-57/-57 -56/-56/-56 -59/-59/-59
f -55/-55/-55 -57/-57/-57 -60/-60/-60
f -58/-58/-58 -55/-55/-55 -60/-60/-60
f -57/-57/-57 -54/-54/-54 -56/-56/-56
f -54/-54/-54 -53/-53/-53 -56/-56/-56
f -52/-52/-52 -54/-54/-54 -57/-57/-57
f -55/-55/-55 -52/-52/-52 -57/-57/-57
f -63/-63/-63 -66/-66/-66 -51/-51/-51
f -50/-50/-50 -63/-63/-63 -51/-51/-51
f -61/-61/-61 -63/-63/-63 -50/-50/-50
f -49/-49/-49 -61/-61/-61 -50/-50/-50
f -59/-59/-59 -56/-56/-56 -48/-48/-48
f -47/-47/-47 -59/-59/-59 -48/-48/-48
f -65/-65/-65 -59/-59/-59 -47/-47/-47
f -46/-46/-46 -65/-65/-65 -47/-47/-47
f -66/-66/-66 -65/-65/-65 -46/-46/-46
f -51/-51/-51 -66/-66/-66 -46/-46/-46
f -53/-53/-53 -54/-54/-54 -45/-45/-45
f -44/-44/-44 -53/-53/-53 -45/-45/-45
f -56/-56/-56 -53/-53/-53 -44/-44/-44
f -48/-48/-48 -56/-56/-56 -44/-44/-44
f -54/-54/-54 -52/-52/-52 -43/-43/-43
f -45/-45/-45 -54/-54/-54 -43/-43/-43
f -52/-52/-52 -55/-55/-55 -42/-42/-42
f -42/-42/-42 -55/-55/-55 -41/-41/-41
f -42/-42/-42 -41/-41/-41 -40/-40/-40
f -40/-40/-40 -41/-41/-41 -39/-39/-39
f -41/-41/-41 -38/-38/-38 -39/-39/-39
f -39/-39/-39 -38/-38/-38 -37/-37/-37
f -38/-38/-38 -36/-36/-36 -37/-37/-37
f -38/-38/-38 -62/-62/-62 -36/-36/-36
f -62/-62/-62 -61/-61/-61 -36/-36/-36
f -58/-58/-58 -62/-62/-62 -38/-38/-38
f -41/-41/-41 -58/-58/-58 -38/-38/-38
f -55/-55/-55 -58/-58/-58 -41/-41/-41
f -35/-35/-35 -42/-42/-42 -40/-40/-40
f -34/-34/-34 -42/-42/-42 -35/-35/-35
f -33/-33/-33 -34/-34/-34 -35/-35/-35
f -34/-34/-34 -52/-52/-52 -42/-42/-42
f -52/-52/-52 -34/-34/-34 -43/-43/-43
f -37/-37/-37 -36/-36/-36 -32/-32/-32
f -36/-36/-36 -31/-31/-31 -32/-32/-32
f -36/-36/-36 -61/-61/-61 -31/-31/-31
f -37/-37/-37 -32/-32/-32 -30/-30/-30
f -39/-39/-39 -37/-37/-37 -30/-30/-30
f -61/-61/-61 -49/-49/-49 -31/-31/-31
f -39/-39/-39 -30/-30/-30 -29/-29/-29
f -40/-40/-40 -39/-39/-39 -29/-29/-29
f -40/-40/-40 -29/-29/-29 -28/-28/-28
f -35/-35/-35 -40/-40/-40 -28/-28/-28
f -34/-34/-34 -33/-33/-33 -27/-27/-27
f -33/-33/-33 -26/-26/-26 -27/-27/-27
f -35/-35/-35 -28/-28/-28 -26/-26/-26
f -33/-33/-33 -35/-35/-35 -26/-26/-26
f -34/-34/-34 -27/-27/-27 -43/-43/-43
f -23/-23/-23 -24/-24/-24 -25/-25/-25
f -22/-22/-22 -23/-23/-23 -25/-25/-25
f -21/-21/-21 -23/-23/-23 -22/-22/-22
f -20/-20/-20 -21/-21/-21 -22/-22/-22
f -23/-23/-23 -19/-19/-19 -24/-24/-24
f -19/-19/-19 -18/-18/-18 -24/-24/-24
f -17/-17/-17 -19/-19/-19 -23/-23/-23
f -21/-21/-21 -17/-17/-17 -23/-23/-23
f -19/-19/-19 -16/-16/-16 -18/-18/-18
f -16/-16/-16 -15/-15/-15 -18/-18/-18
f -14/-14/-14 -16/-16/-16 -19/-19/-19
f -17/-17/-17 -14/-14/-14 -19/-19/-19
f -16/-16/-16 -13/-13/-13 -15/-15/-15
f -13/-13/-13 -12/-12/-12 -15/-15/-15
f -11/-11/-11 -13/-13/-13 -16/-16/-16
f -14/-14/-14 -11/-11/-11 -16/-16/-16
f -21/-21/-21 -20/-20/-20 -10/-10/-10
f -9/-9/-9 -21/-21/-21 -10/-10/-10
f -17/-17/-17 -21/-21/-21 -9/-9/-9
f -9/-9/-9 -10/-10/-10 -8/-8/-8
f -7/-7/-7 -9/-9/-9 -8/-8/-8
f -6/-6/-6 -9/-9/-9 -7/-7/-7
f -6/-6/-6 -17/-17/-17 -9/-9/-9
f -14/-14/-14 -17/-17/-17 -6/-6/-6
f -5/-5/-5 -6/-6/-6 -7/-7/-7
f -4/-4/-4 -6/-6/-6 -5/-5/-5
f -4/-4/-4 -14/-14/-14 -6/-6/-6
f -11/-11/-11 -14/-14/-14 -4/-4/-4
f -3/-3/-3 -4/-4/-4 -5/-5/-5
f -2/-2/-2 -4/-4/-4 -3/-3/-3
f -2/-2/-2 -11/-11/-11 -4/-4/-4
f -1/-1/-1 -2/-2/-2 -3/-3/-3

