# Mesh "Hat_Tall" exported with Unity Assets Bundle Extractor; 100 vertices, 384 indices, 384 bits per vertex
g Hat_Tall
# SubMesh 0
# Vertices
v -0.200994 1.075993 0.216302
vt 0.263404 0.240465
vn -0.778891 0.181938 0.600190
v -0.223587 1.515471 0.055377
vt 0.263404 0.437360
vn -0.770968 0.185213 0.609348
v -0.123200 1.543440 0.119308
vt 0.302776 0.437157
vn -0.396119 0.280720 0.874234
v -0.105937 1.101205 0.266277
vt 0.303339 0.240465
vn -0.398191 0.280424 0.873388
v -0.008716 1.553957 0.144765
vt 0.338500 0.436274
vn -0.045697 0.308302 0.950190
v -0.005801 1.112365 0.288496
vt 0.338566 0.240317
vn -0.045707 0.308302 0.950190
v -0.254663 1.025873 0.117184
vt 0.222220 0.240465
vn -0.956548 0.075304 0.281683
v -0.274895 1.463256 -0.065436
vt 0.222220 0.437360
vn -0.955245 0.076523 0.285749
v -0.283899 0.970623 0.008099
vt 0.180290 0.240465
vn -0.999562 -0.015013 0.025518
v -0.293081 1.408367 -0.188381
vt 0.180290 0.437360
vn -0.999453 -0.013147 0.030354
v -0.268442 0.915158 -0.101587
vt 0.138998 0.240465
vn -0.951505 -0.143234 -0.272255
v -0.272499 1.350829 -0.312234
vt 0.138998 0.437360
vn -0.952487 -0.141926 -0.269490
v -0.207150 0.862634 -0.205257
vt 0.095215 0.240465
vn -0.692582 -0.325371 -0.643788
v -0.210947 1.295073 -0.418447
vt 0.095215 0.437360
vn -0.699857 -0.322213 -0.637478
v -0.091577 0.840276 -0.249235
vt 0.053343 0.240465
vn -0.287674 -0.432985 -0.854265
v -0.097524 1.267707 -0.464654
vt 0.053343 0.437360
vn -0.290859 -0.432505 -0.853429
v 0.022809 0.832594 -0.264218
vt 0.014817 0.240465
vn 0.046127 -0.453617 -0.890002
v 0.023311 1.258651 -0.482639
vt 0.014817 0.437360
vn 0.046137 -0.453616 -0.890002
v 0.096200 1.105282 0.274676
vt 0.373601 0.240465
vn 0.312769 0.294736 0.902943
v 0.107816 1.548099 0.128907
vt 0.374164 0.437157
vn 0.310639 0.294946 0.903609
v 0.196011 1.084000 0.232799
vt 0.413537 0.240465
vn 0.718466 0.212084 0.662440
v 0.214203 1.524300 0.073569
vt 0.413537 0.437360
vn 0.709700 0.215017 0.670890
v 0.259689 1.036247 0.138558
vt 0.454720 0.240465
vn 0.926079 0.113205 0.359946
v 0.277414 1.474395 -0.042486
vt 0.454720 0.437360
vn 0.924397 0.114362 0.363884
v 0.300071 0.982401 0.032365
vt 0.496650 0.240465
vn 0.993792 0.025118 0.108385
v 0.307927 1.420488 -0.163407
vt 0.496650 0.437360
vn 0.993207 0.026969 0.113190
v 0.296008 0.926542 -0.078132
vt 0.537942 0.240465
vn 0.975796 -0.104433 -0.192136
v 0.300020 1.362375 -0.288444
vt 0.537942 0.437360
vn 0.976493 -0.103089 -0.189298
v 0.245689 0.871767 -0.186440
vt 0.581724 0.240465
vn 0.756112 -0.296209 -0.583571
v 0.249783 1.304365 -0.399302
vt 0.581724 0.437360
vn 0.762721 -0.292763 -0.576669
v 0.135156 0.844848 -0.239813
vt 0.623597 0.240465
vn 0.374715 -0.419650 -0.826730
v 0.141776 1.272533 -0.454710
vt 0.623597 0.437360
vn 0.377811 -0.419042 -0.825629
v 0.022809 0.832594 -0.264218
vt 0.662123 0.240465
vn 0.046127 -0.453617 -0.890002
v 0.023311 1.258651 -0.482639
vt 0.662123 0.437360
vn 0.046137 -0.453616 -0.890002
v -0.180901 1.542113 -0.012227
vt 0.283708 0.473674
vn -0.387722 0.917228 -0.091456
v -0.223556 1.498677 -0.112754
vt 0.271796 0.507766
vn -0.447258 0.857010 -0.255917
v -0.112841 1.538842 -0.096964
vt 0.305279 0.499154
vn -0.154743 0.944819 -0.288741
v -0.096888 1.565294 0.042537
vt 0.309051 0.456062
vn -0.180707 0.983405 -0.016139
v 0.000742 1.551634 -0.081719
vt 0.338425 0.494665
vn -0.008507 0.964634 -0.263456
v -0.005775 1.574459 0.064053
vt 0.338425 0.449987
vn -0.020483 0.999761 0.007680
v -0.112874 1.488215 -0.223637
vt 0.305069 0.542312
vn -0.163216 0.892284 -0.420939
v -0.237014 1.451415 -0.218500
vt 0.267864 0.544314
vn -0.450365 0.804453 -0.387334
v 0.007620 1.498881 -0.221620
vt 0.338425 0.541977
vn -0.000705 0.906197 -0.422855
v -0.102213 1.424040 -0.341914
vt 0.305772 0.585191
vn -0.132892 0.820720 -0.555661
v -0.217877 1.402994 -0.321778
vt 0.271599 0.580806
vn -0.421719 0.734982 -0.530994
v 0.014291 1.427916 -0.347733
vt 0.338425 0.587993
vn 0.007460 0.817286 -0.576185
v -0.074134 1.336838 -0.442564
vt 0.310768 0.626633
vn -0.135935 0.602863 -0.786179
v -0.166845 1.359210 -0.403054
vt 0.283594 0.610868
vn -0.322171 0.617641 -0.717444
v 0.020874 1.329122 -0.458202
vt 0.338425 0.633565
vn 0.021304 0.596604 -0.802253
v -0.223587 1.515471 0.055377
vt 0.269519 0.457711
vn -0.478531 0.877003 0.043288
v -0.123200 1.543440 0.119308
vt 0.302776 0.437157
vn -0.251267 0.949479 0.188027
v -0.008716 1.553957 0.144765
vt 0.338500 0.436274
vn -0.029476 0.970773 0.238181
v -0.272499 1.350829 -0.312234
vt 0.249650 0.584784
vn -0.634734 0.576562 -0.514480
v -0.293081 1.408367 -0.188381
vt 0.245825 0.541131
vn -0.678256 0.667712 -0.306803
v -0.274895 1.463256 -0.065436
vt 0.250709 0.498684
vn -0.642005 0.753927 -0.139367
v -0.097524 1.267707 -0.464654
vt 0.303010 0.644274
vn -0.204562 0.362062 -0.909431
v -0.210947 1.295073 -0.418447
vt 0.268393 0.623783
vn -0.440836 0.467222 -0.766399
v 0.023311 1.258651 -0.482639
vt 0.338470 0.652442
vn 0.032300 0.337087 -0.940919
v 0.129973 1.428723 -0.332266
vt 0.371168 0.585191
vn 0.145373 0.826332 -0.544098
v 0.128197 1.493077 -0.213619
vt 0.371871 0.542312
vn 0.161514 0.898833 -0.407445
v 0.252864 1.461295 -0.198143
vt 0.409076 0.544314
vn 0.448189 0.822575 -0.349996
v 0.228791 1.507800 -0.093957
vt 0.405144 0.507766
vn 0.432082 0.874745 -0.219378
v 0.115621 1.543449 -0.087471
vt 0.371661 0.499154
vn 0.140000 0.950764 -0.276493
v 0.176233 1.549316 0.002613
vt 0.393232 0.473674
vn 0.356737 0.932243 -0.060519
v 0.087102 1.569004 0.050183
vt 0.367889 0.456062
vn 0.141694 0.989907 -0.002740
v 0.244322 1.412316 -0.302571
vt 0.405341 0.580806
vn 0.434375 0.752248 -0.495420
v 0.113871 1.340629 -0.434751
vt 0.366172 0.626633
vn 0.176289 0.609161 -0.773205
v 0.202010 1.366649 -0.387726
vt 0.393346 0.610868
vn 0.355437 0.631307 -0.689287
v 0.214203 1.524300 0.073569
vt 0.407421 0.457711
vn 0.437604 0.895479 0.081358
v 0.107816 1.548099 0.128907
vt 0.374164 0.437157
vn 0.196388 0.958507 0.206631
v 0.277414 1.474395 -0.042486
vt 0.426231 0.498684
vn 0.620484 0.779389 -0.086905
v 0.307927 1.420488 -0.163407
vt 0.431115 0.541131
vn 0.673936 0.694984 -0.250614
v 0.300020 1.362375 -0.288444
vt 0.427290 0.584784
vn 0.651490 0.602503 -0.461033
v 0.141776 1.272533 -0.454710
vt 0.373930 0.644274
vn 0.264538 0.371523 -0.889938
v 0.249783 1.304365 -0.399302
vt 0.408547 0.623783
vn 0.483711 0.485869 -0.727981
v -0.207150 0.862634 -0.205257
vt 0.049684 0.811803
vn -0.000770 -0.892227 0.451586
v -0.268442 0.915158 -0.101587
vt 0.031997 0.841241
vn -0.000787 -0.892362 0.451319
v -0.126024 0.904619 -0.122166
vt 0.069871 0.837296
vn -0.000775 -0.892321 0.451401
v -0.091577 0.840276 -0.249235
vt 0.080791 0.798592
vn -0.000770 -0.892227 0.451586
v 0.015697 0.902134 -0.126835
vt 0.109139 0.835129
vn -0.000762 -0.892311 0.451420
v 0.022809 0.832594 -0.264218
vt 0.108989 0.791720
vn -0.000771 -0.892228 0.451585
v -0.138620 0.973553 0.014136
vt 0.062869 0.884170
vn -0.000797 -0.892232 0.451576
v -0.283899 0.970623 0.008099
vt 0.019906 0.883415
vn -0.000810 -0.892246 0.451548
v 0.008086 0.976512 0.020232
vt 0.109139 0.884170
vn -0.000770 -0.892231 0.451579
v -0.127841 1.039669 0.144658
vt 0.068316 0.929465
vn -0.000795 -0.892125 0.451788
v -0.254663 1.025873 0.117184
vt 0.028479 0.921735
vn -0.000816 -0.892077 0.451882
v 0.000851 1.047312 0.159978
vt 0.109139 0.932937
vn -0.000780 -0.892136 0.451766
v -0.105937 1.101205 0.266277
vt 0.077076 0.971491
vn -0.000771 -0.892227 0.451586
v -0.200994 1.075993 0.216302
vt 0.046744 0.955467
vn -0.000770 -0.892227 0.451587
v -0.005801 1.112365 0.288496
vt 0.109155 0.978036
vn -0.000771 -0.892227 0.451586
v 0.135156 0.844848 -0.239813
vt 0.140205 0.797083
vn -0.000771 -0.892228 0.451586
v 0.156328 0.910314 -0.110433
vt 0.148108 0.836541
vn -0.000747 -0.892320 0.451402
v 0.245689 0.871767 -0.186440
vt 0.167855 0.812558
vn -0.000771 -0.892227 0.451586
v 0.296008 0.926542 -0.078132
vt 0.187490 0.841241
vn -0.000726 -0.892361 0.451322
v 0.154792 0.979471 0.026328
vt 0.155109 0.884170
vn -0.000743 -0.892231 0.451579
v 0.300071 0.982401 0.032365
vt 0.200335 0.884170
vn -0.000728 -0.892245 0.451551
v 0.130574 1.044880 0.155396
vt 0.152679 0.928711
vn -0.000767 -0.892125 0.451789
v 0.259689 1.036247 0.138558
vt 0.195533 0.917963
vn -0.000755 -0.892076 0.451884
v 0.096200 1.105282 0.274676
vt 0.143920 0.970737
vn -0.000770 -0.892228 0.451586
v 0.196011 1.084000 0.232799
vt 0.177268 0.953958
vn -0.000770 -0.892227 0.451586
# Faces (1 to 100)
g Hat_Tall_0
f -98/-98/-98 -99/-99/-99 -100/-100/-100
f -97/-97/-97 -98/-98/-98 -100/-100/-100
f -96/-96/-96 -98/-98/-98 -97/-97/-97
f -95/-95/-95 -96/-96/-96 -97/-97/-97
f -100/-100/-100 -99/-99/-99 -94/-94/-94
f -99/-99/-99 -93/-93/-93 -94/-94/-94
f -94/-94/-94 -93/-93/-93 -92/-92/-92
f -93/-93/-93 -91/-91/-91 -92/-92/-92
f -92/-92/-92 -91/-91/-91 -90/-90/-90
f -91/-91/-91 -89/-89/-89 -90/-90/-90
f -90/-90/-90 -89/-89/-89 -88/-88/-88
f -89/-89/-89 -87/-87/-87 -88/-88/-88
f -86/-86/-86 -88/-88/-88 -87/-87/-87
f -85/-85/-85 -86/-86/-86 -87/-87/-87
f -84/-84/-84 -86/-86/-86 -85/-85/-85
f -83/-83/-83 -84/-84/-84 -85/-85/-85
f -96/-96/-96 -95/-95/-95 -82/-82/-82
f -81/-81/-81 -96/-96/-96 -82/-82/-82
f -81/-81/-81 -82/-82/-82 -80/-80/-80
f -79/-79/-79 -81/-81/-81 -80/-80/-80
f -79/-79/-79 -80/-80/-80 -78/-78/-78
f -77/-77/-77 -79/-79/-79 -78/-78/-78
f -77/-77/-77 -78/-78/-78 -76/-76/-76
f -75/-75/-75 -77/-77/-77 -76/-76/-76
f -75/-75/-75 -76/-76/-76 -74/-74/-74
f -73/-73/-73 -75/-75/-75 -74/-74/-74
f -73/-73/-73 -74/-74/-74 -72/-72/-72
f -71/-71/-71 -73/-73/-73 -72/-72/-72
f -72/-72/-72 -70/-70/-70 -71/-71/-71
f -70/-70/-70 -69/-69/-69 -71/-71/-71
f -70/-70/-70 -68/-68/-68 -69/-69/-69
f -68/-68/-68 -67/-67/-67 -69/-69/-69
f -64/-64/-64 -65/-65/-65 -66/-66/-66
f -63/-63/-63 -64/-64/-64 -66/-66/-66
f -62/-62/-62 -64/-64/-64 -63/-63/-63
f -61/-61/-61 -62/-62/-62 -63/-63/-63
f -64/-64/-64 -60/-60/-60 -65/-65/-65
f -60/-60/-60 -59/-59/-59 -65/-65/-65
f -58/-58/-58 -60/-60/-60 -64/-64/-64
f -62/-62/-62 -58/-58/-58 -64/-64/-64
f -60/-60/-60 -57/-57/-57 -59/-59/-59
f -57/-57/-57 -56/-56/-56 -59/-59/-59
f -55/-55/-55 -57/-57/-57 -60/-60/-60
f -58/-58/-58 -55/-55/-55 -60/-60/-60
f -57/-57/-57 -54/-54/-54 -56/-56/-56
f -54/-54/-54 -53/-53/-53 -56/-56/-56
f -52/-52/-52 -54/-54/-54 -57/-57/-57
f -55/-55/-55 -52/-52/-52 -57/-57/-57
f -63/-63/-63 -66/-66/-66 -51/-51/-51
f -50/-50/-50 -63/-63/-63 -51/-51/-51
f -61/-61/-61 -63/-63/-63 -50/-50/-50
f -49/-49/-49 -61/-61/-61 -50/-50/-50
f -59/-59/-59 -56/-56/-56 -48/-48/-48
f -47/-47/-47 -59/-59/-59 -48/-48/-48
f -65/-65/-65 -59/-59/-59 -47/-47/-47
f -46/-46/-46 -65/-65/-65 -47/-47/-47
f -66/-66/-66 -65/-65/-65 -46/-46/-46
f -51/-51/-51 -66/-66/-66 -46/-46/-46
f -53/-53/-53 -54/-54/-54 -45/-45/-45
f -44/-44/-44 -53/-53/-53 -45/-45/-45
f -56/-56/-56 -53/-53/-53 -44/-44/-44
f -48/-48/-48 -56/-56/-56 -44/-44/-44
f -54/-54/-54 -52/-52/-52 -43/-43/-43
f -45/-45/-45 -54/-54/-54 -43/-43/-43
f -52/-52/-52 -55/-55/-55 -42/-42/-42
f -42/-42/-42 -55/-55/-55 -41/-41/-41
f -42/-42/-42 -41/-41/-41 -40/-40/-40
f -40/-40/-40 -41/-41/-41 -39/-39/-39
f -41/-41/-41 -38/-38/-38 -39/-39/-39
f -39/-39/-39 -38/-38/-38 -37/-37/-37
f -38/-38/-38 -36/-36/-36 -37/-37/-37
f -38/-38/-38 -62/-62/-62 -36/-36/-36
f -62/-62/-62 -61/-61/-61 -36/-36/-36
f -58/-58/-58 -62/-62/-62 -38/-38/-38
f -41/-41/-41 -58/-58/-58 -38/-38/-38
f -55/-55/-55 -58/-58/-58 -41/-41/-41
f -35/-35/-35 -42/-42/-42 -40/-40/-40
f -34/-34/-34 -42/-42/-42 -35/-35/-35
f -33/-33/-33 -34/-34/-34 -35/-35/-35
f -34/-34/-34 -52/-52/-52 -42/-42/-42
f -52/-52/-52 -34/-34/-34 -43/-43/-43
f -37/-37/-37 -36/-36/-36 -32/-32/-32
f -36/-36/-36 -31/-31/-31 -32/-32/-32
f -36/-36/-36 -61/-61/-61 -31/-31/-31
f -37/-37/-37 -32/-32/-32 -30/-30/-30
f -39/-39/-39 -37/-37/-37 -30/-30/-30
f -61/-61/-61 -49/-49/-49 -31/-31/-31
f -39/-39/-39 -30/-30/-30 -29/-29/-29
f -40/-40/-40 -39/-39/-39 -29/-29/-29
f -40/-40/-40 -29/-29/-29 -28/-28/-28
f -35/-35/-35 -40/-40/-40 -28/-28/-28
f -34/-34/-34 -33/-33/-33 -27/-27/-27
f -33/-33/-33 -26/-26/-26 -27/-27/-27
f -35/-35/-35 -28/-28/-28 -26/-26/-26
f -33/-33/-33 -35/-35/-35 -26/-26/-26
f -34/-34/-34 -27/-27/-27 -43/-43/-43
f -23/-23/-23 -24/-24/-24 -25/-25/-25
f -22/-22/-22 -23/-23/-23 -25/-25/-25
f -21/-21/-21 -23/-23/-23 -22/-22/-22
f -20/-20/-20 -21/-21/-21 -22/-22/-22
f -23/-23/-23 -19/-19/-19 -24/-24/-24
f -19/-19/-19 -18/-18/-18 -24/-24/-24
f -17/-17/-17 -19/-19/-19 -23/-23/-23
f -21/-21/-21 -17/-17/-17 -23/-23/-23
f -19/-19/-19 -16/-16/-16 -18/-18/-18
f -16/-16/-16 -15/-15/-15 -18/-18/-18
f -14/-14/-14 -16/-16/-16 -19/-19/-19
f -17/-17/-17 -14/-14/-14 -19/-19/-19
f -16/-16/-16 -13/-13/-13 -15/-15/-15
f -13/-13/-13 -12/-12/-12 -15/-15/-15
f -11/-11/-11 -13/-13/-13 -16/-16/-16
f -14/-14/-14 -11/-11/-11 -16/-16/-16
f -21/-21/-21 -20/-20/-20 -10/-10/-10
f -9/-9/-9 -21/-21/-21 -10/-10/-10
f -17/-17/-17 -21/-21/-21 -9/-9/-9
f -9/-9/-9 -10/-10/-10 -8/-8/-8
f -7/-7/-7 -9/-9/-9 -8/-8/-8
f -6/-6/-6 -9/-9/-9 -7/-7/-7
f -6/-6/-6 -17/-17/-17 -9/-9/-9
f -14/-14/-14 -17/-17/-17 -6/-6/-6
f -5/-5/-5 -6/-6/-6 -7/-7/-7
f -4/-4/-4 -6/-6/-6 -5/-5/-5
f -4/-4/-4 -14/-14/-14 -6/-6/-6
f -11/-11/-11 -14/-14/-14 -4/-4/-4
f -3/-3/-3 -4/-4/-4 -5/-5/-5
f -2/-2/-2 -4/-4/-4 -3/-3/-3
f -2/-2/-2 -11/-11/-11 -4/-4/-4
f -1/-1/-1 -2/-2/-2 -3/-3/-3

