# Mesh "HellPlatform1:HellPlatform" exported with Unity Assets Bundle Extractor; 187 vertices, 504 indices, 384 bits per vertex
g HellPlatform1:HellPlatform
# SubMesh 0
# Vertices
v -44.250298 -2.620892 -73.800835
vt 0.097471 0.015777
vn -0.276131 -0.316604 -0.907476
v -23.436817 -2.620892 -83.629311
vt 0.056078 0.015777
vn -0.176532 -0.291522 -0.940134
v -25.825760 18.715130 -91.531425
vt 0.056352 0.050050
vn -0.166446 -0.287800 -0.943116
v -47.397816 18.715130 -81.702950
vt 0.095231 0.050050
vn -0.253943 -0.253786 -0.933330
v -70.179146 -2.620892 -71.343796
vt 0.134238 0.015777
vn -0.498950 -0.220544 -0.838098
v -74.190903 25.401852 -76.325363
vt 0.133315 0.060792
vn -0.582368 -0.019461 -0.812692
v -87.327003 -2.620892 -54.569061
vt 0.170704 0.015777
vn -0.972513 -0.129612 -0.193442
v -89.603035 29.959785 -56.093994
vt 0.170576 0.068114
vn -0.958623 0.035361 -0.282473
v -80.259811 -2.620892 -27.155914
vt 0.206727 0.015777
vn -0.973118 -0.091244 0.211461
v -85.043716 29.959785 -30.003265
vt 0.204725 0.068114
vn -0.978020 -0.039760 0.204683
v -1.403107 25.401852 -89.093048
vt 0.016142 0.060792
vn -0.090464 -0.091622 -0.991676
v -1.403107 -2.620892 -86.254097
vt 0.016222 0.015777
vn -0.070381 -0.170936 -0.982765
v -69.728600 57.065506 -73.481934
vt 0.131450 0.111656
vn -0.711869 0.218550 -0.667442
v -83.404861 57.065506 -49.793869
vt 0.173851 0.111656
vn -0.876981 0.231835 -0.420900
v 39.920143 -2.535419 -70.855453
vt 0.908642 0.015914
vn 0.173731 -0.184314 -0.967391
v 66.607262 -2.620892 -66.362152
vt 0.866119 0.015777
vn 0.475656 -0.170255 -0.862997
v 69.698326 29.000757 -71.516174
vt 0.868401 0.066573
vn 0.551564 -0.025040 -0.833756
v 42.631920 28.863741 -76.666473
vt 0.909508 0.066353
vn 0.177281 -0.130102 -0.975523
v 84.189774 29.000757 -51.457092
vt 0.829680 0.066573
vn 0.859210 0.029463 -0.510775
v 81.913750 -2.620892 -49.932236
vt 0.829495 0.015777
vn 0.863003 -0.105766 -0.494003
v 90.817520 19.379124 -28.275192
vt 0.791403 0.051117
vn 0.952252 -0.039600 -0.302733
v 89.331528 -2.620892 -28.978470
vt 0.793242 0.015777
vn 0.945901 -0.071213 -0.316544
v 80.711250 56.689262 -49.793869
vt 0.830326 0.111051
vn 0.794179 0.186906 -0.578226
v 60.964371 56.689255 -70.860016
vt 0.878026 0.111051
vn 0.641385 0.172713 -0.747526
v 93.768066 -2.620892 0.095520
vt 0.744432 0.015777
vn 0.901743 -0.059861 -0.428107
v 105.723427 -2.620892 26.506302
vt 0.706489 0.015777
vn 0.996399 -0.084450 0.007542
v 108.378746 25.401852 26.952377
vt 0.706785 0.060792
vn 0.983685 0.162657 0.076857
v 95.384399 19.379124 1.652542
vt 0.741903 0.051117
vn 0.887145 0.060782 -0.457470
v 96.580719 25.401852 61.750061
vt 0.656359 0.060792
vn 0.741547 0.179553 0.646427
v 94.304840 -2.620892 60.647003
vt 0.655949 0.015777
vn 0.759167 -0.089051 0.644775
v 65.811668 25.401852 77.534485
vt 0.610119 0.060792
vn 0.353044 0.174580 0.919174
v 64.201508 -2.620892 76.024902
vt 0.609728 0.015777
vn 0.354595 -0.029859 0.934543
v 43.762844 24.409740 78.542694
vt 0.579803 0.059198
vn 0.111087 0.144862 0.983196
v 46.606499 -2.620892 82.216339
vt 0.580946 0.015777
vn 0.177490 0.042625 0.983199
v 54.596958 73.811913 64.861542
vt 0.609447 0.150011
vn 0.391013 0.301933 0.869451
v 78.332489 86.534920 49.917114
vt 0.656593 0.158995
vn 0.706142 0.321544 0.630851
v 92.008751 80.942642 26.228973
vt 0.701518 0.150011
vn 0.908335 0.304638 0.286572
v 46.606499 -2.620892 82.216339
vt 0.580946 0.015777
vn 0.288042 0.155716 0.944872
v 24.596390 -2.620892 88.840240
vt 0.542851 0.015777
vn 0.288042 0.155716 0.944872
v 20.932304 24.409740 85.588379
vt 0.538162 0.059198
vn 0.224777 -0.429286 0.874751
v 43.762844 24.409740 78.542694
vt 0.579803 0.059198
vn 0.486399 -0.384330 0.784669
v 23.491533 52.046593 111.241882
vt 0.533238 0.103593
vn -0.028460 -0.183693 0.982572
v 53.358562 52.046593 96.468262
vt 0.579321 0.103593
vn 0.738228 -0.216168 0.638977
v 23.491533 119.413803 111.241882
vt 0.533238 0.212907
vn -0.063167 -0.025045 0.997689
v -1.296524 52.046593 96.035675
vt 0.498866 0.103593
vn -0.520282 -0.099943 0.848126
v -1.296524 119.413803 96.035675
vt 0.498866 0.212907
vn -0.522900 0.000000 0.852394
v 53.625370 119.413803 102.540833
vt 0.575557 0.212907
vn 0.785689 -0.029762 0.617905
v 54.596958 119.413803 64.861542
vt 0.609447 0.212907
vn 0.932396 -0.004859 0.361405
v 54.596958 73.811913 64.861542
vt 0.609447 0.150011
vn 0.978386 -0.025109 0.205259
v 78.599297 119.413803 50.206131
vt 0.656593 0.212907
vn 0.707393 -0.007787 0.706778
v 78.332489 86.534920 49.917114
vt 0.656593 0.158995
vn 0.697040 -0.007616 0.716992
v 92.275558 119.413803 26.518066
vt 0.701518 0.212907
vn 0.865440 -0.010531 0.500903
v 92.008751 80.942642 26.228973
vt 0.701518 0.150011
vn 0.865440 -0.010531 0.500903
v 105.801315 78.691330 1.856827
vt 0.741868 0.146395
vn 0.987210 -0.070252 0.143115
v 106.068130 119.413795 1.567810
vt 0.741868 0.212907
vn 0.989759 -0.005725 0.142635
v 103.633682 119.413803 -33.488159
vt 0.792790 0.212907
vn 0.880319 -0.006221 -0.474341
v 103.366875 52.046593 -33.199142
vt 0.792790 0.103593
vn 0.914774 -0.141365 -0.378423
v 80.978058 119.413803 -50.082962
vt 0.830326 0.212907
vn 0.590504 -0.006008 -0.807013
v 80.711250 56.689262 -49.793869
vt 0.830326 0.111051
vn 0.584462 -0.046175 -0.810106
v 90.817520 19.379124 -28.275192
vt 0.791403 0.051117
vn 0.970887 -0.209126 -0.116811
v 95.384399 19.379124 1.652542
vt 0.741903 0.051117
vn 0.981458 -0.191575 0.006193
v 89.331528 -2.620892 -28.978470
vt 0.793242 0.015777
vn 0.986665 -0.061833 -0.150561
v 93.768066 -2.620892 0.095520
vt 0.744432 0.015777
vn 0.986665 -0.061833 -0.150561
v 43.762844 24.409740 78.542694
vt 0.579803 0.059198
vn 0.486399 -0.384330 0.784669
v -43.082355 -2.620892 78.942047
vt 0.423476 0.015777
vn -0.802507 -0.097090 0.588690
v -55.068714 -2.620892 63.414520
vt 0.390051 0.015777
vn -0.802507 -0.097090 0.588690
v -56.716202 25.401852 64.977966
vt 0.389658 0.060792
vn -0.919764 -0.133587 0.369038
v -44.599659 19.651066 81.359192
vt 0.423185 0.051554
vn -0.907218 -0.129112 0.400356
v -58.370480 78.691330 66.511841
vt 0.389241 0.146395
vn -0.975169 -0.084869 0.204557
v -53.673416 75.815926 97.293304
vt 0.422770 0.141776
vn -0.975180 -0.084845 0.204512
v -58.370480 119.413803 66.511841
vt 0.389241 0.212907
vn -0.993823 -0.032054 0.106251
v -55.936031 119.413803 101.567810
vt 0.422882 0.212907
vn -0.993823 -0.032054 0.106251
v -81.005127 -2.620892 8.697205
vt 0.273918 0.015777
vn -0.978416 -0.143230 -0.148955
v -80.259811 -2.620892 -27.155914
vt 0.206727 0.015777
vn -0.986650 -0.159771 -0.031545
v -85.043716 29.959785 -30.003265
vt 0.204725 0.068114
vn -0.986650 -0.159771 -0.031545
v -85.881882 25.401852 6.757416
vt 0.269508 0.060792
vn -0.976926 -0.132034 -0.167875
v -89.270950 -2.620892 25.377625
vt 0.300287 0.015777
vn -0.974513 -0.087894 0.206395
v -91.926270 37.001221 25.823776
vt 0.299805 0.079425
vn -0.966771 -0.039530 0.252570
v -76.250374 -2.609032 47.564102
vt 0.343833 0.015796
vn -0.755428 -0.063223 0.652175
v -78.526413 40.286568 48.667267
vt 0.343382 0.084702
vn -0.748625 -0.047985 0.661255
v -55.068714 -2.620892 63.414520
vt 0.390051 0.015777
vn -0.611817 -0.063495 0.788447
v -56.716202 25.401852 64.977966
vt 0.389658 0.060792
vn -0.607307 -0.060549 0.792157
v -89.704536 63.559277 23.993271
vt 0.297865 0.122087
vn -0.943131 0.002347 0.332414
v -81.026100 71.401512 49.917023
vt 0.342967 0.134685
vn -0.798700 -0.016563 0.601501
v -81.026100 119.413803 49.917023
vt 0.342967 0.212907
vn -0.819589 0.000000 0.572952
v -89.704536 119.413803 23.993271
vt 0.297865 0.212907
vn -0.948274 0.000000 0.317452
v -58.370480 119.413803 66.511841
vt 0.389241 0.212907
vn -0.590917 0.000000 0.806733
v -58.370480 78.691330 66.511841
vt 0.389241 0.146395
vn -0.594855 -0.022605 0.803515
v -1.296524 119.413803 96.035675
vt 0.481325 0.572385
vn -0.000000 1.000000 0.000000
v -29.588406 119.413803 88.195648
vt 0.430123 0.586573
vn -0.000000 1.000000 0.000000
v -3.683771 119.413803 -0.645935
vt 0.477004 0.747356
vn -0.000000 1.000000 0.000000
v -55.936031 119.413803 101.567810
vt 0.382440 0.562373
vn -0.000000 1.000000 0.000000
v -58.370480 119.413803 66.511841
vt 0.378034 0.625816
vn -0.000000 1.000000 0.000000
v -81.026100 119.413803 49.917023
vt 0.337032 0.655849
vn -0.000000 1.000000 0.000000
v -89.704536 119.413803 23.993271
vt 0.321326 0.702765
vn -0.000000 1.000000 0.000000
v -108.378792 119.413803 2.540833
vt 0.287530 0.741589
vn -0.000000 1.000000 0.000000
v -107.407204 119.413803 -35.138458
vt 0.289289 0.809780
vn -0.000000 1.000000 0.000000
v -83.404861 119.413803 -49.793869
vt 0.332727 0.836303
vn -0.000000 1.000000 0.000000
v -69.728600 119.413803 -73.481934
vt 0.357478 0.879173
vn -0.000000 1.000000 0.000000
v -55.936031 119.413803 -98.432182
vt 0.382440 0.923281
vn -0.000000 1.000000 0.000000
v 23.491533 119.413803 111.241882
vt 0.526185 0.544865
vn -0.000000 1.000000 0.000000
v 53.625370 119.413803 102.540833
vt 0.580238 0.561135
vn -0.000000 1.000000 0.000000
v 54.596958 119.413803 64.861542
vt 0.581996 0.629326
vn -0.000000 1.000000 0.000000
v 78.599297 119.413803 50.206131
vt 0.625435 0.655849
vn -0.000000 1.000000 0.000000
v 92.275558 119.413803 26.518066
vt 0.650186 0.698719
vn -0.000000 1.000000 0.000000
v 106.068130 119.413795 1.567810
vt 0.675147 0.742827
vn -0.000000 1.000000 0.000000
v 103.633682 119.413803 -33.488159
vt 0.670742 0.806270
vn -0.000000 1.000000 0.000000
v 80.978058 119.413803 -50.082962
vt 0.629740 0.836303
vn -0.000000 1.000000 0.000000
v 72.299622 119.413803 -76.006737
vt 0.594003 0.874428
vn -0.000000 1.000000 0.000000
v 53.625370 119.413803 -97.459167
vt 0.580238 0.922043
vn -0.000000 1.000000 0.000000
v 23.491533 119.413803 -88.758102
vt 0.526185 0.905801
vn -0.000000 1.000000 0.000000
v -1.296524 119.413803 -103.964325
vt 0.481325 0.933321
vn -0.000000 1.000000 0.000000
v -29.588406 119.413803 -111.804352
vt 0.430123 0.947510
vn -0.000000 1.000000 0.000000
v 27.154846 25.401852 -94.408707
vt 0.944781 0.060792
vn 0.319609 0.002228 -0.947547
v -1.403107 25.401852 -89.093048
vt 0.990662 0.060792
vn -0.090464 -0.091622 -0.991676
v -1.403107 -2.620892 -86.254097
vt 0.990743 0.015777
vn -0.070381 -0.170936 -0.982765
v 25.263653 -2.620892 -89.019394
vt 0.945330 0.015777
vn 0.330305 -0.179544 -0.926641
v 42.631920 28.863741 -76.666473
vt 0.909508 0.066353
vn 0.760638 -0.047266 -0.647453
v 39.920143 -2.535419 -70.855453
vt 0.908642 0.015914
vn 0.762496 -0.176396 -0.622483
v 23.773029 46.066879 -81.963852
vt 0.944436 0.093988
vn 0.185109 0.529030 -0.828167
v -28.829830 25.401871 85.778473
vt 0.450671 0.060792
vn -0.638631 0.008034 0.769471
v -3.504230 25.401852 106.542847
vt 0.495860 0.060792
vn -0.636941 0.057520 0.768764
v -3.504230 -2.620892 104.125671
vt 0.495742 0.015777
vn -0.637956 -0.074748 0.766437
v -28.071100 -2.620892 83.361298
vt 0.450581 0.015777
vn -0.637956 -0.074747 0.766437
v -1.296524 52.046593 96.035675
vt 0.498866 0.103593
vn -0.597029 0.336620 0.728178
v -44.599659 19.651066 81.359192
vt 0.423185 0.051554
vn -0.007485 -0.143516 0.989620
v -28.829830 25.401871 85.778473
vt 0.450671 0.060792
vn 0.051413 -0.151512 0.987117
v -28.071100 -2.620892 83.361298
vt 0.450581 0.015777
vn -0.256498 -0.103973 0.960936
v -43.082355 -2.620892 78.942047
vt 0.423476 0.015777
vn -0.256498 -0.103973 0.960936
v -53.673416 75.815926 97.293304
vt 0.422770 0.141776
vn 0.304711 -0.081930 0.948915
v -53.673416 75.815926 97.293304
vt 0.422770 0.141776
vn 0.304711 -0.081930 0.948915
v -29.588406 73.041580 88.195648
vt 0.450756 0.137319
vn 0.269155 -0.098434 0.958053
v -29.588406 119.413803 88.195648
vt 0.450756 0.212907
vn 0.405225 -0.033215 0.913613
v -55.936031 119.413803 101.567810
vt 0.422882 0.212907
vn 0.405225 -0.033215 0.913613
v -3.504230 25.401852 106.542847
vt 0.495860 0.060792
vn 0.592357 0.107961 0.798410
v 20.932304 24.409740 85.588379
vt 0.538162 0.059198
vn 0.584712 0.089413 0.806298
v 24.596390 -2.620892 88.840240
vt 0.542851 0.015777
vn 0.567737 0.050244 0.821675
v -3.504230 -2.620892 104.125671
vt 0.495742 0.015777
vn 0.567737 0.050244 0.821675
v -1.296524 52.046593 96.035675
vt 0.498866 0.103593
vn 0.638047 0.236144 0.732893
v -69.728600 119.413803 -73.481934
vt 0.131450 0.212907
vn -0.869591 -0.001127 -0.493772
v -69.728600 57.065506 -73.481934
vt 0.131450 0.111656
vn -0.872244 -0.034662 -0.487842
v -55.936031 52.046593 -97.854073
vt 0.094242 0.103593
vn -0.602823 -0.130307 -0.787162
v -55.936031 119.413803 -98.432182
vt 0.094242 0.212907
vn -0.632612 -0.034165 -0.773715
v -83.404861 119.413803 -49.793869
vt 0.173851 0.212907
vn -0.866026 0.000000 -0.499999
v -83.404861 57.065506 -49.793869
vt 0.173851 0.111656
vn -0.866026 0.000000 -0.499999
v -29.588406 119.413803 -111.804352
vt 0.054019 0.212907
vn -0.039216 -0.081179 -0.995928
v -28.996105 42.114487 -103.564911
vt 0.056040 0.087639
vn -0.052274 -0.201848 -0.978021
v -47.397816 18.715130 -81.702950
vt 0.095231 0.050050
vn -0.475554 -0.474446 -0.740776
v -25.825760 18.715130 -91.531425
vt 0.056352 0.050050
vn -0.114005 -0.459165 -0.881005
v -1.346808 46.066879 -97.170074
vt 0.015849 0.093988
vn 0.375669 -0.136012 -0.916719
v -1.403107 25.401852 -89.093048
vt 0.016142 0.060792
vn 0.290951 -0.376924 -0.879361
v -1.296524 119.413803 -103.964325
vt 0.015644 0.212907
vn 0.385109 -0.087824 -0.918683
v -107.407204 119.413803 -35.138458
vt 0.208290 0.212907
vn -0.901870 0.000000 -0.432007
v -107.407204 57.065506 -35.138458
vt 0.208290 0.111656
vn -0.904046 -0.192966 -0.381398
v -83.404861 57.065506 -49.793869
vt 0.173851 0.111656
vn -0.519242 -0.084838 -0.850406
v -83.404861 119.413803 -49.793869
vt 0.173851 0.212907
vn -0.521121 0.000000 -0.853483
v -108.378792 57.759586 2.540833
vt 0.260965 0.112771
vn -0.954453 -0.203306 0.218370
v -108.378792 119.413803 2.540833
vt 0.260965 0.212907
vn -0.960861 0.000000 0.277032
v -89.704536 119.413803 23.993271
vt 0.297865 0.212907
vn -0.754258 0.000000 0.656578
v -89.704536 63.559277 23.993271
vt 0.297865 0.122087
vn -0.744011 -0.064367 0.665060
v -85.881882 25.401852 6.757416
vt 0.269508 0.060792
vn -0.803483 -0.590344 0.076866
v -85.043716 29.959785 -30.003265
vt 0.204725 0.068114
vn -0.775203 -0.614977 -0.144441
v -1.296524 119.413803 96.035675
vt 0.498866 0.212907
vn -0.267048 0.000000 0.963683
v -1.296524 52.046593 96.035675
vt 0.498866 0.103593
vn -0.280699 -0.019924 0.959589
v -29.588406 73.041580 88.195648
vt 0.450756 0.137319
vn -0.272660 -0.008162 0.962076
v -29.588406 119.413803 88.195648
vt 0.450756 0.212907
vn -0.267048 0.000000 0.963683
v -28.829830 25.401871 85.778473
vt 0.450671 0.060792
vn -0.303075 -0.053103 0.951486
v 72.299622 119.413803 -76.006737
vt 0.878026 0.212907
vn 0.851250 -0.101040 -0.514941
v 60.964371 56.689255 -70.860016
vt 0.878026 0.111051
vn 0.851250 -0.101040 -0.514941
v 80.711250 56.689262 -49.793869
vt 0.830326 0.111051
vn 0.851250 -0.101040 -0.514941
v 80.978058 119.413803 -50.082962
vt 0.830326 0.212907
vn 0.851250 -0.101040 -0.514941
v 53.358562 52.046593 -97.170151
vt 0.910333 0.103593
vn 0.887492 -0.171062 -0.427897
v 60.964371 56.689255 -70.860016
vt 0.878026 0.111051
vn 0.885717 -0.156597 -0.437015
v 72.299622 119.413803 -76.006737
vt 0.878026 0.212907
vn 0.875915 -0.097858 -0.472437
v 42.631920 28.863741 -76.666473
vt 0.909508 0.066353
vn 0.839677 -0.521769 -0.150665
v 53.358562 52.046593 -97.170151
vt 0.910333 0.103593
vn 0.887492 -0.171062 -0.427897
v 53.625370 119.413803 -97.459167
vt 0.910333 0.212907
vn 0.875915 -0.097858 -0.472437
v 23.491533 119.413803 -88.758102
vt 0.947845 0.212907
vn -0.367204 -0.046800 -0.928962
v 23.773029 46.066879 -81.963852
vt 0.944436 0.093988
vn -0.362966 -0.114039 -0.924798
v 53.358562 52.046593 -97.170151
vt 0.910333 0.103593
vn -0.364954 -0.085760 -0.927067
v 53.625370 119.413803 -97.459167
vt 0.910333 0.212907
vn -0.367204 -0.046800 -0.928962
v 42.631920 28.863741 -76.666473
vt 0.909508 0.066353
vn -0.288277 -0.556067 -0.779542
v -1.296524 119.413803 -103.964325
vt 0.990164 0.212907
vn 0.385109 -0.087824 -0.918683
v -1.346808 46.066879 -97.170074
vt 0.990369 0.093988
vn 0.375669 -0.136012 -0.916719
v 23.773029 46.066879 -81.963852
vt 0.944436 0.093988
vn 0.517914 -0.093892 -0.850264
v 23.491533 119.413803 -88.758102
vt 0.947845 0.212907
vn 0.518781 -0.078043 -0.851337
v -1.403107 25.401852 -89.093048
vt 0.990662 0.060792
vn 0.290951 -0.376924 -0.879361
# Faces (1 to 187)
g HellPlatform1:HellPlatform_0
f -185/-185/-185 -186/-186/-186 -187/-187/-187
f -184/-184/-184 -185/-185/-185 -187/-187/-187
f -187/-187/-187 -183/-183/-183 -184/-184/-184
f -183/-183/-183 -182/-182/-182 -184/-184/-184
f -183/-183/-183 -181/-181/-181 -182/-182/-182
f -181/-181/-181 -180/-180/-180 -182/-182/-182
f -181/-181/-181 -179/-179/-179 -180/-180/-180
f -179/-179/-179 -178/-178/-178 -180/-180/-180
f -186/-186/-186 -185/-185/-185 -177/-177/-177
f -176/-176/-176 -186/-186/-186 -177/-177/-177
f -182/-182/-182 -180/-180/-180 -175/-175/-175
f -182/-182/-182 -175/-175/-175 -184/-184/-184
f -180/-180/-180 -174/-174/-174 -175/-175/-175
f -180/-180/-180 -178/-178/-178 -174/-174/-174
f -171/-171/-171 -172/-172/-172 -173/-173/-173
f -170/-170/-170 -171/-171/-171 -173/-173/-173
f -172/-172/-172 -171/-171/-171 -169/-169/-169
f -168/-168/-168 -172/-172/-172 -169/-169/-169
f -168/-168/-168 -169/-169/-169 -167/-167/-167
f -166/-166/-166 -168/-168/-168 -167/-167/-167
f -169/-169/-169 -171/-171/-171 -165/-165/-165
f -169/-169/-169 -165/-165/-165 -167/-167/-167
f -171/-171/-171 -164/-164/-164 -165/-165/-165
f -164/-164/-164 -171/-171/-171 -170/-170/-170
f -161/-161/-161 -162/-162/-162 -163/-163/-163
f -160/-160/-160 -161/-161/-161 -163/-163/-163
f -162/-162/-162 -161/-161/-161 -159/-159/-159
f -158/-158/-158 -162/-162/-162 -159/-159/-159
f -158/-158/-158 -159/-159/-159 -157/-157/-157
f -156/-156/-156 -158/-158/-158 -157/-157/-157
f -156/-156/-156 -157/-157/-157 -155/-155/-155
f -154/-154/-154 -156/-156/-156 -155/-155/-155
f -157/-157/-157 -159/-159/-159 -153/-153/-153
f -157/-157/-157 -153/-153/-153 -155/-155/-155
f -159/-159/-159 -152/-152/-152 -153/-153/-153
f -159/-159/-159 -161/-161/-161 -152/-152/-152
f -161/-161/-161 -151/-151/-151 -152/-152/-152
f -151/-151/-151 -161/-161/-161 -160/-160/-160
f -148/-148/-148 -149/-149/-149 -150/-150/-150
f -147/-147/-147 -148/-148/-148 -150/-150/-150
f -146/-146/-146 -148/-148/-148 -147/-147/-147
f -145/-145/-145 -146/-146/-146 -147/-147/-147
f -144/-144/-144 -146/-146/-146 -145/-145/-145
f -143/-143/-143 -146/-146/-146 -144/-144/-144
f -148/-148/-148 -146/-146/-146 -143/-143/-143
f -142/-142/-142 -143/-143/-143 -144/-144/-144
f -141/-141/-141 -144/-144/-144 -145/-145/-145
f -141/-141/-141 -145/-145/-145 -140/-140/-140
f -145/-145/-145 -139/-139/-139 -140/-140/-140
f -140/-140/-140 -139/-139/-139 -138/-138/-138
f -139/-139/-139 -137/-137/-137 -138/-138/-138
f -138/-138/-138 -137/-137/-137 -136/-136/-136
f -137/-137/-137 -135/-135/-135 -136/-136/-136
f -136/-136/-136 -135/-135/-135 -134/-134/-134
f -133/-133/-133 -136/-136/-136 -134/-134/-134
f -133/-133/-133 -134/-134/-134 -132/-132/-132
f -134/-134/-134 -131/-131/-131 -132/-132/-132
f -132/-132/-132 -131/-131/-131 -130/-130/-130
f -131/-131/-131 -129/-129/-129 -130/-130/-130
f -128/-128/-128 -131/-131/-131 -134/-134/-134
f -128/-128/-128 -129/-129/-129 -131/-131/-131
f -127/-127/-127 -128/-128/-128 -134/-134/-134
f -134/-134/-134 -135/-135/-135 -127/-127/-127
f -126/-126/-126 -128/-128/-128 -127/-127/-127
f -125/-125/-125 -126/-126/-126 -127/-127/-127
f -124/-124/-124 -139/-139/-139 -145/-145/-145
f -121/-121/-121 -122/-122/-122 -123/-123/-123
f -120/-120/-120 -121/-121/-121 -123/-123/-123
f -119/-119/-119 -121/-121/-121 -120/-120/-120
f -118/-118/-118 -119/-119/-119 -120/-120/-120
f -117/-117/-117 -119/-119/-119 -118/-118/-118
f -116/-116/-116 -117/-117/-117 -118/-118/-118
f -113/-113/-113 -114/-114/-114 -115/-115/-115
f -112/-112/-112 -113/-113/-113 -115/-115/-115
f -115/-115/-115 -111/-111/-111 -112/-112/-112
f -111/-111/-111 -110/-110/-110 -112/-112/-112
f -111/-111/-111 -109/-109/-109 -110/-110/-110
f -109/-109/-109 -108/-108/-108 -110/-110/-110
f -109/-109/-109 -107/-107/-107 -108/-108/-108
f -107/-107/-107 -106/-106/-106 -108/-108/-108
f -110/-110/-110 -108/-108/-108 -105/-105/-105
f -110/-110/-110 -105/-105/-105 -112/-112/-112
f -108/-108/-108 -104/-104/-104 -105/-105/-105
f -108/-108/-108 -106/-106/-106 -104/-104/-104
f -105/-105/-105 -104/-104/-104 -103/-103/-103
f -102/-102/-102 -105/-105/-105 -103/-103/-103
f -103/-103/-103 -104/-104/-104 -101/-101/-101
f -104/-104/-104 -100/-100/-100 -101/-101/-101
f -106/-106/-106 -100/-100/-100 -104/-104/-104
f -97/-97/-97 -98/-98/-98 -99/-99/-99
f -96/-96/-96 -98/-98/-98 -97/-97/-97
f -95/-95/-95 -96/-96/-96 -97/-97/-97
f -94/-94/-94 -95/-95/-95 -97/-97/-97
f -93/-93/-93 -94/-94/-94 -97/-97/-97
f -93/-93/-93 -97/-97/-97 -92/-92/-92
f -97/-97/-97 -91/-91/-91 -92/-92/-92
f -97/-97/-97 -90/-90/-90 -91/-91/-91
f -97/-97/-97 -89/-89/-89 -90/-90/-90
f -97/-97/-97 -88/-88/-88 -89/-89/-89
f -97/-97/-97 -99/-99/-99 -87/-87/-87
f -97/-97/-97 -87/-87/-87 -86/-86/-86
f -97/-97/-97 -86/-86/-86 -85/-85/-85
f -97/-97/-97 -85/-85/-85 -84/-84/-84
f -97/-97/-97 -84/-84/-84 -83/-83/-83
f -97/-97/-97 -83/-83/-83 -82/-82/-82
f -97/-97/-97 -82/-82/-82 -81/-81/-81
f -97/-97/-97 -81/-81/-81 -80/-80/-80
f -97/-97/-97 -80/-80/-80 -79/-79/-79
f -97/-97/-97 -79/-79/-79 -78/-78/-78
f -97/-97/-97 -78/-78/-78 -77/-77/-77
f -97/-97/-97 -77/-77/-77 -76/-76/-76
f -97/-97/-97 -76/-76/-76 -88/-88/-88
f -76/-76/-76 -75/-75/-75 -88/-88/-88
f -72/-72/-72 -73/-73/-73 -74/-74/-74
f -71/-71/-71 -72/-72/-72 -74/-74/-74
f -71/-71/-71 -74/-74/-74 -70/-70/-70
f -69/-69/-69 -71/-71/-71 -70/-70/-70
f -74/-74/-74 -73/-73/-73 -68/-68/-68
f -74/-74/-74 -68/-68/-68 -70/-70/-70
f -65/-65/-65 -66/-66/-66 -67/-67/-67
f -64/-64/-64 -65/-65/-65 -67/-67/-67
f -66/-66/-66 -63/-63/-63 -67/-67/-67
f -60/-60/-60 -61/-61/-61 -62/-62/-62
f -59/-59/-59 -60/-60/-60 -62/-62/-62
f -62/-62/-62 -61/-61/-61 -58/-58/-58
f -61/-61/-61 -56/-56/-56 -57/-57/-57
f -57/-57/-57 -56/-56/-56 -55/-55/-55
f -54/-54/-54 -57/-57/-57 -55/-55/-55
f -51/-51/-51 -52/-52/-52 -53/-53/-53
f -50/-50/-50 -51/-51/-51 -53/-53/-53
f -53/-53/-53 -52/-52/-52 -49/-49/-49
f -46/-46/-46 -47/-47/-47 -48/-48/-48
f -45/-45/-45 -46/-46/-46 -48/-48/-48
f -48/-48/-48 -47/-47/-47 -44/-44/-44
f -47/-47/-47 -43/-43/-43 -44/-44/-44
f -46/-46/-46 -45/-45/-45 -42/-42/-42
f -41/-41/-41 -46/-46/-46 -42/-42/-42
f -40/-40/-40 -47/-47/-47 -46/-46/-46
f -46/-46/-46 -41/-41/-41 -40/-40/-40
f -41/-41/-41 -39/-39/-39 -40/-40/-40
f -39/-39/-39 -41/-41/-41 -38/-38/-38
f -37/-37/-37 -39/-39/-39 -38/-38/-38
f -41/-41/-41 -42/-42/-42 -36/-36/-36
f -38/-38/-38 -41/-41/-41 -36/-36/-36
f -33/-33/-33 -34/-34/-34 -35/-35/-35
f -32/-32/-32 -33/-33/-33 -35/-35/-35
f -35/-35/-35 -34/-34/-34 -31/-31/-31
f -30/-30/-30 -35/-35/-35 -31/-31/-31
f -30/-30/-30 -31/-31/-31 -29/-29/-29
f -31/-31/-31 -28/-28/-28 -29/-29/-29
f -31/-31/-31 -34/-34/-34 -27/-27/-27
f -27/-27/-27 -28/-28/-28 -31/-31/-31
f -34/-34/-34 -26/-26/-26 -27/-27/-27
f -26/-26/-26 -34/-34/-34 -33/-33/-33
f -23/-23/-23 -24/-24/-24 -25/-25/-25
f -22/-22/-22 -23/-23/-23 -25/-25/-25
f -21/-21/-21 -24/-24/-24 -23/-23/-23
f -18/-18/-18 -19/-19/-19 -20/-20/-20
f -17/-17/-17 -18/-18/-18 -20/-20/-20
f -14/-14/-14 -15/-15/-15 -16/-16/-16
f -16/-16/-16 -15/-15/-15 -13/-13/-13
f -11/-11/-11 -14/-14/-14 -12/-12/-12
f -8/-8/-8 -9/-9/-9 -10/-10/-10
f -7/-7/-7 -8/-8/-8 -10/-10/-10
f -6/-6/-6 -9/-9/-9 -8/-8/-8
f -3/-3/-3 -4/-4/-4 -5/-5/-5
f -2/-2/-2 -3/-3/-3 -5/-5/-5
f -1/-1/-1 -4/-4/-4 -3/-3/-3

