# Mesh "Ice_StraightB" exported with Unity Assets Bundle Extractor; 44 vertices, 84 indices, 384 bits per vertex
g Ice_StraightB
# SubMesh 0
# Vertices
v -51.487576 0.044258 -0.338237
vt 0.162047 0.819450
vn 0.000148 1.000000 0.000704
v -51.015385 -0.000002 60.000008
vt 0.032259 0.819610
vn 0.000156 1.000000 0.000709
v -60.000004 -0.000002 60.000008
vt 0.032433 0.838934
vn 0.000276 1.000000 0.000773
v -60.000004 0.048832 0.000000
vt 0.161485 0.837766
vn 0.000276 1.000000 0.000773
v -32.192799 0.046547 -10.994103
vt 0.184590 0.777743
vn -0.000047 1.000000 0.000715
v -26.136110 -0.000002 60.000011
vt 0.031774 0.766098
vn -0.000059 1.000000 0.000718
v -7.420679 0.048835 -0.598607
vt 0.161748 0.724664
vn 0.000365 1.000000 0.000632
v -1.256763 -0.000002 60.000008
vt 0.031290 0.712586
vn 0.000383 1.000000 0.000629
v 11.412818 -0.000002 60.000008
vt 0.031043 0.685336
vn 0.000890 1.000000 0.000529
v 24.478493 0.024417 -29.442751
vt 0.223167 0.655492
vn 0.000890 1.000000 0.000529
v 24.082399 -0.000002 60.000011
vt 0.030796 0.658085
vn 0.001113 0.999999 -0.000015
v 34.270386 -0.000001 -14.220643
vt 0.190236 0.634727
vn 0.001040 1.000000 0.000085
v 49.422073 -0.048837 -0.338228
vt 0.160081 0.602408
vn -0.000079 1.000000 -0.000203
v 49.421558 -0.000002 60.000008
vt 0.030303 0.603585
vn -0.000554 1.000000 -0.000182
v 60.000004 -0.000002 60.000008
vt 0.030097 0.580832
vn -0.004616 0.999989 0.000000
v 60.000004 0.048832 0.000000
vt 0.159148 0.579663
vn -0.004616 0.999989 0.000000
v 60.000004 0.048832 0.000000
vt 0.819745 0.563990
vn -0.000000 -0.001409 -0.999999
v 49.422073 -0.048837 -0.338228
vt 0.819969 0.597300
vn -0.000000 -0.001409 -0.999999
v 49.421558 -240.000015 0.338228
vt 0.980195 0.597478
vn -0.000000 -0.001409 -0.999999
v 60.000004 -240.000015 0.000000
vt 0.980232 0.564166
vn -0.000000 -0.001409 -0.999999
v -7.420679 0.048835 -0.598607
vt 0.819473 0.811238
vn 0.389112 -0.002507 -0.921187
v -32.192799 0.046547 -10.994103
vt 0.819393 0.889247
vn 0.389112 -0.002507 -0.921187
v -32.048950 -240.000015 -10.348387
vt 0.979874 0.888971
vn 0.389112 -0.002507 -0.921187
v -7.236255 -240.000015 0.200854
vt 0.979960 0.810834
vn 0.389112 -0.002507 -0.921187
v 24.478493 0.024417 -29.442751
vt 0.819660 0.700241
vn -0.672547 -0.002533 -0.740050
v -7.420679 0.048835 -0.598607
vt 0.819473 0.811238
vn -0.672547 -0.002533 -0.740050
v -7.236255 -240.000015 0.200854
vt 0.979960 0.810834
vn -0.672547 -0.002533 -0.740050
v 24.478346 -240.000015 -28.766287
vt 0.980082 0.700418
vn -0.672548 -0.002533 -0.740050
v -51.487576 0.044258 -0.338237
vt 0.819332 0.950007
vn -0.000000 -0.001409 -0.999999
v -60.000004 0.048832 0.000000
vt 0.819290 0.976814
vn -0.000000 -0.001409 -0.999999
v -60.000004 -240.000015 0.000000
vt 0.979777 0.976990
vn -0.000000 -0.001409 -0.999999
v -51.015385 -240.000015 0.338232
vt 0.979808 0.948697
vn -0.000000 -0.001409 -0.999999
v 49.422073 -0.048837 -0.338228
vt 0.819969 0.597300
vn 0.674941 -0.002151 -0.737868
v 34.270386 -0.000001 -14.220643
vt 0.819778 0.652637
vn 0.674941 -0.002151 -0.737868
v 34.085526 -240.000015 -13.667179
vt 0.980134 0.653395
vn 0.674941 -0.002151 -0.737868
v 49.421558 -240.000015 0.338228
vt 0.980195 0.597478
vn 0.674941 -0.002151 -0.737868
v -32.192799 0.046547 -10.994103
vt 0.819393 0.889247
vn -0.487144 -0.003030 -0.873316
v -51.487576 0.044258 -0.338237
vt 0.819332 0.950007
vn -0.487144 -0.003030 -0.873316
v -51.015385 -240.000015 0.338232
vt 0.979808 0.948697
vn -0.487144 -0.003030 -0.873316
v -32.048950 -240.000015 -10.348387
vt 0.979874 0.888971
vn -0.487144 -0.003030 -0.873316
v 34.270386 -0.000001 -14.220643
vt 0.819778 0.652637
vn 0.842352 -0.001706 -0.538926
v 24.478493 0.024417 -29.442751
vt 0.819660 0.700241
vn 0.842352 -0.001706 -0.538926
v 24.478346 -240.000015 -28.766287
vt 0.980082 0.700418
vn 0.842352 -0.001706 -0.538926
v 34.085526 -240.000015 -13.667179
vt 0.980134 0.653395
vn 0.842352 -0.001706 -0.538926
# Faces (1 to 44)
g Ice_StraightB_0
f -42/-42/-42 -43/-43/-43 -44/-44/-44
f -41/-41/-41 -42/-42/-42 -44/-44/-44
f -44/-44/-44 -43/-43/-43 -40/-40/-40
f -43/-43/-43 -39/-39/-39 -40/-40/-40
f -40/-40/-40 -39/-39/-39 -38/-38/-38
f -39/-39/-39 -37/-37/-37 -38/-38/-38
f -38/-38/-38 -37/-37/-37 -36/-36/-36
f -35/-35/-35 -38/-38/-38 -36/-36/-36
f -35/-35/-35 -36/-36/-36 -34/-34/-34
f -33/-33/-33 -35/-35/-35 -34/-34/-34
f -33/-33/-33 -34/-34/-34 -32/-32/-32
f -34/-34/-34 -31/-31/-31 -32/-32/-32
f -32/-32/-32 -31/-31/-31 -30/-30/-30
f -29/-29/-29 -32/-32/-32 -30/-30/-30
f -26/-26/-26 -27/-27/-27 -28/-28/-28
f -25/-25/-25 -26/-26/-26 -28/-28/-28
f -22/-22/-22 -23/-23/-23 -24/-24/-24
f -21/-21/-21 -22/-22/-22 -24/-24/-24
f -18/-18/-18 -19/-19/-19 -20/-20/-20
f -17/-17/-17 -18/-18/-18 -20/-20/-20
f -14/-14/-14 -15/-15/-15 -16/-16/-16
f -13/-13/-13 -14/-14/-14 -16/-16/-16
f -10/-10/-10 -11/-11/-11 -12/-12/-12
f -9/-9/-9 -10/-10/-10 -12/-12/-12
f -6/-6/-6 -7/-7/-7 -8/-8/-8
f -5/-5/-5 -6/-6/-6 -8/-8/-8
f -2/-2/-2 -3/-3/-3 -4/-4/-4
f -1/-1/-1 -2/-2/-2 -4/-4/-4

