# Mesh "Ice_Corner_InnerA" exported with Unity Assets Bundle Extractor; 44 vertices, 84 indices, 384 bits per vertex
g Ice_Corner_InnerA
# SubMesh 0
# Vertices
v 0.338232 0.044258 -55.979900
vt 0.313175 0.167235
vn -0.000811 1.000000 -0.000067
v -60.000004 -0.000002 -55.507702
vt 0.314204 0.035816
vn -0.000813 1.000000 -0.000096
v -60.000004 -0.000002 -60.000011
vt 0.304419 0.035816
vn -0.000771 1.000000 0.000568
v -0.000000 0.048832 -60.000015
vt 0.304419 0.166499
vn -0.000771 1.000000 0.000568
v -9.884327 0.046547 -31.309328
vt 0.366909 0.144970
vn -0.000921 1.000000 -0.000133
v -60.000004 -0.000002 -32.535767
vt 0.364238 0.035816
vn -0.000931 1.000000 -0.000124
v -13.101563 0.048835 -1.115087
vt 0.432674 0.137963
vn -0.000502 1.000000 0.000363
v -60.000004 -0.000002 27.464216
vt 0.494921 0.035816
vn -0.000375 1.000000 0.000471
v -60.000004 -0.000002 59.999989
vt 0.565785 0.035816
vn 0.000113 1.000000 0.000886
v 12.083936 0.024417 -9.301588
vt 0.414843 0.192818
vn 0.000113 1.000000 0.000886
v 24.082399 -0.000002 59.999992
vt 0.565785 0.218951
vn 0.000329 1.000000 0.000196
v 33.725685 -0.000001 13.917742
vt 0.465416 0.239955
vn 0.000392 1.000000 0.000148
v 49.422146 -0.048837 -0.338246
vt 0.434366 0.274142
vn -0.001926 0.999998 -0.000172
v 49.421558 -0.000002 59.999989
vt 0.565785 0.274141
vn -0.001070 0.999999 -0.000226
v 60.000004 -0.000002 59.999989
vt 0.565785 0.297182
vn -0.004616 0.999989 0.000000
v 60.000004 0.048832 -0.000014
vt 0.435102 0.297182
vn -0.004616 0.999989 0.000000
v 60.000004 0.048832 -0.000014
vt 0.643896 0.015227
vn -0.000000 -0.001409 -0.999999
v 49.422146 -0.048837 -0.338246
vt 0.646343 0.040272
vn -0.000000 -0.001409 -0.999999
v 49.421558 -240.000031 0.338219
vt 0.804022 0.049407
vn -0.000000 -0.001409 -0.999999
v 60.000004 -240.000031 -0.000014
vt 0.804052 0.015461
vn -0.000000 -0.001409 -0.999999
v -13.101563 0.048835 -1.115087
vt 0.643835 0.229154
vn 0.994469 0.000996 0.105025
v -9.884327 0.046547 -31.309328
vt 0.643878 0.314307
vn 0.994469 0.000996 0.105025
v -9.740479 -240.000031 -30.663607
vt 0.803976 0.314079
vn 0.994469 0.000996 0.105025
v -12.917066 -240.000031 -0.315613
vt 0.803992 0.229388
vn 0.994469 0.000996 0.105025
v 12.083936 0.024417 -9.301588
vt 0.644462 0.172218
vn -0.312259 -0.003041 -0.949992
v -13.101563 0.048835 -1.115087
vt 0.643835 0.229154
vn -0.312259 -0.003041 -0.949992
v -12.917066 -240.000031 -0.315613
vt 0.803992 0.229388
vn -0.312259 -0.003041 -0.949992
v 12.083790 -240.000031 -8.625123
vt 0.803999 0.174677
vn -0.312259 -0.003041 -0.949992
v 0.338232 0.044258 -55.979900
vt 0.643920 0.381795
vn 0.999999 -0.001409 0.000000
v -0.000000 0.048832 -60.000015
vt 0.643774 0.386551
vn 0.999999 -0.001409 0.000000
v -0.000000 -240.000031 -60.000015
vt 0.803931 0.386786
vn 0.999999 -0.001409 0.000000
v -0.338232 -240.000031 -55.507706
vt 0.803961 0.381105
vn 0.999999 -0.001409 0.000000
v 49.422146 -0.048837 -0.338246
vt 0.646343 0.040272
vn -0.668569 -0.001647 -0.743648
v 33.725685 -0.000001 13.917742
vt 0.645089 0.099971
vn -0.668569 -0.001647 -0.743648
v 33.540894 -240.000031 14.471215
vt 0.804007 0.104655
vn -0.668569 -0.001647 -0.743648
v 49.421558 -240.000031 0.338219
vt 0.804022 0.049407
vn -0.668569 -0.001647 -0.743648
v -9.884327 0.046547 -31.309328
vt 0.643878 0.314307
vn 0.929644 -0.000173 0.368458
v 0.338232 0.044258 -55.979900
vt 0.643920 0.381795
vn 0.929644 -0.000173 0.368458
v -0.338232 -240.000031 -55.507706
vt 0.803961 0.381105
vn 0.929644 -0.000173 0.368458
v -9.740479 -240.000031 -30.663607
vt 0.803976 0.314079
vn 0.929644 -0.000173 0.368458
v 33.725685 -0.000001 13.917742
vt 0.645089 0.099971
vn 0.732070 -0.002028 -0.681226
v 12.083936 0.024417 -9.301588
vt 0.644462 0.172218
vn 0.732070 -0.002028 -0.681226
v 12.083790 -240.000031 -8.625123
vt 0.803999 0.174677
vn 0.732070 -0.002028 -0.681226
v 33.540894 -240.000031 14.471215
vt 0.804007 0.104655
vn 0.732070 -0.002028 -0.681226
# Faces (1 to 44)
g Ice_Corner_InnerA_0
f -42/-42/-42 -43/-43/-43 -44/-44/-44
f -41/-41/-41 -42/-42/-42 -44/-44/-44
f -44/-44/-44 -43/-43/-43 -40/-40/-40
f -43/-43/-43 -39/-39/-39 -40/-40/-40
f -40/-40/-40 -39/-39/-39 -38/-38/-38
f -39/-39/-39 -37/-37/-37 -38/-38/-38
f -38/-38/-38 -37/-37/-37 -36/-36/-36
f -35/-35/-35 -38/-38/-38 -36/-36/-36
f -35/-35/-35 -36/-36/-36 -34/-34/-34
f -33/-33/-33 -35/-35/-35 -34/-34/-34
f -33/-33/-33 -34/-34/-34 -32/-32/-32
f -34/-34/-34 -31/-31/-31 -32/-32/-32
f -32/-32/-32 -31/-31/-31 -30/-30/-30
f -29/-29/-29 -32/-32/-32 -30/-30/-30
f -26/-26/-26 -27/-27/-27 -28/-28/-28
f -25/-25/-25 -26/-26/-26 -28/-28/-28
f -22/-22/-22 -23/-23/-23 -24/-24/-24
f -21/-21/-21 -22/-22/-22 -24/-24/-24
f -18/-18/-18 -19/-19/-19 -20/-20/-20
f -17/-17/-17 -18/-18/-18 -20/-20/-20
f -14/-14/-14 -15/-15/-15 -16/-16/-16
f -13/-13/-13 -14/-14/-14 -16/-16/-16
f -10/-10/-10 -11/-11/-11 -12/-12/-12
f -9/-9/-9 -10/-10/-10 -12/-12/-12
f -6/-6/-6 -7/-7/-7 -8/-8/-8
f -5/-5/-5 -6/-6/-6 -8/-8/-8
f -2/-2/-2 -3/-3/-3 -4/-4/-4
f -1/-1/-1 -2/-2/-2 -4/-4/-4

