# Mesh "Ice_Corner_InnerB" exported with Unity Assets Bundle Extractor; 44 vertices, 84 indices, 384 bits per vertex
g Ice_Corner_InnerB
# SubMesh 0
# Vertices
v 0.338232 0.044257 -55.979870
vt 0.159393 0.289044
vn -0.000644 1.000000 0.000305
v -60.000004 -0.000004 -55.507694
vt 0.027503 0.288012
vn -0.000655 1.000000 0.000327
v -60.000004 -0.000004 -59.999992
vt 0.027503 0.297832
vn -0.000771 1.000000 0.000568
v 0.000000 0.048830 -59.999996
vt 0.158654 0.297832
vn -0.000771 1.000000 0.000568
v 17.053125 0.046545 -48.770958
vt 0.195929 0.273287
vn -0.000748 1.000000 -0.000048
v -60.000004 -0.000004 -32.535736
vt 0.027503 0.237799
vn -0.000759 1.000000 -0.000078
v 0.303516 0.048834 -31.422184
vt 0.159317 0.235365
vn -0.000492 1.000000 0.000081
v -60.000004 -0.000004 27.464226
vt 0.027503 0.106649
vn -0.000189 1.000000 0.000357
v -60.000149 -0.000004 59.999996
vt 0.027503 0.035530
vn 0.000022 1.000000 0.000549
v 22.574854 0.024415 -20.375320
vt 0.207999 0.211218
vn 0.000022 1.000000 0.000549
v 0.186182 -0.000004 59.999996
vt 0.159061 0.035530
vn 0.000512 1.000000 0.000216
v 34.891262 -0.000002 -23.383322
vt 0.234921 0.217793
vn 0.000571 1.000000 0.000147
v 49.422073 -0.048837 -0.338228
vt 0.266683 0.167420
vn 0.000098 1.000000 -0.000124
v 49.421486 -0.000002 59.999996
vt 0.266682 0.035530
vn -0.000289 1.000000 -0.000113
v 59.999855 -0.000002 59.999996
vt 0.289804 0.035530
vn -0.004616 0.999989 0.000000
v 59.999855 0.048832 -0.000005
vt 0.289804 0.166681
vn -0.004616 0.999989 0.000000
v 59.999855 0.048832 -0.000005
vt 0.644950 0.413664
vn -0.000000 -0.001409 -0.999999
v 49.422073 -0.048837 -0.338228
vt 0.645009 0.441396
vn -0.000000 -0.001409 -0.999999
v 49.421486 -240.000031 0.338228
vt 0.805574 0.441867
vn -0.000000 -0.001409 -0.999999
v 59.999855 -240.000031 -0.000005
vt 0.805772 0.414837
vn -0.000000 -0.001409 -0.999999
v 0.303516 0.048834 -31.422184
vt 0.644053 0.536670
vn 0.721370 0.002577 0.692545
v 17.053125 0.046545 -48.770958
vt 0.643700 0.585926
vn 0.721370 0.002577 0.692545
v 17.196974 -240.000031 -48.125237
vt 0.804518 0.586749
vn 0.721370 0.002577 0.692545
v 0.487939 -240.000031 -30.622726
vt 0.804877 0.537522
vn 0.721370 0.002577 0.692545
v 22.574854 0.024415 -20.375320
vt 0.644558 0.476386
vn 0.443841 -0.002585 -0.896102
v 0.303516 0.048834 -31.422184
vt 0.644053 0.536670
vn 0.443841 -0.002585 -0.896102
v 0.487939 -240.000031 -30.622726
vt 0.804877 0.537522
vn 0.443841 -0.002585 -0.896102
v 22.574707 -240.000031 -19.698864
vt 0.805320 0.476701
vn 0.443841 -0.002585 -0.896102
v 0.338232 0.044257 -55.979870
vt 0.643383 0.630215
vn 0.999999 -0.001409 0.000000
v 0.000000 0.048830 -59.999996
vt 0.643336 0.635013
vn 0.999999 -0.001409 0.000000
v 0.000000 -240.000031 -59.999996
vt 0.804157 0.636186
vn 0.999999 -0.001409 0.000000
v -0.338232 -240.000031 -55.507687
vt 0.804188 0.632010
vn 0.999999 -0.001409 0.000000
v 49.422073 -0.048837 -0.338228
vt 0.645009 0.441396
vn 0.845004 -0.001696 -0.534758
v 34.891262 -0.000002 -23.383322
vt 0.644356 0.513012
vn 0.845004 -0.001696 -0.534758
v 34.706543 -240.000031 -22.829849
vt 0.805050 0.513745
vn 0.845004 -0.001696 -0.534758
v 49.421486 -240.000031 0.338228
vt 0.805574 0.441867
vn 0.845004 -0.001696 -0.534758
v 17.053125 0.046545 -48.770958
vt 0.643700 0.585926
vn 0.391937 -0.002577 -0.919988
v 0.338232 0.044257 -55.979870
vt 0.643383 0.630215
vn 0.391937 -0.002577 -0.919988
v -0.338232 -240.000031 -55.507687
vt 0.804188 0.632010
vn 0.391937 -0.002577 -0.919988
v 17.196974 -240.000031 -48.125237
vt 0.804518 0.586749
vn 0.391937 -0.002577 -0.919988
v 34.891262 -0.000002 -23.383322
vt 0.644356 0.513012
vn -0.243543 -0.002391 -0.969887
v 22.574854 0.024415 -20.375320
vt 0.644558 0.476386
vn -0.243543 -0.002391 -0.969887
v 22.574707 -240.000031 -19.698864
vt 0.805320 0.476701
vn -0.243543 -0.002391 -0.969887
v 34.706543 -240.000031 -22.829849
vt 0.805050 0.513745
vn -0.243543 -0.002391 -0.969887
# Faces (1 to 44)
g Ice_Corner_InnerB_0
f -42/-42/-42 -43/-43/-43 -44/-44/-44
f -41/-41/-41 -42/-42/-42 -44/-44/-44
f -44/-44/-44 -43/-43/-43 -40/-40/-40
f -43/-43/-43 -39/-39/-39 -40/-40/-40
f -40/-40/-40 -39/-39/-39 -38/-38/-38
f -39/-39/-39 -37/-37/-37 -38/-38/-38
f -38/-38/-38 -37/-37/-37 -36/-36/-36
f -35/-35/-35 -38/-38/-38 -36/-36/-36
f -35/-35/-35 -36/-36/-36 -34/-34/-34
f -33/-33/-33 -35/-35/-35 -34/-34/-34
f -33/-33/-33 -34/-34/-34 -32/-32/-32
f -34/-34/-34 -31/-31/-31 -32/-32/-32
f -32/-32/-32 -31/-31/-31 -30/-30/-30
f -29/-29/-29 -32/-32/-32 -30/-30/-30
f -26/-26/-26 -27/-27/-27 -28/-28/-28
f -25/-25/-25 -26/-26/-26 -28/-28/-28
f -22/-22/-22 -23/-23/-23 -24/-24/-24
f -21/-21/-21 -22/-22/-22 -24/-24/-24
f -18/-18/-18 -19/-19/-19 -20/-20/-20
f -17/-17/-17 -18/-18/-18 -20/-20/-20
f -14/-14/-14 -15/-15/-15 -16/-16/-16
f -13/-13/-13 -14/-14/-14 -16/-16/-16
f -10/-10/-10 -11/-11/-11 -12/-12/-12
f -9/-9/-9 -10/-10/-10 -12/-12/-12
f -6/-6/-6 -7/-7/-7 -8/-8/-8
f -5/-5/-5 -6/-6/-6 -8/-8/-8
f -2/-2/-2 -3/-3/-3 -4/-4/-4
f -1/-1/-1 -2/-2/-2 -4/-4/-4

