# Mesh "m_Bubble3" exported with Unity Assets Bundle Extractor; 65 vertices, 270 indices, 384 bits per vertex
g m_Bubble3
# SubMesh 0
# Vertices
v 0.046002 0.000000 -0.033422
vt 0.000000 0.500000
vn 0.799057 0.156435 -0.580549
v 0.043750 0.017571 -0.031786
vt 0.000000 0.600000
vn 0.773776 0.291930 -0.562181
v 0.016711 0.017571 -0.051432
vt 0.100000 0.600000
vn 0.295556 0.291930 -0.909628
v 0.017571 0.000000 -0.054078
vt 0.100000 0.500000
vn 0.305212 0.156434 -0.939348
v -0.016711 0.017571 -0.051432
vt 0.200000 0.600000
vn -0.295556 0.291930 -0.909628
v -0.017571 0.000000 -0.054078
vt 0.200000 0.500000
vn -0.305213 0.156434 -0.939347
v -0.043750 0.017571 -0.031786
vt 0.300000 0.600000
vn -0.773776 0.291930 -0.562181
v -0.046002 0.000000 -0.033422
vt 0.300000 0.500000
vn -0.799057 0.156434 -0.580549
v -0.054078 0.017571 0.000000
vt 0.400000 0.600000
vn -0.956440 0.291930 0.000000
v -0.056861 0.000000 0.000000
vt 0.400000 0.500000
vn -0.987688 0.156434 0.000000
v -0.043750 0.017571 0.031786
vt 0.500000 0.600000
vn -0.773776 0.291930 0.562181
v -0.046002 0.000000 0.033422
vt 0.500000 0.500000
vn -0.799057 0.156434 0.580549
v -0.016711 0.017571 0.051432
vt 0.600000 0.600000
vn -0.295556 0.291930 0.909628
v -0.017571 0.000000 0.054078
vt 0.600000 0.500000
vn -0.305212 0.156434 0.939348
v 0.016711 0.017571 0.051432
vt 0.700000 0.600000
vn 0.295556 0.291930 0.909628
v 0.017571 0.000000 0.054078
vt 0.700000 0.500000
vn 0.305212 0.156434 0.939348
v 0.043750 0.017571 0.031786
vt 0.800000 0.600000
vn 0.773776 0.291930 0.562181
v 0.046002 0.000000 0.033422
vt 0.800000 0.500000
vn 0.799057 0.156434 0.580549
v 0.054078 0.017571 0.000000
vt 0.900000 0.600000
vn 0.956440 0.291930 0.000000
v 0.056861 0.000000 0.000000
vt 0.900000 0.500000
vn 0.987688 0.156434 0.000000
v 0.043750 0.017571 -0.031786
vt 1.000000 0.600000
vn 0.773776 0.291930 -0.562181
v 0.046002 0.000000 -0.033422
vt 1.000000 0.500000
vn 0.799057 0.156435 -0.580549
v -0.046002 0.033422 0.000000
vt 0.400000 0.700000
vn -0.829866 0.557962 0.000000
v -0.037216 0.033422 0.027039
vt 0.500000 0.700000
vn -0.671376 0.557962 0.487783
v -0.014215 0.033422 0.043750
vt 0.600000 0.700000
vn -0.256443 0.557962 0.789250
v 0.014215 0.033422 0.043750
vt 0.700000 0.700000
vn 0.256443 0.557962 0.789250
v 0.037216 0.033422 0.027039
vt 0.800000 0.700000
vn 0.671376 0.557962 0.487783
v 0.046002 0.033422 0.000000
vt 0.900000 0.700000
vn 0.829866 0.557962 0.000000
v 0.037216 0.033422 -0.027039
vt 1.000000 0.700000
vn 0.671376 0.557962 -0.487783
v -0.027039 0.046002 0.019645
vt 0.500000 0.800000
vn -0.512705 0.773548 0.372502
v -0.033422 0.046002 0.000000
vt 0.400000 0.800000
vn -0.633738 0.773548 0.000000
v -0.037216 0.033422 -0.027039
vt 0.300000 0.700000
vn -0.671376 0.557962 -0.487783
v -0.014215 0.033422 -0.043750
vt 0.200000 0.700000
vn -0.256443 0.557962 -0.789250
v 0.014215 0.033422 -0.043750
vt 0.100000 0.700000
vn 0.256443 0.557962 -0.789250
v 0.037216 0.033422 -0.027039
vt 0.000000 0.700000
vn 0.671376 0.557962 -0.487783
v 0.010328 0.046002 -0.031786
vt 0.100000 0.800000
vn 0.195836 0.773548 -0.602721
v 0.027039 0.046002 -0.019645
vt 0.000000 0.800000
vn 0.512705 0.773548 -0.372502
v -0.010328 0.046002 -0.031786
vt 0.200000 0.800000
vn -0.195836 0.773548 -0.602721
v -0.027039 0.046002 -0.019645
vt 0.300000 0.800000
vn -0.512705 0.773548 -0.372502
v 0.027039 0.046002 -0.019645
vt 1.000000 0.800000
vn 0.512705 0.773548 -0.372502
v 0.005430 0.054078 -0.016711
vt 0.100000 0.900000
vn 0.123740 0.916326 -0.380834
v 0.014215 0.054078 -0.010328
vt 0.000000 0.900000
vn 0.323957 0.916326 -0.235368
v -0.005430 0.054078 -0.016711
vt 0.200000 0.900000
vn -0.123740 0.916326 -0.380834
v -0.014215 0.054078 -0.010328
vt 0.300000 0.900000
vn -0.323957 0.916326 -0.235368
v -0.017571 0.054078 0.000000
vt 0.400000 0.900000
vn -0.400432 0.916326 0.000000
v -0.014215 0.054078 0.010328
vt 0.500000 0.900000
vn -0.323957 0.916326 0.235368
v -0.005430 0.054078 0.016711
vt 0.600000 0.900000
vn -0.123740 0.916326 0.380834
v -0.010328 0.046002 0.031786
vt 0.600000 0.800000
vn -0.195836 0.773548 0.602721
v 0.010328 0.046002 0.031786
vt 0.700000 0.800000
vn 0.195836 0.773548 0.602721
v 0.027039 0.046002 0.019645
vt 0.800000 0.800000
vn 0.512705 0.773547 0.372502
v 0.033422 0.046002 0.000000
vt 0.900000 0.800000
vn 0.633738 0.773548 0.000000
v 0.005430 0.054078 0.016711
vt 0.700000 0.900000
vn 0.123740 0.916326 0.380834
v 0.014215 0.054078 0.010328
vt 0.800000 0.900000
vn 0.323957 0.916326 0.235368
v 0.017571 0.054078 0.000000
vt 0.900000 0.900000
vn 0.400432 0.916326 0.000000
v 0.014215 0.054078 -0.010328
vt 1.000000 0.900000
vn 0.323957 0.916326 -0.235368
v -0.000000 0.056861 0.000000
vt 0.650000 1.000000
vn -0.000000 1.000000 0.000000
v -0.000000 0.056861 0.000000
vt 0.750000 1.000000
vn -0.000000 1.000000 0.000000
v -0.000000 0.056861 0.000000
vt 0.850000 1.000000
vn -0.000000 1.000000 0.000000
v -0.000000 0.056861 0.000000
vt 0.950000 1.000000
vn -0.000000 1.000000 0.000000
v -0.000000 0.056861 0.000000
vt 0.050000 1.000000
vn -0.000000 1.000000 0.000000
v -0.000000 0.056861 0.000000
vt 0.150000 1.000000
vn -0.000000 1.000000 0.000000
v -0.000000 0.056861 0.000000
vt 0.250000 1.000000
vn -0.000000 1.000000 0.000000
v -0.000000 0.056861 0.000000
vt 0.350000 1.000000
vn -0.000000 1.000000 0.000000
v -0.000000 0.056861 0.000000
vt 0.450000 1.000000
vn -0.000000 1.000000 0.000000
v -0.000000 0.056861 0.000000
vt 0.550000 1.000000
vn -0.000000 1.000000 0.000000
# Faces (1 to 65)
g m_Bubble3_0
f -63/-63/-63 -64/-64/-64 -65/-65/-65
f -62/-62/-62 -63/-63/-63 -65/-65/-65
f -61/-61/-61 -63/-63/-63 -62/-62/-62
f -60/-60/-60 -61/-61/-61 -62/-62/-62
f -59/-59/-59 -61/-61/-61 -60/-60/-60
f -58/-58/-58 -59/-59/-59 -60/-60/-60
f -57/-57/-57 -59/-59/-59 -58/-58/-58
f -56/-56/-56 -57/-57/-57 -58/-58/-58
f -55/-55/-55 -57/-57/-57 -56/-56/-56
f -54/-54/-54 -55/-55/-55 -56/-56/-56
f -53/-53/-53 -55/-55/-55 -54/-54/-54
f -52/-52/-52 -53/-53/-53 -54/-54/-54
f -51/-51/-51 -53/-53/-53 -52/-52/-52
f -50/-50/-50 -51/-51/-51 -52/-52/-52
f -49/-49/-49 -51/-51/-51 -50/-50/-50
f -48/-48/-48 -49/-49/-49 -50/-50/-50
f -47/-47/-47 -49/-49/-49 -48/-48/-48
f -46/-46/-46 -47/-47/-47 -48/-48/-48
f -45/-45/-45 -47/-47/-47 -46/-46/-46
f -44/-44/-44 -45/-45/-45 -46/-46/-46
f -57/-57/-57 -43/-43/-43 -59/-59/-59
f -42/-42/-42 -43/-43/-43 -57/-57/-57
f -55/-55/-55 -42/-42/-42 -57/-57/-57
f -41/-41/-41 -42/-42/-42 -55/-55/-55
f -53/-53/-53 -41/-41/-41 -55/-55/-55
f -40/-40/-40 -41/-41/-41 -53/-53/-53
f -51/-51/-51 -40/-40/-40 -53/-53/-53
f -39/-39/-39 -40/-40/-40 -51/-51/-51
f -49/-49/-49 -39/-39/-39 -51/-51/-51
f -38/-38/-38 -39/-39/-39 -49/-49/-49
f -47/-47/-47 -38/-38/-38 -49/-49/-49
f -37/-37/-37 -38/-38/-38 -47/-47/-47
f -45/-45/-45 -37/-37/-37 -47/-47/-47
f -42/-42/-42 -36/-36/-36 -43/-43/-43
f -36/-36/-36 -35/-35/-35 -43/-43/-43
f -43/-43/-43 -35/-35/-35 -34/-34/-34
f -43/-43/-43 -34/-34/-34 -59/-59/-59
f -59/-59/-59 -34/-34/-34 -61/-61/-61
f -34/-34/-34 -33/-33/-33 -61/-61/-61
f -61/-61/-61 -33/-33/-33 -63/-63/-63
f -33/-33/-33 -32/-32/-32 -63/-63/-63
f -63/-63/-63 -32/-32/-32 -64/-64/-64
f -32/-32/-32 -31/-31/-31 -64/-64/-64
f -32/-32/-32 -30/-30/-30 -31/-31/-31
f -30/-30/-30 -29/-29/-29 -31/-31/-31
f -28/-28/-28 -30/-30/-30 -32/-32/-32
f -33/-33/-33 -28/-28/-28 -32/-32/-32
f -27/-27/-27 -28/-28/-28 -33/-33/-33
f -34/-34/-34 -27/-27/-27 -33/-33/-33
f -35/-35/-35 -27/-27/-27 -34/-34/-34
f -37/-37/-37 -26/-26/-26 -38/-38/-38
f -30/-30/-30 -25/-25/-25 -29/-29/-29
f -25/-25/-25 -24/-24/-24 -29/-29/-29
f -23/-23/-23 -25/-25/-25 -30/-30/-30
f -28/-28/-28 -23/-23/-23 -30/-30/-30
f -22/-22/-22 -23/-23/-23 -28/-28/-28
f -27/-27/-27 -22/-22/-22 -28/-28/-28
f -21/-21/-21 -22/-22/-22 -27/-27/-27
f -35/-35/-35 -21/-21/-21 -27/-27/-27
f -20/-20/-20 -21/-21/-21 -35/-35/-35
f -36/-36/-36 -20/-20/-20 -35/-35/-35
f -19/-19/-19 -20/-20/-20 -36/-36/-36
f -18/-18/-18 -19/-19/-19 -36/-36/-36
f -18/-18/-18 -36/-36/-36 -42/-42/-42
f -41/-41/-41 -18/-18/-18 -42/-42/-42
f -17/-17/-17 -18/-18/-18 -41/-41/-41
f -40/-40/-40 -17/-17/-17 -41/-41/-41
f -16/-16/-16 -17/-17/-17 -40/-40/-40
f -39/-39/-39 -16/-16/-16 -40/-40/-40
f -15/-15/-15 -16/-16/-16 -39/-39/-39
f -38/-38/-38 -15/-15/-15 -39/-39/-39
f -26/-26/-26 -15/-15/-15 -38/-38/-38
f -14/-14/-14 -19/-19/-19 -18/-18/-18
f -17/-17/-17 -14/-14/-14 -18/-18/-18
f -13/-13/-13 -14/-14/-14 -17/-17/-17
f -16/-16/-16 -13/-13/-13 -17/-17/-17
f -12/-12/-12 -13/-13/-13 -16/-16/-16
f -15/-15/-15 -12/-12/-12 -16/-16/-16
f -11/-11/-11 -12/-12/-12 -15/-15/-15
f -26/-26/-26 -11/-11/-11 -15/-15/-15
f -14/-14/-14 -10/-10/-10 -19/-19/-19
f -13/-13/-13 -9/-9/-9 -14/-14/-14
f -12/-12/-12 -8/-8/-8 -13/-13/-13
f -11/-11/-11 -7/-7/-7 -12/-12/-12
f -25/-25/-25 -6/-6/-6 -24/-24/-24
f -23/-23/-23 -5/-5/-5 -25/-25/-25
f -22/-22/-22 -4/-4/-4 -23/-23/-23
f -21/-21/-21 -3/-3/-3 -22/-22/-22
f -20/-20/-20 -2/-2/-2 -21/-21/-21
f -19/-19/-19 -1/-1/-1 -20/-20/-20

