# Mesh "Magic_Shelf" exported with Unity Assets Bundle Extractor; 64 vertices, 96 indices, 384 bits per vertex
g Magic_Shelf
# SubMesh 0
# Vertices
v -1.012054 -0.443859 0.301967
vt 0.001911 0.861662
vn -0.000000 0.000000 1.000000
v -1.012054 -0.375302 0.301967
vt 0.041614 0.861662
vn -0.000000 0.000000 1.000000
v 0.856838 -0.375302 0.301967
vt 0.041614 0.537584
vn -0.000000 0.000000 1.000000
v 0.856838 -0.443859 0.301967
vt 0.001911 0.537584
vn -0.000000 0.000000 1.000000
v -1.012054 -0.375302 0.301967
vt 0.041756 0.861662
vn -0.000000 1.000000 0.000000
v -1.012054 -0.375302 -0.032294
vt 0.145276 0.861662
vn -0.000000 1.000000 0.000000
v 0.856838 -0.375302 -0.032294
vt 0.145276 0.537584
vn -0.000000 1.000000 0.000000
v 0.856838 -0.375302 0.301967
vt 0.041756 0.537584
vn -0.000000 1.000000 0.000000
v -1.012054 -0.375302 -0.032294
vt 0.001723 0.861662
vn -0.000000 0.000000 -1.000000
v -1.012054 -0.443859 -0.032294
vt 0.041426 0.861662
vn -0.000000 0.000000 -1.000000
v 0.856838 -0.443859 -0.032294
vt 0.041426 0.537584
vn -0.000000 0.000000 -1.000000
v 0.856838 -0.375302 -0.032294
vt 0.001723 0.537584
vn -0.000000 0.000000 -1.000000
v -1.012054 -0.443859 -0.032294
vt 0.041231 0.861662
vn -0.000000 -1.000000 0.000000
v -1.012054 -0.443859 0.301967
vt 0.144750 0.861662
vn -0.000000 -1.000000 0.000000
v 0.856838 -0.443859 0.301967
vt 0.144750 0.537584
vn -0.000000 -1.000000 0.000000
v 0.856838 -0.443859 -0.032294
vt 0.041231 0.537584
vn -0.000000 -1.000000 0.000000
v 0.856838 -0.443859 0.301967
vt 0.613562 0.358987
vn 1.000000 0.000000 0.000000
v 0.856838 -0.375302 0.301967
vt 0.650099 0.358987
vn 1.000000 0.000000 0.000000
v 0.856838 -0.375302 -0.032294
vt 0.650099 0.180845
vn 1.000000 0.000000 0.000000
v 0.856838 -0.443859 -0.032294
vt 0.613562 0.180845
vn 1.000000 0.000000 0.000000
v -1.012054 -0.443859 -0.032294
vt 0.612908 0.358987
vn -1.000000 0.000000 0.000000
v -1.012054 -0.375302 -0.032294
vt 0.649446 0.358987
vn -1.000000 0.000000 0.000000
v -1.012054 -0.375302 0.301967
vt 0.649446 0.180845
vn -1.000000 0.000000 0.000000
v -1.012054 -0.443859 0.301967
vt 0.612908 0.180845
vn -1.000000 0.000000 0.000000
v -0.796860 -0.497122 0.255689
vt 0.613146 0.139182
vn -0.000000 0.000000 1.000000
v -0.796860 -0.428564 0.255689
vt 0.613146 0.175720
vn -0.000000 0.000000 1.000000
v -0.729976 -0.428564 0.255689
vt 0.648792 0.175720
vn -0.000000 0.000000 1.000000
v -0.729976 -0.497122 0.255689
vt 0.648792 0.139182
vn -0.000000 0.000000 1.000000
v -0.796860 -0.428564 0.255689
vt 0.614516 0.180845
vn -0.000000 1.000000 0.000000
v -0.796860 -0.428564 -0.078571
vt 0.614516 0.358987
vn -0.000000 1.000000 0.000000
v -0.729976 -0.428564 -0.078571
vt 0.650162 0.358987
vn -0.000000 1.000000 0.000000
v -0.729976 -0.428564 0.255689
vt 0.650162 0.180845
vn -0.000000 1.000000 0.000000
v -0.796860 -0.669881 -0.078571
vt 0.612722 0.180845
vn -0.000000 -0.888363 0.459141
v -0.796860 -0.497122 0.255689
vt 0.612722 0.358987
vn -0.000000 -0.888363 0.459141
v -0.729976 -0.497122 0.255689
vt 0.648368 0.358987
vn -0.000000 -0.888363 0.459141
v -0.729976 -0.669881 -0.078571
vt 0.648368 0.180845
vn -0.000000 -0.888363 0.459141
v -0.729976 -0.497122 0.255689
vt 0.736168 0.274638
vn 1.000000 0.000000 0.000000
v -0.729976 -0.428564 0.255689
vt 0.772705 0.274638
vn 1.000000 0.000000 0.000000
v -0.729976 -0.428564 -0.078571
vt 0.772705 0.096496
vn 1.000000 0.000000 0.000000
v -0.729976 -0.669881 -0.078571
vt 0.644097 0.096496
vn 1.000000 0.000000 0.000000
v -0.796860 -0.669881 -0.078571
vt 0.644127 0.098147
vn -1.000000 0.000000 0.000000
v -0.796860 -0.428564 -0.078571
vt 0.772735 0.098147
vn -1.000000 0.000000 0.000000
v -0.796860 -0.428564 0.255689
vt 0.772735 0.276289
vn -1.000000 0.000000 0.000000
v -0.796860 -0.497122 0.255689
vt 0.736198 0.276289
vn -1.000000 0.000000 0.000000
v 0.572390 -0.497122 0.255689
vt 0.614401 0.139182
vn -0.000000 0.000000 1.000000
v 0.572390 -0.428564 0.255689
vt 0.614401 0.175720
vn -0.000000 0.000000 1.000000
v 0.639275 -0.428564 0.255689
vt 0.650047 0.175720
vn -0.000000 0.000000 1.000000
v 0.639275 -0.497122 0.255689
vt 0.650047 0.139182
vn -0.000000 0.000000 1.000000
v 0.572390 -0.428564 0.255689
vt 0.613976 0.180845
vn -0.000000 1.000000 0.000000
v 0.572390 -0.428564 -0.078571
vt 0.613976 0.358987
vn -0.000000 1.000000 0.000000
v 0.639275 -0.428564 -0.078571
vt 0.649622 0.358987
vn -0.000000 1.000000 0.000000
v 0.639275 -0.428564 0.255689
vt 0.649622 0.180845
vn -0.000000 1.000000 0.000000
v 0.572390 -0.669881 -0.078571
vt 0.614215 0.180845
vn -0.000000 -0.888363 0.459142
v 0.572390 -0.497122 0.255689
vt 0.614215 0.358987
vn -0.000000 -0.888363 0.459142
v 0.639275 -0.497122 0.255689
vt 0.649861 0.358987
vn -0.000000 -0.888363 0.459142
v 0.639275 -0.669881 -0.078571
vt 0.649861 0.180845
vn -0.000000 -0.888363 0.459142
v 0.639275 -0.497122 0.255689
vt 0.734504 0.275654
vn 1.000000 0.000000 0.000000
v 0.639275 -0.428564 0.255689
vt 0.771041 0.275654
vn 1.000000 0.000000 0.000000
v 0.639275 -0.428564 -0.078571
vt 0.771041 0.097512
vn 1.000000 0.000000 0.000000
v 0.639275 -0.669881 -0.078571
vt 0.642433 0.097512
vn 1.000000 0.000000 0.000000
v 0.572390 -0.669881 -0.078571
vt 0.643085 0.098140
vn -1.000000 0.000000 0.000000
v 0.572390 -0.428564 -0.078571
vt 0.771693 0.098140
vn -1.000000 0.000000 0.000000
v 0.572390 -0.428564 0.255689
vt 0.771693 0.276282
vn -1.000000 0.000000 0.000000
v 0.572390 -0.497122 0.255689
vt 0.735156 0.276282
vn -1.000000 0.000000 0.000000
# Faces (1 to 64)
g Magic_Shelf_0
f -62/-62/-62 -63/-63/-63 -64/-64/-64
f -61/-61/-61 -62/-62/-62 -64/-64/-64
f -58/-58/-58 -59/-59/-59 -60/-60/-60
f -57/-57/-57 -58/-58/-58 -60/-60/-60
f -54/-54/-54 -55/-55/-55 -56/-56/-56
f -53/-53/-53 -54/-54/-54 -56/-56/-56
f -50/-50/-50 -51/-51/-51 -52/-52/-52
f -49/-49/-49 -50/-50/-50 -52/-52/-52
f -46/-46/-46 -47/-47/-47 -48/-48/-48
f -45/-45/-45 -46/-46/-46 -48/-48/-48
f -42/-42/-42 -43/-43/-43 -44/-44/-44
f -41/-41/-41 -42/-42/-42 -44/-44/-44
f -38/-38/-38 -39/-39/-39 -40/-40/-40
f -37/-37/-37 -38/-38/-38 -40/-40/-40
f -34/-34/-34 -35/-35/-35 -36/-36/-36
f -33/-33/-33 -34/-34/-34 -36/-36/-36
f -30/-30/-30 -31/-31/-31 -32/-32/-32
f -29/-29/-29 -30/-30/-30 -32/-32/-32
f -26/-26/-26 -27/-27/-27 -28/-28/-28
f -25/-25/-25 -26/-26/-26 -28/-28/-28
f -22/-22/-22 -23/-23/-23 -24/-24/-24
f -21/-21/-21 -22/-22/-22 -24/-24/-24
f -18/-18/-18 -19/-19/-19 -20/-20/-20
f -17/-17/-17 -18/-18/-18 -20/-20/-20
f -14/-14/-14 -15/-15/-15 -16/-16/-16
f -13/-13/-13 -14/-14/-14 -16/-16/-16
f -10/-10/-10 -11/-11/-11 -12/-12/-12
f -9/-9/-9 -10/-10/-10 -12/-12/-12
f -6/-6/-6 -7/-7/-7 -8/-8/-8
f -5/-5/-5 -6/-6/-6 -8/-8/-8
f -2/-2/-2 -3/-3/-3 -4/-4/-4
f -1/-1/-1 -2/-2/-2 -4/-4/-4

