# Mesh "Map_Skyscraper_B1" exported with Unity Assets Bundle Extractor; 20 vertices, 30 indices, 384 bits per vertex
g Map_Skyscraper_B1
# SubMesh 0
# Vertices
v -0.368628 -0.011545 0.368628
vt 0.719271 0.014991
vn -0.000000 0.142789 0.989753
v -0.152263 1.155666 0.152263
vt 0.719271 0.985009
vn -0.000000 0.142789 0.989753
v 0.152263 1.155666 0.152263
vt 0.980729 0.985009
vn -0.000000 0.142789 0.989753
v 0.368628 -0.011545 0.368628
vt 0.980729 0.014991
vn -0.000000 0.142789 0.989753
v -0.152263 1.155666 0.152263
vt 0.335260 0.635260
vn -0.000000 1.000000 0.000000
v -0.152263 1.155666 -0.152263
vt 0.335260 0.964740
vn -0.000000 1.000000 0.000000
v 0.152263 1.155666 -0.152263
vt 0.664740 0.964740
vn -0.000000 1.000000 0.000000
v 0.152263 1.155666 0.152263
vt 0.664740 0.635260
vn -0.000000 1.000000 0.000000
v -0.152263 1.155666 -0.152263
vt 0.980729 0.985009
vn -0.000000 0.142790 -0.989753
v -0.368628 -0.011545 -0.368628
vt 0.980729 0.014991
vn -0.000000 0.142789 -0.989753
v 0.368628 -0.011545 -0.368628
vt 0.719271 0.014991
vn -0.000000 0.142789 -0.989753
v 0.152263 1.155666 -0.152263
vt 0.719271 0.985009
vn -0.000000 0.142790 -0.989753
v 0.368628 -0.011545 0.368628
vt 0.719271 0.014991
vn 0.989753 0.142789 0.000000
v 0.152263 1.155666 0.152263
vt 0.719271 0.985009
vn 0.989753 0.142789 0.000000
v 0.152263 1.155666 -0.152263
vt 0.980729 0.985009
vn 0.989753 0.142789 0.000000
v 0.368628 -0.011545 -0.368628
vt 0.980729 0.014991
vn 0.989753 0.142789 0.000000
v -0.368628 -0.011545 -0.368628
vt 0.719271 0.014991
vn -0.989753 0.142790 0.000000
v -0.152263 1.155666 -0.152263
vt 0.719271 0.985009
vn -0.989753 0.142790 0.000000
v -0.152263 1.155666 0.152263
vt 0.980729 0.985009
vn -0.989753 0.142790 0.000000
v -0.368628 -0.011545 0.368628
vt 0.980729 0.014991
vn -0.989753 0.142790 0.000000
# Faces (1 to 20)
g Map_Skyscraper_B1_0
f -18/-18/-18 -19/-19/-19 -20/-20/-20
f -17/-17/-17 -18/-18/-18 -20/-20/-20
f -14/-14/-14 -15/-15/-15 -16/-16/-16
f -13/-13/-13 -14/-14/-14 -16/-16/-16
f -10/-10/-10 -11/-11/-11 -12/-12/-12
f -9/-9/-9 -10/-10/-10 -12/-12/-12
f -6/-6/-6 -7/-7/-7 -8/-8/-8
f -5/-5/-5 -6/-6/-6 -8/-8/-8
f -2/-2/-2 -3/-3/-3 -4/-4/-4
f -1/-1/-1 -2/-2/-2 -4/-4/-4

