# Mesh "Map_Tile_Bottom" exported with Unity Assets Bundle Extractor; 25 vertices, 72 indices, 384 bits per vertex
g Map_Tile_Bottom
# SubMesh 0
# Vertices
v -0.000061 -9.900000 -0.000000
vt 0.398314 0.605962
vn -0.000000 -1.000000 0.000000
v 28.243530 -9.900000 -50.949280
vt 0.254653 0.867712
vn -0.000000 -1.000000 0.000000
v 14.890625 -9.900000 -47.824341
vt 0.322573 0.851402
vn -0.000000 -1.000000 0.000000
v 31.992554 -9.900000 -36.848633
vt 0.235584 0.794115
vn -0.000000 -1.000000 0.000000
v 45.910767 -9.900000 -28.372742
vt 0.164789 0.749876
vn -0.000000 -1.000000 0.000000
v 53.049500 -9.900000 -15.834534
vt 0.128478 0.684434
vn -0.000000 -1.000000 0.000000
v 57.753479 -9.900000 -0.796387
vt 0.104551 0.605943
vn -0.000000 -1.000000 0.000000
v 52.125000 -9.900000 13.616760
vt 0.133180 0.530715
vn -0.000000 -1.000000 0.000000
v 42.520996 -9.900000 24.280029
vt 0.182031 0.475059
vn -0.000000 -1.000000 0.000000
v 38.463928 -9.900000 38.693176
vt 0.202667 0.399831
vn -0.000000 -1.000000 0.000000
v 28.243530 -9.900000 49.356567
vt 0.254653 0.344174
vn -0.000000 -1.000000 0.000000
v 14.890625 -9.900000 52.481445
vt 0.322573 0.327864
vn -0.000000 -1.000000 0.000000
v -0.311340 -9.900000 49.356567
vt 0.399898 0.344174
vn -0.000000 -1.000000 0.000000
v -14.588745 -9.900000 53.106323
vt 0.472520 0.324602
vn -0.000000 -1.000000 0.000000
v -28.866211 -9.900000 49.356567
vt 0.545141 0.344174
vn -0.000000 -1.000000 0.000000
v -33.610596 -9.900000 34.159485
vt 0.569274 0.423494
vn -0.000000 -1.000000 0.000000
v -40.749268 -9.900000 21.621216
vt 0.605585 0.488936
vn -0.000000 -1.000000 0.000000
v -54.667542 -9.900000 13.145264
vt 0.676380 0.533175
vn -0.000000 -1.000000 0.000000
v -58.416504 -9.900000 -0.955322
vt 0.695449 0.606773
vn -0.000000 -1.000000 0.000000
v -48.196167 -9.900000 -11.300720
vt 0.643464 0.660770
vn -0.000000 -1.000000 0.000000
v -44.139099 -9.900000 -25.713867
vt 0.622827 0.735998
vn -0.000000 -1.000000 0.000000
v -34.535034 -9.900000 -36.377136
vt 0.573976 0.791655
vn -0.000000 -1.000000 0.000000
v -28.866211 -9.900000 -50.949280
vt 0.545141 0.867712
vn -0.000000 -1.000000 0.000000
v -14.588745 -9.900000 -47.199463
vt 0.472520 0.848140
vn -0.000000 -1.000000 0.000000
v -0.311340 -9.900000 -50.949280
vt 0.399898 0.867712
vn -0.000000 -1.000000 0.000000
# Faces (1 to 25)
g Map_Tile_Bottom_0
f -23/-23/-23 -24/-24/-24 -25/-25/-25
f -22/-22/-22 -25/-25/-25 -24/-24/-24
f -22/-22/-22 -21/-21/-21 -25/-25/-25
f -21/-21/-21 -20/-20/-20 -25/-25/-25
f -20/-20/-20 -19/-19/-19 -25/-25/-25
f -18/-18/-18 -25/-25/-25 -19/-19/-19
f -18/-18/-18 -17/-17/-17 -25/-25/-25
f -17/-17/-17 -16/-16/-16 -25/-25/-25
f -16/-16/-16 -15/-15/-15 -25/-25/-25
f -14/-14/-14 -25/-25/-25 -15/-15/-15
f -14/-14/-14 -13/-13/-13 -25/-25/-25
f -13/-13/-13 -12/-12/-12 -25/-25/-25
f -12/-12/-12 -11/-11/-11 -25/-25/-25
f -10/-10/-10 -25/-25/-25 -11/-11/-11
f -10/-10/-10 -9/-9/-9 -25/-25/-25
f -9/-9/-9 -8/-8/-8 -25/-25/-25
f -8/-8/-8 -7/-7/-7 -25/-25/-25
f -6/-6/-6 -25/-25/-25 -7/-7/-7
f -6/-6/-6 -5/-5/-5 -25/-25/-25
f -5/-5/-5 -4/-4/-4 -25/-25/-25
f -4/-4/-4 -3/-3/-3 -25/-25/-25
f -2/-2/-2 -25/-25/-25 -3/-3/-3
f -2/-2/-2 -1/-1/-1 -25/-25/-25
f -1/-1/-1 -23/-23/-23 -25/-25/-25

