# Mesh "Map_Skyscraper_A3" exported with Unity Assets Bundle Extractor; 44 vertices, 78 indices, 384 bits per vertex
g Map_Skyscraper_A3
# SubMesh 0
# Vertices
v -0.268274 -0.945001 0.268274
vt 0.719271 0.014991
vn -0.000000 -0.028785 0.999586
v -0.326185 1.066039 0.326186
vt 0.719271 0.985009
vn -0.000000 -0.028785 0.999586
v 0.326185 1.066039 0.326186
vt 0.980729 0.985009
vn -0.000000 -0.028785 0.999586
v 0.268274 -0.945001 0.268274
vt 0.980729 0.014991
vn -0.000000 -0.028785 0.999586
v -0.261881 0.988553 0.261881
vt 0.335260 0.635260
vn -0.000000 1.000000 0.000000
v -0.261881 0.988553 -0.261881
vt 0.335260 0.964740
vn -0.000000 1.000000 0.000000
v 0.261881 0.988553 -0.261881
vt 0.664740 0.964740
vn -0.000000 1.000000 0.000000
v 0.261881 0.988553 0.261881
vt 0.664740 0.635260
vn -0.000000 1.000000 0.000000
v -0.326185 1.066039 -0.326186
vt 0.980729 0.985009
vn -0.000000 -0.028785 -0.999586
v -0.268274 -0.945001 -0.268274
vt 0.980729 0.014991
vn -0.000000 -0.028785 -0.999586
v 0.268274 -0.945001 -0.268274
vt 0.719271 0.014991
vn -0.000000 -0.028785 -0.999586
v 0.326185 1.066039 -0.326186
vt 0.719271 0.985009
vn -0.000000 -0.028785 -0.999586
v 0.268274 -0.945001 0.268274
vt 0.719271 0.014991
vn 0.999586 -0.028785 0.000000
v 0.326185 1.066039 0.326186
vt 0.719271 0.985009
vn 0.999586 -0.028785 0.000000
v 0.326185 1.066039 -0.326186
vt 0.980729 0.985009
vn 0.999586 -0.028785 0.000000
v 0.268274 -0.945001 -0.268274
vt 0.980729 0.014991
vn 0.999586 -0.028785 0.000000
v -0.268274 -0.945001 -0.268274
vt 0.719271 0.014991
vn -0.999586 -0.028785 0.000000
v -0.326185 1.066039 -0.326186
vt 0.719271 0.985009
vn -0.999586 -0.028785 0.000000
v -0.326185 1.066039 0.326186
vt 0.980729 0.985009
vn -0.999586 -0.028785 0.000000
v -0.268274 -0.945001 0.268274
vt 0.980729 0.014991
vn -0.999586 -0.028785 0.000000
v -0.326185 1.066039 0.326186
vt 0.335260 0.635260
vn -0.000000 1.000000 -0.000000
v -0.261881 1.066039 0.261881
vt 0.335260 0.635260
vn -0.000000 1.000000 -0.000000
v 0.261881 1.066039 0.261881
vt 0.664740 0.635260
vn -0.000000 1.000000 -0.000000
v 0.326185 1.066039 0.326186
vt 0.664740 0.635260
vn -0.000000 1.000000 -0.000000
v 0.261881 1.066039 -0.261881
vt 0.664740 0.964740
vn -0.000000 1.000000 0.000000
v 0.326185 1.066039 -0.326186
vt 0.664740 0.964740
vn -0.000000 1.000000 0.000000
v -0.261881 1.066039 -0.261881
vt 0.335260 0.964740
vn -0.000000 1.000000 0.000000
v -0.326185 1.066039 -0.326186
vt 0.335260 0.964740
vn -0.000000 1.000000 0.000000
v -0.261881 1.066039 0.261881
vt 0.335260 0.635260
vn -0.000000 0.000000 -1.000000
v -0.261881 0.988553 0.261881
vt 0.335260 0.635260
vn -0.000000 0.000000 -1.000000
v 0.261881 0.988553 0.261881
vt 0.664740 0.635260
vn -0.000000 0.000000 -1.000000
v 0.261881 1.066039 0.261881
vt 0.664740 0.635260
vn -0.000000 0.000000 -1.000000
v 0.261881 1.066039 0.261881
vt 0.664740 0.635260
vn -1.000000 0.000000 0.000000
v 0.261881 0.988553 0.261881
vt 0.664740 0.635260
vn -1.000000 0.000000 0.000000
v 0.261881 0.988553 -0.261881
vt 0.664740 0.964740
vn -1.000000 0.000000 0.000000
v 0.261881 1.066039 -0.261881
vt 0.664740 0.964740
vn -1.000000 0.000000 0.000000
v 0.261881 1.066039 -0.261881
vt 0.664740 0.964740
vn -0.000000 0.000000 1.000000
v 0.261881 0.988553 -0.261881
vt 0.664740 0.964740
vn -0.000000 0.000000 1.000000
v -0.261881 0.988553 -0.261881
vt 0.335260 0.964740
vn -0.000000 0.000000 1.000000
v -0.261881 1.066039 -0.261881
vt 0.335260 0.964740
vn -0.000000 0.000000 1.000000
v -0.261881 1.066039 -0.261881
vt 0.335260 0.964740
vn 1.000000 0.000000 0.000000
v -0.261881 0.988553 -0.261881
vt 0.335260 0.964740
vn 1.000000 0.000000 0.000000
v -0.261881 0.988553 0.261881
vt 0.335260 0.635260
vn 1.000000 0.000000 0.000000
v -0.261881 1.066039 0.261881
vt 0.335260 0.635260
vn 1.000000 0.000000 0.000000
# Faces (1 to 44)
g Map_Skyscraper_A3_0
f -42/-42/-42 -43/-43/-43 -44/-44/-44
f -41/-41/-41 -42/-42/-42 -44/-44/-44
f -38/-38/-38 -39/-39/-39 -40/-40/-40
f -37/-37/-37 -38/-38/-38 -40/-40/-40
f -34/-34/-34 -35/-35/-35 -36/-36/-36
f -33/-33/-33 -34/-34/-34 -36/-36/-36
f -30/-30/-30 -31/-31/-31 -32/-32/-32
f -29/-29/-29 -30/-30/-30 -32/-32/-32
f -26/-26/-26 -27/-27/-27 -28/-28/-28
f -25/-25/-25 -26/-26/-26 -28/-28/-28
f -22/-22/-22 -23/-23/-23 -24/-24/-24
f -21/-21/-21 -22/-22/-22 -24/-24/-24
f -20/-20/-20 -22/-22/-22 -21/-21/-21
f -19/-19/-19 -20/-20/-20 -21/-21/-21
f -18/-18/-18 -20/-20/-20 -19/-19/-19
f -17/-17/-17 -18/-18/-18 -19/-19/-19
f -23/-23/-23 -18/-18/-18 -17/-17/-17
f -24/-24/-24 -23/-23/-23 -17/-17/-17
f -14/-14/-14 -15/-15/-15 -16/-16/-16
f -13/-13/-13 -14/-14/-14 -16/-16/-16
f -10/-10/-10 -11/-11/-11 -12/-12/-12
f -9/-9/-9 -10/-10/-10 -12/-12/-12
f -6/-6/-6 -7/-7/-7 -8/-8/-8
f -5/-5/-5 -6/-6/-6 -8/-8/-8
f -2/-2/-2 -3/-3/-3 -4/-4/-4
f -1/-1/-1 -2/-2/-2 -4/-4/-4

