# Mesh "Map_Tile_Top" exported with Unity Assets Bundle Extractor; 25 vertices, 72 indices, 384 bits per vertex
g Map_Tile_Top
# SubMesh 0
# Vertices
v -0.000061 9.900000 -0.000000
vt 0.401262 0.560659
vn -0.000000 1.000000 0.000000
v 28.243530 9.900000 50.949219
vt 0.245090 0.845204
vn -0.000000 1.000000 0.000000
v 14.890625 9.900000 47.824341
vt 0.318925 0.827473
vn -0.000000 1.000000 0.000000
v 31.992554 9.900000 36.848633
vt 0.224361 0.765197
vn -0.000000 1.000000 0.000000
v 45.910767 9.900000 28.372742
vt 0.147400 0.717105
vn -0.000000 1.000000 0.000000
v 53.049500 9.900000 15.834534
vt 0.107927 0.645964
vn -0.000000 1.000000 0.000000
v 57.753479 9.900000 0.796387
vt 0.081916 0.560638
vn -0.000000 1.000000 0.000000
v 52.125000 9.900000 -13.616760
vt 0.113039 0.478859
vn -0.000000 1.000000 0.000000
v 42.520996 9.900000 -24.280029
vt 0.166143 0.418356
vn -0.000000 1.000000 0.000000
v 38.463928 9.900000 -38.693176
vt 0.188577 0.336576
vn -0.000000 1.000000 0.000000
v 28.243530 9.900000 -49.356506
vt 0.245090 0.276073
vn -0.000000 1.000000 0.000000
v 14.890625 9.900000 -52.481445
vt 0.318925 0.258342
vn -0.000000 1.000000 0.000000
v -0.311340 9.900000 -49.356506
vt 0.402983 0.276073
vn -0.000000 1.000000 0.000000
v -14.588745 9.900000 -53.106323
vt 0.481930 0.254796
vn -0.000000 1.000000 0.000000
v -28.866211 9.900000 -49.356506
vt 0.560876 0.276073
vn -0.000000 1.000000 0.000000
v -33.610596 9.900000 -34.159485
vt 0.587110 0.362300
vn -0.000000 1.000000 0.000000
v -40.749268 9.900000 -21.621216
vt 0.626583 0.433442
vn -0.000000 1.000000 0.000000
v -54.667542 9.900000 -13.145264
vt 0.703543 0.481533
vn -0.000000 1.000000 0.000000
v -58.416504 9.900000 0.955322
vt 0.724273 0.561540
vn -0.000000 1.000000 0.000000
v -48.196167 9.900000 11.300720
vt 0.667760 0.620240
vn -0.000000 1.000000 0.000000
v -44.139099 9.900000 25.713867
vt 0.645327 0.702019
vn -0.000000 1.000000 0.000000
v -34.535034 9.900000 36.377136
vt 0.592221 0.762522
vn -0.000000 1.000000 0.000000
v -28.866211 9.900000 50.949219
vt 0.560876 0.845204
vn -0.000000 1.000000 0.000000
v -14.588745 9.900000 47.199463
vt 0.481930 0.823927
vn -0.000000 1.000000 0.000000
v -0.311340 9.900000 50.949219
vt 0.402983 0.845204
vn -0.000000 1.000000 0.000000
# Faces (1 to 25)
g Map_Tile_Top_0
f -23/-23/-23 -24/-24/-24 -25/-25/-25
f -22/-22/-22 -25/-25/-25 -24/-24/-24
f -22/-22/-22 -21/-21/-21 -25/-25/-25
f -21/-21/-21 -20/-20/-20 -25/-25/-25
f -20/-20/-20 -19/-19/-19 -25/-25/-25
f -18/-18/-18 -25/-25/-25 -19/-19/-19
f -18/-18/-18 -17/-17/-17 -25/-25/-25
f -17/-17/-17 -16/-16/-16 -25/-25/-25
f -16/-16/-16 -15/-15/-15 -25/-25/-25
f -14/-14/-14 -25/-25/-25 -15/-15/-15
f -14/-14/-14 -13/-13/-13 -25/-25/-25
f -13/-13/-13 -12/-12/-12 -25/-25/-25
f -12/-12/-12 -11/-11/-11 -25/-25/-25
f -10/-10/-10 -25/-25/-25 -11/-11/-11
f -10/-10/-10 -9/-9/-9 -25/-25/-25
f -9/-9/-9 -8/-8/-8 -25/-25/-25
f -8/-8/-8 -7/-7/-7 -25/-25/-25
f -6/-6/-6 -25/-25/-25 -7/-7/-7
f -6/-6/-6 -5/-5/-5 -25/-25/-25
f -5/-5/-5 -4/-4/-4 -25/-25/-25
f -4/-4/-4 -3/-3/-3 -25/-25/-25
f -2/-2/-2 -25/-25/-25 -3/-3/-3
f -2/-2/-2 -1/-1/-1 -25/-25/-25
f -1/-1/-1 -23/-23/-23 -25/-25/-25

