# Mesh "Map_Tree_City_A" exported with Unity Assets Bundle Extractor; 123 vertices, 180 indices, 384 bits per vertex
g Map_Tree_City_A
# SubMesh 0
# Vertices
v 0.161295 0.387574 -0.052408
vt 0.501297 0.500000
vn 0.883964 0.368941 -0.287211
v -0.000001 0.814821 0.000000
vt 0.751297 1.000000
vn -0.000004 1.000000 0.000003
v 0.137206 0.387574 -0.099686
vt 0.526297 0.500000
vn 0.751950 0.368943 -0.546308
v -0.000001 0.814821 0.000000
vt 0.751297 1.000000
vn -0.000004 1.000000 0.000003
v 0.099686 0.387574 -0.137206
vt 0.551297 0.500000
vn 0.546309 0.368951 -0.751945
v -0.000001 0.814821 0.000000
vt 0.751297 1.000000
vn -0.000004 1.000000 0.000003
v 0.052408 0.387574 -0.161295
vt 0.576297 0.500000
vn 0.287203 0.368950 -0.883963
v -0.000001 0.814821 0.000000
vt 0.751297 1.000000
vn -0.000004 1.000000 0.000003
v -0.000001 0.387574 -0.169596
vt 0.601297 0.500000
vn -0.000000 0.368947 -0.929451
v -0.000001 0.814821 0.000000
vt 0.751297 1.000000
vn -0.000004 1.000000 0.000003
v -0.052408 0.387574 -0.161295
vt 0.626297 0.500000
vn -0.287214 0.368945 -0.883961
v -0.000001 0.814821 0.000000
vt 0.751297 1.000000
vn -0.000004 1.000000 0.000003
v -0.099686 0.387574 -0.137206
vt 0.651297 0.500000
vn -0.546310 0.368944 -0.751948
v -0.000001 0.814821 0.000000
vt 0.751297 1.000000
vn -0.000004 1.000000 0.000003
v -0.137206 0.387574 -0.099686
vt 0.676297 0.500000
vn -0.751947 0.368943 -0.546312
v -0.000001 0.814821 0.000000
vt 0.751297 1.000000
vn -0.000004 1.000000 0.000003
v -0.161294 0.387574 -0.052408
vt 0.701297 0.500000
vn -0.883963 0.368941 -0.287215
v -0.000001 0.814821 0.000000
vt 0.751297 1.000000
vn -0.000004 1.000000 0.000003
v -0.169596 0.387574 0.000000
vt 0.726297 0.500000
vn -0.929450 0.368947 0.000000
v -0.000001 0.814821 0.000000
vt 0.751297 1.000000
vn -0.000004 1.000000 0.000003
v -0.161294 0.387574 0.052408
vt 0.751297 0.500000
vn -0.883960 0.368945 0.287219
v -0.000001 0.814821 0.000000
vt 0.751297 1.000000
vn -0.000004 1.000000 0.000003
v -0.137206 0.387574 0.099686
vt 0.776297 0.500000
vn -0.751947 0.368942 0.546312
v -0.000001 0.814821 0.000000
vt 0.751297 1.000000
vn -0.000004 1.000000 0.000003
v -0.099686 0.387574 0.137206
vt 0.801297 0.500000
vn -0.546316 0.368943 0.751944
v -0.000001 0.814821 0.000000
vt 0.751297 1.000000
vn -0.000004 1.000000 0.000003
v -0.052408 0.387574 0.161295
vt 0.826297 0.500000
vn -0.287214 0.368945 0.883961
v -0.000001 0.814821 0.000000
vt 0.751297 1.000000
vn -0.000004 1.000000 0.000003
v -0.000001 0.387574 0.169595
vt 0.851297 0.500000
vn -0.000000 0.368943 0.929452
v -0.000001 0.814821 0.000000
vt 0.751297 1.000000
vn -0.000004 1.000000 0.000003
v 0.052408 0.387574 0.161295
vt 0.876297 0.500000
vn 0.287211 0.368945 0.883962
v -0.000001 0.814821 0.000000
vt 0.751297 1.000000
vn -0.000004 1.000000 0.000003
v 0.099686 0.387574 0.137206
vt 0.901297 0.500000
vn 0.546315 0.368950 0.751942
v -0.000001 0.814821 0.000000
vt 0.751297 1.000000
vn -0.000004 1.000000 0.000003
v 0.137206 0.387574 0.099686
vt 0.926297 0.500000
vn 0.751947 0.368943 0.546312
v -0.000001 0.814821 0.000000
vt 0.751297 1.000000
vn -0.000004 1.000000 0.000003
v 0.161295 0.387574 0.052408
vt 0.951297 0.500000
vn 0.883961 0.368944 0.287215
v -0.000001 0.814821 0.000000
vt 0.751297 1.000000
vn -0.000004 1.000000 0.000003
v 0.169595 0.387574 0.000000
vt 0.976297 0.500000
vn 0.929450 0.368949 0.000000
v -0.000001 0.814821 0.000000
vt 0.751297 1.000000
vn -0.000004 1.000000 0.000003
v 0.161295 0.387574 -0.052408
vt 1.001297 0.500000
vn 0.883964 0.368941 -0.287211
v 0.203359 0.216526 -0.066075
vt 0.501297 0.207658
vn 0.815504 0.514534 -0.264966
v -0.000001 0.572862 0.000000
vt 0.751297 0.592342
vn 0.000001 1.000000 -0.000000
v 0.172988 0.216526 -0.125683
vt 0.526297 0.207658
vn 0.693709 0.514536 -0.504005
v -0.000001 0.572862 0.000000
vt 0.751297 0.592342
vn 0.000001 1.000000 -0.000000
v 0.125683 0.216526 -0.172988
vt 0.551297 0.207658
vn 0.504000 0.514538 -0.693711
v -0.000001 0.572862 0.000000
vt 0.751297 0.592342
vn 0.000001 1.000000 -0.000000
v 0.066075 0.216526 -0.203359
vt 0.576297 0.207658
vn 0.264969 0.514538 -0.815501
v -0.000001 0.572862 0.000000
vt 0.751297 0.592342
vn 0.000001 1.000000 -0.000000
v -0.000001 0.216526 -0.213824
vt 0.601297 0.207658
vn -0.000000 0.514536 -0.857469
v -0.000001 0.572862 0.000000
vt 0.751297 0.592342
vn 0.000001 1.000000 -0.000000
v -0.066075 0.216526 -0.203359
vt 0.626297 0.207658
vn -0.264972 0.514534 -0.815503
v -0.000001 0.572862 0.000000
vt 0.751297 0.592342
vn 0.000001 1.000000 -0.000000
v -0.125683 0.216526 -0.172988
vt 0.651297 0.207658
vn -0.504002 0.514537 -0.693710
v -0.000001 0.572862 0.000000
vt 0.751297 0.592342
vn 0.000001 1.000000 -0.000000
v -0.172988 0.216526 -0.125683
vt 0.676297 0.207658
vn -0.693709 0.514535 -0.504005
v -0.000001 0.572862 0.000000
vt 0.751297 0.592342
vn 0.000001 1.000000 -0.000000
v -0.203359 0.216526 -0.066075
vt 0.701297 0.207658
vn -0.815505 0.514531 -0.264970
v -0.000001 0.572862 0.000000
vt 0.751297 0.592342
vn 0.000001 1.000000 -0.000000
v -0.213824 0.216526 0.000000
vt 0.726297 0.207658
vn -0.857470 0.514534 0.000000
v -0.000001 0.572862 0.000000
vt 0.751297 0.592342
vn 0.000001 1.000000 -0.000000
v -0.203359 0.216526 0.066075
vt 0.751297 0.207658
vn -0.815503 0.514533 0.264974
v -0.000001 0.572862 0.000000
vt 0.751297 0.592342
vn 0.000001 1.000000 -0.000000
v -0.172988 0.216526 0.125682
vt 0.776297 0.207658
vn -0.693710 0.514534 0.504005
v -0.000001 0.572862 0.000000
vt 0.751297 0.592342
vn 0.000001 1.000000 -0.000000
v -0.125683 0.216526 0.172988
vt 0.801297 0.207658
vn -0.504012 0.514536 0.693704
v -0.000001 0.572862 0.000000
vt 0.751297 0.592342
vn 0.000001 1.000000 -0.000000
v -0.066075 0.216526 0.203359
vt 0.826297 0.207658
vn -0.264965 0.514535 0.815504
v -0.000001 0.572862 0.000000
vt 0.751297 0.592342
vn 0.000001 1.000000 -0.000000
v -0.000001 0.216526 0.213824
vt 0.851297 0.207658
vn 0.000000 0.514531 0.857472
v -0.000001 0.572862 0.000000
vt 0.751297 0.592342
vn 0.000001 1.000000 -0.000000
v 0.066075 0.216526 0.203359
vt 0.876297 0.207658
vn 0.264964 0.514531 0.815507
v -0.000001 0.572862 0.000000
vt 0.751297 0.592342
vn 0.000001 1.000000 -0.000000
v 0.125683 0.216526 0.172988
vt 0.901297 0.207658
vn 0.504012 0.514532 0.693707
v -0.000001 0.572862 0.000000
vt 0.751297 0.592342
vn 0.000001 1.000000 -0.000000
v 0.172988 0.216526 0.125682
vt 0.926297 0.207658
vn 0.693711 0.514532 0.504006
v -0.000001 0.572862 0.000000
vt 0.751297 0.592342
vn 0.000001 1.000000 -0.000000
v 0.203359 0.216526 0.066075
vt 0.951297 0.207658
vn 0.815502 0.514536 0.264970
v -0.000001 0.572862 0.000000
vt 0.751297 0.592342
vn 0.000001 1.000000 -0.000000
v 0.213824 0.216526 0.000000
vt 0.976297 0.207658
vn 0.857468 0.514537 0.000000
v -0.000001 0.572862 0.000000
vt 0.751297 0.592342
vn 0.000001 1.000000 -0.000000
v 0.203359 0.216526 -0.066075
vt 1.001297 0.207658
vn 0.815504 0.514534 -0.264966
v 0.236764 0.061348 -0.076929
vt 0.501297 0.010216
vn 0.755480 0.607449 -0.245469
v -0.000001 0.386898 0.000000
vt 0.751297 0.289784
vn -0.000001 1.000000 -0.000000
v 0.201403 0.061348 -0.146328
vt 0.526297 0.010216
vn 0.642655 0.607446 -0.466908
v -0.000001 0.386898 0.000000
vt 0.751297 0.289784
vn -0.000001 1.000000 -0.000000
v 0.146329 0.061348 -0.201403
vt 0.551297 0.010216
vn 0.466914 0.607447 -0.642650
v -0.000001 0.386898 0.000000
vt 0.751297 0.289784
vn -0.000001 1.000000 -0.000000
v 0.076929 0.061348 -0.236764
vt 0.576297 0.010216
vn 0.245462 0.607445 -0.755486
v -0.000001 0.386898 0.000000
vt 0.751297 0.289784
vn -0.000001 1.000000 -0.000000
v -0.000001 0.061348 -0.248948
vt 0.601297 0.010216
vn 0.000001 0.607450 -0.794358
v -0.000001 0.386898 0.000000
vt 0.751297 0.289784
vn -0.000001 1.000000 -0.000000
v -0.076929 0.061348 -0.236764
vt 0.626297 0.010216
vn -0.245462 0.607454 -0.755479
v -0.000001 0.386898 0.000000
vt 0.751297 0.289784
vn -0.000001 1.000000 -0.000000
v -0.146329 0.061348 -0.201403
vt 0.651297 0.010216
vn -0.466913 0.607448 -0.642651
v -0.000001 0.386898 0.000000
vt 0.751297 0.289784
vn -0.000001 1.000000 -0.000000
v -0.201403 0.061348 -0.146328
vt 0.676297 0.010216
vn -0.642659 0.607441 -0.466910
v -0.000001 0.386898 0.000000
vt 0.751297 0.289784
vn -0.000001 1.000000 -0.000000
v -0.236764 0.061348 -0.076929
vt 0.701297 0.010216
vn -0.755482 0.607446 -0.245473
v -0.000001 0.386898 0.000000
vt 0.751297 0.289784
vn -0.000001 1.000000 -0.000000
v -0.248948 0.061348 0.000000
vt 0.726297 0.010216
vn -0.794359 0.607448 0.000000
v -0.000001 0.386898 0.000000
vt 0.751297 0.289784
vn -0.000001 1.000000 -0.000000
v -0.236764 0.061348 0.076929
vt 0.751297 0.010216
vn -0.755483 0.607445 0.245473
v -0.000001 0.386898 0.000000
vt 0.751297 0.289784
vn -0.000001 1.000000 -0.000000
v -0.201403 0.061348 0.146328
vt 0.776297 0.010216
vn -0.642651 0.607447 0.466913
v -0.000001 0.386898 0.000000
vt 0.751297 0.289784
vn -0.000001 1.000000 -0.000000
v -0.146329 0.061348 0.201403
vt 0.801297 0.010216
vn -0.466909 0.607448 0.642654
v -0.000001 0.386898 0.000000
vt 0.751297 0.289784
vn -0.000001 1.000000 -0.000000
v -0.076929 0.061348 0.236763
vt 0.826297 0.010216
vn -0.245475 0.607446 0.755481
v -0.000001 0.386898 0.000000
vt 0.751297 0.289784
vn -0.000001 1.000000 -0.000000
v -0.000001 0.061348 0.248948
vt 0.851297 0.010216
vn 0.000000 0.607448 0.794359
v -0.000001 0.386898 0.000000
vt 0.751297 0.289784
vn -0.000001 1.000000 -0.000000
v 0.076929 0.061348 0.236763
vt 0.876297 0.010216
vn 0.245473 0.607447 0.755481
v -0.000001 0.386898 0.000000
vt 0.751297 0.289784
vn -0.000001 1.000000 -0.000000
v 0.146329 0.061348 0.201403
vt 0.901297 0.010216
vn 0.466910 0.607449 0.642652
v -0.000001 0.386898 0.000000
vt 0.751297 0.289784
vn -0.000001 1.000000 -0.000000
v 0.201403 0.061348 0.146328
vt 0.926297 0.010216
vn 0.642651 0.607448 0.466911
v -0.000001 0.386898 0.000000
vt 0.751297 0.289784
vn -0.000001 1.000000 -0.000000
v 0.236763 0.061348 0.076929
vt 0.951297 0.010216
vn 0.755483 0.607446 0.245470
v -0.000001 0.386898 0.000000
vt 0.751297 0.289784
vn -0.000001 1.000000 -0.000000
v 0.248948 0.061348 0.000000
vt 0.976297 0.010216
vn 0.794359 0.607448 0.000003
v -0.000001 0.386898 0.000000
vt 0.751297 0.289784
vn -0.000001 1.000000 -0.000000
v 0.236764 0.061348 -0.076929
vt 1.001297 0.010216
vn 0.755480 0.607449 -0.245469
# Faces (1 to 123)
g Map_Tree_City_A_0
f -121/-121/-121 -122/-122/-122 -123/-123/-123
f -119/-119/-119 -120/-120/-120 -121/-121/-121
f -117/-117/-117 -118/-118/-118 -119/-119/-119
f -115/-115/-115 -116/-116/-116 -117/-117/-117
f -113/-113/-113 -114/-114/-114 -115/-115/-115
f -111/-111/-111 -112/-112/-112 -113/-113/-113
f -109/-109/-109 -110/-110/-110 -111/-111/-111
f -107/-107/-107 -108/-108/-108 -109/-109/-109
f -105/-105/-105 -106/-106/-106 -107/-107/-107
f -103/-103/-103 -104/-104/-104 -105/-105/-105
f -101/-101/-101 -102/-102/-102 -103/-103/-103
f -99/-99/-99 -100/-100/-100 -101/-101/-101
f -97/-97/-97 -98/-98/-98 -99/-99/-99
f -95/-95/-95 -96/-96/-96 -97/-97/-97
f -93/-93/-93 -94/-94/-94 -95/-95/-95
f -91/-91/-91 -92/-92/-92 -93/-93/-93
f -89/-89/-89 -90/-90/-90 -91/-91/-91
f -87/-87/-87 -88/-88/-88 -89/-89/-89
f -85/-85/-85 -86/-86/-86 -87/-87/-87
f -83/-83/-83 -84/-84/-84 -85/-85/-85
f -80/-80/-80 -81/-81/-81 -82/-82/-82
f -78/-78/-78 -79/-79/-79 -80/-80/-80
f -76/-76/-76 -77/-77/-77 -78/-78/-78
f -74/-74/-74 -75/-75/-75 -76/-76/-76
f -72/-72/-72 -73/-73/-73 -74/-74/-74
f -70/-70/-70 -71/-71/-71 -72/-72/-72
f -68/-68/-68 -69/-69/-69 -70/-70/-70
f -66/-66/-66 -67/-67/-67 -68/-68/-68
f -64/-64/-64 -65/-65/-65 -66/-66/-66
f -62/-62/-62 -63/-63/-63 -64/-64/-64
f -60/-60/-60 -61/-61/-61 -62/-62/-62
f -58/-58/-58 -59/-59/-59 -60/-60/-60
f -56/-56/-56 -57/-57/-57 -58/-58/-58
f -54/-54/-54 -55/-55/-55 -56/-56/-56
f -52/-52/-52 -53/-53/-53 -54/-54/-54
f -50/-50/-50 -51/-51/-51 -52/-52/-52
f -48/-48/-48 -49/-49/-49 -50/-50/-50
f -46/-46/-46 -47/-47/-47 -48/-48/-48
f -44/-44/-44 -45/-45/-45 -46/-46/-46
f -42/-42/-42 -43/-43/-43 -44/-44/-44
f -39/-39/-39 -40/-40/-40 -41/-41/-41
f -37/-37/-37 -38/-38/-38 -39/-39/-39
f -35/-35/-35 -36/-36/-36 -37/-37/-37
f -33/-33/-33 -34/-34/-34 -35/-35/-35
f -31/-31/-31 -32/-32/-32 -33/-33/-33
f -29/-29/-29 -30/-30/-30 -31/-31/-31
f -27/-27/-27 -28/-28/-28 -29/-29/-29
f -25/-25/-25 -26/-26/-26 -27/-27/-27
f -23/-23/-23 -24/-24/-24 -25/-25/-25
f -21/-21/-21 -22/-22/-22 -23/-23/-23
f -19/-19/-19 -20/-20/-20 -21/-21/-21
f -17/-17/-17 -18/-18/-18 -19/-19/-19
f -15/-15/-15 -16/-16/-16 -17/-17/-17
f -13/-13/-13 -14/-14/-14 -15/-15/-15
f -11/-11/-11 -12/-12/-12 -13/-13/-13
f -9/-9/-9 -10/-10/-10 -11/-11/-11
f -7/-7/-7 -8/-8/-8 -9/-9/-9
f -5/-5/-5 -6/-6/-6 -7/-7/-7
f -3/-3/-3 -4/-4/-4 -5/-5/-5
f -1/-1/-1 -2/-2/-2 -3/-3/-3

