# Mesh "MapWindTurbine_Shaft" exported with Unity Assets Bundle Extractor; 77 vertices, 180 indices, 384 bits per vertex
g MapWindTurbine_Shaft
# SubMesh 0
# Vertices
v 0.096107 0.000000 -0.055487
vt 0.375000 0.312500
vn 0.865462 0.036070 -0.499674
v 0.051095 1.440000 -0.029500
vt 0.375000 0.688440
vn 0.865462 0.036070 -0.499674
v 0.029500 1.440000 -0.051095
vt 0.395833 0.688440
vn 0.499675 0.036070 -0.865462
v 0.055487 0.000000 -0.096107
vt 0.395833 0.312500
vn 0.499675 0.036070 -0.865462
v -0.000000 1.440000 -0.059000
vt 0.416667 0.688440
vn -0.000000 0.036070 -0.999349
v -0.000000 0.000000 -0.110975
vt 0.416667 0.312500
vn -0.000000 0.036070 -0.999349
v -0.029500 1.440000 -0.051095
vt 0.437500 0.688440
vn -0.499675 0.036070 -0.865462
v -0.055487 0.000000 -0.096107
vt 0.437500 0.312500
vn -0.499675 0.036070 -0.865462
v -0.051095 1.440000 -0.029500
vt 0.458333 0.688440
vn -0.865462 0.036070 -0.499674
v -0.096107 0.000000 -0.055487
vt 0.458333 0.312500
vn -0.865462 0.036070 -0.499674
v -0.058999 1.440000 0.000000
vt 0.479167 0.688440
vn -0.999349 0.036070 0.000000
v -0.110975 0.000000 0.000000
vt 0.479167 0.312500
vn -0.999349 0.036070 0.000000
v -0.051095 1.440000 0.029500
vt 0.500000 0.688440
vn -0.865462 0.036070 0.499674
v -0.096107 0.000000 0.055487
vt 0.500000 0.312500
vn -0.865462 0.036070 0.499674
v -0.029500 1.440000 0.051095
vt 0.520833 0.688440
vn -0.499674 0.036070 0.865462
v -0.055487 0.000000 0.096107
vt 0.520833 0.312500
vn -0.499674 0.036070 0.865462
v -0.000000 1.440000 0.058999
vt 0.541667 0.688440
vn -0.000000 0.036070 0.999349
v -0.000000 0.000000 0.110975
vt 0.541667 0.312500
vn -0.000000 0.036070 0.999349
v 0.029500 1.440000 0.051095
vt 0.562500 0.688440
vn 0.499674 0.036070 0.865462
v 0.055487 0.000000 0.096107
vt 0.562500 0.312500
vn 0.499674 0.036070 0.865462
v 0.051095 1.440000 0.029500
vt 0.583333 0.688440
vn 0.865462 0.036070 0.499674
v 0.096107 0.000000 0.055487
vt 0.583333 0.312500
vn 0.865462 0.036070 0.499674
v 0.058999 1.440000 0.000000
vt 0.604167 0.688440
vn 0.999349 0.036070 0.000000
v 0.110975 0.000000 0.000000
vt 0.604167 0.312500
vn 0.999349 0.036070 0.000000
v 0.051095 1.440000 -0.029500
vt 0.625000 0.688440
vn 0.865462 0.036070 -0.499674
v 0.096107 0.000000 -0.055487
vt 0.625000 0.312500
vn 0.865462 0.036070 -0.499674
v 0.055487 0.000000 -0.096107
vt 0.578125 0.020934
vn 0.000000 -1.000000 -0.000000
v -0.000000 -0.000000 0.000000
vt 0.500000 0.150000
vn -0.000000 -1.000000 0.000000
v 0.096107 0.000000 -0.055487
vt 0.635316 0.078125
vn 0.000000 -1.000000 -0.000000
v -0.000000 0.000000 -0.110975
vt 0.500000 0.000000
vn -0.000000 -1.000000 -0.000000
v -0.055487 0.000000 -0.096107
vt 0.421875 0.020934
vn -0.000000 -1.000000 -0.000000
v -0.096107 0.000000 -0.055487
vt 0.364684 0.078125
vn -0.000000 -1.000000 -0.000000
v -0.110975 0.000000 0.000000
vt 0.343750 0.156250
vn -0.000000 -1.000000 0.000000
v -0.096107 0.000000 0.055487
vt 0.364684 0.234375
vn -0.000000 -1.000000 0.000000
v -0.055487 0.000000 0.096107
vt 0.421875 0.291566
vn -0.000000 -1.000000 0.000000
v -0.000000 0.000000 0.110975
vt 0.500000 0.312500
vn -0.000000 -1.000000 0.000000
v 0.055487 0.000000 0.096107
vt 0.578125 0.291566
vn 0.000000 -1.000000 0.000000
v 0.096107 0.000000 0.055487
vt 0.635316 0.234375
vn 0.000000 -1.000000 0.000000
v 0.110975 0.000000 0.000000
vt 0.656250 0.156250
vn 0.000000 -1.000000 0.000000
v 0.051095 1.440000 -0.029500
vt 0.635316 0.921875
vn -0.000000 1.000000 0.000000
v -0.000000 1.440000 0.000000
vt 0.500000 0.837500
vn -0.000000 1.000000 0.000000
v 0.029500 1.440000 -0.051095
vt 0.578125 0.979066
vn -0.000000 1.000000 0.000000
v -0.000000 1.440000 -0.059000
vt 0.500000 1.000000
vn -0.000000 1.000000 0.000000
v -0.029500 1.440000 -0.051095
vt 0.421875 0.979066
vn -0.000000 1.000000 0.000000
v -0.051095 1.440000 -0.029500
vt 0.364684 0.921875
vn -0.000000 1.000000 0.000000
v -0.058999 1.440000 0.000000
vt 0.343750 0.843750
vn -0.000000 1.000000 0.000000
v -0.051095 1.440000 0.029500
vt 0.364684 0.765625
vn -0.000000 1.000000 0.000000
v -0.029500 1.440000 0.051095
vt 0.421875 0.708434
vn -0.000000 1.000000 0.000000
v -0.000000 1.440000 0.058999
vt 0.500000 0.687500
vn -0.000000 1.000000 0.000000
v 0.029500 1.440000 0.051095
vt 0.578125 0.708434
vn -0.000000 1.000000 0.000000
v 0.051095 1.440000 0.029500
vt 0.635316 0.765625
vn -0.000000 1.000000 0.000000
v 0.058999 1.440000 0.000000
vt 0.656250 0.843750
vn -0.000000 1.000000 0.000000
v -0.326270 1.375982 0.075801
vt 0.375000 0.000000
vn -0.054252 0.000000 0.998527
v -0.326270 1.505635 0.075801
vt 0.375000 0.250000
vn -0.054252 0.000000 0.998527
v 0.111697 1.522408 0.099597
vt 0.625000 0.250000
vn -0.054252 0.000000 0.998527
v 0.111697 1.359209 0.099597
vt 0.625000 0.000000
vn -0.054252 0.000000 0.998527
v -0.326270 1.505635 0.075801
vt 0.375000 0.250000
vn -0.038269 0.999268 0.000000
v -0.326270 1.505635 -0.075901
vt 0.375000 0.500000
vn -0.038269 0.999268 0.000000
v 0.111697 1.522408 -0.099697
vt 0.625000 0.500000
vn -0.038269 0.999268 0.000000
v -0.326270 1.505635 0.075801
vt 0.375000 0.250000
vn -0.038269 0.999268 0.000000
v 0.111697 1.522408 0.099597
vt 0.625000 0.250000
vn -0.038269 0.999268 0.000000
v -0.326270 1.505635 -0.075901
vt 0.375000 0.500000
vn -0.054252 0.000000 -0.998527
v -0.326270 1.375982 -0.075901
vt 0.375000 0.750000
vn -0.054252 0.000000 -0.998527
v 0.111697 1.359209 -0.099697
vt 0.625000 0.750000
vn -0.054252 0.000000 -0.998527
v 0.111697 1.522408 -0.099697
vt 0.625000 0.500000
vn -0.054252 0.000000 -0.998527
v -0.326270 1.375982 -0.075901
vt 0.375000 0.750000
vn -0.038269 -0.999268 0.000000
v -0.326270 1.375982 0.075801
vt 0.375000 1.000000
vn -0.038269 -0.999268 0.000000
v 0.111697 1.359209 0.099597
vt 0.625000 1.000000
vn -0.038269 -0.999268 0.000000
v 0.111697 1.359209 -0.099697
vt 0.625000 0.750000
vn -0.038269 -0.999268 0.000000
v 0.111697 1.359209 0.099597
vt 0.625000 0.000000
vn 1.000000 0.000000 0.000000
v 0.111697 1.522408 0.099597
vt 0.625000 0.250000
vn 1.000000 0.000000 0.000000
v 0.111697 1.522408 -0.099697
vt 0.875000 0.250000
vn 1.000000 0.000000 0.000000
v 0.111697 1.359209 -0.099697
vt 0.875000 0.000000
vn 1.000000 0.000000 0.000000
v -0.326270 1.375982 -0.075901
vt 0.125000 0.000000
vn -1.000000 0.000000 0.000000
v -0.326270 1.505635 -0.075901
vt 0.125000 0.250000
vn -1.000000 0.000000 0.000000
v -0.326270 1.505635 0.075801
vt 0.375000 0.250000
vn -1.000000 0.000000 0.000000
v -0.326270 1.375982 0.075801
vt 0.375000 0.000000
vn -1.000000 0.000000 0.000000
# Faces (1 to 77)
g MapWindTurbine_Shaft_0
f -75/-75/-75 -76/-76/-76 -77/-77/-77
f -74/-74/-74 -75/-75/-75 -77/-77/-77
f -73/-73/-73 -75/-75/-75 -74/-74/-74
f -72/-72/-72 -73/-73/-73 -74/-74/-74
f -71/-71/-71 -73/-73/-73 -72/-72/-72
f -70/-70/-70 -71/-71/-71 -72/-72/-72
f -69/-69/-69 -71/-71/-71 -70/-70/-70
f -68/-68/-68 -69/-69/-69 -70/-70/-70
f -67/-67/-67 -69/-69/-69 -68/-68/-68
f -66/-66/-66 -67/-67/-67 -68/-68/-68
f -65/-65/-65 -67/-67/-67 -66/-66/-66
f -64/-64/-64 -65/-65/-65 -66/-66/-66
f -63/-63/-63 -65/-65/-65 -64/-64/-64
f -62/-62/-62 -63/-63/-63 -64/-64/-64
f -61/-61/-61 -63/-63/-63 -62/-62/-62
f -60/-60/-60 -61/-61/-61 -62/-62/-62
f -59/-59/-59 -61/-61/-61 -60/-60/-60
f -58/-58/-58 -59/-59/-59 -60/-60/-60
f -57/-57/-57 -59/-59/-59 -58/-58/-58
f -56/-56/-56 -57/-57/-57 -58/-58/-58
f -55/-55/-55 -57/-57/-57 -56/-56/-56
f -54/-54/-54 -55/-55/-55 -56/-56/-56
f -53/-53/-53 -55/-55/-55 -54/-54/-54
f -52/-52/-52 -53/-53/-53 -54/-54/-54
f -49/-49/-49 -50/-50/-50 -51/-51/-51
f -51/-51/-51 -50/-50/-50 -48/-48/-48
f -48/-48/-48 -50/-50/-50 -47/-47/-47
f -47/-47/-47 -50/-50/-50 -46/-46/-46
f -46/-46/-46 -50/-50/-50 -45/-45/-45
f -45/-45/-45 -50/-50/-50 -44/-44/-44
f -44/-44/-44 -50/-50/-50 -43/-43/-43
f -43/-43/-43 -50/-50/-50 -42/-42/-42
f -42/-42/-42 -50/-50/-50 -41/-41/-41
f -41/-41/-41 -50/-50/-50 -40/-40/-40
f -40/-40/-40 -50/-50/-50 -39/-39/-39
f -39/-39/-39 -50/-50/-50 -49/-49/-49
f -36/-36/-36 -37/-37/-37 -38/-38/-38
f -35/-35/-35 -37/-37/-37 -36/-36/-36
f -34/-34/-34 -37/-37/-37 -35/-35/-35
f -33/-33/-33 -37/-37/-37 -34/-34/-34
f -32/-32/-32 -37/-37/-37 -33/-33/-33
f -31/-31/-31 -37/-37/-37 -32/-32/-32
f -30/-30/-30 -37/-37/-37 -31/-31/-31
f -29/-29/-29 -37/-37/-37 -30/-30/-30
f -28/-28/-28 -37/-37/-37 -29/-29/-29
f -27/-27/-27 -37/-37/-37 -28/-28/-28
f -26/-26/-26 -37/-37/-37 -27/-27/-27
f -38/-38/-38 -37/-37/-37 -26/-26/-26
f -23/-23/-23 -24/-24/-24 -25/-25/-25
f -22/-22/-22 -23/-23/-23 -25/-25/-25
f -19/-19/-19 -20/-20/-20 -21/-21/-21
f -17/-17/-17 -19/-19/-19 -18/-18/-18
f -14/-14/-14 -15/-15/-15 -16/-16/-16
f -13/-13/-13 -14/-14/-14 -16/-16/-16
f -10/-10/-10 -11/-11/-11 -12/-12/-12
f -9/-9/-9 -10/-10/-10 -12/-12/-12
f -6/-6/-6 -7/-7/-7 -8/-8/-8
f -5/-5/-5 -6/-6/-6 -8/-8/-8
f -2/-2/-2 -3/-3/-3 -4/-4/-4
f -1/-1/-1 -2/-2/-2 -4/-4/-4

