# Mesh "Onion_Recipebook" exported with Unity Assets Bundle Extractor; 140 vertices, 324 indices, 384 bits per vertex
g Onion_Recipebook
# SubMesh 0
# Vertices
v -0.008261 0.002524 0.010431
vt 0.071601 0.682334
vn -0.000000 0.000000 1.000000
v -0.008367 0.003241 0.010431
vt 0.037401 0.680642
vn -0.000000 0.000000 1.000000
v 0.009016 0.003241 0.010431
vt 0.037400 0.957734
vn -0.000000 0.000000 1.000000
v 0.009102 0.002524 0.010431
vt 0.071601 0.959110
vn -0.000000 0.000000 1.000000
v -0.008191 0.001808 0.010431
vt 0.105798 0.683455
vn -0.000000 0.000000 1.000000
v 0.009102 0.001808 0.010431
vt 0.105798 0.959110
vn -0.000000 0.000000 1.000000
v -0.008261 0.001092 0.010431
vt 0.139996 0.682334
vn -0.000000 0.000000 1.000000
v 0.009102 0.001092 0.010431
vt 0.139996 0.959110
vn -0.000000 0.000000 1.000000
v -0.008367 0.000376 0.010431
vt 0.174195 0.680642
vn -0.000000 0.000000 1.000000
v 0.009016 0.000376 0.010431
vt 0.174195 0.957734
vn -0.000000 0.000000 1.000000
v -0.009075 0.003625 0.010741
vt 0.520082 0.951487
vn -0.000000 1.000000 0.000000
v -0.009075 0.003625 -0.010741
vt 0.520082 0.576372
vn -0.000000 1.000000 0.000000
v 0.009075 0.003625 -0.010741
vt 0.203139 0.576372
vn 0.006720 0.999977 0.000000
v 0.009075 0.003625 0.010741
vt 0.203139 0.951487
vn 0.006720 0.999977 0.000000
v -0.008367 0.003241 -0.010431
vt 0.035227 0.338458
vn -0.000000 0.000000 -1.000000
v -0.008261 0.002524 -0.010431
vt 0.069434 0.336765
vn -0.000000 0.000000 -1.000000
v 0.009102 0.002524 -0.010431
vt 0.069434 0.059988
vn -0.000000 0.000000 -1.000000
v 0.009016 0.003241 -0.010431
vt 0.035227 0.061365
vn -0.000000 0.000000 -1.000000
v 0.009102 0.001808 -0.010431
vt 0.103628 0.059988
vn -0.000000 0.000000 -1.000000
v -0.008191 0.001808 -0.010431
vt 0.103628 0.335646
vn -0.000000 0.000000 -1.000000
v 0.009102 0.001092 -0.010431
vt 0.137821 0.059988
vn -0.000000 0.000000 -1.000000
v -0.008261 0.001092 -0.010431
vt 0.137821 0.336765
vn -0.000000 0.000000 -1.000000
v 0.009016 0.000376 -0.010431
vt 0.172028 0.061365
vn -0.000000 0.000000 -1.000000
v -0.008367 0.000376 -0.010431
vt 0.172028 0.338458
vn -0.000000 0.000000 -1.000000
v -0.009075 -0.000009 -0.010741
vt 0.866906 0.952451
vn -0.000000 -1.000000 0.000000
v -0.009075 -0.000009 0.010741
vt 0.866906 0.575999
vn -0.000000 -1.000000 0.000000
v 0.009075 -0.000009 0.010741
vt 0.548835 0.575999
vn 0.006720 -0.999977 0.000000
v 0.009075 -0.000009 -0.010741
vt 0.548835 0.952451
vn 0.006720 -0.999977 0.000000
v 0.009880 0.002475 0.010741
vt 0.945829 0.961829
vn 0.995587 0.093846 0.000000
v 0.009783 0.003142 0.010741
vt 0.958182 0.961829
vn 0.964790 0.263022 0.000000
v 0.009783 0.003142 -0.010741
vt 0.958182 0.563863
vn 0.964790 0.263021 0.000000
v 0.009880 0.002475 -0.010741
vt 0.945829 0.563863
vn 0.995587 0.093846 0.000000
v 0.009600 0.003500 -0.010741
vt 0.964809 0.563863
vn 0.563947 0.825811 0.000000
v 0.009600 0.003500 0.010741
vt 0.964809 0.961829
vn 0.563945 0.825812 0.000000
v 0.009909 0.001808 0.010741
vt 0.933475 0.961829
vn 1.000000 0.000000 0.000000
v 0.009909 0.001808 -0.010741
vt 0.933475 0.563863
vn 1.000000 0.000000 0.000000
v 0.009880 0.001141 0.010741
vt 0.921121 0.961829
vn 0.995587 -0.093846 0.000000
v 0.009880 0.001141 -0.010741
vt 0.921121 0.563863
vn 0.995587 -0.093846 0.000000
v 0.009783 0.000475 0.010741
vt 0.908769 0.961829
vn 0.964790 -0.263021 0.000000
v 0.009783 0.000475 -0.010741
vt 0.908767 0.563863
vn 0.964790 -0.263020 0.000000
v 0.009600 0.000117 0.010741
vt 0.902140 0.961829
vn 0.563944 -0.825813 0.000000
v 0.009600 0.000117 -0.010741
vt 0.902140 0.563863
vn 0.563945 -0.825812 0.000000
v -0.008261 0.002524 -0.010431
vt 0.068606 0.341960
vn -0.992497 -0.122271 0.000000
v -0.008367 0.003241 -0.010431
vt 0.034406 0.341960
vn -0.989199 -0.146580 0.000000
v -0.008367 0.003241 0.010431
vt 0.034406 0.674498
vn -0.989199 -0.146580 0.000000
v -0.008261 0.002524 0.010431
vt 0.068606 0.674498
vn -0.992497 -0.122271 0.000000
v -0.008191 0.001808 -0.010431
vt 0.102803 0.341960
vn -1.000000 0.000000 0.000000
v -0.008191 0.001808 0.010431
vt 0.102803 0.674498
vn -1.000000 0.000000 0.000000
v -0.008261 0.001092 -0.010431
vt 0.137003 0.341960
vn -0.992497 0.122271 0.000000
v -0.008261 0.001092 0.010431
vt 0.137003 0.674498
vn -0.992497 0.122271 0.000000
v -0.008367 0.000376 -0.010431
vt 0.171200 0.341960
vn -0.989199 0.146580 0.000000
v -0.008367 0.000376 0.010431
vt 0.171200 0.674498
vn -0.989199 0.146580 0.000000
v 0.009075 0.003625 0.010741
vt 0.885554 0.051042
vn -0.000000 -0.000012 1.000000
v 0.009075 0.003241 0.010741
vt 0.876068 0.051042
vn -0.000000 -0.000012 1.000000
v -0.009075 0.003241 0.010741
vt 0.876068 0.498999
vn -0.000000 -0.000012 1.000000
v -0.009075 0.003625 0.010741
vt 0.885554 0.499001
vn -0.000000 -0.000012 1.000000
v 0.009783 0.003142 0.010741
vt 0.873626 0.033574
vn -0.000000 -0.000003 1.000000
v 0.009880 0.002475 0.010741
vt 0.857168 0.031188
vn 0.000001 0.000000 1.000000
v 0.009162 0.002524 0.010741
vt 0.858390 0.048911
vn 0.000001 0.000000 1.000000
v 0.009600 0.003500 0.010741
vt 0.882456 0.038082
vn -0.000004 -0.000013 1.000000
v 0.009162 0.001808 0.010741
vt 0.840711 0.048911
vn 0.000001 0.000000 1.000000
v 0.009909 0.001808 0.010741
vt 0.840711 0.030473
vn 0.000001 0.000000 1.000000
v 0.009880 0.001141 0.010741
vt 0.824254 0.031188
vn -0.000000 0.000000 1.000000
v 0.009162 0.001092 0.010741
vt 0.823033 0.048911
vn -0.000000 0.000000 1.000000
v 0.009075 0.000376 0.010741
vt 0.805355 0.051042
vn -0.000000 0.000012 1.000000
v 0.009783 0.000475 0.010741
vt 0.807798 0.033574
vn -0.000001 0.000003 1.000000
v 0.009600 0.000117 0.010741
vt 0.798966 0.038082
vn -0.000004 0.000013 1.000000
v 0.009075 -0.000009 0.010741
vt 0.795869 0.051042
vn -0.000000 0.000012 1.000000
v -0.009075 -0.000009 0.010741
vt 0.795869 0.499001
vn -0.000000 0.000012 1.000000
v -0.009075 0.000376 0.010741
vt 0.805355 0.498999
vn -0.000000 0.000012 1.000000
v -0.009075 0.003625 -0.010741
vt 0.888972 0.499003
vn -0.000000 0.000000 -1.000000
v -0.009075 0.003241 -0.010741
vt 0.898463 0.499003
vn -0.000000 0.000000 -1.000000
v 0.009075 0.003241 -0.010741
vt 0.898463 0.051047
vn -0.000000 0.000000 -1.000000
v 0.009075 0.003625 -0.010741
vt 0.888972 0.051047
vn -0.000000 0.000000 -1.000000
v 0.009600 0.003500 -0.010741
vt 0.892068 0.038082
vn 0.000000 0.000000 -1.000000
v 0.009783 0.003142 -0.010741
vt 0.900900 0.033579
vn -0.000000 0.000000 -1.000000
v 0.009880 0.002475 -0.010741
vt 0.917358 0.031190
vn -0.000000 0.000000 -1.000000
v 0.009162 0.002524 -0.010741
vt 0.916139 0.048913
vn -0.000000 0.000000 -1.000000
v 0.009162 0.001808 -0.010741
vt 0.933816 0.048913
vn -0.000000 0.000000 -1.000000
v 0.009909 0.001808 -0.010741
vt 0.933816 0.030476
vn -0.000000 0.000000 -1.000000
v 0.009880 0.001141 -0.010741
vt 0.950274 0.031190
vn 0.000000 0.000000 -1.000000
v 0.009162 0.001092 -0.010741
vt 0.951492 0.048913
vn 0.000000 0.000000 -1.000000
v 0.009075 0.000376 -0.010741
vt 0.969169 0.051047
vn -0.000000 0.000000 -1.000000
v 0.009783 0.000475 -0.010741
vt 0.966732 0.033579
vn 0.000000 0.000000 -1.000000
v 0.009075 -0.000009 -0.010741
vt 0.978660 0.051047
vn -0.000000 0.000000 -1.000000
v -0.009075 0.000376 -0.010741
vt 0.969169 0.499003
vn -0.000000 0.000000 -1.000000
v -0.009075 -0.000009 -0.010741
vt 0.978660 0.499003
vn -0.000000 0.000000 -1.000000
v 0.009600 0.000117 -0.010741
vt 0.975563 0.038082
vn -0.000001 0.000000 -1.000000
v -0.009075 0.003625 0.010741
vt 0.780042 0.030473
vn -1.000000 -0.000025 0.000000
v -0.009075 0.003241 0.010741
vt 0.770556 0.030473
vn -1.000000 -0.000025 0.000000
v -0.009075 0.003241 -0.010741
vt 0.770556 0.560652
vn -1.000000 -0.000025 0.000000
v -0.009075 0.003625 -0.010741
vt 0.780042 0.560652
vn -1.000000 -0.000025 0.000000
v -0.009075 -0.000009 -0.010741
vt 0.783261 0.560653
vn -1.000000 0.000025 0.000000
v -0.009075 0.000376 -0.010741
vt 0.792747 0.560653
vn -1.000000 0.000025 0.000000
v -0.009075 0.000376 0.010741
vt 0.792747 0.030473
vn -1.000000 0.000025 0.000000
v -0.009075 -0.000009 0.010741
vt 0.783261 0.030473
vn -1.000000 0.000025 0.000000
v 0.009075 0.003625 -0.010741
vt 0.976903 0.563862
vn 0.006720 0.999977 0.000000
v 0.009600 0.003500 -0.010741
vt 0.967175 0.563862
vn 0.563947 0.825811 0.000000
v 0.009600 0.003500 0.010741
vt 0.967175 0.961828
vn 0.563945 0.825812 0.000000
v 0.009075 0.003625 0.010741
vt 0.976903 0.961828
vn 0.006720 0.999977 0.000000
v 0.009075 -0.000009 0.010741
vt 0.890660 0.960856
vn 0.006720 -0.999977 0.000000
v 0.009600 0.000117 0.010741
vt 0.900388 0.960856
vn 0.563944 -0.825813 0.000000
v 0.009600 0.000117 -0.010741
vt 0.900388 0.562890
vn 0.563945 -0.825812 0.000000
v 0.009075 -0.000009 -0.010741
vt 0.890660 0.562890
vn 0.006720 -0.999977 0.000000
v 0.009102 0.002524 0.010431
vt 0.195871 0.075825
vn -0.980268 -0.059501 0.188504
v 0.009016 0.003241 0.010431
vt 0.195871 0.093252
vn -0.035275 -0.999355 0.006783
v 0.009075 0.003241 0.010741
vt 0.203421 0.093252
vn -0.046212 -0.998892 0.008886
v 0.009162 0.002524 0.010741
vt 0.203421 0.075825
vn -0.980317 -0.058654 0.188514
v 0.009162 0.001808 0.010741
vt 0.203421 0.058397
vn -0.982008 0.000000 0.188839
v 0.009102 0.001808 0.010431
vt 0.195871 0.058397
vn -0.982008 0.000000 0.188839
v 0.009102 0.001092 0.010431
vt 0.195871 0.040969
vn -0.980268 0.059501 0.188504
v 0.009162 0.001092 0.010741
vt 0.203421 0.040969
vn -0.980317 0.058654 0.188514
v 0.009075 0.000376 0.010741
vt 0.203421 0.023542
vn -0.046212 0.998892 0.008886
v 0.009016 0.000376 0.010431
vt 0.195871 0.023542
vn -0.035275 0.999355 0.006783
v 0.009075 0.003241 0.010741
vt 0.654766 0.544155
vn -0.046212 -0.998892 0.008886
v 0.009016 0.003241 0.010431
vt 0.653314 0.536605
vn -0.035275 -0.999355 0.006783
v -0.008367 0.003241 0.010431
vt 0.230376 0.536605
vn -0.000000 -1.000000 0.000000
v -0.009075 0.003241 0.010741
vt 0.213156 0.544155
vn -0.000000 -1.000000 0.000000
v -0.008367 0.003241 -0.010431
vt 0.230376 0.029038
vn -0.000000 -1.000000 0.000000
v -0.009075 0.003241 -0.010741
vt 0.213156 0.021488
vn -0.000000 -1.000000 0.000000
v 0.009016 0.003241 -0.010431
vt 0.653314 0.029038
vn -0.000000 -1.000000 0.000000
v 0.009075 0.003241 -0.010741
vt 0.654766 0.021488
vn -0.000000 -1.000000 0.000000
v 0.009075 0.003241 -0.010741
vt 0.183018 0.093252
vn -0.975200 -0.117547 -0.187530
v 0.009016 0.003241 -0.010431
vt 0.190568 0.093252
vn -0.975200 -0.117547 -0.187530
v 0.009102 0.002524 -0.010431
vt 0.190568 0.075825
vn -0.980268 -0.059501 -0.188505
v 0.009162 0.002524 -0.010741
vt 0.183018 0.075825
vn -0.980317 -0.058654 -0.188514
v 0.009162 0.001808 -0.010741
vt 0.183018 0.058397
vn -0.982008 0.000000 -0.188840
v 0.009102 0.001808 -0.010431
vt 0.190568 0.058397
vn -0.982008 0.000000 -0.188840
v 0.009102 0.001092 -0.010431
vt 0.190568 0.040969
vn -0.980268 0.059501 -0.188505
v 0.009162 0.001092 -0.010741
vt 0.183018 0.040969
vn -0.980317 0.058654 -0.188514
v 0.009075 0.000376 -0.010741
vt 0.183018 0.023542
vn -0.975200 0.117547 -0.187530
v 0.009016 0.000376 -0.010431
vt 0.190568 0.023542
vn -0.975200 0.117547 -0.187530
v -0.009075 0.000376 0.010741
vt 0.208726 0.023543
vn -0.000000 1.000000 -0.000000
v -0.008367 0.000376 0.010431
vt 0.225946 0.031091
vn -0.000000 1.000000 -0.000000
v 0.009016 0.000376 0.010431
vt 0.648885 0.031091
vn -0.035275 0.999355 0.006783
v 0.009075 0.000376 0.010741
vt 0.650336 0.023543
vn -0.046212 0.998892 0.008886
v -0.009075 0.000376 -0.010741
vt 0.208726 0.546208
vn -0.000000 1.000000 0.000000
v -0.008367 0.000376 -0.010431
vt 0.225946 0.538660
vn -0.000000 1.000000 0.000000
v 0.009075 0.000376 -0.010741
vt 0.650336 0.546208
vn -0.000000 1.000000 0.000000
v 0.009016 0.000376 -0.010431
vt 0.648885 0.538660
vn -0.000000 1.000000 0.000000
# Faces (1 to 140)
g Onion_Recipebook_0
f -138/-138/-138 -139/-139/-139 -140/-140/-140
f -137/-137/-137 -138/-138/-138 -140/-140/-140
f -137/-137/-137 -140/-140/-140 -136/-136/-136
f -135/-135/-135 -137/-137/-137 -136/-136/-136
f -135/-135/-135 -136/-136/-136 -134/-134/-134
f -133/-133/-133 -135/-135/-135 -134/-134/-134
f -133/-133/-133 -134/-134/-134 -132/-132/-132
f -131/-131/-131 -133/-133/-133 -132/-132/-132
f -128/-128/-128 -129/-129/-129 -130/-130/-130
f -127/-127/-127 -128/-128/-128 -130/-130/-130
f -124/-124/-124 -125/-125/-125 -126/-126/-126
f -123/-123/-123 -124/-124/-124 -126/-126/-126
f -124/-124/-124 -122/-122/-122 -125/-125/-125
f -122/-122/-122 -121/-121/-121 -125/-125/-125
f -122/-122/-122 -120/-120/-120 -121/-121/-121
f -120/-120/-120 -119/-119/-119 -121/-121/-121
f -120/-120/-120 -118/-118/-118 -119/-119/-119
f -118/-118/-118 -117/-117/-117 -119/-119/-119
f -114/-114/-114 -115/-115/-115 -116/-116/-116
f -113/-113/-113 -114/-114/-114 -116/-116/-116
f -110/-110/-110 -111/-111/-111 -112/-112/-112
f -109/-109/-109 -110/-110/-110 -112/-112/-112
f -111/-111/-111 -110/-110/-110 -108/-108/-108
f -107/-107/-107 -111/-111/-111 -108/-108/-108
f -109/-109/-109 -112/-112/-112 -106/-106/-106
f -105/-105/-105 -109/-109/-109 -106/-106/-106
f -105/-105/-105 -106/-106/-106 -104/-104/-104
f -103/-103/-103 -105/-105/-105 -104/-104/-104
f -103/-103/-103 -104/-104/-104 -102/-102/-102
f -101/-101/-101 -103/-103/-103 -102/-102/-102
f -101/-101/-101 -102/-102/-102 -100/-100/-100
f -99/-99/-99 -101/-101/-101 -100/-100/-100
f -96/-96/-96 -97/-97/-97 -98/-98/-98
f -95/-95/-95 -96/-96/-96 -98/-98/-98
f -95/-95/-95 -98/-98/-98 -94/-94/-94
f -93/-93/-93 -95/-95/-95 -94/-94/-94
f -93/-93/-93 -94/-94/-94 -92/-92/-92
f -91/-91/-91 -93/-93/-93 -92/-92/-92
f -91/-91/-91 -92/-92/-92 -90/-90/-90
f -89/-89/-89 -91/-91/-91 -90/-90/-90
f -86/-86/-86 -87/-87/-87 -88/-88/-88
f -85/-85/-85 -86/-86/-86 -88/-88/-88
f -87/-87/-87 -84/-84/-84 -88/-88/-88
f -83/-83/-83 -84/-84/-84 -87/-87/-87
f -82/-82/-82 -83/-83/-83 -87/-87/-87
f -84/-84/-84 -81/-81/-81 -88/-88/-88
f -82/-82/-82 -80/-80/-80 -83/-83/-83
f -80/-80/-80 -79/-79/-79 -83/-83/-83
f -78/-78/-78 -79/-79/-79 -80/-80/-80
f -77/-77/-77 -78/-78/-78 -80/-80/-80
f -77/-77/-77 -76/-76/-76 -78/-78/-78
f -76/-76/-76 -75/-75/-75 -78/-78/-78
f -74/-74/-74 -75/-75/-75 -76/-76/-76
f -73/-73/-73 -74/-74/-74 -76/-76/-76
f -73/-73/-73 -76/-76/-76 -72/-72/-72
f -76/-76/-76 -71/-71/-71 -72/-72/-72
f -68/-68/-68 -69/-69/-69 -70/-70/-70
f -67/-67/-67 -68/-68/-68 -70/-70/-70
f -67/-67/-67 -66/-66/-66 -68/-68/-68
f -66/-66/-66 -65/-65/-65 -68/-68/-68
f -68/-68/-68 -65/-65/-65 -64/-64/-64
f -63/-63/-63 -68/-68/-68 -64/-64/-64
f -63/-63/-63 -64/-64/-64 -62/-62/-62
f -64/-64/-64 -61/-61/-61 -62/-62/-62
f -62/-62/-62 -61/-61/-61 -60/-60/-60
f -59/-59/-59 -62/-62/-62 -60/-60/-60
f -59/-59/-59 -60/-60/-60 -58/-58/-58
f -60/-60/-60 -57/-57/-57 -58/-58/-58
f -58/-58/-58 -57/-57/-57 -56/-56/-56
f -55/-55/-55 -58/-58/-58 -56/-56/-56
f -54/-54/-54 -55/-55/-55 -56/-56/-56
f -57/-57/-57 -53/-53/-53 -56/-56/-56
f -50/-50/-50 -51/-51/-51 -52/-52/-52
f -49/-49/-49 -50/-50/-50 -52/-52/-52
f -46/-46/-46 -47/-47/-47 -48/-48/-48
f -45/-45/-45 -46/-46/-46 -48/-48/-48
f -42/-42/-42 -43/-43/-43 -44/-44/-44
f -41/-41/-41 -42/-42/-42 -44/-44/-44
f -38/-38/-38 -39/-39/-39 -40/-40/-40
f -37/-37/-37 -38/-38/-38 -40/-40/-40
f -34/-34/-34 -35/-35/-35 -36/-36/-36
f -33/-33/-33 -34/-34/-34 -36/-36/-36
f -33/-33/-33 -36/-36/-36 -32/-32/-32
f -36/-36/-36 -31/-31/-31 -32/-32/-32
f -32/-32/-32 -31/-31/-31 -30/-30/-30
f -29/-29/-29 -32/-32/-32 -30/-30/-30
f -29/-29/-29 -30/-30/-30 -28/-28/-28
f -30/-30/-30 -27/-27/-27 -28/-28/-28
f -24/-24/-24 -25/-25/-25 -26/-26/-26
f -23/-23/-23 -24/-24/-24 -26/-26/-26
f -22/-22/-22 -24/-24/-24 -23/-23/-23
f -21/-21/-21 -22/-22/-22 -23/-23/-23
f -20/-20/-20 -22/-22/-22 -21/-21/-21
f -19/-19/-19 -20/-20/-20 -21/-21/-21
f -16/-16/-16 -17/-17/-17 -18/-18/-18
f -15/-15/-15 -16/-16/-16 -18/-18/-18
f -15/-15/-15 -14/-14/-14 -16/-16/-16
f -14/-14/-14 -13/-13/-13 -16/-16/-16
f -12/-12/-12 -13/-13/-13 -14/-14/-14
f -11/-11/-11 -12/-12/-12 -14/-14/-14
f -11/-11/-11 -10/-10/-10 -12/-12/-12
f -10/-10/-10 -9/-9/-9 -12/-12/-12
f -6/-6/-6 -7/-7/-7 -8/-8/-8
f -5/-5/-5 -6/-6/-6 -8/-8/-8
f -8/-8/-8 -7/-7/-7 -4/-4/-4
f -7/-7/-7 -3/-3/-3 -4/-4/-4
f -4/-4/-4 -3/-3/-3 -2/-2/-2
f -3/-3/-3 -1/-1/-1 -2/-2/-2

