# Mesh "Path_Straight" exported with Unity Assets Bundle Extractor; 56 vertices, 84 indices, 384 bits per vertex
g Path_Straight
# SubMesh 0
# Vertices
v -0.987317 -0.114798 -0.318112
vt 0.004987 0.300000
vn -0.500000 0.000000 0.866025
v -0.987317 0.063812 -0.318112
vt 0.004987 0.400000
vn -0.497831 0.000000 0.867274
v -0.107814 0.063812 0.186739
vt 0.995013 0.400000
vn -0.497831 0.000000 0.867274
v -0.107814 -0.114798 0.186739
vt 0.995013 0.300000
vn -0.497831 0.000000 0.867274
v -0.935634 0.114798 -0.407631
vt 0.004987 0.550000
vn -0.000000 1.000000 0.000000
v -0.820834 0.114798 -0.606466
vt 0.004987 0.750000
vn -0.000000 1.000000 0.000000
v 0.057399 0.114798 -0.099418
vt 0.995013 0.750000
vn -0.000000 1.000000 0.000000
v -0.057399 0.114798 0.099418
vt 0.995013 0.550000
vn -0.000000 1.000000 0.000000
v -0.774069 0.063812 -0.687467
vt 0.004987 0.900000
vn 0.495793 0.000000 -0.868440
v -0.774069 -0.114798 -0.687467
vt 0.004987 1.000000
vn 0.500000 0.000000 -0.866026
v 0.106624 -0.114798 -0.184678
vt 0.995013 1.000000
vn 0.495793 0.000000 -0.868440
v 0.106624 0.063812 -0.184678
vt 0.995013 0.900000
vn 0.495793 0.000000 -0.868440
v -0.935634 0.063812 -0.407631
vt 0.004987 0.500000
vn -0.500000 0.000000 0.866025
v -0.935634 0.114798 -0.407631
vt 0.004987 0.550000
vn -0.500000 0.000000 0.866025
v -0.057399 0.114798 0.099418
vt 0.995013 0.550000
vn -0.500000 0.000000 0.866025
v -0.057399 0.063812 0.099418
vt 0.995013 0.500000
vn -0.500000 0.000000 0.866025
v -0.820834 0.114798 -0.606466
vt 0.004987 0.750000
vn 0.500000 0.000000 -0.866026
v -0.820834 0.063812 -0.606466
vt 0.004987 0.800000
vn 0.500000 0.000000 -0.866025
v 0.057399 0.063812 -0.099418
vt 0.995013 0.800000
vn 0.500000 0.000000 -0.866025
v 0.057399 0.114798 -0.099418
vt 0.995013 0.750000
vn 0.500000 0.000000 -0.866025
v -0.107814 0.063812 0.186739
vt 0.995013 0.400000
vn -0.000000 1.000000 0.000000
v -0.987317 0.063812 -0.318112
vt 0.004987 0.400000
vn -0.000000 1.000000 0.000000
v -0.935634 0.063812 -0.407631
vt 0.004987 0.500000
vn -0.000000 1.000000 0.000000
v -0.057399 0.063812 0.099418
vt 0.995013 0.500000
vn -0.000000 1.000000 0.000000
v -0.820834 0.063812 -0.606466
vt 0.004987 0.800000
vn -0.000000 1.000000 -0.000000
v -0.774069 0.063812 -0.687467
vt 0.004987 0.900000
vn -0.000000 1.000000 -0.000000
v 0.106624 0.063812 -0.184678
vt 0.995013 0.900000
vn -0.000000 1.000000 -0.000000
v 0.057399 0.063812 -0.099418
vt 0.995013 0.800000
vn -0.000000 1.000000 -0.000000
v -0.107814 0.063812 0.186739
vt 0.004987 0.400000
vn -0.497831 0.000000 0.867274
v 0.771689 0.063812 0.691590
vt 1.000000 0.400000
vn -0.497831 0.000000 0.867274
v 0.771689 -0.114798 0.691590
vt 1.000000 0.300000
vn -0.500000 0.000000 0.866025
v -0.107814 -0.114798 0.186739
vt 0.004987 0.300000
vn -0.497831 0.000000 0.867274
v 0.820836 0.063812 0.606467
vt 1.000000 0.500000
vn -0.000000 1.000000 0.000000
v 0.771689 0.063812 0.691590
vt 1.000000 0.400000
vn -0.000000 1.000000 0.000000
v -0.107814 0.063812 0.186739
vt 0.004987 0.400000
vn -0.000000 1.000000 0.000000
v -0.057399 0.063812 0.099418
vt 0.004987 0.500000
vn -0.000000 1.000000 0.000000
v -0.057399 0.114798 0.099418
vt 0.004987 0.550000
vn -0.500000 0.000000 0.866026
v 0.820836 0.114798 0.606467
vt 1.000000 0.550000
vn -0.500000 0.000000 0.866025
v 0.820836 0.063812 0.606467
vt 1.000000 0.500000
vn -0.500000 0.000000 0.866026
v -0.057399 0.063812 0.099418
vt 0.004987 0.500000
vn -0.500000 0.000000 0.866026
v 0.057399 0.114798 -0.099418
vt 0.004987 0.750000
vn -0.000000 1.000000 0.000000
v 0.935634 0.114798 0.407630
vt 1.000000 0.750000
vn -0.000000 1.000000 0.000000
v 0.820836 0.114798 0.606467
vt 1.000000 0.550000
vn -0.000000 1.000000 0.000000
v -0.057399 0.114798 0.099418
vt 0.004987 0.550000
vn -0.000000 1.000000 0.000000
v 0.057399 0.063812 -0.099418
vt 0.004987 0.800000
vn 0.500000 0.000000 -0.866026
v 0.935634 0.063812 0.407630
vt 1.000000 0.800000
vn 0.500000 0.000000 -0.866026
v 0.935634 0.114798 0.407630
vt 1.000000 0.750000
vn 0.500000 0.000000 -0.866026
v 0.057399 0.114798 -0.099418
vt 0.004987 0.750000
vn 0.500000 0.000000 -0.866026
v 0.106624 0.063812 -0.184678
vt 0.004987 0.900000
vn -0.000000 1.000000 0.000000
v 0.987317 0.063812 0.318111
vt 1.000000 0.900000
vn -0.000000 1.000000 0.000000
v 0.935634 0.063812 0.407630
vt 1.000000 0.800000
vn -0.000000 1.000000 0.000000
v 0.057399 0.063812 -0.099418
vt 0.004987 0.800000
vn -0.000000 1.000000 0.000000
v 0.106624 -0.114798 -0.184678
vt 0.004987 1.000000
vn 0.495794 0.000000 -0.868440
v 0.987317 -0.114798 0.318111
vt 1.000000 1.000000
vn 0.500000 0.000000 -0.866026
v 0.987317 0.063812 0.318111
vt 1.000000 0.900000
vn 0.495794 0.000000 -0.868440
v 0.106624 0.063812 -0.184678
vt 0.004987 0.900000
vn 0.495794 0.000000 -0.868440
# Faces (1 to 56)
g Path_Straight_0
f -54/-54/-54 -55/-55/-55 -56/-56/-56
f -53/-53/-53 -54/-54/-54 -56/-56/-56
f -50/-50/-50 -51/-51/-51 -52/-52/-52
f -49/-49/-49 -50/-50/-50 -52/-52/-52
f -46/-46/-46 -47/-47/-47 -48/-48/-48
f -45/-45/-45 -46/-46/-46 -48/-48/-48
f -42/-42/-42 -43/-43/-43 -44/-44/-44
f -41/-41/-41 -42/-42/-42 -44/-44/-44
f -38/-38/-38 -39/-39/-39 -40/-40/-40
f -37/-37/-37 -38/-38/-38 -40/-40/-40
f -34/-34/-34 -35/-35/-35 -36/-36/-36
f -33/-33/-33 -34/-34/-34 -36/-36/-36
f -30/-30/-30 -31/-31/-31 -32/-32/-32
f -29/-29/-29 -30/-30/-30 -32/-32/-32
f -26/-26/-26 -27/-27/-27 -28/-28/-28
f -25/-25/-25 -26/-26/-26 -28/-28/-28
f -22/-22/-22 -23/-23/-23 -24/-24/-24
f -21/-21/-21 -22/-22/-22 -24/-24/-24
f -18/-18/-18 -19/-19/-19 -20/-20/-20
f -17/-17/-17 -18/-18/-18 -20/-20/-20
f -14/-14/-14 -15/-15/-15 -16/-16/-16
f -13/-13/-13 -14/-14/-14 -16/-16/-16
f -10/-10/-10 -11/-11/-11 -12/-12/-12
f -9/-9/-9 -10/-10/-10 -12/-12/-12
f -6/-6/-6 -7/-7/-7 -8/-8/-8
f -5/-5/-5 -6/-6/-6 -8/-8/-8
f -2/-2/-2 -3/-3/-3 -4/-4/-4
f -1/-1/-1 -2/-2/-2 -4/-4/-4

