# Mesh "Path_120" exported with Unity Assets Bundle Extractor; 126 vertices, 336 indices, 384 bits per vertex
g Path_120
# SubMesh 0
# Vertices
v -0.185436 0.064713 -0.774065
vt 0.874932 0.900000
vn -0.992130 0.000000 0.125208
v -0.153078 0.064713 -0.531698
vt 0.749977 0.900000
vn -0.980724 0.000000 0.195400
v -0.153078 -0.113882 -0.531698
vt 0.749983 0.998360
vn -0.988272 0.000000 0.152706
v -0.185436 -0.113882 -0.774065
vt 0.874918 0.998360
vn -0.992130 0.000000 0.125208
v -0.090576 -0.113882 -0.297955
vt 0.625002 0.998360
vn -0.948251 0.000000 0.317522
v -0.090576 0.064713 -0.297955
vt 0.624992 0.900000
vn -0.948251 0.000000 0.317522
v 0.006956 0.064713 -0.053768
vt 0.500004 0.900000
vn -0.874843 0.000000 0.484407
v 0.006956 -0.113882 -0.053768
vt 0.500014 0.998360
vn -0.950125 0.000000 0.311869
v 0.156971 -0.113882 0.149116
vt 0.375014 0.998360
vn -0.770818 0.000000 0.637055
v 0.156971 0.064713 0.149116
vt 0.375014 0.900000
vn -0.770818 0.000000 0.637055
v 0.333375 0.064713 0.341188
vt 0.250026 0.900000
vn -0.704804 0.000000 0.709402
v 0.333375 -0.113882 0.341188
vt 0.250022 0.998360
vn -0.767062 0.000000 0.641573
v 0.525385 -0.113882 0.515143
vt 0.125045 0.998360
vn -0.649561 0.000000 0.760310
v 0.525385 0.064713 0.515143
vt 0.125045 0.900000
vn -0.649561 0.000000 0.760310
v 0.742832 0.064713 0.691003
vt 0.000060 0.900000
vn -0.628834 0.000000 0.777540
v 0.742832 -0.113882 0.691003
vt 0.000060 0.998360
vn -0.652935 0.000000 0.757414
v -0.214870 -0.113882 -1.021330
vt 0.999941 0.998360
vn -0.988272 0.000000 0.152706
v -0.214870 0.064713 -1.021330
vt 0.999940 0.900000
vn -0.992989 0.000000 0.118203
v 0.141115 0.115715 -0.812024
vt 0.874966 0.549995
vn -0.000000 1.000000 0.000000
v 0.167909 0.115715 -0.612543
vt 0.749967 0.550006
vn -0.000000 1.000000 0.000000
v -0.052261 0.115715 -0.555860
vt 0.749972 0.749993
vn -0.000000 1.000000 0.000000
v -0.083756 0.115715 -0.785386
vt 0.874945 0.750008
vn -0.000000 1.000000 0.000000
v 0.004488 0.115715 -0.334830
vt 0.624987 0.749982
vn -0.000000 1.000000 0.000000
v 0.219958 0.115715 -0.421557
vt 0.624981 0.550013
vn -0.000000 1.000000 0.000000
v 0.096268 0.115715 -0.103358
vt 0.499995 0.749977
vn -0.000000 1.000000 0.000000
v 0.307038 0.115715 -0.220129
vt 0.499992 0.550016
vn -0.000000 1.000000 0.000000
v 0.238553 0.115715 0.087941
vt 0.375015 0.749982
vn -0.000000 1.000000 0.000000
v 0.426065 0.115715 -0.048915
vt 0.375015 0.550014
vn -0.000000 1.000000 0.000000
v 0.407229 0.115715 0.268426
vt 0.250028 0.749992
vn -0.000000 1.000000 0.000000
v 0.571482 0.115715 0.111485
vt 0.250032 0.550007
vn -0.000000 1.000000 0.000000
v 0.588585 0.115715 0.434777
vt 0.125045 0.750004
vn -0.000000 1.000000 0.000000
v 0.729578 0.115715 0.257751
vt 0.125045 0.549998
vn -0.000000 1.000000 0.000000
v 0.795377 0.115715 0.603033
vt 0.000060 0.750020
vn -0.000000 1.000000 0.000000
v 0.913112 0.115715 0.405922
vt 0.000061 0.549986
vn -0.000000 1.000000 0.000000
v -0.112327 0.115715 -1.019809
vt 0.999940 0.750023
vn -0.000000 1.000000 0.000000
v 0.117245 0.115715 -1.016403
vt 0.999940 0.549984
vn -0.000000 1.000000 0.000000
v 0.242601 -0.113882 -0.823918
vt 0.874992 0.300000
vn 0.991814 0.000000 -0.127691
v 0.268333 -0.113882 -0.637851
vt 0.749957 0.300000
vn 0.988315 0.000000 -0.152427
v 0.268333 0.064713 -0.637851
vt 0.749962 0.400000
vn 0.980863 0.000000 -0.194698
v 0.242601 0.064713 -0.823918
vt 0.874979 0.400000
vn 0.991814 0.000000 -0.127691
v 0.315012 0.064713 -0.459115
vt 0.624976 0.400000
vn 0.944163 0.000000 -0.329480
v 0.315012 -0.113882 -0.459115
vt 0.624969 0.300000
vn 0.944163 0.000000 -0.329480
v 0.396722 0.064713 -0.269937
vt 0.499987 0.400000
vn 0.875110 0.000000 -0.483924
v 0.396722 -0.113882 -0.269937
vt 0.499997 0.300000
vn 0.942515 0.000000 -0.334164
v 0.508217 0.064713 -0.109732
vt 0.375016 0.400000
vn 0.778777 0.000000 -0.627301
v 0.508217 -0.113882 -0.109732
vt 0.375017 0.300000
vn 0.778777 0.000000 -0.627301
v 0.646101 0.064713 0.039660
vt 0.250035 0.400000
vn 0.710359 0.000000 -0.703840
v 0.646101 -0.113882 0.039660
vt 0.250038 0.300000
vn 0.781842 0.000000 -0.623476
v 0.793161 0.064713 0.177852
vt 0.125046 0.400000
vn 0.656736 0.000000 -0.754120
v 0.793161 -0.113882 0.177852
vt 0.125046 0.300000
vn 0.656736 0.000000 -0.754120
v 0.965657 0.064713 0.317950
vt 0.000061 0.400000
vn 0.630444 0.000000 -0.776235
v 0.965657 -0.113882 0.317950
vt 0.000061 0.300000
vn 0.652846 0.000000 -0.757491
v 0.219792 0.064713 -1.014882
vt 0.999940 0.400000
vn 0.992943 0.000000 -0.118594
v 0.219792 -0.113882 -1.014882
vt 0.999940 0.300000
vn 0.988315 0.000000 -0.152427
v -0.083756 0.115715 -0.785386
vt 0.874945 0.750008
vn -0.991723 0.000000 0.128395
v -0.052261 0.115715 -0.555860
vt 0.749972 0.749993
vn -0.988272 0.000000 0.152706
v -0.052261 0.064713 -0.555860
vt 0.749974 0.800000
vn -0.981355 0.000000 0.192206
v -0.083756 0.064713 -0.785386
vt 0.874941 0.800000
vn -0.991723 0.000000 0.128395
v 0.004488 0.064713 -0.334830
vt 0.624990 0.800000
vn -0.950125 0.000000 0.311869
v 0.004488 0.115715 -0.334830
vt 0.624987 0.749982
vn -0.950125 0.000000 0.311869
v 0.096268 0.064713 -0.103358
vt 0.499998 0.800000
vn -0.874866 0.000000 0.484366
v 0.096268 0.115715 -0.103358
vt 0.499995 0.749977
vn -0.950125 0.000000 0.311869
v 0.238553 0.064713 0.087941
vt 0.375015 0.800000
vn -0.767062 0.000000 0.641573
v 0.238553 0.115715 0.087941
vt 0.375015 0.749982
vn -0.767062 0.000000 0.641573
v 0.407229 0.064713 0.268426
vt 0.250027 0.800000
vn -0.703857 0.000000 0.710342
v 0.407229 0.115715 0.268426
vt 0.250028 0.749992
vn -0.767062 0.000000 0.641573
v 0.588585 0.064713 0.434777
vt 0.125045 0.800000
vn -0.652937 0.000000 0.757412
v 0.588585 0.115715 0.434777
vt 0.125045 0.750004
vn -0.652937 0.000000 0.757412
v 0.795377 0.064713 0.603033
vt 0.000060 0.800000
vn -0.631130 0.000000 0.775677
v 0.795377 0.115715 0.603033
vt 0.000060 0.750020
vn -0.652935 0.000000 0.757414
v -0.112327 0.064713 -1.019809
vt 0.999940 0.800000
vn -0.992655 0.000000 0.120981
v -0.112327 0.115715 -1.019809
vt 0.999940 0.750023
vn -0.988272 0.000000 0.152706
v 0.141115 0.064713 -0.812024
vt 0.874970 0.500071
vn 0.992223 0.000000 -0.124475
v 0.167909 0.064713 -0.612543
vt 0.749965 0.499914
vn 0.980217 0.000000 -0.197926
v 0.167909 0.115715 -0.612543
vt 0.749967 0.550006
vn 0.988315 0.000000 -0.152427
v 0.141115 0.115715 -0.812024
vt 0.874966 0.549995
vn 0.992223 0.000000 -0.124475
v 0.219958 0.115715 -0.421557
vt 0.624981 0.550013
vn 0.942515 0.000000 -0.334164
v 0.219958 0.064713 -0.421557
vt 0.624978 0.499811
vn 0.942515 0.000000 -0.334164
v 0.307038 0.064713 -0.220129
vt 0.499990 0.499763
vn 0.875070 0.000000 -0.483997
v 0.307038 0.115715 -0.220129
vt 0.499992 0.550016
vn 0.942515 0.000000 -0.334164
v 0.426065 0.115715 -0.048915
vt 0.375015 0.550014
vn 0.781842 0.000000 -0.623476
v 0.426065 0.064713 -0.048915
vt 0.375016 0.499800
vn 0.781842 0.000000 -0.623476
v 0.571482 0.064713 0.111485
vt 0.250033 0.499897
vn 0.710751 0.000000 -0.703444
v 0.571482 0.115715 0.111485
vt 0.250032 0.550007
vn 0.781842 0.000000 -0.623476
v 0.729578 0.115715 0.257751
vt 0.125045 0.549998
vn 0.652849 0.000000 -0.757488
v 0.729578 0.064713 0.257751
vt 0.125045 0.500030
vn 0.652849 0.000000 -0.757488
v 0.913112 0.064713 0.405922
vt 0.000061 0.500205
vn 0.628164 0.000000 -0.778081
v 0.913112 0.115715 0.405922
vt 0.000061 0.549986
vn 0.652846 0.000000 -0.757491
v 0.117245 0.115715 -1.016403
vt 0.999940 0.549984
vn 0.988315 0.000000 -0.152427
v 0.117245 0.064713 -1.016403
vt 0.999940 0.500237
vn 0.993249 0.000000 -0.116005
v -0.052261 0.064713 -0.555860
vt 0.749974 0.800000
vn -0.000000 1.000000 0.000000
v -0.153078 0.064713 -0.531698
vt 0.749977 0.900000
vn -0.000000 1.000000 0.000000
v -0.185436 0.064713 -0.774065
vt 0.874932 0.900000
vn -0.000000 1.000000 0.000000
v -0.083756 0.064713 -0.785386
vt 0.874941 0.800000
vn -0.000000 1.000000 0.000000
v -0.090576 0.064713 -0.297955
vt 0.624992 0.900000
vn -0.000000 1.000000 0.000000
v 0.004488 0.064713 -0.334830
vt 0.624990 0.800000
vn -0.000000 1.000000 0.000000
v 0.096268 0.064713 -0.103358
vt 0.499998 0.800000
vn -0.000000 1.000000 0.000000
v 0.006956 0.064713 -0.053768
vt 0.500004 0.900000
vn -0.000000 1.000000 0.000000
v 0.156971 0.064713 0.149116
vt 0.375014 0.900000
vn -0.000000 1.000000 0.000000
v 0.238553 0.064713 0.087941
vt 0.375015 0.800000
vn -0.000000 1.000000 0.000000
v 0.407229 0.064713 0.268426
vt 0.250027 0.800000
vn -0.000000 1.000000 0.000000
v 0.333375 0.064713 0.341188
vt 0.250026 0.900000
vn -0.000000 1.000000 0.000000
v 0.525385 0.064713 0.515143
vt 0.125045 0.900000
vn -0.000000 1.000000 0.000000
v 0.588585 0.064713 0.434777
vt 0.125045 0.800000
vn -0.000000 1.000000 0.000000
v 0.795377 0.064713 0.603033
vt 0.000060 0.800000
vn -0.000000 1.000000 0.000000
v 0.742832 0.064713 0.691003
vt 0.000060 0.900000
vn -0.000000 1.000000 0.000000
v -0.112327 0.064713 -1.019809
vt 0.999940 0.800000
vn -0.000000 1.000000 0.000000
v -0.214870 0.064713 -1.021330
vt 0.999940 0.900000
vn -0.000000 1.000000 0.000000
v 0.242601 0.064713 -0.823918
vt 0.874979 0.400000
vn -0.000000 1.000000 0.000000
v 0.268333 0.064713 -0.637851
vt 0.749962 0.400000
vn -0.000000 1.000000 0.000000
v 0.167909 0.064713 -0.612543
vt 0.749965 0.499914
vn -0.000000 1.000000 0.000000
v 0.141115 0.064713 -0.812024
vt 0.874970 0.500071
vn -0.000000 1.000000 0.000000
v 0.315012 0.064713 -0.459115
vt 0.624976 0.400000
vn -0.000000 1.000000 0.000000
v 0.219958 0.064713 -0.421557
vt 0.624978 0.499811
vn -0.000000 1.000000 0.000000
v 0.307038 0.064713 -0.220129
vt 0.499990 0.499763
vn -0.000000 1.000000 0.000000
v 0.396722 0.064713 -0.269937
vt 0.499987 0.400000
vn -0.000000 1.000000 0.000000
v 0.508217 0.064713 -0.109732
vt 0.375016 0.400000
vn -0.000000 1.000000 0.000000
v 0.426065 0.064713 -0.048915
vt 0.375016 0.499800
vn -0.000000 1.000000 0.000000
v 0.571482 0.064713 0.111485
vt 0.250033 0.499897
vn -0.000000 1.000000 0.000000
v 0.646101 0.064713 0.039660
vt 0.250035 0.400000
vn -0.000000 1.000000 0.000000
v 0.793161 0.064713 0.177852
vt 0.125046 0.400000
vn -0.000000 1.000000 0.000000
v 0.729578 0.064713 0.257751
vt 0.125045 0.500030
vn -0.000000 1.000000 0.000000
v 0.913112 0.064713 0.405922
vt 0.000061 0.500205
vn -0.000000 1.000000 0.000000
v 0.965657 0.064713 0.317950
vt 0.000061 0.400000
vn -0.000000 1.000000 0.000000
v 0.117245 0.064713 -1.016403
vt 0.999940 0.500237
vn -0.000000 1.000000 0.000000
v 0.219792 0.064713 -1.014882
vt 0.999940 0.400000
vn -0.000000 1.000000 0.000000
# Faces (1 to 126)
g Path_120_0
f -124/-124/-124 -125/-125/-125 -126/-126/-126
f -123/-123/-123 -124/-124/-124 -126/-126/-126
f -125/-125/-125 -124/-124/-124 -122/-122/-122
f -121/-121/-121 -125/-125/-125 -122/-122/-122
f -121/-121/-121 -122/-122/-122 -120/-120/-120
f -122/-122/-122 -119/-119/-119 -120/-120/-120
f -120/-120/-120 -119/-119/-119 -118/-118/-118
f -117/-117/-117 -120/-120/-120 -118/-118/-118
f -117/-117/-117 -118/-118/-118 -116/-116/-116
f -118/-118/-118 -115/-115/-115 -116/-116/-116
f -116/-116/-116 -115/-115/-115 -114/-114/-114
f -113/-113/-113 -116/-116/-116 -114/-114/-114
f -113/-113/-113 -114/-114/-114 -112/-112/-112
f -114/-114/-114 -111/-111/-111 -112/-112/-112
f -123/-123/-123 -126/-126/-126 -110/-110/-110
f -126/-126/-126 -109/-109/-109 -110/-110/-110
f -106/-106/-106 -107/-107/-107 -108/-108/-108
f -105/-105/-105 -106/-106/-106 -108/-108/-108
f -106/-106/-106 -104/-104/-104 -107/-107/-107
f -104/-104/-104 -103/-103/-103 -107/-107/-107
f -104/-104/-104 -102/-102/-102 -103/-103/-103
f -102/-102/-102 -101/-101/-101 -103/-103/-103
f -102/-102/-102 -100/-100/-100 -101/-101/-101
f -100/-100/-100 -99/-99/-99 -101/-101/-101
f -100/-100/-100 -98/-98/-98 -99/-99/-99
f -98/-98/-98 -97/-97/-97 -99/-99/-99
f -98/-98/-98 -96/-96/-96 -97/-97/-97
f -96/-96/-96 -95/-95/-95 -97/-97/-97
f -96/-96/-96 -94/-94/-94 -95/-95/-95
f -94/-94/-94 -93/-93/-93 -95/-95/-95
f -105/-105/-105 -108/-108/-108 -92/-92/-92
f -108/-108/-108 -91/-91/-91 -92/-92/-92
f -88/-88/-88 -89/-89/-89 -90/-90/-90
f -87/-87/-87 -88/-88/-88 -90/-90/-90
f -88/-88/-88 -86/-86/-86 -89/-89/-89
f -86/-86/-86 -85/-85/-85 -89/-89/-89
f -86/-86/-86 -84/-84/-84 -85/-85/-85
f -84/-84/-84 -83/-83/-83 -85/-85/-85
f -84/-84/-84 -82/-82/-82 -83/-83/-83
f -82/-82/-82 -81/-81/-81 -83/-83/-83
f -82/-82/-82 -80/-80/-80 -81/-81/-81
f -80/-80/-80 -79/-79/-79 -81/-81/-81
f -80/-80/-80 -78/-78/-78 -79/-79/-79
f -78/-78/-78 -77/-77/-77 -79/-79/-79
f -78/-78/-78 -76/-76/-76 -77/-77/-77
f -76/-76/-76 -75/-75/-75 -77/-77/-77
f -87/-87/-87 -90/-90/-90 -74/-74/-74
f -90/-90/-90 -73/-73/-73 -74/-74/-74
f -70/-70/-70 -71/-71/-71 -72/-72/-72
f -69/-69/-69 -70/-70/-70 -72/-72/-72
f -70/-70/-70 -68/-68/-68 -71/-71/-71
f -68/-68/-68 -67/-67/-67 -71/-71/-71
f -68/-68/-68 -66/-66/-66 -67/-67/-67
f -66/-66/-66 -65/-65/-65 -67/-67/-67
f -66/-66/-66 -64/-64/-64 -65/-65/-65
f -64/-64/-64 -63/-63/-63 -65/-65/-65
f -64/-64/-64 -62/-62/-62 -63/-63/-63
f -62/-62/-62 -61/-61/-61 -63/-63/-63
f -62/-62/-62 -60/-60/-60 -61/-61/-61
f -60/-60/-60 -59/-59/-59 -61/-61/-61
f -60/-60/-60 -58/-58/-58 -59/-59/-59
f -58/-58/-58 -57/-57/-57 -59/-59/-59
f -69/-69/-69 -72/-72/-72 -56/-56/-56
f -72/-72/-72 -55/-55/-55 -56/-56/-56
f -52/-52/-52 -53/-53/-53 -54/-54/-54
f -51/-51/-51 -52/-52/-52 -54/-54/-54
f -53/-53/-53 -52/-52/-52 -50/-50/-50
f -49/-49/-49 -53/-53/-53 -50/-50/-50
f -49/-49/-49 -50/-50/-50 -48/-48/-48
f -50/-50/-50 -47/-47/-47 -48/-48/-48
f -48/-48/-48 -47/-47/-47 -46/-46/-46
f -45/-45/-45 -48/-48/-48 -46/-46/-46
f -45/-45/-45 -46/-46/-46 -44/-44/-44
f -46/-46/-46 -43/-43/-43 -44/-44/-44
f -44/-44/-44 -43/-43/-43 -42/-42/-42
f -41/-41/-41 -44/-44/-44 -42/-42/-42
f -41/-41/-41 -42/-42/-42 -40/-40/-40
f -42/-42/-42 -39/-39/-39 -40/-40/-40
f -51/-51/-51 -54/-54/-54 -38/-38/-38
f -54/-54/-54 -37/-37/-37 -38/-38/-38
f -34/-34/-34 -35/-35/-35 -36/-36/-36
f -33/-33/-33 -34/-34/-34 -36/-36/-36
f -36/-36/-36 -35/-35/-35 -32/-32/-32
f -31/-31/-31 -36/-36/-36 -32/-32/-32
f -31/-31/-31 -32/-32/-32 -30/-30/-30
f -32/-32/-32 -29/-29/-29 -30/-30/-30
f -30/-30/-30 -29/-29/-29 -28/-28/-28
f -27/-27/-27 -30/-30/-30 -28/-28/-28
f -27/-27/-27 -28/-28/-28 -26/-26/-26
f -28/-28/-28 -25/-25/-25 -26/-26/-26
f -26/-26/-26 -25/-25/-25 -24/-24/-24
f -23/-23/-23 -26/-26/-26 -24/-24/-24
f -23/-23/-23 -24/-24/-24 -22/-22/-22
f -24/-24/-24 -21/-21/-21 -22/-22/-22
f -33/-33/-33 -20/-20/-20 -34/-34/-34
f -20/-20/-20 -19/-19/-19 -34/-34/-34
f -16/-16/-16 -17/-17/-17 -18/-18/-18
f -15/-15/-15 -16/-16/-16 -18/-18/-18
f -14/-14/-14 -17/-17/-17 -16/-16/-16
f -13/-13/-13 -14/-14/-14 -16/-16/-16
f -13/-13/-13 -12/-12/-12 -14/-14/-14
f -12/-12/-12 -11/-11/-11 -14/-14/-14
f -10/-10/-10 -11/-11/-11 -12/-12/-12
f -9/-9/-9 -10/-10/-10 -12/-12/-12
f -9/-9/-9 -8/-8/-8 -10/-10/-10
f -8/-8/-8 -7/-7/-7 -10/-10/-10
f -6/-6/-6 -7/-7/-7 -8/-8/-8
f -5/-5/-5 -6/-6/-6 -8/-8/-8
f -5/-5/-5 -4/-4/-4 -6/-6/-6
f -4/-4/-4 -3/-3/-3 -6/-6/-6
f -15/-15/-15 -18/-18/-18 -2/-2/-2
f -18/-18/-18 -1/-1/-1 -2/-2/-2

