# Mesh "Path_Straight1" exported with Unity Assets Bundle Extractor; 28 vertices, 42 indices, 384 bits per vertex
g Path_Straight1
# SubMesh 0
# Vertices
v -0.107814 0.063812 0.186739
vt 0.000000 0.400000
vn -0.497831 0.000000 0.867274
v 0.771689 0.063812 0.691590
vt 1.000000 0.400000
vn -0.497831 0.000000 0.867274
v 0.771689 -0.114798 0.691590
vt 1.000000 0.300000
vn -0.500000 0.000000 0.866025
v -0.107814 -0.114798 0.186739
vt 0.000000 0.300000
vn -0.497831 0.000000 0.867274
v 0.820836 0.063812 0.606467
vt 1.000000 0.500000
vn -0.000000 1.000000 0.000000
v 0.771689 0.063812 0.691590
vt 1.000000 0.400000
vn -0.000000 1.000000 0.000000
v -0.107814 0.063812 0.186739
vt 0.000000 0.400000
vn -0.000000 1.000000 0.000000
v -0.057399 0.063812 0.099418
vt 0.000000 0.500000
vn -0.000000 1.000000 0.000000
v -0.057399 0.114798 0.099418
vt 0.000000 0.550000
vn -0.500000 0.000000 0.866026
v 0.820836 0.114798 0.606467
vt 1.000000 0.550000
vn -0.500000 0.000000 0.866025
v 0.820836 0.063812 0.606467
vt 1.000000 0.500000
vn -0.500000 0.000000 0.866026
v -0.057399 0.063812 0.099418
vt 0.000000 0.500000
vn -0.500000 0.000000 0.866026
v 0.057399 0.114798 -0.099418
vt 0.000000 0.750000
vn -0.000000 1.000000 0.000000
v 0.935634 0.114798 0.407630
vt 1.000000 0.750000
vn -0.000000 1.000000 0.000000
v 0.820836 0.114798 0.606467
vt 1.000000 0.550000
vn -0.000000 1.000000 0.000000
v -0.057399 0.114798 0.099418
vt 0.000000 0.550000
vn -0.000000 1.000000 0.000000
v 0.057399 0.063812 -0.099418
vt 0.000000 0.800000
vn 0.500000 0.000000 -0.866026
v 0.935634 0.063812 0.407630
vt 1.000000 0.800000
vn 0.500000 0.000000 -0.866026
v 0.935634 0.114798 0.407630
vt 1.000000 0.750000
vn 0.500000 0.000000 -0.866026
v 0.057399 0.114798 -0.099418
vt 0.000000 0.750000
vn 0.500000 0.000000 -0.866026
v 0.106624 0.063812 -0.184678
vt 0.000000 0.900000
vn -0.000000 1.000000 0.000000
v 0.987317 0.063812 0.318111
vt 1.000000 0.900000
vn -0.000000 1.000000 0.000000
v 0.935634 0.063812 0.407630
vt 1.000000 0.800000
vn -0.000000 1.000000 0.000000
v 0.057399 0.063812 -0.099418
vt 0.000000 0.800000
vn -0.000000 1.000000 0.000000
v 0.106624 -0.114798 -0.184678
vt 0.000000 1.000000
vn 0.495794 0.000000 -0.868440
v 0.987317 -0.114798 0.318111
vt 1.000000 1.000000
vn 0.500000 0.000000 -0.866026
v 0.987317 0.063812 0.318111
vt 1.000000 0.900000
vn 0.495794 0.000000 -0.868440
v 0.106624 0.063812 -0.184678
vt 0.000000 0.900000
vn 0.495794 0.000000 -0.868440
# Faces (1 to 28)
g Path_Straight1_0
f -26/-26/-26 -27/-27/-27 -28/-28/-28
f -25/-25/-25 -26/-26/-26 -28/-28/-28
f -22/-22/-22 -23/-23/-23 -24/-24/-24
f -21/-21/-21 -22/-22/-22 -24/-24/-24
f -18/-18/-18 -19/-19/-19 -20/-20/-20
f -17/-17/-17 -18/-18/-18 -20/-20/-20
f -14/-14/-14 -15/-15/-15 -16/-16/-16
f -13/-13/-13 -14/-14/-14 -16/-16/-16
f -10/-10/-10 -11/-11/-11 -12/-12/-12
f -9/-9/-9 -10/-10/-10 -12/-12/-12
f -6/-6/-6 -7/-7/-7 -8/-8/-8
f -5/-5/-5 -6/-6/-6 -8/-8/-8
f -2/-2/-2 -3/-3/-3 -4/-4/-4
f -1/-1/-1 -2/-2/-2 -4/-4/-4

