# Mesh "pCube1" exported with Unity Assets Bundle Extractor; 20 vertices, 30 indices, 384 bits per vertex
g pCube1
# SubMesh 0
# Vertices
v -1.145887 -2.000000 1.145888
vt 0.500000 0.004959
vn -0.000000 0.027046 -0.999634
v -0.054112 -2.000000 1.145888
vt 0.499997 0.004959
vn -0.000000 0.027046 -0.999634
v 0.000000 0.000000 1.200000
vt 0.912534 0.995041
vn -0.000000 0.027046 -0.999634
v -1.200000 0.000000 1.200000
vt 0.087466 0.995041
vn -0.000000 0.027046 -0.999634
v -1.200000 0.000000 -0.000000
vt 0.087466 0.004947
vn -0.000000 0.027046 0.999634
v 0.000000 0.000000 -0.000000
vt 0.912534 0.004947
vn -0.000000 0.027046 0.999634
v -0.054112 -2.000000 0.054112
vt 0.912537 0.500006
vn -0.000000 0.027046 0.999634
v -1.145887 -2.000000 0.054112
vt 0.087466 0.500006
vn -0.000000 0.027046 0.999634
v -0.054112 -2.000000 1.145888
vt 0.499997 0.004959
vn -0.999634 0.027046 0.000000
v -0.054112 -2.000000 0.054112
vt 0.912537 0.500006
vn -0.999634 0.027046 0.000000
v 0.000000 0.000000 -0.000000
vt 0.912540 0.995041
vn -0.999634 0.027046 0.000000
v 0.000000 0.000000 1.200000
vt 0.087460 0.995041
vn -0.999634 0.027046 0.000000
v -1.145887 -2.000000 0.054112
vt 0.087466 0.500006
vn 0.999634 0.027046 0.000000
v -1.145887 -2.000000 1.145888
vt 0.500000 0.004959
vn 0.999634 0.027046 0.000000
v -1.200000 0.000000 1.200000
vt 0.912534 0.995041
vn 0.999634 0.027046 0.000000
v -1.200000 0.000000 -0.000000
vt 0.087466 0.995041
vn 0.999634 0.027046 0.000000
v -1.145887 -2.000000 0.054112
vt 0.481793 0.068207
vn -0.000000 1.000000 0.000000
v -0.054112 -2.000000 0.054112
vt 0.518207 0.068207
vn -0.000000 1.000000 0.000000
v -0.054112 -2.000000 1.145888
vt 0.518207 0.031793
vn -0.000000 1.000000 0.000000
v -1.145887 -2.000000 1.145888
vt 0.481793 0.031793
vn -0.000000 1.000000 0.000000
# Faces (1 to 20)
g pCube1_0
f -18/-18/-18 -19/-19/-19 -20/-20/-20
f -17/-17/-17 -18/-18/-18 -20/-20/-20
f -14/-14/-14 -15/-15/-15 -16/-16/-16
f -13/-13/-13 -14/-14/-14 -16/-16/-16
f -10/-10/-10 -11/-11/-11 -12/-12/-12
f -9/-9/-9 -10/-10/-10 -12/-12/-12
f -6/-6/-6 -7/-7/-7 -8/-8/-8
f -5/-5/-5 -6/-6/-6 -8/-8/-8
f -2/-2/-2 -3/-3/-3 -4/-4/-4
f -1/-1/-1 -2/-2/-2 -4/-4/-4

