# Mesh "pCube201" exported with Unity Assets Bundle Extractor; 157 vertices, 402 indices, 384 bits per vertex
g pCube201
# SubMesh 0
# Vertices
v 0.300000 1.800000 0.600000
vt 0.017792 0.796299
vn -0.000000 1.000000 0.000000
v -0.000000 1.800000 0.600000
vt 0.017792 0.864663
vn -0.000000 1.000000 0.000000
v -0.000000 1.800000 -0.600000
vt 0.288373 0.864663
vn -0.000000 1.000000 0.000000
v 0.300000 1.800000 -0.600000
vt 0.288373 0.796299
vn -0.000000 1.000000 0.000000
v 0.358339 1.800000 -0.600000
vt 0.286374 0.761232
vn -0.184948 0.982748 0.000000
v 0.358339 1.800000 0.600000
vt 0.015794 0.761232
vn -0.184948 0.982748 0.000000
v 0.300000 -0.600000 -0.600000
vt 0.283287 0.103537
vn -0.000000 -1.000000 0.000000
v -0.000000 -0.600000 -0.600000
vt 0.283287 0.035337
vn -0.000000 -1.000000 0.000000
v -0.000000 -0.600000 0.600000
vt 0.012707 0.035337
vn -0.000000 -1.000000 0.000000
v 0.300000 -0.600000 0.600000
vt 0.012707 0.103537
vn -0.000000 -1.000000 0.000000
v 0.449503 -0.599714 0.600000
vt 0.012948 0.139278
vn -0.092751 -0.995689 0.000000
v 0.449503 -0.599714 -0.600000
vt 0.283529 0.139278
vn -0.092751 -0.995689 0.000000
v -0.000000 0.000000 0.600000
vt 0.587272 0.170179
vn -1.000000 0.000000 0.000000
v -0.000000 0.000000 -0.600000
vt 0.307403 0.170179
vn -1.000000 0.000000 0.000000
v -0.000000 0.600000 -0.600000
vt 0.307403 0.309865
vn -1.000000 0.000000 0.000000
v -0.000000 0.600000 0.600000
vt 0.587272 0.309865
vn -1.000000 0.000000 0.000000
v -0.000000 -0.600000 0.600000
vt 0.587272 0.030246
vn -1.000000 0.000000 0.000000
v -0.000000 -0.600000 -0.600000
vt 0.307403 0.030246
vn -1.000000 0.000000 0.000000
v -0.000000 1.200000 0.600000
vt 0.587272 0.449575
vn -1.000000 0.000000 0.000000
v -0.000000 1.200000 -0.600000
vt 0.307403 0.449575
vn -1.000000 0.000000 0.000000
v -0.000000 1.500000 -0.600000
vt 0.307403 0.519440
vn -1.000000 0.000000 0.000000
v -0.000000 1.500000 0.600000
vt 0.587272 0.519440
vn -1.000000 0.000000 0.000000
v -0.000000 1.800000 -0.600000
vt 0.307403 0.589979
vn -1.000000 0.000000 0.000000
v -0.000000 1.800000 0.600000
vt 0.587272 0.589979
vn -1.000000 0.000000 0.000000
v 0.641537 0.021280 -0.571353
vt 0.276680 0.310223
vn 0.981587 -0.191015 0.000000
v 0.641537 0.021280 0.571353
vt 0.021451 0.310223
vn 0.981587 -0.191015 0.000000
v 0.754156 0.600000 0.571353
vt 0.021451 0.447269
vn 0.999941 -0.010825 0.000000
v 0.754156 0.600000 -0.571353
vt 0.276680 0.447269
vn 0.999941 -0.010825 0.000000
v 0.654488 1.217571 0.571353
vt 0.021451 0.584316
vn 0.960463 0.278409 0.000000
v 0.654488 1.217571 -0.571353
vt 0.276680 0.584314
vn 0.960463 0.278409 0.000000
v 0.495655 1.491776 0.571353
vt 0.021451 0.659944
vn 0.865314 0.501229 0.000000
v 0.495655 1.491776 -0.571353
vt 0.276680 0.659944
vn 0.865314 0.501229 0.000000
v 0.501541 -0.625139 -0.571353
vt 0.275933 0.139278
vn 0.917454 -0.397842 0.000000
v 0.501541 -0.625139 0.571353
vt 0.020705 0.139278
vn 0.917454 -0.397842 0.000000
v 0.753510 -0.044082 0.571353
vt 0.020705 0.274703
vn 0.917454 -0.397842 0.000000
v 0.753510 -0.044082 -0.571353
vt 0.275933 0.274703
vn 0.917454 -0.397842 0.000000
v 0.534482 1.527828 -0.571353
vt 0.278617 0.695024
vn 0.922939 0.384946 0.000000
v 0.534482 1.527828 0.571353
vt 0.023389 0.695024
vn 0.922939 0.384946 0.000000
v 0.410257 1.825667 0.571353
vt 0.023389 0.761232
vn 0.922939 0.384946 0.000000
v 0.410257 1.825667 -0.571353
vt 0.278617 0.761232
vn 0.922939 0.384946 0.000000
v 0.495655 1.491776 -0.571353
vt 0.276680 0.659944
vn 0.680428 -0.732815 0.000000
v 0.495655 1.491776 0.571353
vt 0.021451 0.659944
vn 0.680428 -0.732815 0.000000
v 0.534482 1.527828 0.571353
vt 0.023389 0.695024
vn 0.680428 -0.732815 0.000000
v 0.534482 1.527828 -0.571353
vt 0.278617 0.695024
vn 0.680428 -0.732815 0.000000
v 0.641537 0.021280 0.571353
vt 0.021451 0.310223
vn 0.504132 0.863627 0.000000
v 0.641537 0.021280 -0.571353
vt 0.276680 0.310223
vn 0.504132 0.863627 0.000000
v 0.753510 -0.044082 -0.571353
vt 0.275933 0.274703
vn 0.504132 0.863627 0.000000
v 0.753510 -0.044082 0.571353
vt 0.020705 0.274703
vn 0.504132 0.863627 0.000000
v 0.696391 0.185399 -0.037289
vt 0.735000 0.488132
vn 0.408604 -0.857589 -0.312384
v 0.751828 0.231690 -0.064588
vt 0.718810 0.496125
vn 0.694198 -0.563485 -0.447856
v 0.705161 0.239286 -0.111870
vt 0.726070 0.510209
vn 0.370607 -0.510824 -0.775700
v 0.669448 0.189784 -0.064588
vt 0.741682 0.496248
vn 0.182899 -0.820853 -0.541062
v 0.641413 0.249661 -0.129176
vt 0.739536 0.526705
vn 0.160881 -0.464251 -0.870970
v 0.632643 0.195774 -0.074580
vt 0.752667 0.502376
vn 0.039251 -0.786610 -0.616202
v 0.706254 0.183793 0.000000
vt 0.731602 0.479154
vn 0.491225 -0.871033 -0.000001
v 0.768911 0.228910 0.000000
vt 0.714633 0.482941
vn 0.812648 -0.582755 -0.000000
v 0.696391 0.185399 0.037289
vt 0.731100 0.469432
vn 0.408598 -0.857593 0.312379
v 0.751828 0.231690 0.064588
vt 0.712439 0.469153
vn 0.694198 -0.563485 0.447854
v 0.669448 0.189784 0.064588
vt 0.734002 0.458783
vn 0.182901 -0.820855 0.541058
v 0.705161 0.239286 0.111870
vt 0.712254 0.452783
vn 0.370608 -0.510827 0.775697
v 0.632643 0.195774 0.074580
vt 0.742242 0.447246
vn 0.039258 -0.786609 0.616202
v 0.641413 0.249661 0.129176
vt 0.715836 0.430037
vn 0.160888 -0.464254 0.870967
v 0.727003 0.311292 -0.129176
vt 0.707951 0.517815
vn 0.493509 -0.080318 -0.866024
v 0.780891 0.302521 -0.074580
vt 0.703551 0.500694
vn 0.854778 -0.139120 -0.500000
v 0.653394 0.323272 -0.149159
vt 0.714799 0.542059
vn 0.255454 -0.041575 -0.965927
v 0.727003 0.311292 0.129176
vt 0.692051 0.454281
vn 0.493509 -0.080320 0.866024
v 0.653394 0.323272 0.149159
vt 0.685203 0.430037
vn 0.255454 -0.041578 0.965927
v 0.780891 0.302521 0.074580
vt 0.696449 0.471402
vn 0.854780 -0.139117 0.499998
v 0.800615 0.299311 0.000000
vt 0.700001 0.486048
vn 0.987012 -0.160646 0.000000
v 0.729122 0.386508 -0.111870
vt 0.687748 0.519316
vn 0.513464 0.366942 -0.775699
v 0.775790 0.378912 -0.064588
vt 0.687564 0.502943
vn 0.837056 0.314274 -0.447850
v 0.665373 0.396883 -0.129176
vt 0.684166 0.542059
vn 0.299799 0.389279 -0.870966
v 0.729122 0.386508 0.111870
vt 0.673932 0.461890
vn 0.513462 0.366943 0.775700
v 0.665373 0.396883 0.129176
vt 0.660464 0.445391
vn 0.299795 0.389280 0.870967
v 0.775790 0.378912 0.064588
vt 0.681190 0.475973
vn 0.837057 0.314275 0.447848
v 0.792870 0.376132 0.000000
vt 0.685369 0.489157
vn 0.955498 0.294997 -0.000000
v 0.710949 0.444780 -0.064588
vt 0.666001 0.513316
vn 0.433754 0.720500 -0.541052
v 0.737892 0.440395 -0.037289
vt 0.668903 0.502667
vn 0.659462 0.683762 -0.312377
v 0.674143 0.450770 -0.074580
vt 0.657760 0.524852
vn 0.286663 0.733589 -0.616175
v 0.710949 0.444780 0.064588
vt 0.658321 0.475851
vn 0.433751 0.720501 0.541053
v 0.674143 0.450770 0.074580
vt 0.647333 0.469722
vn 0.286663 0.733589 0.616175
v 0.737892 0.440395 0.037289
vt 0.665003 0.483967
vn 0.659462 0.683762 0.312377
v 0.747754 0.438790 0.000000
vt 0.668398 0.492942
vn 0.742077 0.670314 0.000000
v 0.677353 0.470494 0.000000
vt 0.644848 0.497790
vn 0.331695 0.943386 0.000000
v 0.629432 0.176050 0.000000
vt 0.755152 0.474309
vn 0.015432 -0.999881 0.000003
v 0.600000 0.000000 -0.600000
vt 0.284320 0.310223
vn 0.514561 -0.091500 -0.852558
v 0.641537 0.021280 -0.571353
vt 0.276680 0.310223
vn 0.514560 -0.091500 -0.852558
v 0.754156 0.600000 -0.571353
vt 0.276680 0.447269
vn 0.514561 -0.091500 -0.852558
v 0.696981 0.600000 -0.600000
vt 0.284320 0.447269
vn 0.514561 -0.091500 -0.852558
v 0.696981 0.600000 0.600000
vt 0.013740 0.447269
vn 0.479430 -0.002591 0.877576
v 0.754156 0.600000 0.571353
vt 0.021451 0.447269
vn 0.479081 -0.001765 0.877769
v 0.641537 0.021280 0.571353
vt 0.021451 0.310223
vn 0.499318 0.003342 0.866412
v 0.600000 0.000000 0.600000
vt 0.013740 0.310223
vn 0.498733 0.006482 0.866731
v 0.753510 -0.044082 0.571353
vt 0.020705 0.274703
vn 0.488887 -0.112530 0.865059
v 0.714541 -0.057270 0.600000
vt 0.012948 0.274703
vn 0.489026 -0.113999 0.864788
v 0.501541 -0.625139 0.571353
vt 0.020705 0.139278
vn 0.496483 -0.228470 0.837440
v 0.449503 -0.599714 0.600000
vt 0.012948 0.139278
vn 0.496483 -0.228470 0.837440
v 0.600000 1.200000 0.600000
vt 0.013740 0.584316
vn 0.453247 0.127867 0.882166
v 0.654488 1.217571 0.571353
vt 0.021451 0.584316
vn 0.453083 0.126394 0.882463
v 0.450000 1.500000 0.600000
vt 0.013740 0.659944
vn 0.470034 0.168136 0.866486
v 0.495655 1.491776 0.571353
vt 0.021451 0.659944
vn 0.469934 0.169721 0.866231
v 0.488769 1.536168 0.600000
vt 0.015794 0.695024
vn 0.471665 0.131745 0.871880
v 0.534482 1.527828 0.571353
vt 0.023389 0.695024
vn 0.471502 0.135262 0.871430
v 0.358339 1.800000 0.600000
vt 0.015794 0.761232
vn 0.466476 0.211495 0.858877
v 0.410257 1.825667 0.571353
vt 0.023389 0.761232
vn 0.466476 0.211495 0.858877
v 0.600000 1.200000 -0.600000
vt 0.284320 0.584314
vn 0.463300 0.249177 -0.850449
v 0.654488 1.217571 -0.571353
vt 0.276680 0.584314
vn 0.463300 0.249177 -0.850449
v 0.495655 1.491776 -0.571353
vt 0.276680 0.659944
vn 0.463300 0.249177 -0.850449
v 0.450000 1.500000 -0.600000
vt 0.284320 0.659944
vn 0.463300 0.249177 -0.850449
v 0.449503 -0.599714 -0.600000
vt 0.283529 0.139278
vn 0.496489 -0.228470 -0.837437
v 0.501541 -0.625139 -0.571353
vt 0.275933 0.139278
vn 0.496489 -0.228469 -0.837437
v 0.753510 -0.044082 -0.571353
vt 0.275933 0.274703
vn 0.496489 -0.228469 -0.837437
v 0.714541 -0.057270 -0.600000
vt 0.283529 0.274703
vn 0.496489 -0.228470 -0.837437
v 0.449503 -0.599714 0.600000
vt 0.012948 0.139278
vn -0.092751 -0.995689 0.000000
v 0.501541 -0.625139 0.571353
vt 0.020705 0.139278
vn -0.438987 -0.898493 0.000000
v 0.501541 -0.625139 -0.571353
vt 0.275933 0.139278
vn -0.438987 -0.898493 0.000000
v 0.449503 -0.599714 -0.600000
vt 0.283529 0.139278
vn -0.092751 -0.995689 0.000000
v 0.488769 1.536168 -0.600000
vt 0.286374 0.695024
vn 0.466479 0.211495 -0.858876
v 0.534482 1.527828 -0.571353
vt 0.278617 0.695024
vn 0.466479 0.211495 -0.858876
v 0.410257 1.825667 -0.571353
vt 0.278617 0.761232
vn 0.466479 0.211495 -0.858876
v 0.358339 1.800000 -0.600000
vt 0.286374 0.761232
vn 0.466479 0.211495 -0.858876
v 0.358339 1.800000 -0.600000
vt 0.286374 0.761232
vn -0.184948 0.982748 0.000000
v 0.410257 1.825667 -0.571353
vt 0.278617 0.761232
vn -0.443164 0.896440 0.000000
v 0.410257 1.825667 0.571353
vt 0.023389 0.761232
vn -0.443164 0.896440 0.000000
v 0.358339 1.800000 0.600000
vt 0.015794 0.761232
vn -0.184948 0.982748 0.000000
v 0.450000 1.500000 -0.600000
vt 0.284320 0.659944
vn 0.415771 -0.446718 -0.792198
v 0.495655 1.491776 -0.571353
vt 0.276680 0.659944
vn 0.415771 -0.446718 -0.792198
v 0.534482 1.527828 -0.571353
vt 0.278617 0.695024
vn 0.415771 -0.446718 -0.792198
v 0.488769 1.536168 -0.600000
vt 0.286374 0.695024
vn 0.415771 -0.446718 -0.792198
v 0.714541 -0.057270 -0.600000
vt 0.283529 0.274703
vn 0.305079 0.563516 -0.767709
v 0.753510 -0.044082 -0.571353
vt 0.275933 0.274703
vn 0.305079 0.563516 -0.767709
v 0.641537 0.021280 -0.571353
vt 0.276680 0.310223
vn 0.305079 0.563516 -0.767709
v 0.600000 0.000000 -0.600000
vt 0.284320 0.310223
vn 0.305079 0.563516 -0.767709
v 0.696981 0.600000 -0.600000
vt 0.284320 0.447269
vn 0.446322 0.072086 -0.891965
v 0.754156 0.600000 -0.571353
vt 0.276680 0.447269
vn 0.446322 0.072086 -0.891965
v 0.654488 1.217571 -0.571353
vt 0.276680 0.584314
vn 0.446322 0.072086 -0.891965
v 0.600000 1.200000 -0.600000
vt 0.284320 0.584314
vn 0.446322 0.072086 -0.891965
v 0.664562 0.848642 0.449629
vt 0.885842 0.335364
vn 0.309724 -0.950826 0.000000
v 0.834272 0.903924 0.449629
vt 0.885842 0.301350
vn 0.309724 -0.950826 0.000000
v 0.834272 0.903924 -0.451293
vt 0.714158 0.301350
vn 0.309724 -0.950826 0.000000
v 0.664562 0.848642 -0.451293
vt 0.714158 0.335364
vn 0.309724 -0.950826 0.000000
v 0.834272 0.903924 0.449629
vt 0.885842 0.301350
vn 0.941090 0.338156 0.000000
v 0.679129 1.335689 0.449629
vt 0.885842 0.213921
vn 0.941090 0.338156 0.000000
v 0.679129 1.335689 -0.451293
vt 0.714158 0.213921
vn 0.941090 0.338156 0.000000
v 0.834272 0.903924 -0.451293
vt 0.714158 0.301350
vn 0.941090 0.338156 0.000000
v 0.679129 1.335689 0.449629
vt 0.885842 0.213921
vn 0.311992 0.950085 0.000000
v 0.485159 1.399386 0.449629
vt 0.885842 0.175015
vn 0.311992 0.950085 0.000000
v 0.485159 1.399386 -0.451293
vt 0.714158 0.175015
vn 0.311992 0.950085 0.000000
v 0.679129 1.335689 -0.451293
vt 0.714158 0.213921
vn 0.311992 0.950085 0.000000
v 0.664562 0.848642 -0.451293
vt 0.680160 0.300328
vn 0.000000 0.000000 -1.000000
v 0.834272 0.903924 -0.451293
vt 0.714158 0.301350
vn 0.000000 0.000000 -1.000000
v 0.679129 1.335689 -0.451293
vt 0.714158 0.213921
vn 0.000000 0.000000 -1.000000
v 0.485159 1.399386 -0.451293
vt 0.683477 0.189999
vn 0.000000 0.000000 -1.000000
v 0.485159 1.399386 0.449629
vt 0.916523 0.189999
vn -0.000000 0.000000 1.000000
v 0.679129 1.335689 0.449629
vt 0.885842 0.213921
vn -0.000000 0.000000 1.000000
v 0.834272 0.903924 0.449629
vt 0.885842 0.301350
vn -0.000000 0.000000 1.000000
v 0.664562 0.848642 0.449629
vt 0.919840 0.300328
vn -0.000000 0.000000 1.000000
# Faces (1 to 157)
g pCube201_0
f -155/-155/-155 -156/-156/-156 -157/-157/-157
f -154/-154/-154 -155/-155/-155 -157/-157/-157
f -153/-153/-153 -154/-154/-154 -157/-157/-157
f -152/-152/-152 -153/-153/-153 -157/-157/-157
f -149/-149/-149 -150/-150/-150 -151/-151/-151
f -148/-148/-148 -149/-149/-149 -151/-151/-151
f -147/-147/-147 -148/-148/-148 -151/-151/-151
f -146/-146/-146 -147/-147/-147 -151/-151/-151
f -143/-143/-143 -144/-144/-144 -145/-145/-145
f -142/-142/-142 -143/-143/-143 -145/-145/-145
f -145/-145/-145 -144/-144/-144 -141/-141/-141
f -144/-144/-144 -140/-140/-140 -141/-141/-141
f -142/-142/-142 -139/-139/-139 -143/-143/-143
f -139/-139/-139 -138/-138/-138 -143/-143/-143
f -137/-137/-137 -138/-138/-138 -139/-139/-139
f -136/-136/-136 -137/-137/-137 -139/-139/-139
f -135/-135/-135 -137/-137/-137 -136/-136/-136
f -134/-134/-134 -135/-135/-135 -136/-136/-136
f -131/-131/-131 -132/-132/-132 -133/-133/-133
f -130/-130/-130 -131/-131/-131 -133/-133/-133
f -131/-131/-131 -130/-130/-130 -129/-129/-129
f -130/-130/-130 -128/-128/-128 -129/-129/-129
f -127/-127/-127 -129/-129/-129 -128/-128/-128
f -126/-126/-126 -127/-127/-127 -128/-128/-128
f -123/-123/-123 -124/-124/-124 -125/-125/-125
f -122/-122/-122 -123/-123/-123 -125/-125/-125
f -119/-119/-119 -120/-120/-120 -121/-121/-121
f -118/-118/-118 -119/-119/-119 -121/-121/-121
f -115/-115/-115 -116/-116/-116 -117/-117/-117
f -114/-114/-114 -115/-115/-115 -117/-117/-117
f -111/-111/-111 -112/-112/-112 -113/-113/-113
f -110/-110/-110 -111/-111/-111 -113/-113/-113
f -107/-107/-107 -108/-108/-108 -109/-109/-109
f -106/-106/-106 -107/-107/-107 -109/-109/-109
f -105/-105/-105 -107/-107/-107 -106/-106/-106
f -104/-104/-104 -105/-105/-105 -106/-106/-106
f -109/-109/-109 -108/-108/-108 -103/-103/-103
f -108/-108/-108 -102/-102/-102 -103/-103/-103
f -103/-103/-103 -102/-102/-102 -101/-101/-101
f -102/-102/-102 -100/-100/-100 -101/-101/-101
f -101/-101/-101 -100/-100/-100 -99/-99/-99
f -100/-100/-100 -98/-98/-98 -99/-99/-99
f -99/-99/-99 -98/-98/-98 -97/-97/-97
f -98/-98/-98 -96/-96/-96 -97/-97/-97
f -107/-107/-107 -95/-95/-95 -108/-108/-108
f -95/-95/-95 -94/-94/-94 -108/-108/-108
f -108/-108/-108 -94/-94/-94 -102/-102/-102
f -93/-93/-93 -95/-95/-95 -107/-107/-107
f -105/-105/-105 -93/-93/-93 -107/-107/-107
f -98/-98/-98 -92/-92/-92 -96/-96/-96
f -92/-92/-92 -91/-91/-91 -96/-96/-96
f -90/-90/-90 -92/-92/-92 -98/-98/-98
f -100/-100/-100 -90/-90/-90 -98/-98/-98
f -89/-89/-89 -90/-90/-90 -100/-100/-100
f -102/-102/-102 -89/-89/-89 -100/-100/-100
f -94/-94/-94 -89/-89/-89 -102/-102/-102
f -95/-95/-95 -88/-88/-88 -94/-94/-94
f -88/-88/-88 -87/-87/-87 -94/-94/-94
f -94/-94/-94 -87/-87/-87 -89/-89/-89
f -86/-86/-86 -88/-88/-88 -95/-95/-95
f -93/-93/-93 -86/-86/-86 -95/-95/-95
f -92/-92/-92 -85/-85/-85 -91/-91/-91
f -85/-85/-85 -84/-84/-84 -91/-91/-91
f -83/-83/-83 -85/-85/-85 -92/-92/-92
f -90/-90/-90 -83/-83/-83 -92/-92/-92
f -82/-82/-82 -83/-83/-83 -90/-90/-90
f -89/-89/-89 -82/-82/-82 -90/-90/-90
f -87/-87/-87 -82/-82/-82 -89/-89/-89
f -88/-88/-88 -81/-81/-81 -87/-87/-87
f -81/-81/-81 -80/-80/-80 -87/-87/-87
f -87/-87/-87 -80/-80/-80 -82/-82/-82
f -79/-79/-79 -81/-81/-81 -88/-88/-88
f -86/-86/-86 -79/-79/-79 -88/-88/-88
f -85/-85/-85 -78/-78/-78 -84/-84/-84
f -78/-78/-78 -77/-77/-77 -84/-84/-84
f -76/-76/-76 -78/-78/-78 -85/-85/-85
f -83/-83/-83 -76/-76/-76 -85/-85/-85
f -75/-75/-75 -76/-76/-76 -83/-83/-83
f -82/-82/-82 -75/-75/-75 -83/-83/-83
f -80/-80/-80 -75/-75/-75 -82/-82/-82
f -81/-81/-81 -74/-74/-74 -80/-80/-80
f -79/-79/-79 -74/-74/-74 -81/-81/-81
f -78/-78/-78 -74/-74/-74 -77/-77/-77
f -76/-76/-76 -74/-74/-74 -78/-78/-78
f -75/-75/-75 -74/-74/-74 -76/-76/-76
f -80/-80/-80 -74/-74/-74 -75/-75/-75
f -109/-109/-109 -73/-73/-73 -106/-106/-106
f -106/-106/-106 -73/-73/-73 -104/-104/-104
f -103/-103/-103 -73/-73/-73 -109/-109/-109
f -101/-101/-101 -73/-73/-73 -103/-103/-103
f -99/-99/-99 -73/-73/-73 -101/-101/-101
f -97/-97/-97 -73/-73/-73 -99/-99/-99
f -70/-70/-70 -71/-71/-71 -72/-72/-72
f -69/-69/-69 -70/-70/-70 -72/-72/-72
f -66/-66/-66 -67/-67/-67 -68/-68/-68
f -65/-65/-65 -66/-66/-66 -68/-68/-68
f -64/-64/-64 -66/-66/-66 -65/-65/-65
f -63/-63/-63 -64/-64/-64 -65/-65/-65
f -62/-62/-62 -64/-64/-64 -63/-63/-63
f -61/-61/-61 -62/-62/-62 -63/-63/-63
f -68/-68/-68 -67/-67/-67 -60/-60/-60
f -67/-67/-67 -59/-59/-59 -60/-60/-60
f -60/-60/-60 -59/-59/-59 -58/-58/-58
f -59/-59/-59 -57/-57/-57 -58/-58/-58
f -58/-58/-58 -57/-57/-57 -56/-56/-56
f -57/-57/-57 -55/-55/-55 -56/-56/-56
f -56/-56/-56 -55/-55/-55 -54/-54/-54
f -55/-55/-55 -53/-53/-53 -54/-54/-54
f -50/-50/-50 -51/-51/-51 -52/-52/-52
f -49/-49/-49 -50/-50/-50 -52/-52/-52
f -46/-46/-46 -47/-47/-47 -48/-48/-48
f -45/-45/-45 -46/-46/-46 -48/-48/-48
f -42/-42/-42 -43/-43/-43 -44/-44/-44
f -41/-41/-41 -42/-42/-42 -44/-44/-44
f -38/-38/-38 -39/-39/-39 -40/-40/-40
f -37/-37/-37 -38/-38/-38 -40/-40/-40
f -34/-34/-34 -35/-35/-35 -36/-36/-36
f -33/-33/-33 -34/-34/-34 -36/-36/-36
f -30/-30/-30 -31/-31/-31 -32/-32/-32
f -29/-29/-29 -30/-30/-30 -32/-32/-32
f -26/-26/-26 -27/-27/-27 -28/-28/-28
f -25/-25/-25 -26/-26/-26 -28/-28/-28
f -22/-22/-22 -23/-23/-23 -24/-24/-24
f -21/-21/-21 -22/-22/-22 -24/-24/-24
f -18/-18/-18 -19/-19/-19 -20/-20/-20
f -17/-17/-17 -18/-18/-18 -20/-20/-20
f -14/-14/-14 -15/-15/-15 -16/-16/-16
f -13/-13/-13 -14/-14/-14 -16/-16/-16
f -10/-10/-10 -11/-11/-11 -12/-12/-12
f -9/-9/-9 -10/-10/-10 -12/-12/-12
f -6/-6/-6 -7/-7/-7 -8/-8/-8
f -5/-5/-5 -6/-6/-6 -8/-8/-8
f -2/-2/-2 -3/-3/-3 -4/-4/-4
f -1/-1/-1 -2/-2/-2 -4/-4/-4

