# Mesh "pCube169" exported with Unity Assets Bundle Extractor; 18 vertices, 24 indices, 384 bits per vertex
g pCube169
# SubMesh 0
# Vertices
v -50.000000 0.000002 100.000000
vt 0.825473 0.551891
vn -0.000000 0.000000 1.000000
v -50.000000 100.000000 100.000000
vt 0.825473 0.600946
vn -0.000000 0.000000 1.000000
v 50.000000 100.000000 100.000000
vt 0.874527 0.600946
vn -0.000000 0.000000 1.000000
v 50.000000 0.000002 100.000000
vt 0.874527 0.551891
vn -0.000000 0.000000 1.000000
v -50.000000 100.000000 100.000000
vt 0.825473 0.600946
vn -0.000000 0.894427 -0.447214
v -50.000000 0.000002 -100.000000
vt 0.825473 0.674527
vn -0.000000 0.894427 -0.447214
v 50.000000 0.000002 -100.000000
vt 0.874527 0.674527
vn -0.000000 0.894427 -0.447214
v 50.000000 100.000000 100.000000
vt 0.874527 0.600946
vn -0.000000 0.894427 -0.447214
v -50.000000 0.000002 -100.000000
vt 0.825473 0.674527
vn -0.000000 -1.000000 0.000000
v -50.000000 0.000002 100.000000
vt 0.825473 0.748109
vn -0.000000 -1.000000 0.000000
v 50.000000 0.000002 100.000000
vt 0.874527 0.748109
vn -0.000000 -1.000000 0.000000
v 50.000000 0.000002 -100.000000
vt 0.874527 0.674527
vn -0.000000 -1.000000 0.000000
v 50.000000 0.000002 100.000000
vt 0.874527 0.551891
vn 1.000000 0.000000 0.000000
v 50.000000 100.000000 100.000000
vt 0.874527 0.600946
vn 1.000000 0.000000 0.000000
v 50.000000 0.000002 -100.000000
vt 0.923582 0.576418
vn 1.000000 0.000000 0.000000
v -50.000000 0.000002 -100.000000
vt 0.776418 0.576418
vn -1.000000 0.000000 0.000000
v -50.000000 100.000000 100.000000
vt 0.825473 0.600946
vn -1.000000 0.000000 0.000000
v -50.000000 0.000002 100.000000
vt 0.825473 0.551891
vn -1.000000 0.000000 0.000000
# Faces (1 to 18)
g pCube169_0
f -16/-16/-16 -17/-17/-17 -18/-18/-18
f -15/-15/-15 -16/-16/-16 -18/-18/-18
f -12/-12/-12 -13/-13/-13 -14/-14/-14
f -11/-11/-11 -12/-12/-12 -14/-14/-14
f -8/-8/-8 -9/-9/-9 -10/-10/-10
f -7/-7/-7 -8/-8/-8 -10/-10/-10
f -4/-4/-4 -5/-5/-5 -6/-6/-6
f -1/-1/-1 -2/-2/-2 -3/-3/-3

