# Mesh "polySurface1" exported with Unity Assets Bundle Extractor; 128 vertices, 330 indices, 384 bits per vertex
g polySurface1
# SubMesh 0
# Vertices
v -0.044781 0.278321 0.845022
vt 0.964783 0.868325
vn -0.000000 -0.012420 0.999923
v -0.044781 1.151292 0.845022
vt 0.702168 0.868325
vn -0.000000 0.012420 0.999923
v 0.028633 1.151292 0.845022
vt 0.702168 0.890410
vn -0.000000 0.012420 0.999923
v 0.028633 0.278321 0.845022
vt 0.964783 0.890410
vn -0.000000 -0.012420 0.999923
v 0.028633 0.235887 0.833652
vt 0.977548 0.890410
vn -0.000000 -0.499998 0.866026
v -0.044781 0.235887 0.833652
vt 0.977548 0.868325
vn -0.000000 -0.499998 0.866026
v -0.044781 1.193726 0.833652
vt 0.689402 0.868325
vn -0.000000 0.500002 0.866024
v 0.028633 1.193726 0.833652
vt 0.689403 0.890410
vn -0.000000 0.500002 0.866024
v -0.044781 1.236160 0.760155
vt 0.957861 0.929695
vn -0.000000 0.999974 0.007276
v -0.044781 1.236160 -0.760155
vt 0.500509 0.929695
vn -0.000000 0.999974 -0.007276
v 0.028633 1.236160 -0.760155
vt 0.500509 0.951780
vn -0.000000 0.999974 -0.007276
v 0.028633 1.236160 0.760155
vt 0.957861 0.951780
vn -0.000000 0.999974 0.007276
v 0.028633 1.224790 0.802588
vt 0.970626 0.951780
vn -0.000000 0.866027 0.499998
v -0.044781 1.224790 0.802588
vt 0.970626 0.929695
vn -0.000000 0.866027 0.499998
v 0.028633 1.193726 0.833652
vt 0.979971 0.951780
vn -0.000000 0.500002 0.866024
v -0.044781 1.193726 0.833652
vt 0.979971 0.929695
vn -0.000000 0.500002 0.866024
v -0.044781 1.224790 -0.802588
vt 0.487743 0.929695
vn -0.000000 0.866027 -0.499998
v 0.028633 1.224790 -0.802588
vt 0.487743 0.951780
vn -0.000000 0.866027 -0.499998
v -0.044781 1.193726 -0.833652
vt 0.478398 0.929695
vn -0.000000 0.500002 -0.866024
v 0.028633 1.193726 -0.833652
vt 0.478398 0.951780
vn -0.000000 0.500002 -0.866024
v -0.044781 1.151292 -0.845022
vt 0.964783 0.840593
vn -0.000000 0.012420 -0.999923
v -0.044781 0.278321 -0.845022
vt 0.702168 0.840593
vn -0.000000 -0.012420 -0.999923
v 0.028633 0.278321 -0.845022
vt 0.702168 0.862678
vn -0.000000 -0.012420 -0.999923
v 0.028633 1.151292 -0.845022
vt 0.964783 0.862678
vn -0.000000 0.012420 -0.999923
v 0.028633 1.193726 -0.833652
vt 0.977548 0.862678
vn -0.000000 0.500002 -0.866024
v -0.044781 1.193726 -0.833652
vt 0.977548 0.840593
vn -0.000000 0.500002 -0.866024
v -0.044781 0.235887 -0.833652
vt 0.689402 0.840593
vn -0.000000 -0.499998 -0.866026
v 0.028633 0.235887 -0.833652
vt 0.689403 0.862678
vn -0.000000 -0.499998 -0.866026
v -0.044781 0.193453 -0.760155
vt 0.957861 0.958399
vn -0.000000 -0.999974 -0.007276
v -0.044781 0.193453 0.760155
vt 0.500509 0.958399
vn -0.000000 -0.999974 0.007276
v 0.028633 0.193453 0.760155
vt 0.500508 0.980485
vn -0.000000 -0.999974 0.007276
v 0.028633 0.193453 -0.760155
vt 0.957861 0.980485
vn -0.000000 -0.999974 -0.007276
v -0.044781 0.204824 0.802589
vt 0.487743 0.958399
vn -0.000000 -0.866026 0.499999
v 0.028633 0.204824 0.802589
vt 0.487743 0.980485
vn -0.000000 -0.866026 0.499999
v -0.044781 0.235887 0.833652
vt 0.478398 0.958399
vn -0.000000 -0.499998 0.866026
v 0.028633 0.235887 0.833652
vt 0.478398 0.980484
vn -0.000000 -0.499998 0.866026
v 0.028633 0.204824 -0.802589
vt 0.970626 0.980484
vn -0.000000 -0.866026 -0.499999
v -0.044781 0.204824 -0.802589
vt 0.970626 0.958399
vn -0.000000 -0.866026 -0.499999
v 0.028633 0.235887 -0.833652
vt 0.979971 0.980485
vn -0.000000 -0.499998 -0.866026
v -0.044781 0.235887 -0.833652
vt 0.979971 0.958399
vn -0.000000 -0.499998 -0.866026
v -0.004019 0.237663 -0.763935
vt 0.929696 0.038941
vn 1.000000 0.000000 0.000000
v -0.004019 0.227025 -0.723544
vt 0.906946 0.032949
vn 1.000000 0.000000 0.000000
v -0.004019 0.227025 0.723544
vt 0.091868 0.032949
vn 1.000000 0.000000 0.000000
v -0.004019 0.237663 0.763935
vt 0.069118 0.038940
vn 1.000000 0.000000 0.000000
v -0.004019 0.266726 -0.793502
vt 0.946350 0.055310
vn 1.000000 0.000000 0.000000
v -0.004019 0.266726 0.793502
vt 0.052464 0.055310
vn 1.000000 0.000000 0.000000
v -0.004019 0.306428 -0.804325
vt 0.952446 0.077672
vn 1.000000 0.000000 0.000000
v -0.004019 0.306428 0.804325
vt 0.046368 0.077672
vn 1.000000 0.000000 0.000000
v -0.004019 1.123185 -0.804325
vt 0.952446 0.537714
vn 1.000000 0.000000 0.000000
v -0.004019 1.123185 0.804325
vt 0.046368 0.537714
vn 1.000000 0.000000 0.000000
v -0.004019 1.162887 -0.793502
vt 0.946350 0.560076
vn 1.000000 0.000000 0.000000
v -0.004019 1.162887 0.793502
vt 0.052464 0.560076
vn 1.000000 0.000000 0.000000
v -0.004019 1.191950 -0.763934
vt 0.929696 0.576446
vn 1.000000 0.000000 0.000000
v -0.004019 1.191950 0.763934
vt 0.069118 0.576446
vn 1.000000 0.000000 0.000000
v -0.004019 1.202588 -0.723544
vt 0.906946 0.582438
vn 1.000000 0.000000 0.000000
v -0.004019 1.202588 0.723544
vt 0.091869 0.582438
vn 1.000000 0.000000 0.000000
v 0.028633 1.151292 -0.845022
vt 0.987055 0.559491
vn 1.000000 0.000000 0.000000
v 0.028633 1.123185 -0.804325
vt 0.963699 0.543361
vn 1.000000 0.000000 0.000000
v 0.028633 1.162887 -0.793502
vt 0.957487 0.566146
vn 1.000000 0.000000 0.000000
v 0.028633 1.193726 -0.833652
vt 0.980530 0.583846
vn 1.000000 0.000000 0.000000
v 0.028633 1.191950 -0.763934
vt 0.940518 0.582826
vn 1.000000 0.000000 0.000000
v 0.028633 1.224790 -0.802588
vt 0.962702 0.601673
vn 1.000000 0.000000 0.000000
v 0.028633 1.202588 -0.723544
vt 0.917337 0.588931
vn 1.000000 0.000000 0.000000
v 0.028633 1.236160 -0.760155
vt 0.938348 0.608199
vn 1.000000 0.000000 0.000000
v 0.028633 1.202588 0.723544
vt 0.086822 0.588931
vn 1.000000 0.000000 0.000000
v 0.028633 1.236160 0.760155
vt 0.065810 0.608199
vn 1.000000 0.000000 0.000000
v 0.028633 1.191950 0.763934
vt 0.063641 0.582826
vn 1.000000 0.000000 0.000000
v 0.028633 1.224790 0.802588
vt 0.041456 0.601673
vn 1.000000 0.000000 0.000000
v 0.028633 1.162887 0.793502
vt 0.046671 0.566146
vn 1.000000 0.000000 0.000000
v 0.028633 1.193726 0.833652
vt 0.023628 0.583845
vn 1.000000 0.000000 0.000000
v 0.028633 1.123185 0.804325
vt 0.040460 0.543361
vn 1.000000 0.000000 0.000000
v 0.028633 1.151292 0.845022
vt 0.017102 0.559491
vn 1.000000 0.000000 0.000000
v 0.028633 0.306428 0.804325
vt 0.040460 0.074606
vn 1.000000 0.000000 0.000000
v 0.028633 0.278321 0.845022
vt 0.017103 0.058475
vn 1.000000 0.000000 0.000000
v 0.028633 0.266726 0.793502
vt 0.046671 0.051820
vn 1.000000 0.000000 0.000000
v 0.028633 0.235887 0.833652
vt 0.023628 0.034121
vn 1.000000 0.000000 0.000000
v 0.028633 0.237663 0.763935
vt 0.063641 0.035140
vn 1.000000 0.000000 0.000000
v 0.028633 0.204824 0.802589
vt 0.041456 0.016293
vn 1.000000 0.000000 0.000000
v 0.028633 0.227025 0.723544
vt 0.086822 0.029035
vn 1.000000 0.000000 0.000000
v 0.028633 0.193453 0.760155
vt 0.065810 0.009767
vn 1.000000 0.000000 0.000000
v 0.028633 0.227025 -0.723544
vt 0.917337 0.029035
vn 1.000000 0.000000 0.000000
v 0.028633 0.193453 -0.760155
vt 0.938348 0.009767
vn 1.000000 0.000000 0.000000
v 0.028633 0.237663 -0.763935
vt 0.940518 0.035141
vn 1.000000 0.000000 0.000000
v 0.028633 0.204824 -0.802589
vt 0.962702 0.016293
vn 1.000000 0.000000 0.000000
v 0.028633 0.266726 -0.793502
vt 0.957487 0.051820
vn 1.000000 0.000000 0.000000
v 0.028633 0.235887 -0.833652
vt 0.980530 0.034121
vn 1.000000 0.000000 0.000000
v 0.028633 0.306428 -0.804325
vt 0.963699 0.074606
vn 1.000000 0.000000 0.000000
v 0.028633 0.278321 -0.845022
vt 0.987056 0.058475
vn 1.000000 0.000000 0.000000
v 0.028633 1.123185 -0.804325
vt 0.719900 0.834945
vn -0.000000 -0.012635 0.999920
v -0.004019 1.123185 -0.804325
vt 0.719900 0.825122
vn -0.000000 -0.012635 0.999920
v -0.004019 1.162887 -0.793502
vt 0.707957 0.825122
vn -0.000000 -0.506463 0.862261
v 0.028633 1.162887 -0.793502
vt 0.707957 0.834945
vn -0.000000 -0.506463 0.862261
v 0.028633 0.306428 -0.804325
vt 0.965605 0.834945
vn -0.000000 0.012635 0.999920
v -0.004019 0.306428 -0.804325
vt 0.965605 0.825122
vn -0.000000 0.012635 0.999920
v 0.028633 0.266726 -0.793502
vt 0.977548 0.834945
vn -0.000000 0.506462 0.862263
v -0.004019 0.266726 -0.793502
vt 0.977548 0.825122
vn -0.000000 0.506462 0.862263
v 0.028633 1.162887 -0.793502
vt 0.977548 0.921351
vn -0.000000 -0.506463 0.862261
v -0.004019 1.162887 -0.793502
vt 0.977548 0.911528
vn -0.000000 -0.506463 0.862261
v -0.004019 1.191950 -0.763934
vt 0.968653 0.911528
vn -0.000000 -0.869710 0.493562
v 0.028633 1.191950 -0.763934
vt 0.968653 0.921351
vn -0.000000 -0.869710 0.493562
v -0.004019 1.202588 -0.723544
vt 0.956503 0.911528
vn -0.000000 -0.999974 0.007151
v 0.028633 1.202588 -0.723544
vt 0.956503 0.921351
vn -0.000000 -0.999974 0.007151
v -0.004019 1.202588 0.723544
vt 0.521177 0.911528
vn -0.000000 -0.999974 -0.007151
v 0.028633 1.202588 0.723544
vt 0.521177 0.921351
vn -0.000000 -0.999974 -0.007151
v -0.004019 1.191950 0.763934
vt 0.509026 0.911528
vn -0.000000 -0.869710 -0.493562
v 0.028633 1.191950 0.763934
vt 0.509026 0.921351
vn -0.000000 -0.869710 -0.493562
v -0.004019 1.162887 0.793502
vt 0.500132 0.911528
vn -0.000000 -0.506463 -0.862261
v 0.028633 1.162887 0.793502
vt 0.500131 0.921351
vn -0.000000 -0.506463 -0.862261
v 0.028633 1.162887 0.793502
vt 0.977548 0.819475
vn -0.000000 -0.506463 -0.862261
v -0.004019 1.162887 0.793502
vt 0.977548 0.809652
vn -0.000000 -0.506463 -0.862261
v -0.004019 1.123185 0.804325
vt 0.965605 0.809652
vn -0.000000 -0.012635 -0.999920
v 0.028633 1.123185 0.804325
vt 0.965605 0.819475
vn -0.000000 -0.012635 -0.999920
v -0.004019 0.306428 0.804325
vt 0.719900 0.809652
vn -0.000000 0.012635 -0.999920
v 0.028633 0.306428 0.804325
vt 0.719900 0.819475
vn -0.000000 0.012635 -0.999920
v -0.004019 0.266726 0.793502
vt 0.707957 0.809652
vn -0.000000 0.506462 -0.862263
v 0.028633 0.266726 0.793502
vt 0.707957 0.819475
vn -0.000000 0.506462 -0.862263
v 0.028633 0.266726 0.793502
vt 0.977548 0.905881
vn -0.000000 0.506462 -0.862263
v -0.004019 0.266726 0.793502
vt 0.977548 0.896058
vn -0.000000 0.506462 -0.862263
v -0.004019 0.237663 0.763935
vt 0.968653 0.896058
vn -0.000000 0.869710 -0.493563
v 0.028633 0.237663 0.763935
vt 0.968653 0.905881
vn -0.000000 0.869710 -0.493563
v -0.004019 0.227025 0.723544
vt 0.956502 0.896058
vn -0.000000 0.999974 -0.007151
v 0.028633 0.227025 0.723544
vt 0.956502 0.905881
vn -0.000000 0.999974 -0.007151
v -0.004019 0.227025 -0.723544
vt 0.521177 0.896058
vn -0.000000 0.999974 0.007151
v 0.028633 0.227025 -0.723544
vt 0.521177 0.905881
vn -0.000000 0.999974 0.007151
v -0.004019 0.237663 -0.763935
vt 0.509026 0.896058
vn -0.000000 0.869710 0.493563
v 0.028633 0.237663 -0.763935
vt 0.509026 0.905881
vn -0.000000 0.869710 0.493563
v -0.004019 0.266726 -0.793502
vt 0.500131 0.896058
vn -0.000000 0.506462 0.862263
v 0.028633 0.266726 -0.793502
vt 0.500131 0.905881
vn -0.000000 0.506462 0.862263
# Faces (1 to 128)
g polySurface1_0
f -126/-126/-126 -127/-127/-127 -128/-128/-128
f -125/-125/-125 -126/-126/-126 -128/-128/-128
f -124/-124/-124 -125/-125/-125 -128/-128/-128
f -123/-123/-123 -124/-124/-124 -128/-128/-128
f -127/-127/-127 -126/-126/-126 -122/-122/-122
f -126/-126/-126 -121/-121/-121 -122/-122/-122
f -118/-118/-118 -119/-119/-119 -120/-120/-120
f -117/-117/-117 -118/-118/-118 -120/-120/-120
f -116/-116/-116 -117/-117/-117 -120/-120/-120
f -115/-115/-115 -116/-116/-116 -120/-120/-120
f -114/-114/-114 -116/-116/-116 -115/-115/-115
f -113/-113/-113 -114/-114/-114 -115/-115/-115
f -119/-119/-119 -118/-118/-118 -112/-112/-112
f -118/-118/-118 -111/-111/-111 -112/-112/-112
f -112/-112/-112 -111/-111/-111 -110/-110/-110
f -111/-111/-111 -109/-109/-109 -110/-110/-110
f -106/-106/-106 -107/-107/-107 -108/-108/-108
f -105/-105/-105 -106/-106/-106 -108/-108/-108
f -104/-104/-104 -105/-105/-105 -108/-108/-108
f -103/-103/-103 -104/-104/-104 -108/-108/-108
f -107/-107/-107 -106/-106/-106 -102/-102/-102
f -106/-106/-106 -101/-101/-101 -102/-102/-102
f -98/-98/-98 -99/-99/-99 -100/-100/-100
f -97/-97/-97 -98/-98/-98 -100/-100/-100
f -99/-99/-99 -98/-98/-98 -96/-96/-96
f -98/-98/-98 -95/-95/-95 -96/-96/-96
f -96/-96/-96 -95/-95/-95 -94/-94/-94
f -95/-95/-95 -93/-93/-93 -94/-94/-94
f -92/-92/-92 -97/-97/-97 -100/-100/-100
f -91/-91/-91 -92/-92/-92 -100/-100/-100
f -90/-90/-90 -92/-92/-92 -91/-91/-91
f -89/-89/-89 -90/-90/-90 -91/-91/-91
f -86/-86/-86 -87/-87/-87 -88/-88/-88
f -88/-88/-88 -85/-85/-85 -86/-86/-86
f -88/-88/-88 -84/-84/-84 -85/-85/-85
f -84/-84/-84 -83/-83/-83 -85/-85/-85
f -84/-84/-84 -82/-82/-82 -83/-83/-83
f -82/-82/-82 -81/-81/-81 -83/-83/-83
f -82/-82/-82 -80/-80/-80 -81/-81/-81
f -80/-80/-80 -79/-79/-79 -81/-81/-81
f -80/-80/-80 -78/-78/-78 -79/-79/-79
f -78/-78/-78 -77/-77/-77 -79/-79/-79
f -78/-78/-78 -76/-76/-76 -77/-77/-77
f -76/-76/-76 -75/-75/-75 -77/-77/-77
f -76/-76/-76 -74/-74/-74 -75/-75/-75
f -74/-74/-74 -73/-73/-73 -75/-75/-75
f -70/-70/-70 -71/-71/-71 -72/-72/-72
f -69/-69/-69 -70/-70/-70 -72/-72/-72
f -68/-68/-68 -70/-70/-70 -69/-69/-69
f -67/-67/-67 -68/-68/-68 -69/-69/-69
f -66/-66/-66 -68/-68/-68 -67/-67/-67
f -65/-65/-65 -66/-66/-66 -67/-67/-67
f -64/-64/-64 -66/-66/-66 -65/-65/-65
f -63/-63/-63 -64/-64/-64 -65/-65/-65
f -62/-62/-62 -64/-64/-64 -63/-63/-63
f -61/-61/-61 -62/-62/-62 -63/-63/-63
f -60/-60/-60 -62/-62/-62 -61/-61/-61
f -59/-59/-59 -60/-60/-60 -61/-61/-61
f -58/-58/-58 -60/-60/-60 -59/-59/-59
f -57/-57/-57 -58/-58/-58 -59/-59/-59
f -56/-56/-56 -58/-58/-58 -57/-57/-57
f -55/-55/-55 -56/-56/-56 -57/-57/-57
f -54/-54/-54 -56/-56/-56 -55/-55/-55
f -53/-53/-53 -54/-54/-54 -55/-55/-55
f -52/-52/-52 -54/-54/-54 -53/-53/-53
f -51/-51/-51 -52/-52/-52 -53/-53/-53
f -50/-50/-50 -52/-52/-52 -51/-51/-51
f -49/-49/-49 -50/-50/-50 -51/-51/-51
f -48/-48/-48 -50/-50/-50 -49/-49/-49
f -47/-47/-47 -48/-48/-48 -49/-49/-49
f -46/-46/-46 -48/-48/-48 -47/-47/-47
f -45/-45/-45 -46/-46/-46 -47/-47/-47
f -44/-44/-44 -46/-46/-46 -45/-45/-45
f -43/-43/-43 -44/-44/-44 -45/-45/-45
f -42/-42/-42 -44/-44/-44 -43/-43/-43
f -41/-41/-41 -42/-42/-42 -43/-43/-43
f -71/-71/-71 -42/-42/-42 -41/-41/-41
f -72/-72/-72 -71/-71/-71 -41/-41/-41
f -38/-38/-38 -39/-39/-39 -40/-40/-40
f -37/-37/-37 -38/-38/-38 -40/-40/-40
f -40/-40/-40 -39/-39/-39 -36/-36/-36
f -39/-39/-39 -35/-35/-35 -36/-36/-36
f -36/-36/-36 -35/-35/-35 -34/-34/-34
f -35/-35/-35 -33/-33/-33 -34/-34/-34
f -30/-30/-30 -31/-31/-31 -32/-32/-32
f -29/-29/-29 -30/-30/-30 -32/-32/-32
f -28/-28/-28 -30/-30/-30 -29/-29/-29
f -27/-27/-27 -28/-28/-28 -29/-29/-29
f -26/-26/-26 -28/-28/-28 -27/-27/-27
f -25/-25/-25 -26/-26/-26 -27/-27/-27
f -24/-24/-24 -26/-26/-26 -25/-25/-25
f -23/-23/-23 -24/-24/-24 -25/-25/-25
f -22/-22/-22 -24/-24/-24 -23/-23/-23
f -21/-21/-21 -22/-22/-22 -23/-23/-23
f -18/-18/-18 -19/-19/-19 -20/-20/-20
f -17/-17/-17 -18/-18/-18 -20/-20/-20
f -16/-16/-16 -18/-18/-18 -17/-17/-17
f -15/-15/-15 -16/-16/-16 -17/-17/-17
f -14/-14/-14 -16/-16/-16 -15/-15/-15
f -13/-13/-13 -14/-14/-14 -15/-15/-15
f -10/-10/-10 -11/-11/-11 -12/-12/-12
f -9/-9/-9 -10/-10/-10 -12/-12/-12
f -8/-8/-8 -10/-10/-10 -9/-9/-9
f -7/-7/-7 -8/-8/-8 -9/-9/-9
f -6/-6/-6 -8/-8/-8 -7/-7/-7
f -5/-5/-5 -6/-6/-6 -7/-7/-7
f -4/-4/-4 -6/-6/-6 -5/-5/-5
f -3/-3/-3 -4/-4/-4 -5/-5/-5
f -2/-2/-2 -4/-4/-4 -3/-3/-3
f -1/-1/-1 -2/-2/-2 -3/-3/-3

