# Mesh "pPlane1" exported with Unity Assets Bundle Extractor; 25 vertices, 96 indices, 384 bits per vertex
g pPlane1
# SubMesh 0
# Vertices
v -0.500000 -0.150021 0.500000
vt 0.000000 0.000000
vn -0.206272 0.956506 0.206272
v -0.500000 -0.091744 0.250000
vt 0.000000 0.250000
vn -0.192329 0.968787 0.156399
v -0.250000 -0.042196 0.250000
vt 0.250000 0.250000
vn -0.143940 0.979062 0.143940
v -0.250000 -0.091744 0.500000
vt 0.250000 0.000000
vn -0.156399 0.968787 0.192329
v -0.000000 -0.020370 0.250000
vt 0.500000 0.250000
vn -0.000000 0.991115 0.133006
v -0.000000 -0.061146 0.500000
vt 0.500000 0.000000
vn -0.000000 0.984072 0.177771
v 0.250000 -0.042196 0.250000
vt 0.750000 0.250000
vn 0.143940 0.979062 0.143940
v 0.250000 -0.091744 0.500000
vt 0.750000 0.000000
vn 0.156399 0.968787 0.192329
v 0.500000 -0.091744 0.250000
vt 1.000000 0.250000
vn 0.192329 0.968787 0.156399
v 0.500000 -0.150021 0.500000
vt 1.000000 0.000000
vn 0.206272 0.956506 0.206272
v -0.250000 -0.020370 0.000000
vt 0.250000 0.500000
vn -0.133006 0.991115 0.000000
v -0.500000 -0.061146 0.000000
vt 0.000000 0.500000
vn -0.177771 0.984072 0.000000
v -0.000000 0.001998 0.000000
vt 0.500000 0.500000
vn -0.000000 1.000000 0.000000
v 0.250000 -0.020370 0.000000
vt 0.750000 0.500000
vn 0.133006 0.991115 0.000000
v 0.500000 -0.061146 0.000000
vt 1.000000 0.500000
vn 0.177771 0.984072 0.000000
v -0.250000 -0.042196 -0.250000
vt 0.250000 0.750000
vn -0.143940 0.979062 -0.143940
v -0.500000 -0.091744 -0.250000
vt 0.000000 0.750000
vn -0.192329 0.968787 -0.156399
v -0.000000 -0.020370 -0.250000
vt 0.500000 0.750000
vn -0.000000 0.991115 -0.133006
v 0.250000 -0.042196 -0.250000
vt 0.750000 0.750000
vn 0.143940 0.979062 -0.143940
v 0.500000 -0.091744 -0.250000
vt 1.000000 0.750000
vn 0.192329 0.968787 -0.156399
v -0.250000 -0.091744 -0.500000
vt 0.250000 1.000000
vn -0.156399 0.968787 -0.192329
v -0.500000 -0.150021 -0.500000
vt 0.000000 1.000000
vn -0.206272 0.956506 -0.206272
v -0.000000 -0.061146 -0.500000
vt 0.500000 1.000000
vn -0.000000 0.984072 -0.177771
v 0.250000 -0.091744 -0.500000
vt 0.750000 1.000000
vn 0.156399 0.968787 -0.192329
v 0.500000 -0.150021 -0.500000
vt 1.000000 1.000000
vn 0.206272 0.956506 -0.206272
# Faces (1 to 25)
g pPlane1_0
f -23/-23/-23 -24/-24/-24 -25/-25/-25
f -22/-22/-22 -23/-23/-23 -25/-25/-25
f -21/-21/-21 -23/-23/-23 -22/-22/-22
f -20/-20/-20 -21/-21/-21 -22/-22/-22
f -19/-19/-19 -21/-21/-21 -20/-20/-20
f -18/-18/-18 -19/-19/-19 -20/-20/-20
f -17/-17/-17 -19/-19/-19 -18/-18/-18
f -16/-16/-16 -17/-17/-17 -18/-18/-18
f -23/-23/-23 -15/-15/-15 -24/-24/-24
f -15/-15/-15 -14/-14/-14 -24/-24/-24
f -13/-13/-13 -15/-15/-15 -23/-23/-23
f -21/-21/-21 -13/-13/-13 -23/-23/-23
f -12/-12/-12 -13/-13/-13 -21/-21/-21
f -19/-19/-19 -12/-12/-12 -21/-21/-21
f -11/-11/-11 -12/-12/-12 -19/-19/-19
f -17/-17/-17 -11/-11/-11 -19/-19/-19
f -15/-15/-15 -10/-10/-10 -14/-14/-14
f -10/-10/-10 -9/-9/-9 -14/-14/-14
f -8/-8/-8 -10/-10/-10 -15/-15/-15
f -13/-13/-13 -8/-8/-8 -15/-15/-15
f -7/-7/-7 -8/-8/-8 -13/-13/-13
f -12/-12/-12 -7/-7/-7 -13/-13/-13
f -6/-6/-6 -7/-7/-7 -12/-12/-12
f -11/-11/-11 -6/-6/-6 -12/-12/-12
f -10/-10/-10 -5/-5/-5 -9/-9/-9
f -5/-5/-5 -4/-4/-4 -9/-9/-9
f -3/-3/-3 -5/-5/-5 -10/-10/-10
f -8/-8/-8 -3/-3/-3 -10/-10/-10
f -2/-2/-2 -3/-3/-3 -8/-8/-8
f -7/-7/-7 -2/-2/-2 -8/-8/-8
f -1/-1/-1 -2/-2/-2 -7/-7/-7
f -6/-6/-6 -1/-1/-1 -7/-7/-7

