# Mesh "pPlane275" exported with Unity Assets Bundle Extractor; 36 vertices, 96 indices, 384 bits per vertex
g pPlane275
# SubMesh 0
# Vertices
v 0.048881 0.016336 0.218410
vt 0.000000 0.000000
vn -0.010212 0.976588 -0.214875
v 0.010453 0.022690 0.249118
vt 0.000000 0.500000
vn -0.010236 0.976584 -0.214892
v 0.005556 0.000000 0.146233
vt 0.500000 0.500000
vn -0.010233 0.976584 -0.214892
v 0.060839 0.000000 0.143603
vt 0.500000 0.000000
vn -0.010219 0.976584 -0.214894
v 0.000658 -0.022690 0.043352
vt 1.000000 0.500000
vn -0.010230 0.976584 -0.214891
v 0.041830 -0.016336 0.070268
vt 1.000000 0.000000
vn -0.010226 0.976579 -0.214914
v -0.049732 0.000000 0.148869
vt 0.500000 1.000000
vn -0.010247 0.976585 -0.214889
v -0.030724 0.016336 0.222202
vt 0.000000 1.000000
vn -0.010259 0.976580 -0.214909
v -0.037774 -0.016336 0.074057
vt 1.000000 1.000000
vn -0.010234 0.976589 -0.214869
v 0.037475 -0.015217 -0.073492
vt 0.000000 0.000000
vn 0.009533 0.979714 0.200175
v -0.000953 -0.021136 -0.042693
vt 0.000000 0.500000
vn 0.009533 0.979712 0.200182
v -0.005865 0.000000 -0.145904
vt 0.500000 0.500000
vn 0.009536 0.979714 0.200175
v 0.049418 0.000000 -0.148538
vt 0.500000 0.000000
vn 0.009535 0.979715 0.200166
v -0.010782 0.021136 -0.249117
vt 1.000000 0.500000
vn 0.009538 0.979715 0.200168
v 0.030399 0.015217 -0.222110
vt 1.000000 0.000000
vn 0.009538 0.979717 0.200157
v -0.061153 0.000000 -0.143274
vt 0.500000 1.000000
vn 0.009536 0.979712 0.200183
v -0.042130 -0.015217 -0.069703
vt 0.000000 1.000000
vn 0.009533 0.979711 0.200188
v -0.049205 0.015217 -0.218316
vt 1.000000 1.000000
vn 0.009539 0.979713 0.200178
v -0.226671 0.016336 0.044060
vt 0.000000 0.000000
vn 0.215139 0.976583 0.000004
v -0.255514 0.022690 0.004211
vt 0.000000 0.500000
vn 0.215144 0.976582 0.000000
v -0.152516 0.000000 0.004211
vt 0.500000 0.500000
vn 0.215137 0.976584 0.000000
v -0.152516 0.000000 0.059558
vt 0.500000 0.000000
vn 0.215132 0.976585 0.000000
v -0.049518 -0.022690 0.004211
vt 1.000000 0.500000
vn 0.215129 0.976586 0.000000
v -0.078360 -0.016336 0.044060
vt 1.000000 0.000000
vn 0.215124 0.976587 -0.000004
v -0.152516 0.000000 -0.051133
vt 0.500000 1.000000
vn 0.215142 0.976583 0.000000
v -0.226671 0.016336 -0.035635
vt 0.000000 1.000000
vn 0.215149 0.976581 -0.000004
v -0.078360 -0.016336 -0.035635
vt 1.000000 1.000000
vn 0.215134 0.976584 0.000004
v 0.077792 -0.015217 0.044060
vt 0.000000 0.000000
vn -0.200403 0.979713 -0.000004
v 0.048856 -0.021136 0.004211
vt 0.000000 0.500000
vn -0.200396 0.979715 0.000000
v 0.152186 0.000000 0.004211
vt 0.500000 0.500000
vn -0.200403 0.979714 0.000000
v 0.152186 0.000000 0.059558
vt 0.500000 0.000000
vn -0.200404 0.979713 -0.000002
v 0.255512 0.021136 0.004211
vt 1.000000 0.500000
vn -0.200409 0.979712 0.000000
v 0.226576 0.015217 0.044060
vt 1.000000 0.000000
vn -0.200404 0.979713 0.000001
v 0.152186 0.000000 -0.051133
vt 0.500000 1.000000
vn -0.200402 0.979714 0.000002
v 0.077792 -0.015217 -0.035635
vt 0.000000 1.000000
vn -0.200390 0.979716 0.000004
v 0.226576 0.015217 -0.035635
vt 1.000000 1.000000
vn -0.200413 0.979711 -0.000001
# Faces (1 to 36)
g pPlane275_0
f -34/-34/-34 -35/-35/-35 -36/-36/-36
f -33/-33/-33 -34/-34/-34 -36/-36/-36
f -32/-32/-32 -34/-34/-34 -33/-33/-33
f -31/-31/-31 -32/-32/-32 -33/-33/-33
f -34/-34/-34 -30/-30/-30 -35/-35/-35
f -30/-30/-30 -29/-29/-29 -35/-35/-35
f -28/-28/-28 -30/-30/-30 -34/-34/-34
f -32/-32/-32 -28/-28/-28 -34/-34/-34
f -25/-25/-25 -26/-26/-26 -27/-27/-27
f -24/-24/-24 -25/-25/-25 -27/-27/-27
f -23/-23/-23 -25/-25/-25 -24/-24/-24
f -22/-22/-22 -23/-23/-23 -24/-24/-24
f -25/-25/-25 -21/-21/-21 -26/-26/-26
f -21/-21/-21 -20/-20/-20 -26/-26/-26
f -19/-19/-19 -21/-21/-21 -25/-25/-25
f -23/-23/-23 -19/-19/-19 -25/-25/-25
f -16/-16/-16 -17/-17/-17 -18/-18/-18
f -15/-15/-15 -16/-16/-16 -18/-18/-18
f -14/-14/-14 -16/-16/-16 -15/-15/-15
f -13/-13/-13 -14/-14/-14 -15/-15/-15
f -16/-16/-16 -12/-12/-12 -17/-17/-17
f -12/-12/-12 -11/-11/-11 -17/-17/-17
f -10/-10/-10 -12/-12/-12 -16/-16/-16
f -14/-14/-14 -10/-10/-10 -16/-16/-16
f -7/-7/-7 -8/-8/-8 -9/-9/-9
f -6/-6/-6 -7/-7/-7 -9/-9/-9
f -5/-5/-5 -7/-7/-7 -6/-6/-6
f -4/-4/-4 -5/-5/-5 -6/-6/-6
f -7/-7/-7 -3/-3/-3 -8/-8/-8
f -3/-3/-3 -2/-2/-2 -8/-8/-8
f -1/-1/-1 -3/-3/-3 -7/-7/-7
f -5/-5/-5 -1/-1/-1 -7/-7/-7

