# Mesh "pPlane1" exported with Unity Assets Bundle Extractor; 4 vertices, 6 indices, 384 bits per vertex
g pPlane1
# SubMesh 0
# Vertices
v -0.500000 -0.000000 0.500000
vt 0.019966 0.019219
vn -0.000000 1.000000 0.000000
v -0.500000 0.000000 -0.500000
vt 0.019966 0.980781
vn -0.000000 1.000000 0.000000
v 0.141260 0.000000 -0.500000
vt 0.645018 0.980781
vn -0.000000 1.000000 0.000000
v 0.141260 -0.000000 0.500000
vt 0.645018 0.019219
vn -0.000000 1.000000 0.000000
# Faces (1 to 4)
g pPlane1_0
f -2/-2/-2 -3/-3/-3 -4/-4/-4
f -1/-1/-1 -2/-2/-2 -4/-4/-4

