# Mesh "Snow_Flat" exported with Unity Assets Bundle Extractor; 4 vertices, 6 indices, 384 bits per vertex
g Snow_Flat
# SubMesh 0
# Vertices
v 50.000004 9.216696 50.000000
vt 1.000000 1.000000
vn -0.000000 1.000000 0.000000
v -49.999996 9.216696 50.000000
vt 1.000000 0.000000
vn -0.000000 1.000000 0.000000
v -49.999996 9.216696 -50.000000
vt 0.000000 0.000000
vn -0.000000 1.000000 0.000000
v 50.000004 9.216696 -50.000000
vt 0.000000 1.000000
vn -0.000000 1.000000 0.000000
# Faces (1 to 4)
g Snow_Flat_0
f -2/-2/-2 -3/-3/-3 -4/-4/-4
f -1/-1/-1 -2/-2/-2 -4/-4/-4

