# Mesh "Tabletop" exported with Unity Assets Bundle Extractor; 20 vertices, 30 indices, 384 bits per vertex
g Tabletop
# SubMesh 0
# Vertices
v -2.969308 -0.057248 1.011742
vt 0.001575 0.998008
vn -0.000000 0.000000 1.000000
v -2.969308 0.057248 1.011742
vt 0.020778 0.998008
vn -0.000000 0.000000 1.000000
v 2.969308 0.057248 1.011742
vt 0.020778 0.001992
vn -0.000000 0.000000 1.000000
v 2.969308 -0.057248 1.011742
vt 0.001575 0.001992
vn -0.000000 0.000000 1.000000
v -2.969308 0.057248 1.011742
vt 0.027000 0.998008
vn -0.000000 1.000000 0.000000
v -2.969308 0.057248 -1.011742
vt 0.366376 0.998008
vn -0.000000 1.000000 0.000000
v 2.969308 0.057248 -1.011742
vt 0.366376 0.001992
vn -0.000000 1.000000 0.000000
v 2.969308 0.057248 1.011742
vt 0.027000 0.001992
vn -0.000000 1.000000 0.000000
v -2.969308 0.057248 -1.011742
vt 0.373211 0.998008
vn -0.000000 0.000000 -1.000000
v -2.969308 -0.057248 -1.011742
vt 0.392414 0.998008
vn -0.000000 0.000000 -1.000000
v 2.969308 -0.057248 -1.011742
vt 0.392414 0.001992
vn -0.000000 0.000000 -1.000000
v 2.969308 0.057248 -1.011742
vt 0.373211 0.001992
vn -0.000000 0.000000 -1.000000
v 2.969308 -0.057248 1.011742
vt 0.427776 0.341368
vn 1.000000 0.000000 0.000000
v 2.969308 0.057248 1.011742
vt 0.446979 0.341368
vn 1.000000 0.000000 0.000000
v 2.969308 0.057248 -1.011742
vt 0.446979 0.001992
vn 1.000000 0.000000 0.000000
v 2.969308 -0.057248 -1.011742
vt 0.427776 0.001992
vn 1.000000 0.000000 0.000000
v -2.969308 -0.057248 -1.011742
vt 0.453021 0.341368
vn -1.000000 0.000000 0.000000
v -2.969308 0.057248 -1.011742
vt 0.472224 0.341368
vn -1.000000 0.000000 0.000000
v -2.969308 0.057248 1.011742
vt 0.472224 0.001992
vn -1.000000 0.000000 0.000000
v -2.969308 -0.057248 1.011742
vt 0.453021 0.001992
vn -1.000000 0.000000 0.000000
# Faces (1 to 20)
g Tabletop_0
f -18/-18/-18 -19/-19/-19 -20/-20/-20
f -17/-17/-17 -18/-18/-18 -20/-20/-20
f -14/-14/-14 -15/-15/-15 -16/-16/-16
f -13/-13/-13 -14/-14/-14 -16/-16/-16
f -10/-10/-10 -11/-11/-11 -12/-12/-12
f -9/-9/-9 -10/-10/-10 -12/-12/-12
f -6/-6/-6 -7/-7/-7 -8/-8/-8
f -5/-5/-5 -6/-6/-6 -8/-8/-8
f -2/-2/-2 -3/-3/-3 -4/-4/-4
f -1/-1/-1 -2/-2/-2 -4/-4/-4

