# Mesh "Throne_Soop" exported with Unity Assets Bundle Extractor; 68 vertices, 192 indices, 384 bits per vertex
g Throne_Soop
# SubMesh 0
# Vertices
v 0.136272 -0.000727 -0.056446
vt -0.000666 0.001606
vn 0.923880 0.000000 -0.382683
v 0.136272 0.383805 -0.056446
vt -0.000666 0.498394
vn 0.923880 0.000000 -0.382683
v 0.104298 0.383805 -0.104298
vt 0.061917 0.498394
vn 0.707107 0.000000 -0.707106
v 0.104298 -0.000727 -0.104298
vt 0.061917 0.001606
vn 0.707107 0.000000 -0.707106
v 0.056446 0.383805 -0.136272
vt 0.124500 0.498394
vn 0.382684 0.000000 -0.923879
v 0.056446 -0.000727 -0.136272
vt 0.124500 0.001606
vn 0.382684 0.000000 -0.923879
v 0.000000 0.383805 -0.147500
vt 0.187083 0.498394
vn 0.000001 0.000000 -1.000000
v 0.000000 -0.000727 -0.147500
vt 0.187083 0.001606
vn 0.000001 0.000000 -1.000000
v -0.056446 0.383805 -0.136272
vt 0.249667 0.498394
vn -0.382683 0.000000 -0.923880
v -0.056446 -0.000727 -0.136272
vt 0.249667 0.001606
vn -0.382683 0.000000 -0.923880
v -0.104298 0.383805 -0.104298
vt 0.312250 0.498394
vn -0.707106 0.000000 -0.707107
v -0.104298 -0.000727 -0.104298
vt 0.312250 0.001606
vn -0.707106 0.000000 -0.707107
v -0.136272 0.383805 -0.056446
vt 0.374833 0.498394
vn -0.923879 0.000000 -0.382684
v -0.136272 -0.000727 -0.056446
vt 0.374833 0.001606
vn -0.923879 0.000000 -0.382684
v -0.147500 0.383805 -0.000000
vt 0.437417 0.498394
vn -1.000000 0.000000 -0.000000
v -0.147500 -0.000727 -0.000000
vt 0.437417 0.001606
vn -1.000000 0.000000 -0.000000
v -0.136272 0.383805 0.056446
vt 0.500000 0.498394
vn -0.923880 0.000000 0.382683
v -0.136272 -0.000727 0.056446
vt 0.500000 0.001606
vn -0.923880 0.000000 0.382683
v -0.104298 0.383805 0.104298
vt 0.562583 0.498394
vn -0.707107 0.000000 0.707107
v -0.104298 -0.000727 0.104298
vt 0.562583 0.001606
vn -0.707107 0.000000 0.707107
v -0.056446 0.383805 0.136272
vt 0.625167 0.498394
vn -0.382684 0.000000 0.923879
v -0.056446 -0.000727 0.136272
vt 0.625167 0.001606
vn -0.382684 0.000000 0.923879
v -0.000000 0.383805 0.147500
vt 0.687750 0.498394
vn -0.000000 0.000000 1.000000
v -0.000000 -0.000727 0.147500
vt 0.687750 0.001606
vn -0.000000 0.000000 1.000000
v 0.056446 0.383805 0.136272
vt 0.750333 0.498394
vn 0.382683 0.000000 0.923880
v 0.056446 -0.000727 0.136272
vt 0.750333 0.001606
vn 0.382683 0.000000 0.923880
v 0.104298 0.383805 0.104298
vt 0.812917 0.498394
vn 0.707107 0.000000 0.707107
v 0.104298 -0.000727 0.104298
vt 0.812917 0.001606
vn 0.707107 0.000000 0.707107
v 0.136272 0.383805 0.056446
vt 0.875500 0.498394
vn 0.923880 0.000000 0.382684
v 0.136272 -0.000727 0.056446
vt 0.875500 0.001606
vn 0.923880 0.000000 0.382684
v 0.147500 0.383805 0.000000
vt 0.938083 0.498394
vn 1.000000 0.000000 0.000000
v 0.147500 -0.000727 0.000000
vt 0.938083 0.001606
vn 1.000000 0.000000 0.000000
v 0.136272 0.383805 -0.056446
vt 1.000666 0.498394
vn 0.923880 0.000000 -0.382683
v 0.136272 -0.000727 -0.056446
vt 1.000666 0.001606
vn 0.923880 0.000000 -0.382683
v 0.104298 -0.000727 -0.104298
vt 0.671950 0.578050
vn -0.000000 -1.000000 0.000000
v -0.000000 -0.000727 0.000000
vt 0.500000 0.740273
vn -0.000000 -1.000000 0.000000
v 0.136272 -0.000727 -0.056446
vt 0.724663 0.656942
vn -0.000000 -1.000000 0.000000
v 0.056446 -0.000727 -0.136272
vt 0.593059 0.525337
vn -0.000000 -1.000000 0.000000
v 0.000000 -0.000727 -0.147500
vt 0.500000 0.506826
vn -0.000000 -1.000000 0.000000
v -0.056446 -0.000727 -0.136272
vt 0.406942 0.525337
vn -0.000000 -1.000000 0.000000
v -0.104298 -0.000727 -0.104298
vt 0.328050 0.578050
vn -0.000000 -1.000000 0.000000
v -0.136272 -0.000727 -0.056446
vt 0.275337 0.656941
vn -0.000000 -1.000000 0.000000
v -0.147500 -0.000727 -0.000000
vt 0.256826 0.750000
vn -0.000000 -1.000000 0.000000
v -0.136272 -0.000727 0.056446
vt 0.275337 0.843058
vn -0.000000 -1.000000 0.000000
v -0.104298 -0.000727 0.104298
vt 0.328050 0.921950
vn -0.000000 -1.000000 0.000000
v -0.056446 -0.000727 0.136272
vt 0.406941 0.974663
vn -0.000000 -1.000000 0.000000
v -0.000000 -0.000727 0.147500
vt 0.500000 0.993174
vn -0.000000 -1.000000 0.000000
v 0.056446 -0.000727 0.136272
vt 0.593058 0.974663
vn -0.000000 -1.000000 0.000000
v 0.104298 -0.000727 0.104298
vt 0.671950 0.921950
vn -0.000000 -1.000000 0.000000
v 0.136272 -0.000727 0.056446
vt 0.724663 0.843059
vn -0.000000 -1.000000 0.000000
v 0.147500 -0.000727 0.000000
vt 0.743174 0.750000
vn -0.000000 -1.000000 0.000000
v 0.136272 0.383805 -0.056446
vt 0.724663 0.843059
vn -0.000000 1.000000 0.000000
v -0.000000 0.383805 0.000000
vt 0.500000 0.740273
vn -0.000000 1.000000 0.000000
v 0.104298 0.383805 -0.104298
vt 0.671950 0.921950
vn -0.000000 1.000000 0.000000
v 0.056446 0.383805 -0.136272
vt 0.593058 0.974663
vn -0.000000 1.000000 -0.000000
v 0.000000 0.383805 -0.147500
vt 0.500000 0.993174
vn -0.000000 1.000000 -0.000000
v -0.056446 0.383805 -0.136272
vt 0.406941 0.974663
vn -0.000000 1.000000 0.000000
v -0.104298 0.383805 -0.104298
vt 0.328050 0.921950
vn -0.000000 1.000000 0.000000
v -0.136272 0.383805 -0.056446
vt 0.275337 0.843058
vn -0.000000 1.000000 0.000000
v -0.147500 0.383805 -0.000000
vt 0.256826 0.750000
vn -0.000000 1.000000 0.000000
v -0.136272 0.383805 0.056446
vt 0.275337 0.656941
vn -0.000000 1.000000 0.000000
v -0.104298 0.383805 0.104298
vt 0.328050 0.578050
vn -0.000000 1.000000 0.000000
v -0.056446 0.383805 0.136272
vt 0.406942 0.525337
vn -0.000000 1.000000 0.000000
v -0.000000 0.383805 0.147500
vt 0.500000 0.506826
vn -0.000000 1.000000 0.000000
v 0.056446 0.383805 0.136272
vt 0.593059 0.525337
vn -0.000000 1.000000 -0.000000
v 0.104298 0.383805 0.104298
vt 0.671950 0.578050
vn -0.000000 1.000000 -0.000001
v 0.136272 0.383805 0.056446
vt 0.724663 0.656942
vn -0.000000 1.000000 -0.000000
v 0.147500 0.383805 0.000000
vt 0.743174 0.750000
vn -0.000000 1.000000 0.000000
# Faces (1 to 68)
g Throne_Soop_0
f -66/-66/-66 -67/-67/-67 -68/-68/-68
f -65/-65/-65 -66/-66/-66 -68/-68/-68
f -64/-64/-64 -66/-66/-66 -65/-65/-65
f -63/-63/-63 -64/-64/-64 -65/-65/-65
f -62/-62/-62 -64/-64/-64 -63/-63/-63
f -61/-61/-61 -62/-62/-62 -63/-63/-63
f -60/-60/-60 -62/-62/-62 -61/-61/-61
f -59/-59/-59 -60/-60/-60 -61/-61/-61
f -58/-58/-58 -60/-60/-60 -59/-59/-59
f -57/-57/-57 -58/-58/-58 -59/-59/-59
f -56/-56/-56 -58/-58/-58 -57/-57/-57
f -55/-55/-55 -56/-56/-56 -57/-57/-57
f -54/-54/-54 -56/-56/-56 -55/-55/-55
f -53/-53/-53 -54/-54/-54 -55/-55/-55
f -52/-52/-52 -54/-54/-54 -53/-53/-53
f -51/-51/-51 -52/-52/-52 -53/-53/-53
f -50/-50/-50 -52/-52/-52 -51/-51/-51
f -49/-49/-49 -50/-50/-50 -51/-51/-51
f -48/-48/-48 -50/-50/-50 -49/-49/-49
f -47/-47/-47 -48/-48/-48 -49/-49/-49
f -46/-46/-46 -48/-48/-48 -47/-47/-47
f -45/-45/-45 -46/-46/-46 -47/-47/-47
f -44/-44/-44 -46/-46/-46 -45/-45/-45
f -43/-43/-43 -44/-44/-44 -45/-45/-45
f -42/-42/-42 -44/-44/-44 -43/-43/-43
f -41/-41/-41 -42/-42/-42 -43/-43/-43
f -40/-40/-40 -42/-42/-42 -41/-41/-41
f -39/-39/-39 -40/-40/-40 -41/-41/-41
f -38/-38/-38 -40/-40/-40 -39/-39/-39
f -37/-37/-37 -38/-38/-38 -39/-39/-39
f -36/-36/-36 -38/-38/-38 -37/-37/-37
f -35/-35/-35 -36/-36/-36 -37/-37/-37
f -32/-32/-32 -33/-33/-33 -34/-34/-34
f -34/-34/-34 -33/-33/-33 -31/-31/-31
f -31/-31/-31 -33/-33/-33 -30/-30/-30
f -30/-30/-30 -33/-33/-33 -29/-29/-29
f -29/-29/-29 -33/-33/-33 -28/-28/-28
f -28/-28/-28 -33/-33/-33 -27/-27/-27
f -27/-27/-27 -33/-33/-33 -26/-26/-26
f -26/-26/-26 -33/-33/-33 -25/-25/-25
f -25/-25/-25 -33/-33/-33 -24/-24/-24
f -24/-24/-24 -33/-33/-33 -23/-23/-23
f -23/-23/-23 -33/-33/-33 -22/-22/-22
f -22/-22/-22 -33/-33/-33 -21/-21/-21
f -21/-21/-21 -33/-33/-33 -20/-20/-20
f -20/-20/-20 -33/-33/-33 -19/-19/-19
f -19/-19/-19 -33/-33/-33 -18/-18/-18
f -18/-18/-18 -33/-33/-33 -32/-32/-32
f -15/-15/-15 -16/-16/-16 -17/-17/-17
f -14/-14/-14 -16/-16/-16 -15/-15/-15
f -13/-13/-13 -16/-16/-16 -14/-14/-14
f -12/-12/-12 -16/-16/-16 -13/-13/-13
f -11/-11/-11 -16/-16/-16 -12/-12/-12
f -10/-10/-10 -16/-16/-16 -11/-11/-11
f -9/-9/-9 -16/-16/-16 -10/-10/-10
f -8/-8/-8 -16/-16/-16 -9/-9/-9
f -7/-7/-7 -16/-16/-16 -8/-8/-8
f -6/-6/-6 -16/-16/-16 -7/-7/-7
f -5/-5/-5 -16/-16/-16 -6/-6/-6
f -4/-4/-4 -16/-16/-16 -5/-5/-5
f -3/-3/-3 -16/-16/-16 -4/-4/-4
f -2/-2/-2 -16/-16/-16 -3/-3/-3
f -1/-1/-1 -16/-16/-16 -2/-2/-2
f -17/-17/-17 -16/-16/-16 -1/-1/-1

